<?xml version="1.0" encoding="UTF-8"?>
<svg id="_Слой_1" data-name="Слой 1" xmlns="http://www.w3.org/2000/svg" xmlns:xlink="http://www.w3.org/1999/xlink" viewBox="0 0 1523.15 683.11">
  <defs>
    <style>
      .cls-1 {
        fill: url(#_Безымянный_градиент_4-22);
      }

      .cls-2 {
        fill: url(#_Безымянный_градиент_4-26);
      }

      .cls-3 {
        fill: url(#_Безымянный_градиент_8-20);
      }

      .cls-4 {
        fill: url(#_Безымянный_градиент_4-9);
      }

      .cls-5 {
        fill: url(#_Безымянный_градиент_4-21);
      }

      .cls-6 {
        fill: url(#_Безымянный_градиент_8-5);
      }

      .cls-7 {
        fill: url(#_Безымянный_градиент_4-25);
      }

      .cls-8 {
        fill: url(#_Безымянный_градиент_10-16);
      }

      .cls-9 {
        fill: url(#_Безымянный_градиент_8-9);
      }

      .cls-10 {
        fill: url(#_Безымянный_градиент_4-14);
      }

      .cls-11 {
        fill: url(#_Безымянный_градиент_10-10);
      }

      .cls-12 {
        fill: url(#_Безымянный_градиент_4-15);
      }

      .cls-13 {
        fill: url(#_Безымянный_градиент_4-7);
      }

      .cls-14 {
        fill: url(#_Безымянный_градиент_4-18);
      }

      .cls-15 {
        fill: url(#_Безымянный_градиент_10-2);
      }

      .cls-16 {
        fill: url(#_Безымянный_градиент_4-10);
      }

      .cls-17 {
        fill: url(#_Безымянный_градиент_132);
      }

      .cls-18 {
        fill: url(#_Безымянный_градиент_10-17);
      }

      .cls-19 {
        fill: url(#_Безымянный_градиент_8-14);
      }

      .cls-20 {
        fill: url(#_Безымянный_градиент_10-19);
      }

      .cls-21 {
        fill: url(#_Безымянный_градиент_8-13);
      }

      .cls-22 {
        fill: url(#_Безымянный_градиент_8-11);
      }

      .cls-23 {
        fill: url(#_Безымянный_градиент_8);
      }

      .cls-24 {
        fill: url(#_Безымянный_градиент_8-8);
      }

      .cls-25 {
        fill: url(#_Безымянный_градиент_4-13);
      }

      .cls-26 {
        fill: url(#_Безымянный_градиент_4-2);
      }

      .cls-27 {
        fill: url(#_Безымянный_градиент_8-18);
      }

      .cls-28 {
        fill: url(#_Безымянный_градиент_4-27);
      }

      .cls-29 {
        fill: url(#_Безымянный_градиент_8-22);
      }

      .cls-30 {
        fill: url(#_Безымянный_градиент_10-9);
      }

      .cls-31 {
        fill: url(#_Безымянный_градиент_4-17);
      }

      .cls-32 {
        fill: url(#_Безымянный_градиент_4-23);
      }

      .cls-33 {
        fill: url(#_Безымянный_градиент_4-24);
      }

      .cls-34 {
        fill: url(#_Безымянный_градиент_4-8);
      }

      .cls-35 {
        fill: url(#_Безымянный_градиент_10);
      }

      .cls-36 {
        fill: url(#_Безымянный_градиент_8-21);
      }

      .cls-37 {
        fill: url(#_Безымянный_градиент_10-14);
      }

      .cls-38 {
        fill: url(#_Безымянный_градиент_10-12);
      }

      .cls-39 {
        fill: url(#_Безымянный_градиент_8-4);
      }

      .cls-40 {
        fill: url(#_Безымянный_градиент_8-10);
      }

      .cls-41 {
        fill: url(#_Безымянный_градиент_8-16);
      }

      .cls-42 {
        fill: url(#_Безымянный_градиент_4-11);
      }

      .cls-43 {
        fill: url(#_Безымянный_градиент_10-3);
      }

      .cls-44 {
        fill: url(#_Безымянный_градиент_8-19);
      }

      .cls-45 {
        fill: url(#_Безымянный_градиент_10-6);
      }

      .cls-46 {
        fill: url(#_Безымянный_градиент_8-15);
      }

      .cls-47 {
        fill: url(#_Безымянный_градиент_4);
      }

      .cls-48 {
        fill: url(#_Безымянный_градиент_10-8);
      }

      .cls-49 {
        fill: url(#_Безымянный_градиент_10-7);
      }

      .cls-50 {
        fill: url(#_Безымянный_градиент_10-13);
      }

      .cls-51 {
        fill: url(#_Безымянный_градиент_8-17);
      }

      .cls-52 {
        fill: url(#_Безымянный_градиент_4-4);
      }

      .cls-53 {
        fill: url(#_Безымянный_градиент_8-2);
      }

      .cls-54 {
        fill: url(#_Безымянный_градиент_4-20);
      }

      .cls-55 {
        fill: url(#_Безымянный_градиент_132-2);
      }

      .cls-56 {
        fill: url(#_Безымянный_градиент_4-5);
      }

      .cls-57 {
        fill: url(#_Безымянный_градиент_4-3);
      }

      .cls-58 {
        fill: url(#_Безымянный_градиент_10-20);
      }

      .cls-59 {
        fill: url(#_Безымянный_градиент_4-19);
      }

      .cls-60 {
        fill: url(#_Безымянный_градиент_8-7);
      }

      .cls-61 {
        fill: url(#_Безымянный_градиент_10-18);
      }

      .cls-62 {
        fill: url(#_Безымянный_градиент_10-15);
      }

      .cls-63 {
        fill: url(#_Безымянный_градиент_10-5);
      }

      .cls-64 {
        fill: url(#_Безымянный_градиент_10-11);
      }

      .cls-65 {
        fill: url(#_Безымянный_градиент_8-6);
      }

      .cls-66 {
        fill: url(#_Безымянный_градиент_4-16);
      }

      .cls-67 {
        fill: url(#_Безымянный_градиент_4-6);
      }

      .cls-68 {
        fill: url(#_Безымянный_градиент_8-3);
      }

      .cls-69 {
        fill: url(#_Безымянный_градиент_8-12);
      }

      .cls-70 {
        fill: url(#_Безымянный_градиент_10-21);
      }

      .cls-71 {
        fill: url(#_Безымянный_градиент_8-23);
      }

      .cls-72 {
        fill: url(#_Безымянный_градиент_4-12);
      }

      .cls-73 {
        fill: url(#_Безымянный_градиент_10-4);
      }
    </style>
    <linearGradient id="_Безымянный_градиент_4" data-name="Безымянный градиент 4" x1="262.56" y1="482.85" x2="627.58" y2="472.21" gradientUnits="userSpaceOnUse">
      <stop offset="0" stop-color="#653513"/>
      <stop offset=".06" stop-color="#653513"/>
      <stop offset=".12" stop-color="#7c4f10"/>
      <stop offset=".27" stop-color="#b38c0b"/>
      <stop offset=".39" stop-color="#dab907"/>
      <stop offset=".49" stop-color="#f2d404"/>
      <stop offset=".55" stop-color="#fcdf04"/>
      <stop offset="1" stop-color="#fcdf04"/>
    </linearGradient>
    <linearGradient id="_Безымянный_градиент_4-2" data-name="Безымянный градиент 4" x1="226.98" y1="456.68" x2="204.72" y2="423.72" xlink:href="#_Безымянный_градиент_4"/>
    <radialGradient id="_Безымянный_градиент_10" data-name="Безымянный градиент 10" cx="220.49" cy="450.1" fx="220.49" fy="450.1" r="12.9" gradientUnits="userSpaceOnUse">
      <stop offset="0" stop-color="#31160d"/>
      <stop offset=".54" stop-color="#31160d" stop-opacity=".5"/>
      <stop offset="1" stop-color="#31160d" stop-opacity="0"/>
    </radialGradient>
    <radialGradient id="_Безымянный_градиент_8" data-name="Безымянный градиент 8" cx="217.26" cy="439.15" fx="217.26" fy="439.15" r="13.79" gradientUnits="userSpaceOnUse">
      <stop offset="0" stop-color="#fff" stop-opacity=".85"/>
      <stop offset=".45" stop-color="#fff" stop-opacity=".5"/>
      <stop offset="1" stop-color="#fff" stop-opacity="0"/>
    </radialGradient>
    <linearGradient id="_Безымянный_градиент_4-3" data-name="Безымянный градиент 4" x1="286.08" y1="411.49" x2="266.03" y2="377.64" xlink:href="#_Безымянный_градиент_4"/>
    <radialGradient id="_Безымянный_градиент_10-2" data-name="Безымянный градиент 10" cx="283.11" cy="406.44" fx="283.11" fy="406.44" r="31.43" xlink:href="#_Безымянный_градиент_10"/>
    <radialGradient id="_Безымянный_градиент_8-2" data-name="Безымянный градиент 8" cx="283.08" cy="406.44" fx="283.08" fy="406.44" r="31.43" xlink:href="#_Безымянный_градиент_8"/>
    <linearGradient id="_Безымянный_градиент_4-4" data-name="Безымянный градиент 4" x1="387.82" y1="341.4" x2="355.82" y2="312.29" xlink:href="#_Безымянный_градиент_4"/>
    <radialGradient id="_Безымянный_градиент_8-3" data-name="Безымянный градиент 8" cx="370.97" cy="326.07" fx="370.97" fy="326.07" r="46.82" xlink:href="#_Безымянный_градиент_8"/>
    <radialGradient id="_Безымянный_градиент_10-3" data-name="Безымянный градиент 10" cx="370.78" cy="326.35" fx="370.78" fy="326.35" r="46.82" xlink:href="#_Безымянный_градиент_10"/>
    <linearGradient id="_Безымянный_градиент_4-5" data-name="Безымянный градиент 4" x1="313.49" y1="445.15" x2="315.09" y2="419.32" xlink:href="#_Безымянный_градиент_4"/>
    <radialGradient id="_Безымянный_градиент_8-4" data-name="Безымянный градиент 8" cx="313.87" cy="436.1" fx="313.87" fy="436.1" r="42.79" xlink:href="#_Безымянный_градиент_8"/>
    <radialGradient id="_Безымянный_градиент_10-4" data-name="Безымянный градиент 10" cx="313.96" cy="438.97" fx="313.96" fy="438.97" r="42.68" xlink:href="#_Безымянный_градиент_10"/>
    <linearGradient id="_Безымянный_градиент_4-6" data-name="Безымянный градиент 4" x1="428.75" y1="254.66" x2="402.77" y2="247.2" xlink:href="#_Безымянный_градиент_4"/>
    <radialGradient id="_Безымянный_градиент_8-5" data-name="Безымянный градиент 8" cx="420.53" cy="252.7" fx="420.53" fy="252.7" r="13.42" xlink:href="#_Безымянный_градиент_8"/>
    <radialGradient id="_Безымянный_градиент_10-5" data-name="Безымянный градиент 10" cx="421.94" cy="252.7" fx="421.94" fy="252.7" r="13.11" xlink:href="#_Безымянный_градиент_10"/>
    <linearGradient id="_Безымянный_градиент_4-7" data-name="Безымянный градиент 4" x1="117.83" y1="348.54" x2="411.47" y2="348.54" xlink:href="#_Безымянный_градиент_4"/>
    <linearGradient id="_Безымянный_градиент_4-8" data-name="Безымянный градиент 4" x1="8468.01" y1="-9629.07" x2="8445.75" y2="-9662.03" gradientTransform="translate(13492.67 909.01) rotate(-129.07)" xlink:href="#_Безымянный_градиент_4"/>
    <radialGradient id="_Безымянный_градиент_10-6" data-name="Безымянный градиент 10" cx="8461.52" cy="-9635.66" fx="8461.52" fy="-9635.66" r="12.9" gradientTransform="translate(13492.67 909.01) rotate(-129.07)" xlink:href="#_Безымянный_градиент_10"/>
    <radialGradient id="_Безымянный_градиент_8-6" data-name="Безымянный градиент 8" cx="8458.3" cy="-9646.61" fx="8458.3" fy="-9646.61" r="13.79" gradientTransform="translate(13492.67 909.01) rotate(-129.07)" xlink:href="#_Безымянный_градиент_8"/>
    <linearGradient id="_Безымянный_градиент_4-9" data-name="Безымянный градиент 4" x1="4732.65" y1="-9523.67" x2="4712.59" y2="-9557.51" gradientTransform="translate(10863.41 3233.03) rotate(-100.79)" xlink:href="#_Безымянный_градиент_4"/>
    <radialGradient id="_Безымянный_градиент_10-7" data-name="Безымянный градиент 10" cx="4729.67" cy="-9528.71" fx="4729.67" fy="-9528.71" r="31.43" gradientTransform="translate(10863.41 3233.03) rotate(-100.79)" xlink:href="#_Безымянный_градиент_10"/>
    <radialGradient id="_Безымянный_градиент_8-7" data-name="Безымянный градиент 8" cx="4729.64" cy="-9528.71" fx="4729.64" fy="-9528.71" r="31.43" gradientTransform="translate(10863.41 3233.03) rotate(-100.79)" xlink:href="#_Безымянный_градиент_8"/>
    <linearGradient id="_Безымянный_градиент_4-10" data-name="Безымянный градиент 4" x1="-93.35" y1="-4275.41" x2="-125.35" y2="-4304.52" gradientTransform="translate(3333.11 3568.17) rotate(-38.25)" xlink:href="#_Безымянный_градиент_4"/>
    <radialGradient id="_Безымянный_градиент_8-8" data-name="Безымянный градиент 8" cx="-110.21" cy="-4290.74" fx="-110.21" fy="-4290.74" r="46.82" gradientTransform="translate(3333.11 3568.17) rotate(-38.25)" xlink:href="#_Безымянный_градиент_8"/>
    <radialGradient id="_Безымянный_градиент_10-8" data-name="Безымянный градиент 10" cx="-110.39" cy="-4290.47" fx="-110.39" fy="-4290.47" r="46.82" gradientTransform="translate(3333.11 3568.17) rotate(-38.25)" xlink:href="#_Безымянный_градиент_10"/>
    <linearGradient id="_Безымянный_градиент_4-11" data-name="Безымянный градиент 4" x1="4375.17" y1="3825.07" x2="4376.77" y2="3799.24" gradientTransform="translate(-29.88 -5300.9) rotate(41.89)" xlink:href="#_Безымянный_градиент_4"/>
    <radialGradient id="_Безымянный_градиент_8-9" data-name="Безымянный градиент 8" cx="4375.55" cy="3816.03" fx="4375.55" fy="3816.03" r="42.79" gradientTransform="translate(-29.88 -5300.9) rotate(41.89)" xlink:href="#_Безымянный_градиент_8"/>
    <radialGradient id="_Безымянный_градиент_10-9" data-name="Безымянный градиент 10" cx="4375.64" cy="3818.9" fx="4375.64" fy="3818.9" r="42.68" gradientTransform="translate(-29.88 -5300.9) rotate(41.89)" xlink:href="#_Безымянный_градиент_10"/>
    <linearGradient id="_Безымянный_градиент_4-12" data-name="Безымянный градиент 4" x1="605.03" y1="178.65" x2="579.04" y2="171.19" xlink:href="#_Безымянный_градиент_4"/>
    <radialGradient id="_Безымянный_градиент_8-10" data-name="Безымянный градиент 8" cx="596.8" cy="176.69" fx="596.8" fy="176.69" r="13.42" xlink:href="#_Безымянный_градиент_8"/>
    <radialGradient id="_Безымянный_градиент_10-10" data-name="Безымянный градиент 10" cx="598.21" cy="176.69" fx="598.21" fy="176.69" r="13.11" xlink:href="#_Безымянный_градиент_10"/>
    <linearGradient id="_Безымянный_градиент_4-13" data-name="Безымянный градиент 4" x1="560.68" y1="491.25" x2="558.12" y2="312.9" xlink:href="#_Безымянный_градиент_4"/>
    <radialGradient id="_Безымянный_градиент_132" data-name="Безымянный градиент 132" cx="562.55" cy="480.21" fx="562.55" fy="480.21" r="91.09" gradientUnits="userSpaceOnUse">
      <stop offset=".36" stop-color="#31160d"/>
      <stop offset=".54" stop-color="#31160d" stop-opacity=".5"/>
      <stop offset=".65" stop-color="#31160d" stop-opacity="0"/>
    </radialGradient>
    <radialGradient id="_Безымянный_градиент_8-11" data-name="Безымянный градиент 8" cx="558.67" cy="375.84" fx="558.67" fy="375.84" r="67.25" xlink:href="#_Безымянный_градиент_8"/>
    <linearGradient id="_Безымянный_градиент_4-14" data-name="Безымянный градиент 4" x1="9542.09" y1="-1751.62" x2="9566.38" y2="-1791.23" gradientTransform="translate(10276.41 -2354.62) rotate(154.03) scale(1 -1)" xlink:href="#_Безымянный_градиент_4"/>
    <radialGradient id="_Безымянный_градиент_8-12" data-name="Безымянный градиент 8" cx="11077.25" cy="-3963.24" fx="11077.25" fy="-3963.24" r="11.45" gradientTransform="translate(7945.36 -9194.23) rotate(146.4)" xlink:href="#_Безымянный_градиент_8"/>
    <radialGradient id="_Безымянный_градиент_10-11" data-name="Безымянный градиент 10" cx="11074.38" cy="-3972.96" fx="11074.38" fy="-3972.96" r="12.24" gradientTransform="translate(7945.36 -9194.23) rotate(146.4)" xlink:href="#_Безымянный_градиент_10"/>
    <linearGradient id="_Безымянный_градиент_4-15" data-name="Безымянный градиент 4" x1="9741.32" y1="-5317.94" x2="9719.67" y2="-5354.49" gradientTransform="translate(2023.87 -10726.61) rotate(67.17) scale(1 -1)" xlink:href="#_Безымянный_градиент_4"/>
    <radialGradient id="_Безымянный_градиент_10-12" data-name="Безымянный градиент 10" cx="9738.11" cy="-5323.4" fx="9738.11" fy="-5323.4" r="33.93" gradientTransform="translate(2023.87 -10726.61) rotate(67.17) scale(1 -1)" xlink:href="#_Безымянный_градиент_10"/>
    <radialGradient id="_Безымянный_градиент_8-13" data-name="Безымянный градиент 8" cx="9738.08" cy="-5323.4" fx="9738.08" fy="-5323.4" r="33.94" gradientTransform="translate(2023.87 -10726.61) rotate(67.17) scale(1 -1)" xlink:href="#_Безымянный_градиент_8"/>
    <linearGradient id="_Безымянный_градиент_4-16" data-name="Безымянный градиент 4" x1="9913.2" y1="-1165.64" x2="9877.33" y2="-1198.27" gradientTransform="translate(10507.03 -2012.2) rotate(159.54) scale(1 -1)" xlink:href="#_Безымянный_градиент_4"/>
    <radialGradient id="_Безымянный_градиент_8-14" data-name="Безымянный градиент 8" cx="9894.3" cy="-1182.82" fx="9894.3" fy="-1182.82" r="52.48" gradientTransform="translate(10507.03 -2012.2) rotate(159.54) scale(1 -1)" xlink:href="#_Безымянный_градиент_8"/>
    <radialGradient id="_Безымянный_градиент_10-13" data-name="Безымянный градиент 10" cx="9894.09" cy="-1182.51" fx="9894.09" fy="-1182.51" r="52.48" gradientTransform="translate(10507.03 -2012.2) rotate(159.54) scale(1 -1)" xlink:href="#_Безымянный_градиент_10"/>
    <linearGradient id="_Безымянный_градиент_4-17" data-name="Безымянный градиент 4" x1="7685.02" y1="2922.46" x2="7681.27" y2="2903.06" gradientTransform="translate(8443.73 3351.55) rotate(-136.82) scale(1 -1)" xlink:href="#_Безымянный_градиент_4"/>
    <radialGradient id="_Безымянный_градиент_10-14" data-name="Безымянный градиент 10" cx="7051.99" cy="-10190.36" fx="7051.99" fy="-10190.36" r="38.81" gradientTransform="translate(5495.77 -11268.93) rotate(56.72) scale(1 -1)" xlink:href="#_Безымянный_градиент_10"/>
    <radialGradient id="_Безымянный_градиент_8-15" data-name="Безымянный градиент 8" cx="7052.07" cy="-10187.75" fx="7052.07" fy="-10187.75" r="38.71" gradientTransform="translate(5495.77 -11268.93) rotate(56.72) scale(1 -1)" xlink:href="#_Безымянный_градиент_8"/>
    <linearGradient id="_Безымянный_градиент_4-18" data-name="Безымянный градиент 4" x1="6182.77" y1="3536.33" x2="6179.02" y2="3516.93" gradientTransform="translate(6960.51 4120.95) rotate(-118.19) scale(1 -1)" xlink:href="#_Безымянный_градиент_4"/>
    <radialGradient id="_Безымянный_градиент_10-15" data-name="Безымянный градиент 10" cx="8656.18" cy="-10435.59" fx="8656.18" fy="-10435.59" r="38.81" gradientTransform="translate(8837.31 -10675.23) rotate(75.35) scale(1 -1)" xlink:href="#_Безымянный_градиент_10"/>
    <radialGradient id="_Безымянный_градиент_8-16" data-name="Безымянный градиент 8" cx="8656.26" cy="-10432.99" fx="8656.26" fy="-10432.99" r="38.71" gradientTransform="translate(8837.31 -10675.23) rotate(75.35) scale(1 -1)" xlink:href="#_Безымянный_градиент_8"/>
    <linearGradient id="_Безымянный_градиент_4-19" data-name="Безымянный градиент 4" x1="9736.4" y1="-1802.18" x2="9709.01" y2="-1810.04" gradientTransform="translate(10276.41 -2354.62) rotate(154.03) scale(1 -1)" xlink:href="#_Безымянный_градиент_4"/>
    <radialGradient id="_Безымянный_градиент_8-17" data-name="Безымянный градиент 8" cx="9727.73" cy="-1804.24" fx="9727.73" fy="-1804.24" r="14.14" gradientTransform="translate(10276.41 -2354.62) rotate(154.03) scale(1 -1)" xlink:href="#_Безымянный_градиент_8"/>
    <radialGradient id="_Безымянный_градиент_10-16" data-name="Безымянный градиент 10" cx="9729.22" cy="-1804.24" fx="9729.22" fy="-1804.24" r="13.81" gradientTransform="translate(10276.41 -2354.62) rotate(154.03) scale(1 -1)" xlink:href="#_Безымянный_градиент_10"/>
    <linearGradient id="_Безымянный_градиент_4-20" data-name="Безымянный градиент 4" x1="904.04" y1="523.62" x2="900.97" y2="309.61" gradientTransform="translate(-2.64 -22.96) rotate(.25)" xlink:href="#_Безымянный_градиент_4"/>
    <radialGradient id="_Безымянный_градиент_132-2" data-name="Безымянный градиент 132" cx="926.2" cy="520.93" fx="926.2" fy="520.93" r="164.37" xlink:href="#_Безымянный_градиент_132"/>
    <linearGradient id="_Безымянный_градиент_4-21" data-name="Безымянный градиент 4" x1="673.29" y1="408.31" x2="670.23" y2="194.29" gradientTransform="translate(-2.64 -22.96) rotate(.25)" xlink:href="#_Безымянный_градиент_4"/>
    <radialGradient id="_Безымянный_градиент_8-18" data-name="Безымянный градиент 8" cx="900.48" cy="443.39" fx="900.48" fy="443.39" r="48.95" gradientTransform="translate(-2.64 -22.96) rotate(.25)" xlink:href="#_Безымянный_градиент_8"/>
    <linearGradient id="_Безымянный_градиент_4-22" data-name="Безымянный градиент 4" x1="14212.35" y1="-5359.53" x2="14175.86" y2="-5392.73" gradientTransform="translate(15662.04 -4051.07) rotate(142.39) scale(1 -1)" xlink:href="#_Безымянный_градиент_4"/>
    <radialGradient id="_Безымянный_градиент_8-19" data-name="Безымянный градиент 8" cx="14193.13" cy="-5377.02" fx="14193.13" fy="-5377.02" r="53.39" gradientTransform="translate(15662.04 -4051.07) rotate(142.39) scale(1 -1)" xlink:href="#_Безымянный_градиент_8"/>
    <radialGradient id="_Безымянный_градиент_10-17" data-name="Безымянный градиент 10" cx="14192.92" cy="-5376.7" fx="14192.92" fy="-5376.7" r="53.39" gradientTransform="translate(15662.04 -4051.07) rotate(142.39) scale(1 -1)" xlink:href="#_Безымянный_градиент_10"/>
    <linearGradient id="_Безымянный_градиент_4-23" data-name="Безымянный градиент 4" x1="1855.9" y1="3294.07" x2="1827.86" y2="3286.02" gradientTransform="translate(3123.44 3478.49) rotate(-62.86) scale(1 -1)" xlink:href="#_Безымянный_градиент_4"/>
    <radialGradient id="_Безымянный_градиент_8-20" data-name="Безымянный градиент 8" cx="1847.03" cy="3291.96" fx="1847.03" fy="3291.96" r="14.48" gradientTransform="translate(3123.44 3478.49) rotate(-62.86) scale(1 -1)" xlink:href="#_Безымянный_градиент_8"/>
    <radialGradient id="_Безымянный_градиент_10-18" data-name="Безымянный градиент 10" cx="1037.34" cy="331.7" fx="1037.34" fy="331.7" r="14.14" xlink:href="#_Безымянный_градиент_10"/>
    <linearGradient id="_Безымянный_градиент_4-24" data-name="Безымянный градиент 4" x1="1824.72" y1="-8019.9" x2="1826.43" y2="-8047.34" gradientTransform="translate(9372.78 1852.71) rotate(-92.19)" xlink:href="#_Безымянный_градиент_4"/>
    <radialGradient id="_Безымянный_градиент_8-21" data-name="Безымянный градиент 8" cx="1825.13" cy="-8029.51" fx="1825.13" fy="-8029.51" r="45.46" gradientTransform="translate(9372.78 1852.71) rotate(-92.19)" xlink:href="#_Безымянный_градиент_8"/>
    <radialGradient id="_Безымянный_градиент_10-19" data-name="Безымянный градиент 10" cx="1825.23" cy="-8026.46" fx="1825.23" fy="-8026.46" r="45.34" gradientTransform="translate(9372.78 1852.71) rotate(-92.19)" xlink:href="#_Безымянный_градиент_10"/>
    <linearGradient id="_Безымянный_градиент_4-25" data-name="Безымянный градиент 4" x1="15343.05" y1="442.79" x2="15321.49" y2="406.38" gradientTransform="translate(16372.59 3016.25) rotate(-168.56) scale(1 -1)" xlink:href="#_Безымянный_градиент_4"/>
    <radialGradient id="_Безымянный_градиент_10-20" data-name="Безымянный градиент 10" cx="15339.86" cy="437.36" fx="15339.86" fy="437.36" r="33.8" gradientTransform="translate(16372.59 3016.25) rotate(-168.56) scale(1 -1)" xlink:href="#_Безымянный_градиент_10"/>
    <radialGradient id="_Безымянный_градиент_8-22" data-name="Безымянный градиент 8" cx="15339.82" cy="437.36" fx="15339.82" fy="437.36" r="33.81" gradientTransform="translate(16372.59 3016.25) rotate(-168.56) scale(1 -1)" xlink:href="#_Безымянный_градиент_8"/>
    <linearGradient id="_Безымянный_градиент_4-26" data-name="Безымянный градиент 4" x1="10165.24" y1="3162.98" x2="10136.97" y2="3125.8" gradientTransform="translate(9950.18 -5703.11) rotate(127.31)" xlink:href="#_Безымянный_градиент_4"/>
    <radialGradient id="_Безымянный_градиент_8-23" data-name="Безымянный градиент 8" cx="6319.15" cy="-10626.11" fx="6319.15" fy="-10626.11" r="13.49" gradientTransform="translate(8672.11 10385.48) rotate(-67.38)" xlink:href="#_Безымянный_градиент_8"/>
    <radialGradient id="_Безымянный_градиент_10-21" data-name="Безымянный градиент 10" cx="6315.77" cy="-10637.56" fx="6315.77" fy="-10637.56" r="14.42" gradientTransform="translate(8672.11 10385.48) rotate(-67.38)" xlink:href="#_Безымянный_градиент_10"/>
    <linearGradient id="_Безымянный_градиент_4-27" data-name="Безымянный градиент 4" x1="1374.94" y1="157.63" x2="1097.02" y2="538.75" xlink:href="#_Безымянный_градиент_4"/>
  </defs>
  <g>
    <path class="cls-47" d="m118.11,500.22c37.07-14.19,96.87-31.75,171.76-30.98,56.61.58,103.37,11.45,136.36,21.94-39-6.32-85.29-10.93-137.36-10.49-66.8.56-124.63,9.25-170.77,19.53Z"/>
    <path class="cls-26" d="m235.01,434.34c3.56,4.72-.88,14.83-7.26,20.04-5.47,4.46-14.8,7.31-21.78,2.96-3.27-2.04-7.25-6.43-6.67-11.16.77-6.18,8.84-9.19,14.08-11.14,3.28-1.22,17.29-6.44,21.63-.69Z"/>
    <path class="cls-35" d="m236.1,440.66c-.52,2.37-2.29,8.93-8.34,13.71-.54.43-10.09,7.74-19.31,4.19-1.58-.61-2.77-1.39-3.56-1.98,3.15.73,8.96,1.55,15.17-.84,3.37-1.3,5.67-3.08,7.1-4.21,4.81-3.8,7.52-8.13,8.95-10.86Z"/>
    <path class="cls-23" d="m235.28,434.72c-5.54-.54-10.02,0-13.06.62-9.48,1.9-16.42,6.63-20.39,9.38-1.09.76-1.97,1.42-2.57,1.88.13-.95.46-2.45,1.44-3.97.93-1.43,2.04-2.26,3.01-2.92,3.25-2.2,6.58-3.56,9.68-4.68,2.56-.92,4.97-1.78,8.35-2.56,1.63-.37,5.28-1.14,8.71-.59,1.46.23,2.74.68,3.81,1.65.48.44.81.87,1.01,1.19Z"/>
    <path class="cls-57" d="m320.2,381.98c-24.74,16.31-49.48,32.61-74.21,48.92-.19-5.62.41-14.86,6.19-22.9,2.6-3.62,7.73-9.04,33.78-17.29,8.32-2.63,19.96-5.93,34.24-8.73Z"/>
    <path class="cls-15" d="m320.22,381.98c-24.74,16.31-49.48,32.61-74.21,48.92,13.11-9.91,27.44-20,43.01-30.01,10.65-6.85,21.08-13.13,31.21-18.91Z"/>
    <path class="cls-53" d="m320.2,381.98c-11.15,2.26-20,5.15-25.98,7.36-17.86,6.59-35.8,13.21-44.27,29.68-2.47,4.8-3.49,9.19-3.96,11.88-.19-5.62.41-14.86,6.19-22.9,2.6-3.62,7.73-9.04,33.78-17.29,8.32-2.63,19.96-5.93,34.24-8.73Z"/>
    <path class="cls-52" d="m414.42,276.11c-28.97,33.31-57.94,66.62-86.91,99.93,3.36-.03,8.52-.38,14.42-2.21,14.11-4.36,24.7-14.75,44.89-47.68,7.77-12.67,17.46-29.5,27.6-50.04Z"/>
    <path class="cls-68" d="m414.42,276.11c-28.97,33.31-57.94,66.62-86.91,99.93,14.76-14.24,30.23-30.31,45.9-48.35,15.48-17.81,29.09-35.16,41.01-51.58Z"/>
    <path class="cls-43" d="m414.23,276.38c-.16-.08-8.02,16.1-22.44,40.09-22.86,38.03-34.65,49.82-49.93,55.94-5.93,2.38-11.14,3.4-14.54,3.89,3.36-.03,8.52-.38,14.42-2.21,14.11-4.36,24.7-14.75,44.89-47.68,16.58-27.05,27.8-49.94,27.6-50.04Z"/>
    <path class="cls-56" d="m374.19,440.95c-40.22-1.31-80.43-2.62-120.65-3.93,14.86-3.3,34.31-6.16,57.1-5.74,25.99.48,47.7,5.05,63.55,9.67Z"/>
    <path class="cls-39" d="m374.19,440.95c-16.29-3.91-36.91-7.42-60.88-8.14-23.3-.7-43.57,1.42-59.77,4.21,14.86-3.3,34.31-6.16,57.1-5.74,25.99.48,47.7,5.05,63.55,9.67Z"/>
    <path class="cls-73" d="m374.28,441.02c-40.22-1.31-80.43-2.62-120.65-3.93,18.22-.3,37.2-.21,56.88.37,22.2.66,43.48,1.89,63.77,3.55Z"/>
    <path class="cls-67" d="m427.09,234.89c-3.43,11.87-6.87,23.74-10.3,35.61-1.28-2.49-2.39-5.57-2.72-9.17-1.34-14.6,11.35-25.1,13.02-26.44Z"/>
    <path class="cls-6" d="m427.09,234.89c-2.45,2.43-7.47,8.08-9.91,16.97-2.28,8.31-1.16,15.29-.39,18.64-1.28-2.49-2.39-5.57-2.72-9.17-1.34-14.6,11.35-25.1,13.02-26.44Z"/>
    <path class="cls-63" d="m427.09,234.89c-3.43,11.87-6.87,23.74-10.3,35.61.3-2.91.73-5.98,1.35-9.17,2.04-10.52,5.46-19.39,8.95-26.44Z"/>
    <path class="cls-13" d="m118.11,460.23c-.11,0-.21-.06-.26-.16-.07-.14,0-.31.14-.38,56.11-26.07,109.52-58.28,158.76-95.73,49.07-37.34,94.23-80.07,134.22-127.01.1-.12.28-.13.4-.03.12.1.13.28.03.4-40.02,46.97-85.2,89.73-134.31,127.09-49.27,37.48-102.72,69.71-158.86,95.8-.04.02-.08.03-.12.03Z"/>
  </g>
  <g>
    <path class="cls-34" d="m657.38,410.51c1.42-5.73,12.07-8.66,20.13-6.99,6.91,1.43,15,6.89,16.02,15.04.48,3.83-.42,9.68-4.46,12.21-5.28,3.3-12.71-1.07-17.52-3.91-3.02-1.78-15.9-9.36-14.17-16.35Z"/>
    <path class="cls-45" d="m661.6,405.68c2.17-1.09,8.38-3.85,15.91-2.16.68.15,12.37,2.95,15.42,12.36.52,1.61.67,3.03.7,4.01-1.42-2.91-4.44-7.93-10.22-11.25-3.14-1.8-5.97-2.46-7.74-2.86-5.98-1.34-11.05-.72-14.07-.1Z"/>
    <path class="cls-65" d="m657.51,410.07c3.07,4.65,6.32,7.77,8.71,9.75,7.45,6.16,15.49,8.57,20.14,9.92,1.27.37,2.34.64,3.08.81-.82.5-2.19,1.19-3.99,1.38-1.69.18-3.04-.16-4.17-.5-3.75-1.14-6.91-2.86-9.73-4.56-2.33-1.41-4.52-2.74-7.25-4.87-1.32-1.03-4.22-3.38-5.95-6.39-.74-1.28-1.2-2.56-1.12-4,.04-.65.17-1.18.28-1.53Z"/>
    <path class="cls-4" d="m586.53,339.8c20.65,21.25,41.3,42.49,61.95,63.74-5.49,1.24-14.67,2.38-23.65-1.79-4.05-1.88-10.33-5.9-23.31-29.95-4.14-7.68-9.56-18.49-14.99-32Z"/>
    <path class="cls-49" d="m586.52,339.78c20.65,21.25,41.3,42.49,61.95,63.74-12.19-11.03-24.79-23.21-37.53-36.62-8.72-9.18-16.85-18.25-24.42-27.12Z"/>
    <path class="cls-60" d="m586.53,339.8c4.31,10.53,8.81,18.68,12.1,24.14,9.82,16.31,19.68,32.69,37.44,37.93,5.18,1.53,9.68,1.71,12.41,1.67-5.49,1.24-14.67,2.38-23.65-1.79-4.05-1.88-10.33-5.9-23.31-29.95-4.14-7.68-9.56-18.49-14.99-32Z"/>
    <path class="cls-16" d="m593.13,200.87c-2.12,44.09-4.25,88.19-6.37,132.28,2.62-2.1,6.45-5.58,9.95-10.66,8.38-12.16,10.27-26.88,5.73-65.24-1.75-14.76-4.56-33.98-9.31-56.38Z"/>
    <path class="cls-24" d="m593.13,200.87c-2.12,44.09-4.25,88.19-6.37,132.28,2.78-20.32,4.97-42.52,6.11-66.38,1.12-23.57,1.07-45.62.27-65.9Z"/>
    <path class="cls-48" d="m593.15,201.21c-.18.03,3.67,17.61,7.2,45.38,5.6,44.02,3.64,60.58-4.57,74.84-3.19,5.54-6.65,9.57-9.01,12.06,2.62-2.1,6.45-5.58,9.95-10.66,8.38-12.16,10.27-26.88,5.73-65.24-3.73-31.5-9.09-56.43-9.31-56.38Z"/>
    <path class="cls-42" d="m721.21,505.31c-29.06-27.83-58.13-55.65-87.19-83.48,13.26,7.46,29.65,18.32,46.34,33.85,19.03,17.71,32.14,35.61,40.86,49.63Z"/>
    <path class="cls-9" d="m721.21,505.31c-9.51-13.79-22.52-30.17-39.89-46.71-16.88-16.08-33.39-28.04-47.31-36.77,13.27,7.47,29.65,18.33,46.34,33.85,19.03,17.71,32.14,35.61,40.86,49.63Z"/>
    <path class="cls-30" d="m721.23,505.42c-29.06-27.83-58.13-55.65-87.19-83.48,13.76,11.94,27.83,24.68,42.09,38.25,16.09,15.31,31.1,30.44,45.1,45.22Z"/>
    <path class="cls-72" d="m603.36,158.89c-3.43,11.87-6.87,23.74-10.3,35.61-1.28-2.49-2.39-5.57-2.72-9.17-1.34-14.6,11.35-25.1,13.02-26.44Z"/>
    <path class="cls-40" d="m603.36,158.89c-2.45,2.43-7.47,8.08-9.91,16.97-2.28,8.31-1.16,15.29-.39,18.64-1.28-2.49-2.39-5.57-2.72-9.17-1.34-14.6,11.35-25.1,13.02-26.44Z"/>
    <path class="cls-11" d="m603.36,158.89c-3.43,11.87-6.87,23.74-10.3,35.61.3-2.91.73-5.98,1.35-9.17,2.04-10.52,5.46-19.39,8.95-26.44Z"/>
    <path class="cls-25" d="m499.79,508.09c-9.46-36.49-2.69-72.19,19.57-91.41,3.26-2.82,14.75-12.47,32.2-14.62,27.58-3.39,47.91,14.66,52.02,18.58,20.52,19.56,26.87,51.84,17.42,83.15,3.03-38.75-27.89-70.35-61.52-70.02-34.7.34-65.55,34.59-59.7,74.32Z"/>
    <path class="cls-17" d="m499.83,508.13c-7.08-41.77,24.77-77.55,58.96-78.22,33.57-.66,66.39,32.58,62.26,73.93,3.03-38.75-27.89-70.35-61.52-70.02-34.7.34-65.55,34.59-59.7,74.32Z"/>
    <path class="cls-22" d="m499.79,508.09c-9.46-36.49-2.69-72.19,19.57-91.41,3.26-2.82,14.75-12.47,32.2-14.62,27.58-3.39,47.91,14.66,52.02,18.58,20.52,19.56,26.87,51.84,17.42,83.15.72-4.07,8.17-50.01-21.69-76.83-4.55-4.09-19.79-17.78-41.29-17.03,0,0-13.07.46-25.59,7.94-23.57,14.09-35.37,49.55-32.65,90.21Z"/>
  </g>
  <g>
    <path class="cls-10" d="m909,255.59c-4.94-1.74-6.63-11.4-4.47-18.38,1.85-5.99,7.35-12.67,14.65-12.88,3.42-.1,8.52,1.19,10.41,4.98,2.47,4.94-2.02,11.14-4.94,15.15-1.83,2.52-9.62,13.26-15.65,11.13Z"/>
    <path class="cls-69" d="m905.09,251.45c-.78-2.01-2.7-7.73-.57-14.24.19-.58,3.66-10.68,12.22-12.58,1.46-.32,2.73-.33,3.61-.28-2.69,1.01-7.38,3.25-10.8,8.08-1.86,2.62-2.68,5.07-3.18,6.6-1.69,5.17-1.57,9.7-1.28,12.43Z"/>
    <path class="cls-64" d="m908.62,255.43c4.37-2.32,7.4-4.93,9.35-6.87,6.07-6.06,8.89-12.96,10.47-16.95.43-1.09.76-2.02.98-2.66.37.76.86,2.04.88,3.65.02,1.51-.4,2.67-.79,3.64-1.32,3.22-3.11,5.87-4.86,8.22-1.44,1.94-2.8,3.76-4.92,6-1.02,1.08-3.34,3.44-6.15,4.72-1.19.54-2.36.84-3.63.65-.57-.09-1.03-.25-1.33-.38Z"/>
    <path class="cls-12" d="m887.28,361.26c5.86-31.45,11.73-62.9,17.59-94.35-5.67,2.17-14.62,6.63-20.2,15.75-2.51,4.11-5.76,11.48-3.05,40.86.87,9.38,2.46,22.34,5.66,37.73Z"/>
    <path class="cls-38" d="m887.29,361.28c5.86-31.45,11.73-62.9,17.59-94.35-4.37,17.2-8.41,35.68-11.84,55.37-2.35,13.47-4.24,26.48-5.74,38.98Z"/>
    <path class="cls-21" d="m887.28,361.26c-2.42-12.05-3.25-22.06-3.56-28.94-.93-20.53-1.86-41.16,10.98-56.49,3.75-4.47,7.68-7.32,10.16-8.92-5.67,2.17-14.62,6.63-20.2,15.75-2.51,4.11-5.76,11.48-3.05,40.86.87,9.38,2.46,22.34,5.66,37.73Z"/>
    <path class="cls-66" d="m758.36,303.28c43.47,23.63,86.94,47.25,130.41,70.88-3.54,1.29-9.1,2.94-16,3.33-16.53.95-31.72-5.81-65.82-32.48-13.12-10.26-29.89-24.14-48.59-41.73Z"/>
    <path class="cls-19" d="m758.36,303.28c43.47,23.63,86.94,47.25,130.41,70.88-21.08-9.17-43.62-19.99-67.14-32.78-23.23-12.64-44.32-25.53-63.27-38.09Z"/>
    <path class="cls-50" d="m758.67,303.5c.14-.15,14.73,13.77,39.27,33.31,38.91,30.98,55.91,38.74,74.35,39.18,7.16.17,13.03-.8,16.79-1.61-3.54,1.29-9.1,2.94-16,3.33-16.53.95-31.72-5.81-65.82-32.48-28-21.9-48.76-41.55-48.59-41.73Z"/>
    <path class="cls-31" d="m880.5,261.82c-21.01-29.84-42.01-59.68-63.02-89.52,4.89,12.91,12.41,29.07,24.06,46.15,13.3,19.47,27.57,33.65,38.96,43.37Z"/>
    <path class="cls-37" d="m880.5,261.82c-11.07-10.4-23.99-24.29-36.47-42.11-12.13-17.32-20.61-33.74-26.55-47.41,4.9,12.91,12.41,29.08,24.06,46.15,13.3,19.47,27.57,33.65,38.96,43.37Z"/>
    <path class="cls-46" d="m880.59,261.85c-21.01-29.84-42.01-59.68-63.02-89.52,8.84,13.96,18.35,28.31,28.59,42.94,11.55,16.5,23.08,32.02,34.43,46.58Z"/>
    <path class="cls-14" d="m949.07,391.17c-10.37-34.99-20.75-69.97-31.12-104.96.51,13.79,2.47,31.51,8.06,51.41,6.38,22.7,15.37,40.69,23.06,53.54Z"/>
    <path class="cls-62" d="m949.07,391.17c-7.17-13.39-14.98-30.68-21.11-51.55-5.96-20.29-8.75-38.56-10.01-53.41.52,13.8,2.47,31.52,8.06,51.41,6.38,22.7,15.37,40.69,23.06,53.54Z"/>
    <path class="cls-41" d="m949.15,391.23c-10.37-34.99-20.75-69.97-31.12-104.96,3.91,16.05,8.35,32.69,13.38,49.82,5.67,19.33,11.64,37.72,17.75,55.14Z"/>
    <path class="cls-59" d="m726.49,269.42c8.73,9.66,17.46,19.33,26.19,28.99.07-2.95-.3-6.38-1.65-9.95-5.47-14.45-22.35-18.54-24.54-19.04Z"/>
    <path class="cls-51" d="m726.49,269.42c3.44,1.18,10.81,4.21,17.22,11.51,6,6.82,8.15,13.95,8.97,17.48.07-2.95-.3-6.38-1.65-9.95-5.47-14.45-22.35-18.54-24.54-19.04Z"/>
    <path class="cls-8" d="m726.49,269.42c8.73,9.66,17.46,19.33,26.19,28.99-1.62-2.62-3.45-5.33-5.51-8.07-6.79-9.03-14.12-15.85-20.68-20.92Z"/>
    <path class="cls-54" d="m851.59,524.22c-6.94-10.14-16.99-28.18-19.01-52.23-1.05-12.55-2.63-31.35,9.13-48.28,7.44-10.72,16.99-16.02,21.5-18.47,17.61-9.53,34.46-8.43,40.33-7.78,2.93.33,25.58,3.24,43.07,21.49,28.74,29.97,16.42,74.77,15.78,76.97.52-6.26.07-12.33-1.17-18.07,0,0-.83-3.79-3.04-9.18,0,0-4.25-10.37-11.32-18.75-9.05-10.72-44.47-32.08-74.64-16.06-28.01,14.87-40.42,56.08-20.64,90.36Z"/>
    <path class="cls-55" d="m851.68,524.18c-2.44-3.4-17.64-25.43-10.91-53.54,1.54-6.42,7.38-26.35,26.71-38.11,23-13.98,51.78-8.41,69.92,5.11,2.89,2.15,20.09,15.38,24.52,38.84,1.51,7.98,1.1,14.82.47,19.44.45-5.43.33-12.58-1.83-20.53-.67-2.46-1.46-4.72-2.29-6.76,0,0-1.06-2.59-3.01-6.23-1.52-2.85-4.21-7.85-8.31-12.52-4.63-5.26-9.23-8.02-14.1-10.95-3.15-1.89-8.86-5.01-16.59-7.47-2.41-.76-7.85-2.46-14.02-3.08-1.89-.19-16.17-1.46-29.93,5.44-22.89,11.47-28.54,37.62-29.58,43.15-4.43,23.63,5.87,42.13,8.94,47.21Z"/>
    <path class="cls-5" d="m669.17,370.99c-.31-.48-.65-1.49-.96-2.48.12,1.15.21,2.31.27,3.48.1-.18.19-.36.3-.53.08-.12.22-.29.38-.47Z"/>
    <path class="cls-27" d="m842.65,431.89c3.16-4.12,14.34-18.3,34.47-24.16,21.95-6.39,40.36,1.24,48.02,4.42,18.05,7.48,29.04,19.58,34.31,26.36-2.89-6.81-7.01-13.49-12.83-19.56-17.49-18.24-40.13-21.16-43.07-21.49-5.87-.65-22.73-1.75-40.33,7.78-4.51,2.45-14.06,7.75-21.5,18.47-6.32,9.1-8.78,18.73-9.55,27.64,1.73-4.96,4.84-12.1,10.48-19.47Z"/>
  </g>
  <g>
    <path class="cls-1" d="m1063.03,336.55c49.35,9.93,98.7,19.86,148.05,29.79-3.05,2.31-7.97,5.58-14.56,8.04-15.79,5.88-32.58,3.87-73.73-11.83-15.83-6.04-36.3-14.5-59.76-25.99Z"/>
    <path class="cls-44" d="m1063.03,336.55c49.35,9.93,98.7,19.86,148.05,29.79-23.24-2.59-48.4-6.35-75.11-11.73-26.38-5.32-50.75-11.52-72.94-18.05Z"/>
    <path class="cls-18" d="m1063.39,336.67c.09-.19,18.45,8.97,48.17,20.6,47.12,18.45,65.98,20.89,84.04,15.79,7.01-1.98,12.43-4.69,15.84-6.6-3.05,2.31-7.97,5.58-14.56,8.04-15.79,5.88-32.58,3.87-73.73-11.83-33.8-12.9-59.87-25.77-59.76-25.99Z"/>
    <path class="cls-32" d="m1056.97,335.52c-13.09-2.55-26.17-5.09-39.26-7.64,1.76,2.45,4.17,5.04,7.46,7.13,13.36,8.47,29.69,1.45,31.8.51Z"/>
    <path class="cls-3" d="m1056.97,335.52c-3.54,1.15-11.44,3.19-21.18,1.16-9.11-1.9-15.25-6.41-18.09-8.8,1.76,2.45,4.17,5.04,7.46,7.13,13.36,8.47,29.69,1.45,31.8.51Z"/>
    <path class="cls-61" d="m1056.97,335.52c-13.09-2.55-26.17-5.09-39.26-7.64,2.94,1.15,6.1,2.24,9.47,3.22,11.1,3.22,21.3,4.3,29.79,4.42Z"/>
    <path class="cls-33" d="m1282.16,271.15c.24,42.74.48,85.48.72,128.23-4.11-15.64-7.93-36.17-8.41-60.37-.55-27.61,3.43-50.83,7.68-67.85Z"/>
    <path class="cls-36" d="m1282.16,271.15c-3.49,17.45-6.38,39.48-6.17,64.95.2,24.77,3.28,46.2,6.9,63.27-4.1-15.64-7.93-36.17-8.41-60.37-.55-27.61,3.43-50.83,7.68-67.85Z"/>
    <path class="cls-20" d="m1282.23,271.05c.24,42.74.48,85.48.72,128.23-1.06-19.32-1.73-39.47-1.91-60.39-.2-23.59.25-46.23,1.19-67.83Z"/>
    <path class="cls-7" d="m1217.09,367.41c22.6,22.47,45.2,44.94,67.8,67.41,1.4-5.89,2.74-15.75-1.64-25.46-1.97-4.38-6.22-11.18-31.93-25.44-8.21-4.55-19.77-10.51-34.23-16.51Z"/>
    <path class="cls-58" d="m1217.07,367.41c22.6,22.47,45.2,44.94,67.8,67.41-11.71-13.25-24.66-26.94-38.93-40.81-9.77-9.49-19.42-18.35-28.87-26.6Z"/>
    <path class="cls-29" d="m1217.09,367.41c11.27,4.77,19.98,9.7,25.82,13.3,17.42,10.76,34.92,21.56,40.34,40.73,1.58,5.59,1.72,10.43,1.64,13.37,1.4-5.89,2.74-15.75-1.64-25.46-1.97-4.38-6.22-11.18-31.93-25.44-8.21-4.55-19.77-10.51-34.23-16.51Z"/>
    <path class="cls-2" d="m1284.48,445.08c5.98-1.54,13.96,6.82,16.42,15.07,2.11,7.08,1.1,17.23-5.91,22.22-3.29,2.34-9.12,4.42-13.46,1.95-5.66-3.22-5.31-12.23-5.09-18.08.14-3.66.73-19.28,8.03-21.16Z"/>
    <path class="cls-71" d="m1291.02,446.58c2.08,1.46,7.71,5.8,9.88,13.57.2.7,3.42,12.86-3.73,20.33-1.22,1.28-2.46,2.12-3.35,2.64,1.98-2.75,5.1-8.02,5.29-14.99.1-3.78-.7-6.72-1.21-8.55-1.73-6.18-4.82-10.53-6.89-13.01Z"/>
    <path class="cls-70" d="m1284.95,444.98c-2.76,5.13-4.02,9.68-4.66,12.86-1.98,9.92-.21,18.52.86,23.46.29,1.36.58,2.47.78,3.24-.87-.5-2.18-1.43-3.25-2.99-1.01-1.47-1.36-2.88-1.61-4.09-.82-4.02-.79-7.79-.63-11.23.14-2.84.28-5.52.89-9.1.29-1.73,1.02-5.56,2.93-8.65.81-1.31,1.76-2.37,3.13-3.01.61-.29,1.17-.43,1.55-.5Z"/>
    <path class="cls-28" d="m1016.84,267.12c121.4-78.21,268.94-58.39,341.25,28.42,70.47,84.62,42.21,200.15,38.66,213.78,3.46-16.33,24.48-123.86-42.88-204.9-71.71-86.28-214.94-108.09-337.02-37.3Z"/>
  </g>
</svg>