<?xml version="1.0" encoding="UTF-8"?>
<svg id="_Слой_1" data-name="Слой 1" xmlns="http://www.w3.org/2000/svg" xmlns:xlink="http://www.w3.org/1999/xlink" viewBox="0 0 789.98 791.51">
  <defs>
    <style>
      .cls-1 {
        fill: url(#_Безымянный_градиент_4-22);
      }

      .cls-2 {
        fill: url(#_Безымянный_градиент_4-26);
      }

      .cls-3 {
        fill: url(#_Безымянный_градиент_8-20);
      }

      .cls-4 {
        fill: url(#_Безымянный_градиент_4-9);
      }

      .cls-5 {
        fill: url(#_Безымянный_градиент_4-21);
      }

      .cls-6 {
        fill: url(#_Безымянный_градиент_8-5);
      }

      .cls-7 {
        fill: url(#_Безымянный_градиент_4-25);
      }

      .cls-8 {
        fill: url(#_Безымянный_градиент_10-16);
      }

      .cls-9 {
        fill: url(#_Безымянный_градиент_8-9);
      }

      .cls-10 {
        fill: url(#_Безымянный_градиент_4-14);
      }

      .cls-11 {
        fill: url(#_Безымянный_градиент_10-10);
      }

      .cls-12 {
        fill: url(#_Безымянный_градиент_4-15);
      }

      .cls-13 {
        fill: url(#_Безымянный_градиент_4-7);
      }

      .cls-14 {
        fill: url(#_Безымянный_градиент_4-18);
      }

      .cls-15 {
        fill: url(#_Безымянный_градиент_10-2);
      }

      .cls-16 {
        fill: url(#_Безымянный_градиент_4-10);
      }

      .cls-17 {
        fill: url(#_Безымянный_градиент_132);
      }

      .cls-18 {
        fill: url(#_Безымянный_градиент_10-17);
      }

      .cls-19 {
        fill: url(#_Безымянный_градиент_8-14);
      }

      .cls-20 {
        fill: url(#_Безымянный_градиент_10-19);
      }

      .cls-21 {
        fill: url(#_Безымянный_градиент_8-13);
      }

      .cls-22 {
        fill: url(#_Безымянный_градиент_8-11);
      }

      .cls-23 {
        fill: url(#_Безымянный_градиент_8);
      }

      .cls-24 {
        fill: url(#_Безымянный_градиент_8-8);
      }

      .cls-25 {
        fill: url(#_Безымянный_градиент_4-13);
      }

      .cls-26 {
        fill: url(#_Безымянный_градиент_4-2);
      }

      .cls-27 {
        fill: url(#_Безымянный_градиент_8-18);
      }

      .cls-28 {
        fill: url(#_Безымянный_градиент_4-27);
      }

      .cls-29 {
        fill: url(#_Безымянный_градиент_8-22);
      }

      .cls-30 {
        fill: url(#_Безымянный_градиент_10-9);
      }

      .cls-31 {
        fill: url(#_Безымянный_градиент_4-17);
      }

      .cls-32 {
        fill: url(#_Безымянный_градиент_4-23);
      }

      .cls-33 {
        fill: url(#_Безымянный_градиент_4-24);
      }

      .cls-34 {
        fill: url(#_Безымянный_градиент_4-8);
      }

      .cls-35 {
        fill: url(#_Безымянный_градиент_10);
      }

      .cls-36 {
        fill: url(#_Безымянный_градиент_8-21);
      }

      .cls-37 {
        fill: url(#_Безымянный_градиент_10-14);
      }

      .cls-38 {
        fill: url(#_Безымянный_градиент_10-12);
      }

      .cls-39 {
        fill: url(#_Безымянный_градиент_8-4);
      }

      .cls-40 {
        fill: url(#_Безымянный_градиент_8-10);
      }

      .cls-41 {
        fill: url(#_Безымянный_градиент_8-16);
      }

      .cls-42 {
        fill: url(#_Безымянный_градиент_4-11);
      }

      .cls-43 {
        fill: url(#_Безымянный_градиент_10-3);
      }

      .cls-44 {
        fill: url(#_Безымянный_градиент_8-19);
      }

      .cls-45 {
        fill: url(#_Безымянный_градиент_10-6);
      }

      .cls-46 {
        fill: url(#_Безымянный_градиент_8-15);
      }

      .cls-47 {
        fill: url(#_Безымянный_градиент_4);
      }

      .cls-48 {
        fill: url(#_Безымянный_градиент_10-8);
      }

      .cls-49 {
        fill: url(#_Безымянный_градиент_10-7);
      }

      .cls-50 {
        fill: url(#_Безымянный_градиент_10-13);
      }

      .cls-51 {
        fill: url(#_Безымянный_градиент_8-17);
      }

      .cls-52 {
        fill: url(#_Безымянный_градиент_4-4);
      }

      .cls-53 {
        fill: url(#_Безымянный_градиент_8-2);
      }

      .cls-54 {
        fill: url(#_Безымянный_градиент_4-20);
      }

      .cls-55 {
        fill: url(#_Безымянный_градиент_132-2);
      }

      .cls-56 {
        fill: url(#_Безымянный_градиент_4-5);
      }

      .cls-57 {
        fill: url(#_Безымянный_градиент_4-3);
      }

      .cls-58 {
        fill: url(#_Безымянный_градиент_10-20);
      }

      .cls-59 {
        fill: url(#_Безымянный_градиент_4-19);
      }

      .cls-60 {
        fill: url(#_Безымянный_градиент_8-7);
      }

      .cls-61 {
        fill: url(#_Безымянный_градиент_10-18);
      }

      .cls-62 {
        fill: url(#_Безымянный_градиент_10-15);
      }

      .cls-63 {
        fill: url(#_Безымянный_градиент_10-5);
      }

      .cls-64 {
        fill: url(#_Безымянный_градиент_10-11);
      }

      .cls-65 {
        fill: url(#_Безымянный_градиент_8-6);
      }

      .cls-66 {
        fill: url(#_Безымянный_градиент_4-16);
      }

      .cls-67 {
        fill: url(#_Безымянный_градиент_4-6);
      }

      .cls-68 {
        fill: url(#_Безымянный_градиент_8-3);
      }

      .cls-69 {
        fill: url(#_Безымянный_градиент_8-12);
      }

      .cls-70 {
        fill: url(#_Безымянный_градиент_10-21);
      }

      .cls-71 {
        fill: url(#_Безымянный_градиент_8-23);
      }

      .cls-72 {
        fill: url(#_Безымянный_градиент_4-12);
      }

      .cls-73 {
        fill: url(#_Безымянный_градиент_10-4);
      }
    </style>
    <linearGradient id="_Безымянный_градиент_4" data-name="Безымянный градиент 4" x1="536.21" y1="656.13" x2="831.59" y2="647.52" gradientUnits="userSpaceOnUse">
      <stop offset="0" stop-color="#653513"/>
      <stop offset=".06" stop-color="#653513"/>
      <stop offset=".12" stop-color="#7c4f10"/>
      <stop offset=".27" stop-color="#b38c0b"/>
      <stop offset=".39" stop-color="#dab907"/>
      <stop offset=".49" stop-color="#f2d404"/>
      <stop offset=".55" stop-color="#fcdf04"/>
      <stop offset="1" stop-color="#fcdf04"/>
    </linearGradient>
    <linearGradient id="_Безымянный_градиент_4-2" data-name="Безымянный градиент 4" x1="507.41" y1="634.96" x2="489.4" y2="608.28" xlink:href="#_Безымянный_градиент_4"/>
    <radialGradient id="_Безымянный_градиент_10" data-name="Безымянный градиент 10" cx="502.16" cy="629.62" fx="502.16" fy="629.62" r="10.44" gradientUnits="userSpaceOnUse">
      <stop offset="0" stop-color="#31160d"/>
      <stop offset=".54" stop-color="#31160d" stop-opacity=".5"/>
      <stop offset="1" stop-color="#31160d" stop-opacity="0"/>
    </radialGradient>
    <radialGradient id="_Безымянный_градиент_8" data-name="Безымянный градиент 8" cx="499.55" cy="620.76" fx="499.55" fy="620.76" r="11.16" gradientUnits="userSpaceOnUse">
      <stop offset="0" stop-color="#fff" stop-opacity=".85"/>
      <stop offset=".45" stop-color="#fff" stop-opacity=".5"/>
      <stop offset="1" stop-color="#fff" stop-opacity="0"/>
    </radialGradient>
    <linearGradient id="_Безымянный_градиент_4-3" data-name="Безымянный градиент 4" x1="555.24" y1="598.38" x2="539.02" y2="570.99" xlink:href="#_Безымянный_градиент_4"/>
    <radialGradient id="_Безымянный_градиент_10-2" data-name="Безымянный градиент 10" cx="552.84" cy="594.3" fx="552.84" fy="594.3" r="25.43" xlink:href="#_Безымянный_градиент_10"/>
    <radialGradient id="_Безымянный_градиент_8-2" data-name="Безымянный градиент 8" cx="552.81" cy="594.3" fx="552.81" fy="594.3" r="25.44" xlink:href="#_Безымянный_градиент_8"/>
    <linearGradient id="_Безымянный_градиент_4-4" data-name="Безымянный градиент 4" x1="637.57" y1="541.67" x2="611.67" y2="518.11" xlink:href="#_Безымянный_градиент_4"/>
    <radialGradient id="_Безымянный_градиент_8-3" data-name="Безымянный градиент 8" cx="623.93" cy="529.26" fx="623.93" fy="529.26" r="37.89" xlink:href="#_Безымянный_градиент_8"/>
    <radialGradient id="_Безымянный_градиент_10-3" data-name="Безымянный градиент 10" cx="623.78" cy="529.48" fx="623.78" fy="529.48" r="37.89" xlink:href="#_Безымянный_градиент_10"/>
    <linearGradient id="_Безымянный_градиент_4-5" data-name="Безымянный градиент 4" x1="577.42" y1="625.62" x2="578.72" y2="604.72" xlink:href="#_Безымянный_градиент_4"/>
    <radialGradient id="_Безымянный_градиент_8-4" data-name="Безымянный градиент 8" cx="577.73" cy="618.3" fx="577.73" fy="618.3" r="34.63" xlink:href="#_Безымянный_градиент_8"/>
    <radialGradient id="_Безымянный_градиент_10-4" data-name="Безымянный градиент 10" cx="577.8" cy="620.62" fx="577.8" fy="620.62" r="34.54" xlink:href="#_Безымянный_градиент_10"/>
    <linearGradient id="_Безымянный_градиент_4-6" data-name="Безымянный градиент 4" x1="670.69" y1="471.47" x2="649.66" y2="465.44" xlink:href="#_Безымянный_градиент_4"/>
    <radialGradient id="_Безымянный_градиент_8-5" data-name="Безымянный градиент 8" cx="664.04" cy="469.89" fx="664.04" fy="469.89" r="10.86" xlink:href="#_Безымянный_градиент_8"/>
    <radialGradient id="_Безымянный_градиент_10-5" data-name="Безымянный градиент 10" cx="665.18" cy="469.89" fx="665.18" fy="469.89" r="10.61" xlink:href="#_Безымянный_градиент_10"/>
    <linearGradient id="_Безымянный_градиент_4-7" data-name="Безымянный градиент 4" x1="419.09" y1="547.44" x2="656.71" y2="547.44" xlink:href="#_Безымянный_градиент_4"/>
    <linearGradient id="_Безымянный_градиент_4-8" data-name="Безымянный градиент 4" x1="5524.82" y1="-8033.05" x2="5506.81" y2="-8059.72" gradientTransform="translate(10365.07 -472.17) rotate(-129.07)" xlink:href="#_Безымянный_градиент_4"/>
    <radialGradient id="_Безымянный_градиент_10-6" data-name="Безымянный градиент 10" cx="5519.57" cy="-8038.38" fx="5519.57" fy="-8038.38" gradientTransform="translate(10365.07 -472.17) rotate(-129.07)" xlink:href="#_Безымянный_градиент_10"/>
    <radialGradient id="_Безымянный_градиент_8-6" data-name="Безымянный градиент 8" cx="5516.96" cy="-8047.24" fx="5516.96" fy="-8047.24" r="11.16" gradientTransform="translate(10365.07 -472.17) rotate(-129.07)" xlink:href="#_Безымянный_градиент_8"/>
    <linearGradient id="_Безымянный_градиент_4-9" data-name="Безымянный градиент 4" x1="2636.45" y1="-7604.4" x2="2620.22" y2="-7631.79" gradientTransform="translate(8562.99 1438.17) rotate(-100.79)" xlink:href="#_Безымянный_градиент_4"/>
    <radialGradient id="_Безымянный_градиент_10-7" data-name="Безымянный градиент 10" cx="2634.04" cy="-7608.48" fx="2634.04" fy="-7608.48" r="25.43" gradientTransform="translate(8562.99 1438.17) rotate(-100.79)" xlink:href="#_Безымянный_градиент_10"/>
    <radialGradient id="_Безымянный_градиент_8-7" data-name="Безымянный градиент 8" cx="2634.02" cy="-7608.48" fx="2634.02" fy="-7608.48" r="25.44" gradientTransform="translate(8562.99 1438.17) rotate(-100.79)" xlink:href="#_Безымянный_градиент_8"/>
    <linearGradient id="_Безымянный_градиент_4-10" data-name="Безымянный градиент 4" x1="-435.28" y1="-3164.66" x2="-461.18" y2="-3188.22" gradientTransform="translate(2893.13 2407.94) rotate(-38.25)" xlink:href="#_Безымянный_градиент_4"/>
    <radialGradient id="_Безымянный_градиент_8-8" data-name="Безымянный градиент 8" cx="-448.92" cy="-3177.07" fx="-448.92" fy="-3177.07" r="37.89" gradientTransform="translate(2893.13 2407.94) rotate(-38.25)" xlink:href="#_Безымянный_градиент_8"/>
    <radialGradient id="_Безымянный_градиент_10-8" data-name="Безымянный градиент 10" cx="-449.08" cy="-3176.85" fx="-449.08" fy="-3176.85" r="37.89" gradientTransform="translate(2893.13 2407.94) rotate(-38.25)" xlink:href="#_Безымянный_градиент_10"/>
    <linearGradient id="_Безымянный_градиент_4-11" data-name="Безымянный градиент 4" x1="3754.9" y1="2511.66" x2="3756.2" y2="2490.76" gradientTransform="translate(-477.39 -4023.31) rotate(41.89)" xlink:href="#_Безымянный_градиент_4"/>
    <radialGradient id="_Безымянный_градиент_8-9" data-name="Безымянный градиент 8" cx="3755.21" cy="2504.34" fx="3755.21" fy="2504.34" r="34.63" gradientTransform="translate(-477.39 -4023.31) rotate(41.89)" xlink:href="#_Безымянный_градиент_8"/>
    <radialGradient id="_Безымянный_градиент_10-9" data-name="Безымянный градиент 10" cx="3755.28" cy="2506.67" fx="3755.28" fy="2506.67" r="34.54" gradientTransform="translate(-477.39 -4023.31) rotate(41.89)" xlink:href="#_Безымянный_градиент_10"/>
    <linearGradient id="_Безымянный_градиент_4-12" data-name="Безымянный градиент 4" x1="585.72" y1="119.52" x2="564.69" y2="113.49" xlink:href="#_Безымянный_градиент_4"/>
    <radialGradient id="_Безымянный_градиент_8-10" data-name="Безымянный градиент 8" cx="579.06" cy="117.94" fx="579.06" fy="117.94" r="10.86" xlink:href="#_Безымянный_градиент_8"/>
    <radialGradient id="_Безымянный_градиент_10-10" data-name="Безымянный градиент 10" cx="580.2" cy="117.94" fx="580.2" fy="117.94" r="10.61" xlink:href="#_Безымянный_градиент_10"/>
    <linearGradient id="_Безымянный_градиент_4-13" data-name="Безымянный градиент 4" x1="549.83" y1="372.48" x2="547.76" y2="228.16" xlink:href="#_Безымянный_градиент_4"/>
    <radialGradient id="_Безымянный_градиент_132" data-name="Безымянный градиент 132" cx="551.35" cy="363.55" fx="551.35" fy="363.55" r="73.71" gradientUnits="userSpaceOnUse">
      <stop offset=".36" stop-color="#31160d"/>
      <stop offset=".54" stop-color="#31160d" stop-opacity=".5"/>
      <stop offset=".65" stop-color="#31160d" stop-opacity="0"/>
    </radialGradient>
    <radialGradient id="_Безымянный_градиент_8-11" data-name="Безымянный градиент 8" cx="548.21" cy="279.09" fx="548.21" fy="279.09" r="54.42" xlink:href="#_Безымянный_градиент_8"/>
    <linearGradient id="_Безымянный_градиент_4-14" data-name="Безымянный градиент 4" x1="6565.44" y1="-989.22" x2="6585.1" y2="-1021.27" gradientTransform="translate(6658.4 -1520.3) rotate(154.03) scale(1 -1)" xlink:href="#_Безымянный_градиент_4"/>
    <radialGradient id="_Безымянный_градиент_8-12" data-name="Безымянный градиент 8" cx="8202.53" cy="-4758.84" fx="8202.53" fy="-4758.84" r="9.26" gradientTransform="translate(4506.16 -8047.51) rotate(146.4)" xlink:href="#_Безымянный_градиент_8"/>
    <radialGradient id="_Безымянный_градиент_10-11" data-name="Безымянный градиент 10" cx="8200.21" cy="-4766.71" fx="8200.21" fy="-4766.71" r="9.9" gradientTransform="translate(4506.16 -8047.51) rotate(146.4)" xlink:href="#_Безымянный_градиент_10"/>
    <linearGradient id="_Безымянный_градиент_4-15" data-name="Безымянный градиент 4" x1="8486.94" y1="-4132.77" x2="8469.42" y2="-4162.34" gradientTransform="translate(815.61 -8906.97) rotate(67.17) scale(1 -1)" xlink:href="#_Безымянный_градиент_4"/>
    <radialGradient id="_Безымянный_градиент_10-12" data-name="Безымянный градиент 10" cx="8484.35" cy="-4137.18" fx="8484.35" fy="-4137.18" r="27.46" gradientTransform="translate(815.61 -8906.97) rotate(67.17) scale(1 -1)" xlink:href="#_Безымянный_градиент_10"/>
    <radialGradient id="_Безымянный_градиент_8-13" data-name="Безымянный градиент 8" cx="8484.32" cy="-4137.18" fx="8484.32" fy="-4137.18" r="27.47" gradientTransform="translate(815.61 -8906.97) rotate(67.17) scale(1 -1)" xlink:href="#_Безымянный_градиент_8"/>
    <linearGradient id="_Безымянный_градиент_4-16" data-name="Безымянный градиент 4" x1="6844.83" y1="-522.65" x2="6815.81" y2="-549.06" gradientTransform="translate(6822.11 -1347.08) rotate(159.54) scale(1 -1)" xlink:href="#_Безымянный_градиент_4"/>
    <radialGradient id="_Безымянный_градиент_8-14" data-name="Безымянный градиент 8" cx="6829.54" cy="-536.56" fx="6829.54" fy="-536.56" r="42.47" gradientTransform="translate(6822.11 -1347.08) rotate(159.54) scale(1 -1)" xlink:href="#_Безымянный_градиент_8"/>
    <radialGradient id="_Безымянный_градиент_10-13" data-name="Безымянный градиент 10" cx="6829.37" cy="-536.31" fx="6829.37" fy="-536.31" r="42.47" gradientTransform="translate(6822.11 -1347.08) rotate(159.54) scale(1 -1)" xlink:href="#_Безымянный_градиент_10"/>
    <linearGradient id="_Безымянный_градиент_4-17" data-name="Безымянный градиент 4" x1="4728.74" y1="2207.44" x2="4725.7" y2="2191.74" gradientTransform="translate(5207.99 2071.01) rotate(-136.82) scale(1 -1)" xlink:href="#_Безымянный_градиент_4"/>
    <radialGradient id="_Безымянный_градиент_10-14" data-name="Безымянный градиент 10" cx="6013.38" cy="-9140.98" fx="6013.38" fy="-9140.98" r="31.41" gradientTransform="translate(4596.41 -9602.74) rotate(56.72) scale(1 -1)" xlink:href="#_Безымянный_градиент_10"/>
    <radialGradient id="_Безымянный_градиент_8-15" data-name="Безымянный градиент 8" cx="6013.45" cy="-9138.87" fx="6013.45" fy="-9138.87" r="31.32" gradientTransform="translate(4596.41 -9602.74) rotate(56.72) scale(1 -1)" xlink:href="#_Безымянный_градиент_8"/>
    <linearGradient id="_Безымянный_градиент_4-18" data-name="Безымянный градиент 4" x1="3555.33" y1="2525.13" x2="3552.29" y2="2509.44" gradientTransform="translate(4221.51 2481.32) rotate(-118.19) scale(1 -1)" xlink:href="#_Безымянный_градиент_4"/>
    <radialGradient id="_Безымянный_градиент_10-15" data-name="Безымянный градиент 10" cx="7228.56" cy="-9175.23" fx="7228.56" fy="-9175.23" r="31.41" gradientTransform="translate(7370.98 -8776.18) rotate(75.35) scale(1 -1)" xlink:href="#_Безымянный_градиент_10"/>
    <radialGradient id="_Безымянный_градиент_8-16" data-name="Безымянный градиент 8" cx="7228.62" cy="-9173.12" fx="7228.62" fy="-9173.12" r="31.32" gradientTransform="translate(7370.98 -8776.18) rotate(75.35) scale(1 -1)" xlink:href="#_Безымянный_градиент_8"/>
    <linearGradient id="_Безымянный_градиент_4-19" data-name="Безымянный градиент 4" x1="6722.68" y1="-1030.13" x2="6700.52" y2="-1036.5" gradientTransform="translate(6658.4 -1520.3) rotate(154.03) scale(1 -1)" xlink:href="#_Безымянный_градиент_4"/>
    <radialGradient id="_Безымянный_градиент_8-17" data-name="Безымянный градиент 8" cx="6715.67" cy="-1031.8" fx="6715.67" fy="-1031.8" r="11.44" gradientTransform="translate(6658.4 -1520.3) rotate(154.03) scale(1 -1)" xlink:href="#_Безымянный_градиент_8"/>
    <radialGradient id="_Безымянный_градиент_10-16" data-name="Безымянный градиент 10" cx="6716.87" cy="-1031.8" fx="6716.87" fy="-1031.8" r="11.18" gradientTransform="translate(6658.4 -1520.3) rotate(154.03) scale(1 -1)" xlink:href="#_Безымянный_градиент_10"/>
    <linearGradient id="_Безымянный_градиент_4-20" data-name="Безымянный градиент 4" x1="302.48" y1="685.51" x2="300" y2="512.33" gradientTransform="translate(-2.42 -14.73) rotate(.25)" xlink:href="#_Безымянный_градиент_4"/>
    <radialGradient id="_Безымянный_градиент_132-2" data-name="Безымянный градиент 132" cx="318.99" cy="685.31" fx="318.99" fy="685.31" r="133.01" xlink:href="#_Безымянный_градиент_132"/>
    <linearGradient id="_Безымянный_градиент_4-21" data-name="Безымянный градиент 4" x1="115.76" y1="592.19" x2="113.28" y2="419.01" gradientTransform="translate(-2.42 -14.73) rotate(.25)" xlink:href="#_Безымянный_градиент_4"/>
    <radialGradient id="_Безымянный_градиент_8-18" data-name="Безымянный градиент 8" cx="299.6" cy="620.58" fx="299.6" fy="620.58" r="39.61" gradientTransform="translate(-2.42 -14.73) rotate(.25)" xlink:href="#_Безымянный_градиент_8"/>
    <linearGradient id="_Безымянный_градиент_4-22" data-name="Безымянный градиент 4" x1="14403.55" y1="-7125.44" x2="14374.01" y2="-7152.3" gradientTransform="translate(-15374.27 -2884.69) rotate(37.61)" xlink:href="#_Безымянный_градиент_4"/>
    <radialGradient id="_Безымянный_градиент_8-19" data-name="Безымянный градиент 8" cx="14387.99" cy="-7139.59" fx="14387.99" fy="-7139.59" r="43.21" gradientTransform="translate(-15374.27 -2884.69) rotate(37.61)" xlink:href="#_Безымянный_градиент_8"/>
    <radialGradient id="_Безымянный_градиент_10-17" data-name="Безымянный градиент 10" cx="14387.82" cy="-7139.33" fx="14387.82" fy="-7139.33" r="43.21" gradientTransform="translate(-15374.27 -2884.69) rotate(37.61)" xlink:href="#_Безымянный_градиент_10"/>
    <linearGradient id="_Безымянный_градиент_4-23" data-name="Безымянный градиент 4" x1="-1146.19" y1="5862.82" x2="-1168.88" y2="5856.31" gradientTransform="translate(-5279.8 1873.15) rotate(-117.14)" xlink:href="#_Безымянный_градиент_4"/>
    <radialGradient id="_Безымянный_градиент_8-20" data-name="Безымянный градиент 8" cx="-1153.37" cy="5861.11" fx="-1153.37" fy="5861.11" r="11.72" gradientTransform="translate(-5279.8 1873.15) rotate(-117.14)" xlink:href="#_Безымянный_градиент_8"/>
    <radialGradient id="_Безымянный_градиент_10-18" data-name="Безымянный градиент 10" cx="-3598.82" cy="224.51" fx="-3598.82" fy="224.51" r="11.44" gradientTransform="translate(-3137.37) rotate(-180) scale(1 -1)" xlink:href="#_Безымянный_градиент_10"/>
    <linearGradient id="_Безымянный_градиент_4-24" data-name="Безымянный градиент 4" x1="200.54" y1="-10748.97" x2="201.92" y2="-10771.17" gradientTransform="translate(-10491.04 17.64) rotate(-87.81) scale(1 -1)" xlink:href="#_Безымянный_градиент_4"/>
    <radialGradient id="_Безымянный_градиент_8-21" data-name="Безымянный градиент 8" cx="200.87" cy="-10756.75" fx="200.87" fy="-10756.75" r="36.78" gradientTransform="translate(-10491.04 17.64) rotate(-87.81) scale(1 -1)" xlink:href="#_Безымянный_градиент_8"/>
    <radialGradient id="_Безымянный_градиент_10-19" data-name="Безымянный градиент 10" cx="200.95" cy="-10754.27" fx="200.95" fy="-10754.27" r="36.69" gradientTransform="translate(-10491.04 17.64) rotate(-87.81) scale(1 -1)" xlink:href="#_Безымянный_градиент_10"/>
    <linearGradient id="_Безымянный_градиент_4-25" data-name="Безымянный градиент 4" x1="16213.24" y1="877.25" x2="16195.79" y2="847.79" gradientTransform="translate(-15772.94 2641.76) rotate(-11.44)" xlink:href="#_Безымянный_градиент_4"/>
    <radialGradient id="_Безымянный_градиент_10-20" data-name="Безымянный градиент 10" cx="16210.66" cy="872.85" fx="16210.66" fy="872.85" r="27.35" gradientTransform="translate(-15772.94 2641.76) rotate(-11.44)" xlink:href="#_Безымянный_градиент_10"/>
    <radialGradient id="_Безымянный_градиент_8-22" data-name="Безымянный градиент 8" cx="16210.63" cy="872.85" fx="16210.63" fy="872.85" r="27.36" gradientTransform="translate(-15772.94 2641.76) rotate(-11.44)" xlink:href="#_Безымянный_градиент_8"/>
    <linearGradient id="_Безымянный_градиент_4-26" data-name="Безымянный градиент 4" x1="9813.99" y1="5548.34" x2="9791.12" y2="5518.26" gradientTransform="translate(-10090.79 -4110.62) rotate(52.69) scale(1 -1)" xlink:href="#_Безымянный_градиент_4"/>
    <radialGradient id="_Безымянный_градиент_8-23" data-name="Безымянный градиент 8" cx="3524.97" cy="-13221.4" fx="3524.97" fy="-13221.4" r="10.92" gradientTransform="translate(-10594.71 8671.72) rotate(-112.62) scale(1 -1)" xlink:href="#_Безымянный_градиент_8"/>
    <radialGradient id="_Безымянный_градиент_10-21" data-name="Безымянный градиент 10" cx="3522.24" cy="-13230.66" fx="3522.24" fy="-13230.66" r="11.67" gradientTransform="translate(-10594.71 8671.72) rotate(-112.62) scale(1 -1)" xlink:href="#_Безымянный_градиент_10"/>
    <linearGradient id="_Безымянный_градиент_4-27" data-name="Безымянный градиент 4" x1="-3325.63" y1="83.65" x2="-3550.53" y2="392.06" gradientTransform="translate(-3137.37) rotate(-180) scale(1 -1)" xlink:href="#_Безымянный_градиент_4"/>
  </defs>
  <g>
    <path class="cls-47" d="m419.32,670.19c30-11.49,78.39-25.69,138.99-25.07,45.81.47,83.65,9.26,110.34,17.76-31.56-5.11-69.02-8.84-111.15-8.49-54.06.45-100.85,7.49-138.19,15.8Z"/>
    <path class="cls-26" d="m513.92,616.87c2.88,3.82-.71,12-5.87,16.21-4.43,3.61-11.98,5.91-17.62,2.39-2.65-1.65-5.87-5.2-5.4-9.03.62-5,7.16-7.44,11.39-9.01,2.66-.99,13.99-5.21,17.5-.56Z"/>
    <path class="cls-35" d="m514.79,621.99c-.42,1.92-1.85,7.23-6.75,11.1-.44.35-8.17,6.27-15.63,3.39-1.28-.49-2.24-1.13-2.88-1.6,2.55.59,7.25,1.25,12.28-.68,2.73-1.05,4.59-2.5,5.74-3.41,3.9-3.07,6.09-6.58,7.24-8.79Z"/>
    <path class="cls-23" d="m514.13,617.18c-4.49-.44-8.11,0-10.57.5-7.67,1.54-13.29,5.36-16.5,7.59-.88.61-1.6,1.15-2.08,1.52.1-.77.37-1.98,1.17-3.21.75-1.16,1.65-1.83,2.44-2.37,2.63-1.78,5.32-2.88,7.83-3.79,2.07-.75,4.02-1.44,6.76-2.07,1.32-.3,4.27-.92,7.05-.48,1.18.19,2.22.55,3.08,1.34.39.35.65.71.82.96Z"/>
    <path class="cls-57" d="m582.85,574.5c-20.02,13.19-40.04,26.39-60.06,39.58-.15-4.55.33-12.03,5.01-18.53,2.11-2.93,6.25-7.32,27.34-13.99,6.73-2.13,16.15-4.8,27.71-7.06Z"/>
    <path class="cls-15" d="m582.86,574.5c-20.02,13.19-40.04,26.39-60.06,39.58,10.61-8.02,22.2-16.19,34.8-24.28,8.62-5.54,17.06-10.63,25.25-15.3Z"/>
    <path class="cls-53" d="m582.85,574.5c-9.02,1.83-16.18,4.17-21.02,5.96-14.45,5.33-28.97,10.69-35.83,24.01-2,3.89-2.83,7.44-3.21,9.61-.15-4.55.33-12.03,5.01-18.53,2.11-2.93,6.25-7.32,27.34-13.99,6.73-2.13,16.15-4.8,27.71-7.06Z"/>
    <path class="cls-52" d="m659.09,488.83c-23.44,26.95-46.88,53.91-70.33,80.86,2.72-.02,6.9-.31,11.66-1.79,11.42-3.53,19.99-11.94,36.32-38.58,6.28-10.25,14.13-23.87,22.34-40.49Z"/>
    <path class="cls-68" d="m659.09,488.83c-23.44,26.95-46.88,53.91-70.33,80.86,11.95-11.52,24.46-24.53,37.14-39.12,12.52-14.41,23.54-28.45,33.19-41.74Z"/>
    <path class="cls-43" d="m658.94,489.05c-.13-.07-6.49,13.03-18.16,32.44-18.5,30.78-28.04,40.32-40.4,45.27-4.8,1.92-9.02,2.75-11.77,3.15,2.72-.02,6.9-.31,11.66-1.79,11.42-3.53,19.99-11.94,36.32-38.58,13.41-21.89,22.49-40.41,22.34-40.49Z"/>
    <path class="cls-56" d="m626.54,622.23c-32.54-1.06-65.09-2.12-97.63-3.18,12.02-2.67,27.76-4.98,46.2-4.65,21.03.38,38.6,4.09,51.43,7.82Z"/>
    <path class="cls-39" d="m626.54,622.23c-13.18-3.17-29.86-6-49.26-6.59-18.86-.57-35.26,1.15-48.36,3.41,12.03-2.67,27.76-4.98,46.2-4.65,21.03.38,38.6,4.09,51.43,7.82Z"/>
    <path class="cls-73" d="m626.61,622.28c-32.54-1.06-65.09-2.12-97.63-3.18,14.74-.24,30.1-.17,46.03.3,17.97.53,35.19,1.53,51.6,2.88Z"/>
    <path class="cls-67" d="m669.35,455.48c-2.78,9.61-5.56,19.21-8.33,28.82-1.04-2.01-1.94-4.51-2.2-7.42-1.08-11.81,9.19-20.31,10.54-21.39Z"/>
    <path class="cls-6" d="m669.35,455.48c-1.98,1.97-6.05,6.54-8.02,13.73-1.85,6.73-.94,12.37-.31,15.08-1.04-2.01-1.94-4.51-2.2-7.42-1.08-11.81,9.19-20.31,10.54-21.39Z"/>
    <path class="cls-63" d="m669.35,455.48c-2.78,9.61-5.56,19.21-8.33,28.82.24-2.36.59-4.84,1.09-7.42,1.65-8.51,4.42-15.69,7.24-21.39Z"/>
    <path class="cls-13" d="m419.32,637.82c-.09,0-.17-.05-.21-.13-.05-.12,0-.25.11-.3,45.4-21.09,88.63-47.16,128.47-77.47,39.71-30.21,76.25-64.79,108.61-102.77.08-.1.23-.11.32-.03.1.08.11.23.03.32-32.38,38.01-68.95,72.61-108.68,102.84-39.87,30.33-83.12,56.41-128.55,77.52-.03.01-.06.02-.1.02Z"/>
  </g>
  <g>
    <path class="cls-34" d="m628.08,307.15c1.15-4.64,9.77-7.01,16.29-5.66,5.59,1.16,12.14,5.57,12.96,12.17.39,3.1-.34,7.84-3.61,9.88-4.27,2.67-10.28-.87-14.18-3.16-2.44-1.44-12.86-7.58-11.46-13.23Z"/>
    <path class="cls-45" d="m631.5,303.24c1.76-.89,6.78-3.12,12.87-1.75.55.12,10.01,2.39,12.48,10,.42,1.3.54,2.45.57,3.25-1.15-2.36-3.59-6.42-8.27-9.1-2.54-1.46-4.83-1.99-6.27-2.31-4.84-1.09-8.94-.58-11.39-.08Z"/>
    <path class="cls-65" d="m628.19,306.79c2.48,3.76,5.12,6.29,7.05,7.89,6.03,4.99,12.54,6.94,16.3,8.03,1.03.3,1.9.52,2.49.66-.66.4-1.77.96-3.23,1.12-1.37.15-2.46-.13-3.37-.4-3.04-.92-5.59-2.32-7.88-3.69-1.89-1.14-3.66-2.21-5.87-3.94-1.07-.83-3.41-2.74-4.81-5.17-.6-1.04-.97-2.07-.9-3.24.03-.52.14-.95.23-1.24Z"/>
    <path class="cls-4" d="m570.75,249.93c16.71,17.19,33.42,34.39,50.13,51.58-4.44,1-11.87,1.93-19.14-1.45-3.28-1.52-8.36-4.77-18.86-24.23-3.35-6.22-7.74-14.96-12.13-25.89Z"/>
    <path class="cls-49" d="m570.75,249.91c16.71,17.19,33.42,34.39,50.13,51.58-9.87-8.92-20.06-18.78-30.37-29.64-7.06-7.43-13.64-14.77-19.76-21.94Z"/>
    <path class="cls-60" d="m570.75,249.93c3.49,8.52,7.13,15.12,9.79,19.53,7.94,13.2,15.92,26.45,30.3,30.7,4.19,1.24,7.83,1.38,10.04,1.35-4.44,1-11.87,1.93-19.14-1.45-3.28-1.52-8.36-4.77-18.86-24.23-3.35-6.22-7.74-14.96-12.13-25.89Z"/>
    <path class="cls-16" d="m576.09,137.51c-1.72,35.68-3.44,71.36-5.16,107.04,2.12-1.7,5.22-4.51,8.05-8.62,6.78-9.84,8.31-21.75,4.63-52.79-1.41-11.94-3.69-27.49-7.53-45.63Z"/>
    <path class="cls-24" d="m576.09,137.51c-1.72,35.68-3.44,71.36-5.16,107.04,2.25-16.44,4.02-34.41,4.94-53.72.91-19.07.87-36.92.22-53.32Z"/>
    <path class="cls-48" d="m576.11,137.78c-.15.03,2.97,14.25,5.83,36.72,4.53,35.62,2.94,49.02-3.7,60.56-2.58,4.48-5.38,7.74-7.29,9.76,2.12-1.7,5.22-4.51,8.05-8.62,6.78-9.84,8.31-21.75,4.63-52.79-3.02-25.49-7.36-45.66-7.53-45.63Z"/>
    <path class="cls-42" d="m679.73,383.86c-23.52-22.52-47.04-45.03-70.56-67.55,10.73,6.04,23.99,14.83,37.5,27.39,15.4,14.33,26,28.81,33.06,40.16Z"/>
    <path class="cls-9" d="m679.73,383.86c-7.7-11.16-18.22-24.41-32.28-37.8-13.66-13.01-27.02-22.69-38.28-29.75,10.74,6.04,24,14.83,37.5,27.39,15.4,14.33,26,28.81,33.06,40.16Z"/>
    <path class="cls-30" d="m679.75,383.95c-23.52-22.52-47.04-45.03-70.56-67.55,11.14,9.66,22.52,19.97,34.06,30.96,13.02,12.39,25.17,24.63,36.49,36.59Z"/>
    <path class="cls-72" d="m584.37,103.53c-2.78,9.61-5.56,19.21-8.33,28.82-1.04-2.01-1.94-4.51-2.2-7.42-1.08-11.81,9.19-20.31,10.54-21.39Z"/>
    <path class="cls-40" d="m584.37,103.53c-1.98,1.97-6.05,6.54-8.02,13.73-1.85,6.73-.94,12.37-.31,15.08-1.04-2.01-1.94-4.51-2.2-7.42-1.08-11.81,9.19-20.31,10.54-21.39Z"/>
    <path class="cls-11" d="m584.37,103.53c-2.78,9.61-5.56,19.21-8.33,28.82.24-2.36.59-4.84,1.09-7.42,1.65-8.51,4.42-15.69,7.24-21.39Z"/>
    <path class="cls-25" d="m500.56,386.11c-7.65-29.53-2.18-58.41,15.84-73.97,2.64-2.28,11.93-10.09,26.06-11.83,22.31-2.74,38.77,11.86,42.1,15.03,16.61,15.83,21.74,41.95,14.1,67.29,2.45-31.35-22.57-56.93-49.78-56.66-28.08.27-53.04,27.99-48.31,60.14Z"/>
    <path class="cls-17" d="m500.6,386.14c-5.73-33.8,20.04-62.75,47.71-63.3,27.16-.53,53.72,26.37,50.38,59.82,2.45-31.35-22.57-56.93-49.78-56.66-28.08.27-53.04,27.99-48.31,60.14Z"/>
    <path class="cls-22" d="m500.56,386.11c-7.65-29.53-2.18-58.41,15.84-73.97,2.64-2.28,11.93-10.09,26.06-11.83,22.31-2.74,38.77,11.86,42.1,15.03,16.61,15.83,21.74,41.95,14.1,67.29.58-3.3,6.61-40.47-17.55-62.17-3.68-3.31-16.02-14.39-33.41-13.78,0,0-10.58.37-20.71,6.43-19.08,11.4-28.63,40.09-26.42,73Z"/>
  </g>
  <g>
    <path class="cls-10" d="m305.08,470.59c-4-1.41-5.37-9.22-3.62-14.87,1.5-4.84,5.95-10.25,11.85-10.43,2.77-.08,6.89.96,8.43,4.03,2,4-1.64,9.01-4,12.26-1.48,2.04-7.78,10.73-12.66,9.01Z"/>
    <path class="cls-69" d="m301.92,467.24c-.63-1.63-2.18-6.25-.46-11.52.15-.47,2.96-8.64,9.89-10.18,1.19-.26,2.21-.27,2.92-.23-2.18.81-5.97,2.63-8.74,6.53-1.5,2.12-2.17,4.1-2.57,5.34-1.37,4.19-1.27,7.85-1.04,10.06Z"/>
    <path class="cls-64" d="m304.77,470.47c3.53-1.88,5.99-3.99,7.57-5.56,4.92-4.9,7.19-10.49,8.47-13.72.35-.89.62-1.63.79-2.15.3.62.7,1.65.71,2.95.01,1.22-.32,2.16-.64,2.95-1.07,2.61-2.52,4.75-3.93,6.65-1.17,1.57-2.27,3.04-3.98,4.85-.83.87-2.71,2.78-4.98,3.82-.97.44-1.91.68-2.94.52-.46-.07-.83-.2-1.08-.31Z"/>
    <path class="cls-12" d="m287.5,556.11c4.74-25.45,9.49-50.9,14.23-76.35-4.59,1.76-11.83,5.37-16.34,12.75-2.04,3.33-4.66,9.29-2.47,33.07.7,7.59,1.99,18.08,4.58,30.53Z"/>
    <path class="cls-38" d="m287.51,556.12c4.74-25.45,9.49-50.9,14.23-76.35-3.54,13.92-6.81,28.88-9.58,44.8-1.9,10.9-3.43,21.43-4.65,31.54Z"/>
    <path class="cls-21" d="m287.5,556.11c-1.96-9.75-2.63-17.85-2.88-23.42-.75-16.61-1.5-33.3,8.89-45.71,3.03-3.62,6.22-5.93,8.22-7.22-4.59,1.76-11.83,5.37-16.34,12.75-2.04,3.33-4.66,9.29-2.47,33.07.7,7.59,1.99,18.08,4.58,30.53Z"/>
    <path class="cls-66" d="m183.18,509.19c35.18,19.12,70.35,38.24,105.53,57.35-2.86,1.04-7.36,2.38-12.95,2.7-13.38.77-25.67-4.7-53.26-26.28-10.62-8.3-24.19-19.53-39.32-33.77Z"/>
    <path class="cls-19" d="m183.18,509.19c35.18,19.12,70.35,38.24,105.53,57.35-17.06-7.42-35.3-16.17-54.33-26.53-18.8-10.23-35.86-20.66-51.2-30.83Z"/>
    <path class="cls-50" d="m183.43,509.36c.11-.12,11.92,11.14,31.78,26.95,31.48,25.07,45.24,31.35,60.16,31.71,5.79.14,10.55-.65,13.59-1.3-2.86,1.04-7.36,2.38-12.95,2.7-13.38.77-25.67-4.7-53.26-26.28-22.66-17.72-39.45-33.62-39.32-33.77Z"/>
    <path class="cls-31" d="m282.01,475.63c-17-24.15-34-48.29-51-72.44,3.96,10.44,10.04,23.53,19.47,37.34,10.76,15.76,22.31,27.23,31.52,35.1Z"/>
    <path class="cls-37" d="m282.01,475.63c-8.96-8.42-19.42-19.65-29.51-34.07-9.81-14.02-16.68-27.31-21.48-38.37,3.96,10.45,10.04,23.53,19.47,37.34,10.76,15.76,22.31,27.23,31.52,35.1Z"/>
    <path class="cls-46" d="m282.09,475.66c-17-24.15-34-48.29-51-72.44,7.15,11.3,14.85,22.91,23.14,34.75,9.35,13.36,18.67,25.91,27.86,37.69Z"/>
    <path class="cls-14" d="m337.5,580.31c-8.4-28.31-16.79-56.62-25.19-84.93.42,11.16,2,25.5,6.52,41.61,5.16,18.37,12.44,32.93,18.66,43.33Z"/>
    <path class="cls-62" d="m337.5,580.31c-5.8-10.84-12.12-24.83-17.08-41.72-4.82-16.42-7.08-31.2-8.1-43.22.42,11.17,2,25.5,6.52,41.61,5.16,18.37,12.44,32.93,18.66,43.33Z"/>
    <path class="cls-41" d="m337.56,580.36c-8.4-28.31-16.79-56.62-25.19-84.93,3.17,12.99,6.75,26.45,10.82,40.32,4.59,15.64,9.42,30.52,14.36,44.62Z"/>
    <path class="cls-59" d="m157.38,481.79c7.07,7.82,14.13,15.64,21.2,23.46.05-2.39-.24-5.17-1.34-8.05-4.43-11.69-18.08-15.01-19.86-15.41Z"/>
    <path class="cls-51" d="m157.38,481.79c2.79.95,8.75,3.41,13.94,9.31,4.85,5.52,6.6,11.29,7.26,14.15.05-2.39-.24-5.17-1.34-8.05-4.43-11.69-18.08-15.01-19.86-15.41Z"/>
    <path class="cls-8" d="m157.38,481.79c7.07,7.82,14.13,15.64,21.2,23.46-1.31-2.12-2.79-4.31-4.46-6.53-5.49-7.31-11.43-12.82-16.74-16.93Z"/>
    <path class="cls-54" d="m258.62,687.97c-5.62-8.2-13.75-22.8-15.38-42.27-.85-10.16-2.13-25.37,7.39-39.07,6.02-8.67,13.75-12.97,17.4-14.94,14.25-7.72,27.89-6.82,32.64-6.3,2.37.26,20.7,2.62,34.85,17.39,23.25,24.25,13.29,60.5,12.77,62.28.42-5.07.06-9.97-.95-14.62,0,0-.67-3.07-2.46-7.43,0,0-3.44-8.4-9.16-15.17-7.32-8.67-35.98-25.96-60.4-13-22.66,12.03-32.71,45.38-16.7,73.12Z"/>
    <path class="cls-55" d="m258.69,687.94c-1.97-2.75-14.28-20.58-8.83-43.33,1.24-5.2,5.97-21.33,21.62-30.83,18.61-11.31,41.9-6.81,56.58,4.13,2.34,1.74,16.26,12.44,19.85,31.43,1.22,6.46.89,11.99.38,15.73.36-4.39.26-10.18-1.48-16.61-.54-1.99-1.18-3.82-1.85-5.47,0,0-.86-2.1-2.43-5.04-1.23-2.31-3.4-6.35-6.73-10.13-3.74-4.26-7.47-6.49-11.41-8.86-2.55-1.53-7.17-4.06-13.43-6.04-1.95-.62-6.35-1.99-11.34-2.49-1.53-.15-13.08-1.18-24.22,4.4-18.52,9.28-23.1,30.45-23.93,34.92-3.58,19.13,4.75,34.09,7.23,38.2Z"/>
    <path class="cls-5" d="m111,563.98c-.25-.39-.52-1.21-.77-2,.1.93.17,1.87.22,2.81.08-.14.16-.29.24-.43.06-.1.18-.23.31-.38Z"/>
    <path class="cls-27" d="m251.39,613.26c2.56-3.34,11.61-14.81,27.89-19.55,17.76-5.17,32.66,1,38.86,3.58,14.61,6.06,23.5,15.85,27.77,21.33-2.34-5.51-5.67-10.91-10.38-15.83-14.15-14.76-32.48-17.12-34.85-17.39-4.75-.53-18.39-1.42-32.64,6.3-3.65,1.98-11.38,6.27-17.4,14.94-5.11,7.36-7.11,15.16-7.73,22.37,1.4-4.02,3.91-9.79,8.48-15.75Z"/>
  </g>
  <g>
    <path class="cls-1" d="m440.67,228.43c-39.94,8.03-79.87,16.07-119.81,24.1,2.47,1.87,6.45,4.52,11.78,6.51,12.77,4.76,26.37,3.13,59.67-9.58,12.81-4.89,29.38-11.73,48.36-21.03Z"/>
    <path class="cls-44" d="m440.67,228.43c-39.94,8.03-79.87,16.07-119.81,24.1,18.81-2.09,39.17-5.14,60.78-9.49,21.35-4.31,41.06-9.32,59.03-14.61Z"/>
    <path class="cls-18" d="m440.38,228.53c-.07-.15-14.93,7.26-38.98,16.67-38.13,14.93-53.39,16.91-68,12.78-5.67-1.6-10.06-3.79-12.82-5.34,2.47,1.87,6.45,4.52,11.78,6.51,12.77,4.76,26.37,3.13,59.67-9.58,27.35-10.43,48.44-20.85,48.36-21.03Z"/>
    <path class="cls-32" d="m445.57,227.6c10.59-2.06,21.18-4.12,31.77-6.18-1.42,1.99-3.37,4.08-6.04,5.77-10.81,6.85-24.03,1.18-25.73.41Z"/>
    <path class="cls-3" d="m445.57,227.6c2.87.93,9.26,2.58,17.14.94,7.37-1.54,12.34-5.19,14.64-7.12-1.42,1.99-3.37,4.08-6.04,5.77-10.81,6.85-24.03,1.18-25.73.41Z"/>
    <path class="cls-61" d="m445.57,227.6c10.59-2.06,21.18-4.12,31.77-6.18-2.38.93-4.94,1.81-7.67,2.6-8.99,2.61-17.24,3.48-24.11,3.58Z"/>
    <path class="cls-33" d="m263.34,175.51c-.2,34.59-.39,69.17-.59,103.76,3.32-12.65,6.41-29.27,6.8-48.86.44-22.34-2.77-41.14-6.22-54.91Z"/>
    <path class="cls-36" d="m263.34,175.51c2.83,14.12,5.16,31.94,4.99,52.56-.16,20.04-2.65,37.38-5.58,51.2,3.32-12.66,6.41-29.27,6.8-48.86.44-22.34-2.77-41.14-6.22-54.91Z"/>
    <path class="cls-20" d="m263.29,175.43c-.2,34.59-.39,69.17-.59,103.76.86-15.64,1.4-31.94,1.55-48.87.16-19.09-.2-37.41-.96-54.89Z"/>
    <path class="cls-7" d="m316,253.41c-18.29,18.18-36.57,36.37-54.86,54.55-1.13-4.76-2.22-12.75,1.33-20.6,1.6-3.54,5.03-9.05,25.83-20.58,6.64-3.68,16-8.5,27.7-13.36Z"/>
    <path class="cls-58" d="m316.02,253.41c-18.29,18.18-36.57,36.37-54.86,54.55,9.47-10.72,19.95-21.8,31.5-33.03,7.91-7.68,15.72-14.85,23.36-21.52Z"/>
    <path class="cls-29" d="m316,253.41c-9.12,3.86-16.17,7.85-20.89,10.77-14.1,8.7-28.26,17.45-32.64,32.96-1.28,4.53-1.39,8.44-1.33,10.82-1.13-4.76-2.22-12.75,1.33-20.6,1.6-3.54,5.03-9.05,25.83-20.58,6.64-3.68,16-8.5,27.7-13.36Z"/>
    <path class="cls-2" d="m261.47,316.26c-4.84-1.24-11.3,5.52-13.29,12.19-1.71,5.73-.89,13.94,4.78,17.98,2.66,1.89,7.38,3.57,10.89,1.58,4.58-2.61,4.3-9.9,4.12-14.63-.11-2.96-.59-15.61-6.5-17.12Z"/>
    <path class="cls-71" d="m256.18,317.47c-1.69,1.18-6.23,4.7-8,10.98-.16.56-2.76,10.4,3.02,16.45.99,1.03,1.99,1.71,2.71,2.14-1.6-2.22-4.13-6.49-4.28-12.13-.08-3.06.56-5.43.98-6.92,1.4-5,3.9-8.52,5.57-10.53Z"/>
    <path class="cls-70" d="m261.09,316.18c2.23,4.15,3.25,7.83,3.77,10.4,1.6,8.02.17,14.99-.69,18.99-.24,1.1-.47,2-.63,2.62.7-.41,1.77-1.16,2.63-2.42.81-1.19,1.1-2.33,1.3-3.31.66-3.25.64-6.3.51-9.09-.11-2.3-.23-4.46-.72-7.36-.24-1.4-.83-4.5-2.37-7-.66-1.06-1.43-1.92-2.53-2.44-.5-.23-.95-.35-1.26-.4Z"/>
    <path class="cls-28" d="m478.04,172.25c-98.24-63.29-217.63-47.25-276.14,23-57.03,68.47-34.16,161.96-31.28,172.99-2.8-13.22-19.81-100.23,34.7-165.81,58.03-69.82,173.93-87.47,272.72-30.18Z"/>
  </g>
</svg>