<?xml version="1.0" encoding="UTF-8"?>
<svg id="_Слой_1" data-name="Слой 1" xmlns="http://www.w3.org/2000/svg" xmlns:xlink="http://www.w3.org/1999/xlink" viewBox="0 0 1523.15 1229.88">
  <defs>
    <style>
      .cls-1 {
        fill: url(#_Безымянный_градиент_4-22);
      }

      .cls-2 {
        fill: url(#_Безымянный_градиент_4-26);
      }

      .cls-3 {
        fill: url(#_Безымянный_градиент_4-58);
      }

      .cls-4 {
        fill: url(#_Безымянный_градиент_8-20);
      }

      .cls-5 {
        fill: url(#_Безымянный_градиент_4-9);
      }

      .cls-6 {
        fill: url(#_Безымянный_градиент_4-21);
      }

      .cls-7 {
        fill: url(#_Безымянный_градиент_4-60);
      }

      .cls-8 {
        fill: url(#_Безымянный_градиент_4-40);
      }

      .cls-9 {
        fill: url(#_Безымянный_градиент_8-5);
      }

      .cls-10 {
        fill: url(#_Безымянный_градиент_4-25);
      }

      .cls-11 {
        fill: url(#_Безымянный_градиент_10-16);
      }

      .cls-12 {
        fill: url(#_Безымянный_градиент_8-9);
      }

      .cls-13 {
        fill: url(#_Безымянный_градиент_4-14);
      }

      .cls-14 {
        fill: url(#_Безымянный_градиент_10-10);
      }

      .cls-15 {
        fill: url(#_Безымянный_градиент_4-15);
      }

      .cls-16 {
        fill: url(#_Безымянный_градиент_4-35);
      }

      .cls-17 {
        fill: url(#_Безымянный_градиент_4-7);
      }

      .cls-18 {
        fill: url(#_Безымянный_градиент_4-34);
      }

      .cls-19 {
        fill: url(#_Безымянный_градиент_4-18);
      }

      .cls-20 {
        fill: url(#_Безымянный_градиент_10-2);
      }

      .cls-21 {
        fill: url(#_Безымянный_градиент_4-10);
      }

      .cls-22 {
        fill: url(#_Безымянный_градиент_132);
      }

      .cls-23 {
        fill: url(#_Безымянный_градиент_10-17);
      }

      .cls-24 {
        fill: url(#_Безымянный_градиент_4-46);
      }

      .cls-25 {
        fill: url(#_Безымянный_градиент_8-14);
      }

      .cls-26 {
        fill: #aa801c;
        font-family: 1IsadoraMBold, '1Isadora M Bold';
        font-size: 89.9px;
      }

      .cls-27 {
        fill: url(#_Безымянный_градиент_4-55);
      }

      .cls-28 {
        fill: url(#_Безымянный_градиент_10-19);
      }

      .cls-29 {
        fill: url(#_Безымянный_градиент_8-13);
      }

      .cls-30 {
        fill: url(#_Безымянный_градиент_4-45);
      }

      .cls-31 {
        fill: url(#_Безымянный_градиент_8-11);
      }

      .cls-32 {
        fill: url(#_Безымянный_градиент_4-50);
      }

      .cls-33 {
        fill: url(#_Безымянный_градиент_4-48);
      }

      .cls-34 {
        fill: url(#_Безымянный_градиент_8);
      }

      .cls-35 {
        fill: url(#_Безымянный_градиент_8-8);
      }

      .cls-36 {
        fill: url(#_Безымянный_градиент_4-13);
      }

      .cls-37 {
        fill: url(#_Безымянный_градиент_4-2);
      }

      .cls-38 {
        fill: url(#_Безымянный_градиент_4-47);
      }

      .cls-39 {
        fill: url(#_Безымянный_градиент_4-57);
      }

      .cls-40 {
        fill: url(#_Безымянный_градиент_8-18);
      }

      .cls-41 {
        fill: url(#_Безымянный_градиент_4-27);
      }

      .cls-42 {
        fill: url(#_Безымянный_градиент_8-22);
      }

      .cls-43 {
        fill: url(#_Безымянный_градиент_10-9);
      }

      .cls-44 {
        fill: url(#_Безымянный_градиент_4-17);
      }

      .cls-45 {
        fill: url(#_Безымянный_градиент_4-36);
      }

      .cls-46 {
        fill: url(#_Безымянный_градиент_4-43);
      }

      .cls-47 {
        fill: url(#_Безымянный_градиент_4-59);
      }

      .cls-48 {
        fill: url(#_Безымянный_градиент_4-33);
      }

      .cls-49 {
        fill: url(#_Безымянный_градиент_4-53);
      }

      .cls-50 {
        fill: url(#_Безымянный_градиент_4-23);
      }

      .cls-51 {
        fill: url(#_Безымянный_градиент_4-24);
      }

      .cls-52 {
        fill: url(#_Безымянный_градиент_4-8);
      }

      .cls-53 {
        fill: url(#_Безымянный_градиент_4-29);
      }

      .cls-54 {
        fill: url(#_Безымянный_градиент_10);
      }

      .cls-55 {
        fill: url(#_Безымянный_градиент_8-21);
      }

      .cls-56 {
        fill: url(#_Безымянный_градиент_10-14);
      }

      .cls-57 {
        fill: url(#_Безымянный_градиент_10-12);
      }

      .cls-58 {
        fill: url(#_Безымянный_градиент_4-28);
      }

      .cls-59 {
        fill: url(#_Безымянный_градиент_4-30);
      }

      .cls-60 {
        fill: url(#_Безымянный_градиент_8-4);
      }

      .cls-61 {
        fill: url(#_Безымянный_градиент_8-10);
      }

      .cls-62 {
        fill: url(#_Безымянный_градиент_8-16);
      }

      .cls-63 {
        fill: url(#_Безымянный_градиент_4-11);
      }

      .cls-64 {
        fill: url(#_Безымянный_градиент_10-3);
      }

      .cls-65 {
        fill: url(#_Безымянный_градиент_4-56);
      }

      .cls-66 {
        fill: url(#_Безымянный_градиент_4-37);
      }

      .cls-67 {
        fill: url(#_Безымянный_градиент_4-52);
      }

      .cls-68 {
        fill: url(#_Безымянный_градиент_8-19);
      }

      .cls-69 {
        fill: url(#_Безымянный_градиент_4-51);
      }

      .cls-70 {
        fill: url(#_Безымянный_градиент_4-38);
      }

      .cls-71 {
        fill: url(#_Безымянный_градиент_4-32);
      }

      .cls-72 {
        fill: url(#_Безымянный_градиент_10-6);
      }

      .cls-73 {
        fill: url(#_Безымянный_градиент_8-15);
      }

      .cls-74 {
        fill: url(#_Безымянный_градиент_4);
      }

      .cls-75 {
        fill: url(#_Безымянный_градиент_4-49);
      }

      .cls-76 {
        fill: url(#_Безымянный_градиент_10-8);
      }

      .cls-77 {
        fill: url(#_Безымянный_градиент_4-54);
      }

      .cls-78 {
        fill: url(#_Безымянный_градиент_10-7);
      }

      .cls-79 {
        fill: url(#_Безымянный_градиент_4-41);
      }

      .cls-80 {
        fill: url(#_Безымянный_градиент_10-13);
      }

      .cls-81 {
        fill: url(#_Безымянный_градиент_8-17);
      }

      .cls-82 {
        fill: url(#_Безымянный_градиент_4-4);
      }

      .cls-83 {
        fill: url(#_Безымянный_градиент_8-2);
      }

      .cls-84 {
        fill: url(#_Безымянный_градиент_4-20);
      }

      .cls-85 {
        fill: url(#_Безымянный_градиент_132-2);
      }

      .cls-86 {
        fill: url(#_Безымянный_градиент_4-5);
      }

      .cls-87 {
        fill: url(#_Безымянный_градиент_4-3);
      }

      .cls-88 {
        fill: url(#_Безымянный_градиент_10-20);
      }

      .cls-89 {
        fill: url(#_Безымянный_градиент_4-19);
      }

      .cls-90 {
        fill: url(#_Безымянный_градиент_4-31);
      }

      .cls-91 {
        fill: url(#_Безымянный_градиент_8-7);
      }

      .cls-92 {
        fill: url(#_Безымянный_градиент_4-44);
      }

      .cls-93 {
        fill: url(#_Безымянный_градиент_10-18);
      }

      .cls-94 {
        fill: url(#_Безымянный_градиент_10-15);
      }

      .cls-95 {
        fill: url(#_Безымянный_градиент_10-5);
      }

      .cls-96 {
        fill: url(#_Безымянный_градиент_10-11);
      }

      .cls-97 {
        fill: url(#_Безымянный_градиент_8-6);
      }

      .cls-98 {
        fill: url(#_Безымянный_градиент_4-61);
      }

      .cls-99 {
        fill: url(#_Безымянный_градиент_4-16);
      }

      .cls-100 {
        fill: url(#_Безымянный_градиент_4-6);
      }

      .cls-101 {
        fill: url(#_Безымянный_градиент_8-3);
      }

      .cls-102 {
        fill: url(#_Безымянный_градиент_8-12);
      }

      .cls-103 {
        fill: url(#_Безымянный_градиент_10-21);
      }

      .cls-104 {
        fill: url(#_Безымянный_градиент_8-23);
      }

      .cls-105 {
        fill: url(#_Безымянный_градиент_4-39);
      }

      .cls-106 {
        fill: url(#_Безымянный_градиент_4-12);
      }

      .cls-107 {
        fill: url(#_Безымянный_градиент_10-4);
      }

      .cls-108 {
        fill: url(#_Безымянный_градиент_4-42);
      }
    </style>
    <linearGradient id="_Безымянный_градиент_4" data-name="Безымянный градиент 4" x1="648.53" y1="955.38" x2="651.08" y2="624.05" gradientUnits="userSpaceOnUse">
      <stop offset="0" stop-color="#653513"/>
      <stop offset=".06" stop-color="#653513"/>
      <stop offset=".12" stop-color="#7c4f10"/>
      <stop offset=".27" stop-color="#b38c0b"/>
      <stop offset=".39" stop-color="#dab907"/>
      <stop offset=".49" stop-color="#f2d404"/>
      <stop offset=".55" stop-color="#fcdf04"/>
      <stop offset="1" stop-color="#fcdf04"/>
    </linearGradient>
    <linearGradient id="_Безымянный_градиент_4-2" data-name="Безымянный градиент 4" x1="696.49" y1="955.74" x2="699.04" y2="624.42" xlink:href="#_Безымянный_градиент_4"/>
    <linearGradient id="_Безымянный_градиент_4-3" data-name="Безымянный градиент 4" x1="673.84" y1="955.57" x2="676.39" y2="624.24" xlink:href="#_Безымянный_градиент_4"/>
    <linearGradient id="_Безымянный_градиент_4-4" data-name="Безымянный градиент 4" x1="660.57" y1="955.47" x2="663.11" y2="624.14" xlink:href="#_Безымянный_градиент_4"/>
    <linearGradient id="_Безымянный_градиент_4-5" data-name="Безымянный градиент 4" x1="711.52" y1="955.86" x2="714.06" y2="624.53" xlink:href="#_Безымянный_градиент_4"/>
    <linearGradient id="_Безымянный_градиент_4-6" data-name="Безымянный градиент 4" x1="685.91" y1="955.66" x2="688.46" y2="624.34" xlink:href="#_Безымянный_градиент_4"/>
    <linearGradient id="_Безымянный_градиент_4-7" data-name="Безымянный градиент 4" x1="696.75" y1="955.75" x2="699.3" y2="624.42" xlink:href="#_Безымянный_градиент_4"/>
    <linearGradient id="_Безымянный_градиент_4-8" data-name="Безымянный градиент 4" x1="673.84" y1="955.57" x2="676.39" y2="624.24" xlink:href="#_Безымянный_градиент_4"/>
    <linearGradient id="_Безымянный_градиент_4-9" data-name="Безымянный градиент 4" y2="624.05" xlink:href="#_Безымянный_градиент_4"/>
    <linearGradient id="_Безымянный_градиент_4-10" data-name="Безымянный градиент 4" x1="685.91" y1="955.66" x2="688.46" y2="624.34" xlink:href="#_Безымянный_градиент_4"/>
    <linearGradient id="_Безымянный_градиент_4-11" data-name="Безымянный градиент 4" x1="684.75" y1="955.65" x2="687.3" y2="624.33" xlink:href="#_Безымянный_градиент_4"/>
    <linearGradient id="_Безымянный_градиент_4-12" data-name="Безымянный градиент 4" x1="660.57" y1="955.47" x2="663.11" y2="624.14" xlink:href="#_Безымянный_градиент_4"/>
    <linearGradient id="_Безымянный_градиент_4-13" data-name="Безымянный градиент 4" x1="711.52" y1="955.86" x2="714.06" y2="624.53" xlink:href="#_Безымянный_градиент_4"/>
    <linearGradient id="_Безымянный_градиент_4-14" data-name="Безымянный градиент 4" x1="685.91" y1="955.66" x2="688.46" y2="624.34" xlink:href="#_Безымянный_градиент_4"/>
    <linearGradient id="_Безымянный_градиент_4-15" data-name="Безымянный градиент 4" x1="673.84" y1="955.57" x2="676.39" y2="624.24" xlink:href="#_Безымянный_градиент_4"/>
    <linearGradient id="_Безымянный_градиент_4-16" data-name="Безымянный градиент 4" x1="660.57" y1="955.47" x2="663.11" y2="624.14" xlink:href="#_Безымянный_градиент_4"/>
    <linearGradient id="_Безымянный_градиент_4-17" data-name="Безымянный градиент 4" x1="711.52" y1="955.86" x2="714.06" y2="624.53" xlink:href="#_Безымянный_градиент_4"/>
    <linearGradient id="_Безымянный_градиент_4-18" data-name="Безымянный градиент 4" x1="696.49" y1="955.74" x2="699.04" y2="624.42" xlink:href="#_Безымянный_градиент_4"/>
    <linearGradient id="_Безымянный_градиент_4-19" data-name="Безымянный градиент 4" x1="284.85" y1="952.58" x2="287.4" y2="621.25" xlink:href="#_Безымянный_градиент_4"/>
    <linearGradient id="_Безымянный_градиент_4-20" data-name="Безымянный градиент 4" x1="420.9" y1="953.62" x2="423.45" y2="622.3" xlink:href="#_Безымянный_градиент_4"/>
    <linearGradient id="_Безымянный_градиент_4-21" data-name="Безымянный градиент 4" x1="542.38" y1="954.56" x2="544.93" y2="623.23" xlink:href="#_Безымянный_градиент_4"/>
    <linearGradient id="_Безымянный_градиент_4-22" data-name="Безымянный градиент 4" x1="691.55" y1="955.71" x2="694.1" y2="624.38" xlink:href="#_Безымянный_градиент_4"/>
    <linearGradient id="_Безымянный_градиент_4-23" data-name="Безымянный градиент 4" x1="759.64" y1="956.23" x2="762.19" y2="624.9" xlink:href="#_Безымянный_градиент_4"/>
    <linearGradient id="_Безымянный_градиент_4-24" data-name="Безымянный градиент 4" x1="759.34" y1="956.23" x2="761.89" y2="624.9" xlink:href="#_Безымянный_градиент_4"/>
    <linearGradient id="_Безымянный_градиент_4-25" data-name="Безымянный градиент 4" x1="759.64" y1="956.23" x2="762.19" y2="624.9" xlink:href="#_Безымянный_градиент_4"/>
    <linearGradient id="_Безымянный_градиент_4-26" data-name="Безымянный градиент 4" x1="759.64" y1="956.23" x2="762.19" y2="624.9" xlink:href="#_Безымянный_градиент_4"/>
    <linearGradient id="_Безымянный_градиент_4-27" data-name="Безымянный градиент 4" x1="759.34" y1="956.23" x2="761.89" y2="624.9" xlink:href="#_Безымянный_градиент_4"/>
    <linearGradient id="_Безымянный_градиент_4-28" data-name="Безымянный градиент 4" x1="759.64" y1="956.23" x2="762.19" y2="624.9" xlink:href="#_Безымянный_градиент_4"/>
    <linearGradient id="_Безымянный_градиент_4-29" data-name="Безымянный градиент 4" x1="759.22" y1="956.23" x2="761.77" y2="624.9" xlink:href="#_Безымянный_градиент_4"/>
    <linearGradient id="_Безымянный_градиент_4-30" data-name="Безымянный градиент 4" x1="829.76" y1="956.77" x2="832.31" y2="625.44" xlink:href="#_Безымянный_градиент_4"/>
    <linearGradient id="_Безымянный_градиент_4-31" data-name="Безымянный градиент 4" x1="957.35" y1="957.75" x2="959.9" y2="626.42" xlink:href="#_Безымянный_градиент_4"/>
    <linearGradient id="_Безымянный_градиент_4-32" data-name="Безымянный градиент 4" x1="1105.45" y1="958.89" x2="1108" y2="627.56" xlink:href="#_Безымянный_градиент_4"/>
    <linearGradient id="_Безымянный_градиент_4-33" data-name="Безымянный градиент 4" x1="1269.51" y1="960.15" x2="1272.06" y2="628.83" xlink:href="#_Безымянный_градиент_4"/>
    <linearGradient id="_Безымянный_градиент_4-34" data-name="Безымянный градиент 4" x1="249.23" y1="493.45" x2="614.25" y2="482.82" xlink:href="#_Безымянный_градиент_4"/>
    <linearGradient id="_Безымянный_градиент_4-35" data-name="Безымянный градиент 4" x1="213.64" y1="467.29" x2="191.39" y2="434.33" xlink:href="#_Безымянный_градиент_4"/>
    <radialGradient id="_Безымянный_градиент_10" data-name="Безымянный градиент 10" cx="207.16" cy="460.7" fx="207.16" fy="460.7" r="12.9" gradientUnits="userSpaceOnUse">
      <stop offset="0" stop-color="#31160d"/>
      <stop offset=".54" stop-color="#31160d" stop-opacity=".5"/>
      <stop offset="1" stop-color="#31160d" stop-opacity="0"/>
    </radialGradient>
    <radialGradient id="_Безымянный_градиент_8" data-name="Безымянный градиент 8" cx="203.93" cy="449.75" fx="203.93" fy="449.75" r="13.79" gradientUnits="userSpaceOnUse">
      <stop offset="0" stop-color="#fff" stop-opacity=".85"/>
      <stop offset=".45" stop-color="#fff" stop-opacity=".5"/>
      <stop offset="1" stop-color="#fff" stop-opacity="0"/>
    </radialGradient>
    <linearGradient id="_Безымянный_градиент_4-36" data-name="Безымянный градиент 4" x1="272.75" y1="422.09" x2="252.7" y2="388.25" xlink:href="#_Безымянный_градиент_4"/>
    <radialGradient id="_Безымянный_градиент_10-2" data-name="Безымянный градиент 10" cx="269.78" cy="417.05" fx="269.78" fy="417.05" r="31.43" xlink:href="#_Безымянный_градиент_10"/>
    <radialGradient id="_Безымянный_градиент_8-2" data-name="Безымянный градиент 8" cx="269.75" cy="417.05" fx="269.75" fy="417.05" r="31.43" xlink:href="#_Безымянный_градиент_8"/>
    <linearGradient id="_Безымянный_градиент_4-37" data-name="Безымянный градиент 4" x1="374.49" y1="352.01" x2="342.49" y2="322.9" xlink:href="#_Безымянный_градиент_4"/>
    <radialGradient id="_Безымянный_градиент_8-3" data-name="Безымянный градиент 8" cx="357.63" cy="336.68" fx="357.63" fy="336.68" r="46.82" xlink:href="#_Безымянный_градиент_8"/>
    <radialGradient id="_Безымянный_градиент_10-3" data-name="Безымянный градиент 10" cx="357.45" cy="336.95" fx="357.45" fy="336.95" r="46.82" xlink:href="#_Безымянный_градиент_10"/>
    <linearGradient id="_Безымянный_градиент_4-38" data-name="Безымянный градиент 4" x1="300.15" y1="455.75" x2="301.76" y2="429.92" xlink:href="#_Безымянный_градиент_4"/>
    <radialGradient id="_Безымянный_градиент_8-4" data-name="Безымянный градиент 8" cx="300.53" cy="446.71" fx="300.53" fy="446.71" r="42.79" xlink:href="#_Безымянный_градиент_8"/>
    <radialGradient id="_Безымянный_градиент_10-4" data-name="Безымянный градиент 10" cx="300.63" cy="449.58" fx="300.63" fy="449.58" r="42.68" xlink:href="#_Безымянный_градиент_10"/>
    <linearGradient id="_Безымянный_градиент_4-39" data-name="Безымянный градиент 4" x1="415.42" y1="265.26" x2="389.43" y2="257.8" xlink:href="#_Безымянный_градиент_4"/>
    <radialGradient id="_Безымянный_градиент_8-5" data-name="Безымянный градиент 8" cx="407.2" cy="263.31" fx="407.2" fy="263.31" r="13.42" xlink:href="#_Безымянный_градиент_8"/>
    <radialGradient id="_Безымянный_градиент_10-5" data-name="Безымянный градиент 10" cx="408.61" cy="263.31" fx="408.61" fy="263.31" r="13.11" xlink:href="#_Безымянный_градиент_10"/>
    <linearGradient id="_Безымянный_градиент_4-40" data-name="Безымянный градиент 4" x1="104.5" y1="359.14" x2="398.14" y2="359.14" xlink:href="#_Безымянный_градиент_4"/>
    <linearGradient id="_Безымянный_градиент_4-41" data-name="Безымянный градиент 4" x1="10303.09" y1="-5793.43" x2="10280.83" y2="-5826.39" gradientTransform="translate(11657.76 4761.69) rotate(-129.07)" xlink:href="#_Безымянный_градиент_4"/>
    <radialGradient id="_Безымянный_градиент_10-6" data-name="Безымянный градиент 10" cx="10296.6" cy="-5800.01" fx="10296.6" fy="-5800.01" r="12.9" gradientTransform="translate(11657.76 4761.69) rotate(-129.07)" xlink:href="#_Безымянный_градиент_10"/>
    <radialGradient id="_Безымянный_градиент_8-6" data-name="Безымянный градиент 8" cx="10293.38" cy="-5810.96" fx="10293.38" fy="-5810.96" r="13.79" gradientTransform="translate(11657.76 4761.69) rotate(-129.07)" xlink:href="#_Безымянный_градиент_8"/>
    <linearGradient id="_Безымянный_градиент_4-42" data-name="Безымянный градиент 4" x1="7046.2" y1="-6732.84" x2="7026.15" y2="-6766.69" gradientTransform="translate(8541.93 6038.94) rotate(-100.79)" xlink:href="#_Безымянный_градиент_4"/>
    <radialGradient id="_Безымянный_градиент_10-7" data-name="Безымянный градиент 10" cx="7043.23" cy="-6737.89" fx="7043.23" fy="-6737.89" r="31.43" gradientTransform="translate(8541.93 6038.94) rotate(-100.79)" xlink:href="#_Безымянный_градиент_10"/>
    <radialGradient id="_Безымянный_градиент_8-7" data-name="Безымянный градиент 8" cx="7043.2" cy="-6737.89" fx="7043.2" fy="-6737.89" r="31.43" gradientTransform="translate(8541.93 6038.94) rotate(-100.79)" xlink:href="#_Безымянный_градиент_8"/>
    <linearGradient id="_Безымянный_градиент_4-43" data-name="Безымянный градиент 4" x1="1352.85" y1="-3767.86" x2="1320.85" y2="-3796.98" gradientTransform="translate(1869.87 4075.64) rotate(-38.25)" xlink:href="#_Безымянный_градиент_4"/>
    <radialGradient id="_Безымянный_градиент_8-8" data-name="Безымянный градиент 8" cx="1336" cy="-3783.2" fx="1336" fy="-3783.2" r="46.82" gradientTransform="translate(1869.87 4075.64) rotate(-38.25)" xlink:href="#_Безымянный_градиент_8"/>
    <radialGradient id="_Безымянный_градиент_10-8" data-name="Безымянный градиент 10" cx="1335.81" cy="-3782.92" fx="1335.81" fy="-3782.92" r="46.82" gradientTransform="translate(1869.87 4075.64) rotate(-38.25)" xlink:href="#_Безымянный_градиент_10"/>
    <linearGradient id="_Безымянный_градиент_4-44" data-name="Безымянный градиент 4" x1="2794.38" y1="4445.83" x2="2795.98" y2="4420.01" gradientTransform="translate(1548.07 -4696.93) rotate(41.89)" xlink:href="#_Безымянный_градиент_4"/>
    <radialGradient id="_Безымянный_градиент_8-9" data-name="Безымянный градиент 8" cx="2794.76" cy="4436.79" fx="2794.76" fy="4436.79" r="42.79" gradientTransform="translate(1548.07 -4696.93) rotate(41.89)" xlink:href="#_Безымянный_градиент_8"/>
    <radialGradient id="_Безымянный_градиент_10-9" data-name="Безымянный градиент 10" cx="2794.85" cy="4439.66" fx="2794.85" fy="4439.66" r="42.68" gradientTransform="translate(1548.07 -4696.93) rotate(41.89)" xlink:href="#_Безымянный_градиент_10"/>
    <linearGradient id="_Безымянный_градиент_4-45" data-name="Безымянный градиент 4" x1="591.69" y1="189.26" x2="565.71" y2="181.8" xlink:href="#_Безымянный_градиент_4"/>
    <radialGradient id="_Безымянный_градиент_8-10" data-name="Безымянный градиент 8" cx="583.47" cy="187.3" fx="583.47" fy="187.3" r="13.42" xlink:href="#_Безымянный_градиент_8"/>
    <radialGradient id="_Безымянный_градиент_10-10" data-name="Безымянный градиент 10" cx="584.88" cy="187.3" fx="584.88" fy="187.3" r="13.11" xlink:href="#_Безымянный_градиент_10"/>
    <linearGradient id="_Безымянный_градиент_4-46" data-name="Безымянный градиент 4" x1="547.34" y1="501.85" x2="544.79" y2="323.51" xlink:href="#_Безымянный_градиент_4"/>
    <radialGradient id="_Безымянный_градиент_132" data-name="Безымянный градиент 132" cx="549.22" cy="490.82" fx="549.22" fy="490.82" r="91.09" gradientUnits="userSpaceOnUse">
      <stop offset=".36" stop-color="#31160d"/>
      <stop offset=".54" stop-color="#31160d" stop-opacity=".5"/>
      <stop offset=".65" stop-color="#31160d" stop-opacity="0"/>
    </radialGradient>
    <radialGradient id="_Безымянный_градиент_8-11" data-name="Безымянный градиент 8" cx="545.34" cy="386.44" fx="545.34" fy="386.44" r="67.25" xlink:href="#_Безымянный_градиент_8"/>
    <linearGradient id="_Безымянный_градиент_4-47" data-name="Безымянный градиент 4" x1="762.07" y1="649.34" x2="760.35" y2="506.58" xlink:href="#_Безымянный_градиент_4"/>
    <linearGradient id="_Безымянный_градиент_4-48" data-name="Безымянный градиент 4" x1="8523.8" y1="-1509.27" x2="8548.09" y2="-1548.88" gradientTransform="translate(9241.48 -2115.97) rotate(154.03) scale(1 -1)" xlink:href="#_Безымянный_градиент_4"/>
    <radialGradient id="_Безымянный_градиент_8-12" data-name="Безымянный градиент 8" cx="9786.42" cy="367.05" fx="9786.42" fy="367.05" r="11.45" gradientTransform="translate(9253.17 -4862.48) rotate(146.4)" xlink:href="#_Безымянный_градиент_8"/>
    <radialGradient id="_Безымянный_градиент_10-11" data-name="Безымянный градиент 10" cx="9783.55" cy="357.33" fx="9783.55" fy="357.33" r="12.24" gradientTransform="translate(9253.17 -4862.48) rotate(146.4)" xlink:href="#_Безымянный_градиент_10"/>
    <linearGradient id="_Безымянный_градиент_4-49" data-name="Безымянный градиент 4" x1="7567.78" y1="-2054.06" x2="7546.13" y2="-2090.61" gradientTransform="translate(-154.27 -7446.32) rotate(67.17) scale(1 -1)" xlink:href="#_Безымянный_градиент_4"/>
    <radialGradient id="_Безымянный_градиент_10-12" data-name="Безымянный градиент 10" cx="7564.57" cy="-2059.51" fx="7564.57" fy="-2059.51" r="33.93" gradientTransform="translate(-154.27 -7446.32) rotate(67.17) scale(1 -1)" xlink:href="#_Безымянный_градиент_10"/>
    <radialGradient id="_Безымянный_градиент_8-13" data-name="Безымянный градиент 8" cx="7564.54" cy="-2059.51" fx="7564.54" fy="-2059.51" r="33.94" gradientTransform="translate(-154.27 -7446.32) rotate(67.17) scale(1 -1)" xlink:href="#_Безымянный_градиент_8"/>
    <linearGradient id="_Безымянный_градиент_4-50" data-name="Безымянный градиент 4" x1="9103.17" y1="-1011.23" x2="9067.31" y2="-1043.86" gradientTransform="translate(9680.81 -1863.07) rotate(159.54) scale(1 -1)" xlink:href="#_Безымянный_градиент_4"/>
    <radialGradient id="_Безымянный_градиент_8-14" data-name="Безымянный градиент 8" cx="9084.28" cy="-1028.42" fx="9084.28" fy="-1028.42" r="52.48" gradientTransform="translate(9680.81 -1863.07) rotate(159.54) scale(1 -1)" xlink:href="#_Безымянный_градиент_8"/>
    <radialGradient id="_Безымянный_градиент_10-13" data-name="Безымянный градиент 10" cx="9084.07" cy="-1028.11" fx="9084.07" fy="-1028.11" r="52.48" gradientTransform="translate(9680.81 -1863.07) rotate(159.54) scale(1 -1)" xlink:href="#_Безымянный_градиент_10"/>
    <linearGradient id="_Безымянный_градиент_4-51" data-name="Безымянный градиент 4" x1="9304.74" y1="3579.35" x2="9300.99" y2="3559.95" gradientTransform="translate(10060.99 3991.59) rotate(-136.82) scale(1 -1)" xlink:href="#_Безымянный_градиент_4"/>
    <radialGradient id="_Безымянный_градиент_10-14" data-name="Безымянный градиент 10" cx="5077.88" cy="-6547.13" fx="5077.88" fy="-6547.13" r="38.81" gradientTransform="translate(3520.11 -7608.73) rotate(56.72) scale(1 -1)" xlink:href="#_Безымянный_градиент_10"/>
    <radialGradient id="_Безымянный_градиент_8-15" data-name="Безымянный градиент 8" cx="5077.96" cy="-6544.52" fx="5077.96" fy="-6544.52" r="38.71" gradientTransform="translate(3520.11 -7608.73) rotate(56.72) scale(1 -1)" xlink:href="#_Безымянный_градиент_8"/>
    <linearGradient id="_Безымянный_градиент_4-52" data-name="Безымянный градиент 4" x1="8262.72" y1="4800.02" x2="8258.97" y2="4780.62" gradientTransform="translate(9043.51 5367.87) rotate(-118.19) scale(1 -1)" xlink:href="#_Безымянный_градиент_4"/>
    <radialGradient id="_Безымянный_градиент_10-15" data-name="Безымянный градиент 10" cx="6376.64" cy="-7490.02" fx="6376.64" fy="-7490.02" r="38.81" gradientTransform="translate(6550.88 -7714.07) rotate(75.35) scale(1 -1)" xlink:href="#_Безымянный_градиент_10"/>
    <radialGradient id="_Безымянный_градиент_8-16" data-name="Безымянный градиент 8" cx="6376.72" cy="-7487.42" fx="6376.72" fy="-7487.42" r="38.71" gradientTransform="translate(6550.88 -7714.07) rotate(75.35) scale(1 -1)" xlink:href="#_Безымянный_градиент_8"/>
    <linearGradient id="_Безымянный_градиент_4-53" data-name="Безымянный градиент 4" x1="8718.11" y1="-1559.83" x2="8690.72" y2="-1567.69" gradientTransform="translate(9241.48 -2115.97) rotate(154.03) scale(1 -1)" xlink:href="#_Безымянный_градиент_4"/>
    <radialGradient id="_Безымянный_градиент_8-17" data-name="Безымянный градиент 8" cx="8709.44" cy="-1561.89" fx="8709.44" fy="-1561.89" r="14.14" gradientTransform="translate(9241.48 -2115.97) rotate(154.03) scale(1 -1)" xlink:href="#_Безымянный_градиент_8"/>
    <radialGradient id="_Безымянный_градиент_10-16" data-name="Безымянный градиент 10" cx="8710.92" cy="-1561.89" fx="8710.92" fy="-1561.89" r="13.81" gradientTransform="translate(9241.48 -2115.97) rotate(154.03) scale(1 -1)" xlink:href="#_Безымянный_градиент_10"/>
    <linearGradient id="_Безымянный_градиент_4-54" data-name="Безымянный градиент 4" x1="880.47" y1="534.31" x2="877.41" y2="320.3" gradientTransform="translate(7.64 -22.94) rotate(.25)" xlink:href="#_Безымянный_градиент_4"/>
    <radialGradient id="_Безымянный_градиент_132-2" data-name="Безымянный градиент 132" cx="912.86" cy="531.53" fx="912.86" fy="531.53" r="164.37" xlink:href="#_Безымянный_градиент_132"/>
    <linearGradient id="_Безымянный_градиент_4-55" data-name="Безымянный градиент 4" x1="649.73" y1="418.99" x2="646.67" y2="204.98" gradientTransform="translate(7.64 -22.94) rotate(.25)" xlink:href="#_Безымянный_градиент_4"/>
    <radialGradient id="_Безымянный_градиент_8-18" data-name="Безымянный градиент 8" cx="876.92" cy="454.08" fx="876.92" fy="454.08" r="48.95" gradientTransform="translate(7.64 -22.94) rotate(.25)" xlink:href="#_Безымянный_градиент_8"/>
    <linearGradient id="_Безымянный_градиент_4-56" data-name="Безымянный градиент 4" x1="12787.08" y1="-4868.11" x2="12750.58" y2="-4901.31" gradientTransform="translate(14219.72 -3559.91) rotate(142.39) scale(1 -1)" xlink:href="#_Безымянный_градиент_4"/>
    <radialGradient id="_Безымянный_градиент_8-19" data-name="Безымянный градиент 8" cx="12767.85" cy="-4885.59" fx="12767.85" fy="-4885.59" r="53.39" gradientTransform="translate(14219.72 -3559.91) rotate(142.39) scale(1 -1)" xlink:href="#_Безымянный_градиент_8"/>
    <radialGradient id="_Безымянный_градиент_10-17" data-name="Безымянный градиент 10" cx="12767.64" cy="-4885.28" fx="12767.64" fy="-4885.28" r="53.39" gradientTransform="translate(14219.72 -3559.91) rotate(142.39) scale(1 -1)" xlink:href="#_Безымянный_градиент_10"/>
    <linearGradient id="_Безымянный_градиент_4-57" data-name="Безымянный градиент 4" x1="3943.41" y1="6742.55" x2="3915.37" y2="6734.5" gradientTransform="translate(5226.47 6919.95) rotate(-62.86) scale(1 -1)" xlink:href="#_Безымянный_градиент_4"/>
    <radialGradient id="_Безымянный_градиент_8-20" data-name="Безымянный градиент 8" cx="3934.53" cy="6740.44" fx="3934.53" fy="6740.44" r="14.48" gradientTransform="translate(5226.47 6919.95) rotate(-62.86) scale(1 -1)" xlink:href="#_Безымянный_градиент_8"/>
    <radialGradient id="_Безымянный_градиент_10-18" data-name="Безымянный градиент 10" cx="1024.01" cy="342.3" fx="1024.01" fy="342.3" r="14.14" xlink:href="#_Безымянный_градиент_10"/>
    <linearGradient id="_Безымянный_градиент_4-58" data-name="Безымянный градиент 4" x1="4176.21" y1="-5580.13" x2="4177.91" y2="-5607.57" gradientTransform="translate(7011.21 4306.2) rotate(-92.19)" xlink:href="#_Безымянный_градиент_4"/>
    <radialGradient id="_Безымянный_градиент_8-21" data-name="Безымянный градиент 8" cx="4176.61" cy="-5589.74" fx="4176.61" fy="-5589.74" r="45.46" gradientTransform="translate(7011.21 4306.2) rotate(-92.19)" xlink:href="#_Безымянный_градиент_8"/>
    <radialGradient id="_Безымянный_градиент_10-19" data-name="Безымянный градиент 10" cx="4176.71" cy="-5586.69" fx="4176.71" fy="-5586.69" r="45.34" gradientTransform="translate(7011.21 4306.2) rotate(-92.19)" xlink:href="#_Безымянный_градиент_10"/>
    <linearGradient id="_Безымянный_градиент_4-59" data-name="Безымянный градиент 4" x1="15822.95" y1="502.82" x2="15801.39" y2="466.42" gradientTransform="translate(16841.53 3063.24) rotate(-168.56) scale(1 -1)" xlink:href="#_Безымянный_градиент_4"/>
    <radialGradient id="_Безымянный_градиент_10-20" data-name="Безымянный градиент 10" cx="15819.75" cy="497.39" fx="15819.75" fy="497.39" r="33.8" gradientTransform="translate(16841.53 3063.24) rotate(-168.56) scale(1 -1)" xlink:href="#_Безымянный_градиент_10"/>
    <radialGradient id="_Безымянный_градиент_8-22" data-name="Безымянный градиент 8" cx="15819.72" cy="497.39" fx="15819.72" fy="497.39" r="33.81" gradientTransform="translate(16841.53 3063.24) rotate(-168.56) scale(1 -1)" xlink:href="#_Безымянный_градиент_8"/>
    <linearGradient id="_Безымянный_градиент_4-60" data-name="Безымянный градиент 4" x1="8302.01" y1="6962.84" x2="8273.75" y2="6925.66" gradientTransform="translate(11829.92 -1907.43) rotate(127.31)" xlink:href="#_Безымянный_градиент_4"/>
    <radialGradient id="_Безымянный_градиент_8-23" data-name="Безымянный градиент 8" cx="8485.73" cy="-9180.01" fx="8485.73" fy="-9180.01" r="13.49" gradientTransform="translate(6490.61 11839.81) rotate(-67.38)" xlink:href="#_Безымянный_градиент_8"/>
    <radialGradient id="_Безымянный_градиент_10-21" data-name="Безымянный градиент 10" cx="8482.36" cy="-9191.46" fx="8482.36" fy="-9191.46" r="14.42" gradientTransform="translate(6490.61 11839.81) rotate(-67.38)" xlink:href="#_Безымянный_градиент_10"/>
    <linearGradient id="_Безымянный_градиент_4-61" data-name="Безымянный градиент 4" x1="1361.61" y1="168.23" x2="1083.69" y2="549.36" xlink:href="#_Безымянный_градиент_4"/>
  </defs>
  <text class="cls-26" transform="translate(119.34 1079.23)"><tspan x="0" y="0">Искусство совершенного тела</tspan></text>
  <g>
    <g>
      <path class="cls-74" d="m648.63,883.57c.3-.88.6-1.75.93-2.63-.25.73-.5,1.48-.75,2.18-.05.18-.1.33-.18.48v-.03Z"/>
      <path class="cls-37" d="m709.27,856.97l-.1-.1c.03-.13-.1-.35-.2-.7l-21.46-61.04c-.15-.4-.28-.75-.4-1.08-.13-.33-.23-.63-.35-.9-.2-.53-.38-.93-.53-1.18-.08-.18-.18-.3-.28-.35-.08-.08-.15-.1-.23-.1v-.1h.03c.18,0,.35.15.55.48.33.53.7,1.55,1.3,3.21l21.46,61.07c.03.08.08.18.1.25.08.23.15.43.1.55Z"/>
      <path class="cls-87" d="m685.73,791.42v.1c-.43.05-.8,1.28-1.58,3.61l-19.9,61.04c-.15.43-.2.68-.07.8v.03l-.1.1h-.03c-.13-.18-.05-.5.1-.95l19.9-61.04.1-.3c.75-2.36,1.1-3.36,1.58-3.38Z"/>
      <path class="cls-82" d="m661.34,865.15c-.08,0-.13.03-.15.05v-.02c.05-.03.1-.03.15-.03Z"/>
      <path class="cls-86" d="m712.25,865.17v.02s-.05-.02-.08-.05c.03,0,.05,0,.08.03Z"/>
      <path class="cls-100" d="m709.27,856.97c0,.05-.03.08-.05.1-.07.13-.28.23-.7.23h-44.05c-.13,0-.3-.08-.4-.2l.1-.1v-.03c.05.08.15.1.3.1h44.05c.45,0,.63-.05.65-.2l.1.1Z"/>
      <path class="cls-17" d="m709.27,856.97l-.1-.1c.03-.13-.1-.35-.2-.7l-21.46-61.04c-.15-.4-.28-.75-.4-1.08-.13-.33-.23-.63-.35-.9-.2-.53-.38-.93-.53-1.18l.08-.08c.33.53.7,1.55,1.3,3.21l21.46,61.07c.03.08.08.18.1.25.08.23.15.43.1.55Z"/>
      <path class="cls-74" d="m648.63,883.57c.3-.88.6-1.75.93-2.63-.25.73-.5,1.48-.75,2.18-.05.18-.1.33-.18.48v-.03Z"/>
      <path class="cls-52" d="m685.73,791.42v.1c-.43.05-.8,1.28-1.58,3.61l-19.9,61.04c-.15.43-.2.68-.07.8v.03l-.1.1h-.03c-.13-.18-.05-.5.1-.95l19.9-61.04.1-.3c.75-2.36,1.1-3.36,1.58-3.38Z"/>
      <path class="cls-5" d="m648.63,883.57c.3-.88.6-1.75.93-2.63-.25.73-.5,1.48-.75,2.18-.05.15-.1.3-.18.45Z"/>
      <path class="cls-21" d="m709.27,856.97c0,.05-.03.08-.05.1-.07.13-.28.23-.7.23h-44.05c-.13,0-.3-.08-.4-.2l.1-.1v-.03c.05.08.15.1.3.1h44.05c.45,0,.63-.05.65-.2l.1.1Z"/>
      <path class="cls-63" d="m686.3,791.89l-.08.08c-.08-.18-.18-.3-.28-.35-.08-.08-.15-.1-.23-.1v-.1h.03c.18,0,.35.15.55.48Z"/>
      <path class="cls-106" d="m661.34,865.15c-.08,0-.13.03-.15.05v-.02c.05-.03.1-.03.15-.03Z"/>
      <path class="cls-36" d="m712.25,865.17v.02s-.05-.02-.08-.05c.03,0,.05,0,.08.03Z"/>
      <path class="cls-13" d="m709.27,856.97c0,.05-.03.08-.05.1-.07.13-.28.23-.7.23h-44.05c-.13,0-.3-.08-.4-.2l.1-.1v-.03c.05.08.15.1.3.1h44.05c.45,0,.63-.05.65-.2l.1.1Z"/>
      <path class="cls-15" d="m685.73,791.42v.1c-.43.05-.8,1.28-1.58,3.61l-19.9,61.04c-.15.43-.2.68-.07.8v.03l-.1.1h-.03c-.13-.18-.05-.5.1-.95l19.9-61.04.1-.3c.75-2.36,1.1-3.36,1.58-3.38Z"/>
      <path class="cls-99" d="m661.34,865.15c-.08,0-.13.03-.15.05v-.02c.05-.03.1-.03.15-.03Z"/>
      <path class="cls-44" d="m712.25,865.17v.02s-.05-.02-.08-.05c.03,0,.05,0,.08.03Z"/>
      <path class="cls-19" d="m709.27,856.97l-.1-.1c.03-.13-.1-.35-.2-.7l-21.46-61.04c-.15-.4-.28-.75-.4-1.08-.13-.33-.23-.63-.35-.9-.2-.53-.38-.93-.53-1.18-.08-.18-.18-.3-.28-.35-.08-.08-.15-.1-.23-.1v-.1h.03c.18,0,.35.15.55.48.33.53.7,1.55,1.3,3.21l21.46,61.07c.03.08.08.18.1.25.08.23.15.43.1.55Z"/>
      <path class="cls-89" d="m347.47,712.22c6.84,6.54,15.57,20.53,15.57,40.79,0,1.25-.03,2.51-.1,3.76,0,.23-.03.43-.03.65h-.03c-1.5,25.82-16.5,46.48-39.23,57.13-1.1.53-2.26,1.03-3.41,1.5-.75.3-1.5.6-2.28.88-.2.08-.4.15-.6.23-.4.15-.78.28-1.18.43-.73.28-1.45.5-2.18.73-1.5.48-3.06.93-4.64,1.33-1.03.28-2.08.53-3.13.75-.03,0-.07.03-.1.03-1.23.25-2.46.5-3.71.7-1.13.2-2.28.38-3.43.53-.95.13-1.91.23-2.88.33-.68.08-1.35.13-2.06.18-1.3.1-2.66.18-4.01.23-1.18.05-2.38.08-3.58.08-5.92,0-9.98-.33-9.98-1.25,0-.63,1.25-.63,2.18-.63,5.72,0,11.13-.5,16.17-1.48.98-.18,1.96-.38,2.91-.6,1.05-.25,2.11-.53,3.11-.83.88-.23,1.73-.5,2.56-.78,7.24-2.38,13.51-5.92,18.7-10.53,10.63-9.48,16.65-23.46,16.65-41.51,0-1.45-.03-3.38-.2-5.67,0-.33-.03-.65-.08-1-.03-.43-.08-.9-.13-1.35-.03-.4-.07-.83-.15-1.28-.1-.85-.23-1.75-.38-2.68-.08-.55-.18-1.13-.3-1.7-.15-.85-.33-1.7-.53-2.61-.23-1-.48-2.03-.78-3.06-.73-2.68-1.7-5.49-2.93-8.35-.35-.8-.73-1.6-1.1-2.41-1.45-2.96-3.21-5.97-5.36-8.9-.4-.55-.8-1.08-1.25-1.63-.4-.53-.83-1.05-1.28-1.55-.18-.23-.35-.45-.58-.68-.35-.43-.73-.85-1.13-1.28-.4-.45-.83-.88-1.25-1.33-.6-.6-1.23-1.2-1.83-1.78-.55-.5-1.08-1-1.63-1.45-1.13-.95-2.26-1.86-3.38-2.68-.05,0-.1-.05-.13-.08-1.18-.83-2.36-1.6-3.51-2.31-.58-.38-1.18-.7-1.75-1-.5-.3-1.03-.55-1.53-.8-.08-.03-.15-.08-.23-.1-12.13-6.02-23.49-5.36-28.68-5.36s-11.66,1.2-13.39,1.88c-1.88.73-2.33.88-2.46,2.53-.03.4-.03.9-.03,1.5v129.86c0,7.47,0,14.62.03,21.33,0,1.65.03,3.31.03,4.94.03,3.99.05,7.82.1,11.46.03,1.23.05,2.46.08,3.64v.85c.03.7.03,1.4.05,2.08.05,1.75.07,3.43.13,5.06.05.95.08,1.86.1,2.76.03.3.03.58.03.88.05.73.08,1.45.1,2.13,0,.2.03.38.03.55.05,1.03.1,2.01.15,2.96.05.6.08,1.18.1,1.75.07.83.13,1.6.18,2.38.03.28.05.55.08.8.03.4.08.8.1,1.18.1.98.2,1.93.3,2.81.93,9.02,3.11,18.68,12.13,19.93,4.99.63,10.58.63,14.01.63.55,0,.98.05,1.3.1.35.05.58.15.75.25.35.2.43.43.43.58,0,.08,0,.18-.13.3-.38.4-1.75.95-6.72.95-15.24,0-34.24-.95-35.8-.95s-21.18.95-30.51.95c-3.56,0-4.59-.55-4.89-.95-.08-.13-.1-.23-.1-.3,0-.3.3-.93,2.48-.93,2.81,0,6.54,0,9.35-.63,5.87-1.18,7.57-9.83,8.8-18.38.07-.53.15-1.03.23-1.55,1.08-9,1.4-23.44,1.5-41.29.05-8.12.05-16.92.05-26.27v-54.8c0-46.05,0-56.28-.53-65.71-.03-.53-.08-1.03-.1-1.55,0-.15-.02-.28-.02-.43-.65-10.38-3.54-18.28-13.66-19.8-2.18-.33-4.66-.63-8.72-.63-2.81,0-4.04-.33-4.04-.95v-.08c.13-.6,1.43-1.15,4.96-1.15,7.17,0,15.57,0,35.2.93,1.28,0,2.96-.03,4.94-.08.55-.03,1.13-.05,1.73-.05.68-.03,1.38-.05,2.13-.08.45,0,.93-.02,1.4-.05.95-.03,1.93-.05,2.96-.08.5-.03,1.03-.05,1.53-.05,2.11-.08,4.29-.15,6.52-.23,5.97-.18,12.28-.33,18.02-.33,10.13,0,18.6.88,25.62,2.28,1.5.3,2.93.63,4.31.95.68.18,1.35.35,2.01.53,2.96.8,5.62,1.7,8,2.63.6.25,1.18.48,1.73.73,4.49,1.91,7.92,3.99,10.55,5.89.35.23.65.45.95.68,2.13,1.6,3.64,3.03,4.74,4.06Z"/>
      <path class="cls-84" d="m451.58,930.2c0,.05,0,.13-.1.23-.25.28-1.25.68-4.81.68-10.96,0-24.82-.68-25.95-.68s-15.19.68-21.91.68c-2.56,0-3.28-.4-3.51-.68-.05-.1-.08-.18-.08-.23,0-.23.23-.68,1.81-.68,2.01,0,4.69,0,6.69-.45,3.18-.63,4.66-4.31,5.59-8.72.28-1.43.53-2.98.75-4.51.05-.35.1-.73.15-1.08.15-1.18.25-2.48.38-3.89.15-2.16.28-4.56.38-7.19.35-9.7.35-22.66.35-37.43v-39.36c0-19.63,0-30.21-.08-36.98,0-.75,0-1.45-.03-2.11,0-.35,0-.68-.03-.98,0-.63,0-1.23-.03-1.78-.05-2.53-.15-4.46-.28-6.47-.1-1.7-.28-3.31-.6-4.79-.05-.35-.15-.7-.23-1.03-1.15-4.64-3.69-7.92-9.03-8.72-1.55-.23-3.36-.45-6.27-.45-2.01,0-2.91-.23-2.91-.65,0-.03.03-.05.03-.08.08-.43,1.03-.83,3.56-.83,10.08,0,24.17.68,25.27.68s15.22-.68,21.91-.68c2.33,0,3.46.4,3.58.83v.08c0,.43-1.1.65-2.46.65-1.78,0-3.58,0-5.82.45-.28.05-.55.13-.8.23-.28.08-.5.15-.75.28-.23.1-.45.2-.68.35-.23.13-.45.28-.68.43-.25.2-.48.4-.7.6-.23.23-.43.43-.6.68-.28.33-.5.65-.7,1.03-.15.23-.3.48-.4.73-.35.7-.65,1.45-.88,2.28-.1.3-.18.6-.25.9-.1.4-.2.8-.28,1.23-.33,1.75-.55,3.71-.65,5.82-.45,7.14-.45,13.41-.45,48.31v39.36c0,21.46,0,39.13,1.1,48.51.08.63.15,1.23.23,1.83.07.63.18,1.28.28,1.91.1.63.25,1.25.38,1.86,1.03,4.41,3.08,8.1,7.85,8.72,3.13.45,7.4.45,9.63.45,1.78,0,2.01.45,2.01.68Z"/>
      <path class="cls-6" d="m596.26,906.48c-.23,1.8-1.78,14.77-3.56,21.48-.28,1.03-.73,1.78-1.48,2.33-1.76,1.25-5.19,1.45-12.16,1.45-1.98,0-3.99-.03-5.97-.05-2.01-.03-3.99-.05-5.99-.1-1.98-.05-3.99-.1-5.99-.15-4.89-.15-9.8-.33-14.82-.48-3.21-.13-6.49-.23-9.8-.3-1.6-.05-3.23-.08-4.89-.13-.5,0-1-.03-1.53-.03-3.58-.08-7.22-.1-10.95-.1-5.36,0-16.09.68-21.91.68-2.46,0-3.59-.23-3.59-.68s.68-.68,1.55-.68c.68,0,4.04,0,6.72-.68,4.91-1.1,5.82-7.82,6.72-14.31.33-2.66.53-5.99.7-9.9v-.25c.15-6.79.33-15.32.38-28.03.03-3.16.03-6.59.03-10.33v-39.36c0-12.01,0-20.61-.03-27.05,0-2.91,0-5.39-.03-7.52-.08-6.82-.18-10.18-.4-13.74,0-.18-.03-.35-.03-.5-.1-1.5-.28-2.93-.55-4.26-.05-.35-.15-.73-.23-1.05-.15-.58-.3-1.13-.5-1.68-.03-.05-.03-.1-.05-.15-.18-.48-.38-.93-.6-1.38-.2-.4-.43-.8-.68-1.18-.08-.13-.18-.28-.28-.4-.25-.35-.53-.68-.8-.98-1.08-1.13-2.48-2.01-4.24-2.53-.25-.1-.53-.15-.8-.23-.35-.08-.7-.15-1.08-.2-1.58-.23-3.36-.45-6.27-.45-2.01,0-2.91-.23-2.91-.65,0-.03,0-.05.03-.08.08-.43,1-.83,3.56-.83,10.05,0,24.14.68,25.27.68s17.45-.68,24.14-.68c2.33,0,3.46.4,3.59.83v.08c0,.43-1.13.65-2.46.65-1.78,0-5.59,0-7.82.45-2.01.43-3.53,1.45-4.64,3.03-.15.18-.25.35-.38.55s-.28.43-.38.68c-.18.33-.33.65-.48,1-.43,1-.78,2.16-1.03,3.41-.08.35-.15.73-.2,1.1-.05.23-.1.45-.13.7-.05.33-.07.65-.13.98-.03.15-.03.28-.05.4-.05.38-.08.73-.1,1.1-.05.53-.1,1.05-.13,1.58-.43,7.14-.43,13.41-.43,48.31v39.81c0,8.32.05,15.44.2,21.53.05,1.3.08,2.56.13,3.74.03.95.05,1.88.1,2.78.05,1.18.1,2.31.18,3.38.05,1.18.13,2.33.23,3.41.03.55.08,1.08.13,1.58.23,2.66.53,4.96.88,6.89.73,4.01,1.7,6.52,3.08,7.87,3.58,3.58,9.38,5.14,26.82,5.14,6.72,0,16.12,0,22.14-1.78.08-.03.15-.05.23-.05,6.57-2.03,10.53-5.19,11.86-14.72.45-2.46.9-3.33,1.35-3.33h.03c.43.13.63,1.83.4,3.33Z"/>
      <path class="cls-74" d="m648.63,883.57c.3-.88.6-1.75.93-2.63-.25.73-.5,1.48-.75,2.18-.05.18-.1.33-.18.48v-.03Z"/>
      <path class="cls-1" d="m774.5,929.52c-2.26,0-6.49,0-9.85-1.1-.58-.2-1.13-.4-1.63-.6-.53-.2-1-.4-1.45-.63-.58-.28-1.13-.58-1.63-.9-.28-.15-.53-.33-.78-.5-.73-.53-1.38-1.1-2.01-1.78-.2-.2-.43-.45-.6-.7-1.58-1.91-2.93-4.49-4.56-8.25-.07-.15-.15-.33-.23-.48-.08-.23-.18-.45-.28-.68-.83-1.91-1.7-4.09-2.71-6.59-.23-.55-.48-1.13-.7-1.73-.48-1.2-.98-2.46-1.53-3.79-13.66-33.99-48.76-126.35-51.67-133.72-3.36-8.27-4.46-9.63-5.36-9.63h-.08c-.9.1-2.26,1.8-5.06,9.85l-1.88,5.14-48.66,133.04c-.68,1.83-1.33,3.53-1.98,5.14-.58,1.45-1.15,2.81-1.78,4.06-3.84,8.15-8.02,12.56-14.59,13.39-3.36.45-4.91.45-6.69.45-1.53,0-2.21.23-2.23.65l-.03.03c0,.23.68.9,3.81.9,6.04,0,23.72-.68,25.72-.68,2.46,0,9.18.68,17.45.68,2.68,0,3.36-.68,3.36-.9-.03-.45-.9-.68-2.26-.68s-3.79,0-6.69-.68c-3.51-.88-4.84-3.33-4.51-7.82.03-.4.08-.83.13-1.28,0-.03,0-.05.03-.1v-.03c.1-.83.25-1.7.48-2.68.18-.95.43-2.01.75-3.11.1-.43.23-.88.38-1.35.07-.35.2-.73.3-1.1.23-.75.48-1.55.73-2.36.25-.83.53-1.65.83-2.53l13.64-40.24c.28-.68.38-.95.53-1.05v-.02c.05-.03.1-.03.15-.03.08-.03.13-.03.23-.03h50.09c.28,0,.43,0,.53.03.03,0,.05,0,.08.03v.02c.13.08.18.25.3.6l21.01,55.68c.03.08.05.15.07.2,1.45,4.31-.33,5.62-1.4,6.29-.85.43-1.5.65-1.58,1.05h.03s-.03.03-.03.05c0,.45.68,1.35,6.72,1.58,15.42.68,31.31.45,36.22.45,2.66,0,3.26-.58,3.33-.83.03-.03.03-.05.03-.08,0-.45-.68-.68-2.46-.68Zm-65.28-72.45c-.07.13-.28.23-.7.23h-44.05c-.13,0-.3-.08-.4-.2h-.03c-.13-.18-.05-.5.1-.95l19.9-61.04.1-.3c.75-2.36,1.1-3.36,1.58-3.38h.03c.18,0,.35.15.55.48.33.53.7,1.55,1.3,3.21l21.46,61.07c.03.08.08.18.1.25.08.23.15.43.1.55,0,.05-.03.08-.05.1Z"/>
    </g>
    <g>
      <path class="cls-50" d="m760.94,785.95c.03-.05.03-.1.03-.18v.08c-.03.1-.03.2-.03.28v-.18Z"/>
      <path class="cls-51" d="m760.86,786.3h.05v.1h-.05c-.45,0-.45-.9-.45-2.23.03-.38.05-.88.13-1.43,0-.05,0-.1.02-.15h.08c-.05.6-.1,1.13-.13,1.58,0,1.18,0,2.13.35,2.13Z"/>
      <path class="cls-10" d="m760.94,785.95c.03-.05.03-.1.03-.18v.08c-.03.1-.03.2-.03.28v-.18Z"/>
      <path class="cls-2" d="m760.94,785.95c.03-.05.03-.1.03-.18v.08c-.03.1-.03.2-.03.28v-.18Z"/>
      <path class="cls-41" d="m760.86,786.3h.05v.1h-.05c-.45,0-.45-.9-.45-2.23.03-.38.05-.88.13-1.43-.03-.05,0-.1,0-.15h.1c-.05.6-.1,1.13-.13,1.58,0,1.18,0,2.13.35,2.13Z"/>
      <path class="cls-58" d="m760.94,785.95c.03-.05.03-.1.03-.18v.08c-.03.05-.03.08-.03.1Z"/>
      <path class="cls-53" d="m760.58,782.19c-.03.15-.03.28-.03.4h-.02c0-.13.02-.25.05-.4Z"/>
      <path class="cls-59" d="m901.4,760.48c-.05,0-.08-.03-.1-.03-.9,0-1.58.68-3.36,1.13-.83.2-2.63.4-5.21.63v-.03c-.9.08-1.88.15-2.96.2-1.1.08-2.31.13-3.59.18-.9.03-1.83.05-2.83.08-.4.03-.8.03-1.23.03-.7.03-1.45.03-2.21.03-.75.03-1.53.03-2.33.03h-83.86c-2.68,0-13.41-.45-19.9-1.13-.65-.05-1.28-.1-1.83-.18-4.61-.5-6.19-1.38-7.77-1.38-.23,0-.38.02-.5.1-.43.25-.45.98-.63,2.36-.15,1.45-.5,3.96-.88,6.82-.05.4-.13.83-.18,1.23-.15,1.25-.33,2.56-.5,3.84-.08.45-.13.93-.2,1.38-.15,1.15-.28,2.31-.4,3.33-.05.43-.1.83-.15,1.2-.08.7-.15,1.33-.2,1.91-.03.15-.03.28-.03.4h.08c-.05.6-.1,1.13-.13,1.58,0,1.18,0,2.13.35,2.13h.05v.1c.4-.05.63-.73,1.05-2.46.05-.2.13-.43.2-.7.18-.73.43-1.68.73-2.66.13-.43.28-.9.43-1.33h-.03c.4-1.08.85-2.08,1.35-2.68,1.98-2.38,4.26-3.43,9.23-3.94,1.28-.15,2.78-.23,4.49-.3.33-.03.65-.03,1-.05,2.66-.1,5.84-.15,9.68-.2,10.96-.23,22.14-.23,33.09-.45v94.61c0,5.36,0,10.5-.02,15.32-.05,14.46-.25,26.17-1.1,33.19-.2,1.4-.4,2.83-.65,4.24-.88,4.99-2.33,9.4-5.82,10.08-2.03.45-4.71.45-6.72.45-1.55,0-1.78.45-1.78.68,0,.05,0,.13.08.23.2.28.93.68,3.48.68,6.72,0,20.81-.68,21.94-.68s15.19.68,26.15.68c4.71,0,4.91-.68,4.91-.9s-.2-.68-2.01-.68c-2.23,0-6.49,0-9.6-.45-.35-.05-.7-.1-1.03-.18-.2-.05-.38-.1-.55-.18-.18-.03-.33-.08-.48-.15-.23-.08-.45-.18-.65-.28-.28-.1-.53-.25-.75-.4-.5-.3-.93-.63-1.33-1-.18-.15-.33-.33-.48-.5-.63-.7-1.15-1.5-1.58-2.41-.15-.33-.3-.65-.43-.98-.15-.35-.28-.73-.38-1.08-.13-.35-.23-.73-.33-1.13-.1-.38-.2-.78-.28-1.18-.05-.2-.08-.43-.13-.63-.03-.2-.08-.38-.1-.58-.2-1.2-.35-2.43-.48-3.66-1.13-9.38-1.13-27.05-1.13-48.51v-94.61c1.2.02,2.41.05,3.61.08,1.2.03,2.41.05,3.63.08v-.03c6.97.13,13.94.15,20.93.33.75.03,1.48.03,2.21.05,1.43.03,2.76.08,4.01.15,1.05.03,2.03.1,2.96.15.78.05,1.5.1,2.18.15.13,0,.23.03.33.03.7.08,1.38.13,2.01.2h.03c.08,0,.15.03.23.03.58.08,1.13.13,1.65.2.03,0,.08,0,.13.02.6.08,1.18.15,1.71.25h.07c.2.03.4.05.6.1.08.03.15.03.23.05.23.03.43.08.65.13.03,0,.08,0,.1.03.18.03.33.08.48.1.33.05.63.13.93.23.65.15,1.25.33,1.78.53.08.03.15.05.2.08.18.05.33.1.48.18,1.91.78,3.01,1.7,3.76,2.73.13.18.23.33.33.5.13.18.23.38.33.58.23.38.4.78.6,1.18.68,1.33.9,3.56,1.13,5.14.23,2.23.45,3.13.88,3.13.23,0,.68-.68.9-3.36.68-11.18.9-16.32,1.8-21.48.2-1.43.03-2.48-.35-2.66Zm-140.46,25.47c.03-.05.03-.1.03-.18v.08c-.03.1-.03.2-.03.28v-.18Z"/>
    </g>
    <g>
      <path class="cls-90" d="m988.06,930.2c0,.05-.02.13-.1.23-.28.28-1.25.68-4.84.68-10.96,0-24.82-.68-25.92-.68s-15.22.68-21.94.68c-2.53,0-3.28-.4-3.48-.68-.08-.1-.08-.18-.08-.23,0-.23.23-.68,1.78-.68,2.01,0,4.69,0,6.72-.45,3.16-.63,4.66-4.31,5.57-8.72.3-1.43.55-2.98.75-4.51.05-.35.1-.73.15-1.08.85-7.02,1.05-18.73,1.1-33.19.03-4.81.03-9.95.03-15.32v-39.36c0-12.01,0-20.61-.03-27.05,0-2.91-.03-5.39-.03-7.52-.05-6.82-.18-10.18-.4-13.74-.03-.53-.07-1.05-.13-1.55-.03-.5-.08-.98-.15-1.45-.05-.35-.1-.68-.15-.98-.08-.43-.15-.83-.25-1.23t0-.03c-.03-.2-.08-.4-.13-.58-1.15-4.64-3.69-7.92-9.03-8.72-1.58-.23-3.36-.45-6.27-.45-2.01,0-2.91-.23-2.91-.65v-.08c.1-.43,1.03-.83,3.58-.83,10.05,0,24.14.68,25.27.68s15.19-.68,21.91-.68c2.33,0,3.46.4,3.56.83,0,.02.03.05.03.08,0,.43-1.13.65-2.46.65-1.8,0-3.58,0-5.82.45-.3.05-.58.13-.83.23-.28.08-.5.18-.75.28-.5.23-.93.48-1.33.78-.08.05-.13.1-.2.15-.18.15-.35.3-.5.45-.18.15-.33.3-.45.48-.18.18-.3.35-.43.55-.23.33-.45.68-.65,1.05-.53.93-.93,2.03-1.25,3.23-.13.48-.23,1-.33,1.53-.35,1.75-.55,3.71-.68,5.82-.45,7.14-.45,13.41-.45,48.31v39.36c0,21.46,0,39.13,1.13,48.51.08.6.13,1.23.2,1.83.1.65.2,1.28.3,1.91.1.63.23,1.25.38,1.86,1.03,4.41,3.08,8.1,7.85,8.72,3.13.45,7.37.45,9.6.45,1.8,0,2.03.45,2.03.68Z"/>
      <path class="cls-71" d="m1224.21,695.63s.03.05.03.08c0,.63-1.55.95-3.43.95-2.48,0-4.96,0-8.1.63-.48.1-.9.23-1.33.38-.43.13-.83.3-1.2.48l-.03.03c-.35.15-.68.35-1,.58-.6.38-1.15.85-1.65,1.38-.18.18-.35.35-.5.55-.03.02-.05.05-.07.08-1.03,1.25-1.86,2.81-2.48,4.61-.15.43-.3.88-.43,1.33v.05c-.15.45-.25.93-.35,1.4-.53,2.18-.85,4.66-1.08,7.37-.05.65-.1,1.33-.13,2.01-.18,2.78-.3,5.49-.4,9.02-.23,9-.23,23.31-.23,58.24v33.32c0,2.08-.03,4.19-.05,6.32-.5,31.89-5.24,66.06-28.6,86.76-16.5,14.69-33.52,20.23-48.68,22.16-.2.02-.43.05-.63.08-1.8.2-3.58.38-5.31.5-.35.03-.7.05-1.05.08-.85.05-1.73.08-2.56.13-1.15.05-2.28.08-3.41.1-.85,0-1.68.03-2.51.03-1.65,0-3.81-.03-6.37-.18-1.53-.08-3.21-.18-5.01-.35-1.78-.18-3.69-.38-5.69-.68-5.34-.75-11.33-1.98-17.52-3.96-2.31-.75-4.66-1.6-6.99-2.58-1.55-.63-3.13-1.35-4.69-2.11-1.55-.78-3.08-1.6-4.64-2.48-1.53-.88-3.03-1.83-4.54-2.83-3.01-2.03-5.92-4.34-8.67-6.94-.48-.45-.95-.93-1.43-1.4-1.88-1.88-3.71-3.89-5.44-6.04-1.33-1.63-2.58-3.33-3.81-5.14-7.02-10.4-12.46-24.09-14.92-43.67-.18-1.2-.33-2.43-.43-3.71-.33-3.01-.58-6.14-.75-9.4,0-.18-.03-.38-.03-.58,0-.13-.03-.28-.03-.43-.08-1.23-.13-2.46-.15-3.74-.05-1.18-.08-2.38-.1-3.61v-.93c-.03-1.08-.03-2.16-.03-3.26v-45.45c0-48.58,0-57.31-.63-67.26-.03-.68-.08-1.33-.15-1.96-.03-.5-.08-.98-.15-1.45-.03-.4-.1-.8-.15-1.18-.03-.35-.1-.7-.15-1.03v-.08c-.1-.58-.23-1.15-.35-1.7-.1-.55-.25-1.08-.4-1.6-.13-.48-.28-.95-.45-1.4-.15-.43-.3-.83-.48-1.2-.15-.38-.33-.75-.53-1.1-.03-.1-.08-.18-.13-.28-.15-.3-.33-.6-.53-.88-.05-.1-.1-.2-.18-.28-.18-.3-.38-.58-.6-.85,0-.03-.03-.05-.05-.08-.25-.33-.5-.63-.78-.93l-.3-.3c-.55-.58-1.18-1.1-1.86-1.55-.08-.05-.15-.1-.25-.15-.35-.25-.73-.45-1.1-.65-.05-.03-.1-.05-.18-.08-.43-.23-.88-.43-1.35-.6-.03,0-.07-.02-.13-.05-.5-.18-1.05-.35-1.63-.48-.58-.15-1.18-.28-1.83-.38-2.18-.33-4.66-.63-8.72-.63-2.81,0-4.04-.33-4.04-.95v-.08c.13-.6,1.43-1.15,4.96-1.15,14.01,0,33.64.93,35.2.93s22.11-.93,31.44-.93c3.26,0,4.81.55,4.99,1.15h-.03s.03.05.03.08c0,.63-1.55.95-3.43.95-2.48,0-4.94,0-8.07.63-.48.1-.93.23-1.35.38-.33.1-.65.23-.95.4-.28.1-.55.23-.83.43-.25.1-.5.28-.75.45-.15.1-.28.2-.4.33-.23.15-.45.35-.65.55-.18.15-.33.3-.48.5-.4.43-.78.88-1.1,1.38-.18.28-.35.58-.53.88-.43.73-.78,1.53-1.1,2.41-.13.33-.25.68-.35,1.03-.35,1.05-.63,2.18-.85,3.41-.1.4-.18.8-.23,1.23-.13.85-.25,1.73-.35,2.61-.05.38-.07.75-.13,1.13,0,.18-.03.33-.05.48-.03.4-.05.78-.08,1.2-.05.48-.08.95-.1,1.45-.63,9.95-.63,18.68-.63,67.26v43.59c0,2.81.05,5.52.13,8.12.03,1.28.07,2.56.13,3.79.05.83.08,1.65.13,2.48.83,14.62,2.91,26,5.94,35.1.53,1.58,1.08,3.08,1.65,4.51.28.73.58,1.43.88,2.13.23.53.45,1.03.7,1.53,2.88,6.24,6.32,11.23,10.13,15.44.78.88,1.58,1.73,2.38,2.53.43.43.85.85,1.28,1.25,14.19,13.31,27.27,16.67,43.29,17.1,1.23.02,2.46.05,3.74.05.78,0,1.55-.03,2.31-.05.78-.03,1.53-.08,2.28-.13h.08c.6-.05,1.2-.13,1.8-.18.3-.05.58-.08.88-.1.63-.1,1.25-.18,1.88-.28v.03c15.67-2.36,30.28-10.53,39.66-21.73,10.78-13.35,15.54-31.67,17.26-53.56.13-1.73.26-3.45.36-5.27.1-1.83.18-3.69.25-5.62.1-3.61.18-7.32.18-11.11v-39.63c0-48.58,0-57.31-.63-67.26-.03-.65-.08-1.3-.15-1.96-.03-.48-.08-.95-.15-1.43-.05-.58-.13-1.15-.23-1.7-.1-.65-.2-1.3-.35-1.91-.18-.93-.4-1.81-.68-2.66-.23-.7-.48-1.4-.78-2.06-.13-.3-.25-.6-.4-.9-.33-.65-.7-1.28-1.1-1.86-.18-.25-.35-.5-.55-.73-.2-.28-.43-.53-.65-.78-.1-.1-.2-.23-.33-.33-.23-.23-.45-.45-.73-.68-.38-.33-.78-.65-1.2-.93-.35-.23-.7-.43-1.08-.63-.2-.13-.43-.23-.68-.33-.45-.23-.93-.43-1.43-.6-.43-.15-.85-.28-1.3-.38-.05-.03-.1-.05-.15-.05-.55-.15-1.15-.25-1.75-.35-2.18-.33-4.66-.63-8.72-.63-2.81,0-4.04-.33-4.04-.95v-.08c.13-.6,1.43-1.15,4.96-1.15,14.01,0,31.46.93,33.02.93,1.86,0,16.82-.93,26.15-.93,3.26,0,4.81.55,4.96,1.15Z"/>
      <path class="cls-48" d="m1312.98,887.71c0,9.18-3.58,26.17-19,37.13-8.85,6.17-19.78,8.92-30.86,9.33-.98.03-1.93.05-2.91.05-9.85,0-19.53-1.35-29.16-5.59-.65-.28-1.28-.58-1.93-.88-.25-.15-.48-.28-.68-.43-.6-.43-.98-.85-1.2-1.35-.3-.68-.35-1.5-.35-2.71,0-14.77.9-20.58,1.1-24.17.18-1.8.45-2.88.88-3.33.08-.08.15-.13.23-.18.08-.03.18-.05.25-.05.45,0,.45.68.45,2.46,0,2.03-.23,6.27,1.33,12.08.08.25.15.5.25.73.05.18.13.35.2.53.25.6.6,1.2.98,1.81.18.25.35.5.53.73.18.25.38.5.58.73,2.11,2.48,5.29,4.71,9.12,6.49.4.2.83.4,1.25.58.38.18.75.33,1.13.48.33.15.63.28.95.38.48.2.98.38,1.48.53.98.35,1.98.65,2.98.93.65.18,1.3.35,1.98.53,2.53.58,5.16,1,7.82,1.25.9.08,1.83.15,2.73.18.68.03,1.33.03,2.01.03,21.48,0,31.31-15.42,31.31-29.73,0-9.78-2.16-17.12-8.62-25.24-.93-1.18-1.98-2.38-3.08-3.58-.68-.73-1.4-1.48-2.16-2.23-2.11-2.16-4.54-4.36-7.27-6.72-1.1-.95-2.26-1.91-3.46-2.91l-10.08-8.3c-4.99-4.09-9.18-7.92-12.69-11.56-.53-.55-1.05-1.1-1.58-1.65-.8-.88-1.58-1.75-2.31-2.61-.6-.68-1.15-1.35-1.7-2.03t-.03-.05c-8.65-10.78-11.21-20.08-11.21-30.16,0-23.16,16.77-39.21,43.6-40.21.85-.03,1.65-.05,2.51-.05h.18c8.72,0,15.22.9,20.81,2.23,4.24.9,6.72,1.35,9.4,1.35.43,0,.75.1.95.3.2.23.28.58.15,1.03-.68,2.68-1.55,7.17-1.33,19.68,0,5.31-.65,6.24-1.1,6.27h-.03c-.1,0-.2-.05-.3-.2-.25-.4-.43-1.48-.6-3.84-.2-2.23-.43-6.04-2.91-9.85-.05-.08-.1-.15-.15-.23-.08-.08-.13-.18-.2-.25v-.03c-.13-.15-.28-.35-.48-.55-.08-.1-.18-.2-.3-.3-.1-.13-.2-.23-.33-.33-.13-.13-.25-.23-.38-.35-.03-.02-.05-.05-.08-.08-.25-.2-.5-.43-.78-.63-.03-.03-.03,0-.03,0-.1-.08-.2-.15-.3-.25-.1-.05-.18-.13-.28-.2-.33-.2-.68-.43-1.05-.65-.1-.08-.23-.15-.35-.23-.3-.18-.63-.38-.98-.55-.08-.05-.18-.08-.25-.13-.63-.33-1.33-.65-2.08-.95-.58-.25-1.2-.48-1.83-.7-.65-.23-1.35-.45-2.08-.65-1.45-.4-3.06-.78-4.84-1.1-1.33-.25-2.76-.45-4.29-.6-2.06-.2-4.29-.33-6.69-.38-.5-.03-1.03-.03-1.55-.03-15.44,0-26.82,9.63-26.82,25.95,0,9.23,2.46,16.22,11.93,25.75,1.8,1.83,3.89,3.74,6.24,5.74.58.53,1.2,1.03,1.83,1.55,1.88,1.58,3.91,3.23,6.14,4.96l6.27,4.94c5.59,4.39,10.28,8.45,14.21,12.31.45.43.88.85,1.28,1.28.43.43.85.85,1.25,1.25.4.43.78.83,1.18,1.25,1.18,1.25,2.23,2.46,3.21,3.66.33.4.65.8.98,1.2h0c8.37,10.57,10.99,19.98,10.99,31.14Z"/>
    </g>
  </g>
  <g>
    <path class="cls-18" d="m104.78,510.83c37.07-14.19,96.87-31.75,171.76-30.98,56.61.58,103.37,11.45,136.36,21.94-39-6.32-85.29-10.93-137.36-10.49-66.8.56-124.63,9.25-170.77,19.53Z"/>
    <path class="cls-16" d="m221.68,444.94c3.56,4.72-.88,14.83-7.26,20.04-5.47,4.46-14.8,7.31-21.78,2.96-3.27-2.04-7.25-6.43-6.67-11.16.77-6.18,8.84-9.19,14.08-11.14,3.28-1.22,17.29-6.44,21.63-.69Z"/>
    <path class="cls-54" d="m222.77,451.27c-.52,2.37-2.29,8.93-8.34,13.71-.54.43-10.09,7.74-19.31,4.19-1.58-.61-2.77-1.39-3.56-1.98,3.15.73,8.96,1.55,15.17-.84,3.37-1.3,5.67-3.08,7.1-4.21,4.81-3.8,7.52-8.13,8.95-10.86Z"/>
    <path class="cls-34" d="m221.94,445.33c-5.54-.54-10.02,0-13.06.62-9.48,1.9-16.42,6.63-20.39,9.38-1.09.76-1.97,1.42-2.57,1.88.13-.95.46-2.45,1.44-3.97.93-1.43,2.04-2.26,3.01-2.92,3.25-2.2,6.58-3.56,9.68-4.68,2.56-.92,4.97-1.78,8.35-2.56,1.63-.37,5.28-1.14,8.71-.59,1.46.23,2.74.68,3.81,1.65.48.44.81.87,1.01,1.19Z"/>
    <path class="cls-45" d="m306.87,392.59c-24.74,16.31-49.48,32.61-74.21,48.92-.19-5.62.41-14.86,6.19-22.9,2.6-3.62,7.73-9.04,33.78-17.29,8.32-2.63,19.96-5.93,34.24-8.73Z"/>
    <path class="cls-20" d="m306.89,392.59c-24.74,16.31-49.48,32.61-74.21,48.92,13.11-9.91,27.44-20,43.01-30.01,10.65-6.85,21.08-13.13,31.21-18.91Z"/>
    <path class="cls-83" d="m306.87,392.59c-11.15,2.26-20,5.15-25.98,7.36-17.86,6.59-35.8,13.21-44.27,29.68-2.47,4.8-3.49,9.19-3.96,11.88-.19-5.62.41-14.86,6.19-22.9,2.6-3.62,7.73-9.04,33.78-17.29,8.32-2.63,19.96-5.93,34.24-8.73Z"/>
    <path class="cls-66" d="m401.09,286.71c-28.97,33.31-57.94,66.62-86.91,99.93,3.36-.03,8.52-.38,14.42-2.21,14.11-4.36,24.7-14.75,44.89-47.68,7.77-12.67,17.46-29.5,27.6-50.04Z"/>
    <path class="cls-101" d="m401.09,286.71c-28.97,33.31-57.94,66.62-86.91,99.93,14.76-14.24,30.23-30.31,45.9-48.35,15.48-17.81,29.09-35.16,41.01-51.58Z"/>
    <path class="cls-64" d="m400.9,286.99c-.16-.08-8.02,16.1-22.44,40.09-22.86,38.03-34.65,49.82-49.93,55.94-5.93,2.38-11.14,3.4-14.54,3.89,3.36-.03,8.52-.38,14.42-2.21,14.11-4.36,24.7-14.75,44.89-47.68,16.58-27.05,27.8-49.94,27.6-50.04Z"/>
    <path class="cls-70" d="m360.86,451.56c-40.22-1.31-80.43-2.62-120.65-3.93,14.86-3.3,34.31-6.16,57.1-5.74,25.99.48,47.7,5.05,63.55,9.67Z"/>
    <path class="cls-60" d="m360.86,451.56c-16.29-3.91-36.91-7.42-60.88-8.14-23.3-.7-43.57,1.42-59.77,4.21,14.86-3.3,34.31-6.16,57.1-5.74,25.99.48,47.7,5.05,63.55,9.67Z"/>
    <path class="cls-107" d="m360.95,451.63c-40.22-1.31-80.43-2.62-120.65-3.93,18.22-.3,37.2-.21,56.88.37,22.2.66,43.48,1.89,63.77,3.55Z"/>
    <path class="cls-105" d="m413.76,245.5c-3.43,11.87-6.87,23.74-10.3,35.61-1.28-2.49-2.39-5.57-2.72-9.17-1.34-14.6,11.35-25.1,13.02-26.44Z"/>
    <path class="cls-9" d="m413.76,245.5c-2.45,2.43-7.47,8.08-9.91,16.97-2.28,8.31-1.16,15.29-.39,18.64-1.28-2.49-2.39-5.57-2.72-9.17-1.34-14.6,11.35-25.1,13.02-26.44Z"/>
    <path class="cls-95" d="m413.76,245.5c-3.43,11.87-6.87,23.74-10.3,35.61.3-2.91.73-5.98,1.35-9.17,2.04-10.52,5.46-19.39,8.95-26.44Z"/>
    <path class="cls-8" d="m104.78,470.83c-.11,0-.21-.06-.26-.16-.07-.14,0-.31.14-.38,56.11-26.07,109.52-58.28,158.76-95.73,49.07-37.34,94.23-80.07,134.22-127.01.1-.12.28-.13.4-.03.12.1.13.28.03.4-40.02,46.97-85.2,89.73-134.31,127.09-49.27,37.48-102.72,69.71-158.86,95.8-.04.02-.08.03-.12.03Z"/>
  </g>
  <g>
    <path class="cls-79" d="m644.05,421.12c1.42-5.73,12.07-8.66,20.13-6.99,6.91,1.43,15,6.89,16.02,15.04.48,3.83-.42,9.68-4.46,12.21-5.28,3.3-12.71-1.07-17.52-3.91-3.02-1.78-15.9-9.36-14.17-16.35Z"/>
    <path class="cls-72" d="m648.27,416.29c2.17-1.09,8.38-3.85,15.91-2.16.68.15,12.37,2.95,15.42,12.36.52,1.61.67,3.03.7,4.01-1.42-2.91-4.44-7.93-10.22-11.25-3.14-1.8-5.97-2.46-7.74-2.86-5.98-1.34-11.05-.72-14.07-.1Z"/>
    <path class="cls-97" d="m644.18,420.67c3.07,4.65,6.32,7.77,8.71,9.75,7.45,6.16,15.49,8.57,20.14,9.92,1.27.37,2.34.64,3.08.81-.82.5-2.19,1.19-3.99,1.38-1.69.18-3.04-.16-4.17-.5-3.75-1.14-6.91-2.86-9.73-4.56-2.33-1.41-4.52-2.74-7.25-4.87-1.32-1.03-4.22-3.38-5.95-6.39-.74-1.28-1.2-2.56-1.12-4,.04-.65.17-1.18.28-1.53Z"/>
    <path class="cls-108" d="m573.19,350.41c20.65,21.25,41.3,42.49,61.95,63.74-5.49,1.24-14.67,2.38-23.65-1.79-4.05-1.88-10.33-5.9-23.31-29.95-4.14-7.68-9.56-18.49-14.99-32Z"/>
    <path class="cls-78" d="m573.19,350.39c20.65,21.25,41.3,42.49,61.95,63.74-12.19-11.03-24.79-23.21-37.53-36.62-8.72-9.18-16.85-18.25-24.42-27.12Z"/>
    <path class="cls-91" d="m573.19,350.41c4.31,10.53,8.81,18.68,12.1,24.14,9.82,16.31,19.68,32.69,37.44,37.93,5.18,1.53,9.68,1.71,12.41,1.67-5.49,1.24-14.67,2.38-23.65-1.79-4.05-1.88-10.33-5.9-23.31-29.95-4.14-7.68-9.56-18.49-14.99-32Z"/>
    <path class="cls-46" d="m579.8,211.48c-2.12,44.09-4.25,88.19-6.37,132.28,2.62-2.1,6.45-5.58,9.95-10.66,8.38-12.16,10.27-26.88,5.73-65.24-1.75-14.76-4.56-33.98-9.31-56.38Z"/>
    <path class="cls-35" d="m579.8,211.48c-2.12,44.09-4.25,88.19-6.37,132.28,2.78-20.32,4.97-42.52,6.11-66.38,1.12-23.57,1.07-45.62.27-65.9Z"/>
    <path class="cls-76" d="m579.82,211.81c-.18.03,3.67,17.61,7.2,45.38,5.6,44.02,3.64,60.58-4.57,74.84-3.19,5.54-6.65,9.57-9.01,12.06,2.62-2.1,6.45-5.58,9.95-10.66,8.38-12.16,10.27-26.88,5.73-65.24-3.73-31.5-9.09-56.43-9.31-56.38Z"/>
    <path class="cls-92" d="m707.87,515.91c-29.06-27.83-58.13-55.65-87.19-83.48,13.26,7.46,29.65,18.32,46.34,33.85,19.03,17.71,32.14,35.61,40.86,49.63Z"/>
    <path class="cls-12" d="m707.87,515.91c-9.51-13.79-22.52-30.17-39.89-46.71-16.88-16.08-33.39-28.04-47.31-36.77,13.27,7.47,29.65,18.33,46.34,33.85,19.03,17.71,32.14,35.61,40.86,49.63Z"/>
    <path class="cls-43" d="m707.89,516.02c-29.06-27.83-58.13-55.65-87.19-83.48,13.76,11.94,27.83,24.68,42.09,38.25,16.09,15.31,31.1,30.44,45.1,45.22Z"/>
    <path class="cls-30" d="m590.03,169.5c-3.43,11.87-6.87,23.74-10.3,35.61-1.28-2.49-2.39-5.57-2.72-9.17-1.34-14.6,11.35-25.1,13.02-26.44Z"/>
    <path class="cls-61" d="m590.03,169.5c-2.45,2.43-7.47,8.08-9.91,16.97-2.28,8.31-1.16,15.29-.39,18.64-1.28-2.49-2.39-5.57-2.72-9.17-1.34-14.6,11.35-25.1,13.02-26.44Z"/>
    <path class="cls-14" d="m590.03,169.5c-3.43,11.87-6.87,23.74-10.3,35.61.3-2.91.73-5.98,1.35-9.17,2.04-10.52,5.46-19.39,8.95-26.44Z"/>
    <path class="cls-24" d="m486.45,518.69c-9.46-36.49-2.69-72.19,19.57-91.41,3.26-2.82,14.75-12.47,32.2-14.62,27.58-3.39,47.91,14.66,52.02,18.58,20.52,19.56,26.87,51.84,17.42,83.15,3.03-38.75-27.89-70.35-61.52-70.02-34.7.34-65.55,34.59-59.7,74.32Z"/>
    <path class="cls-22" d="m486.5,518.73c-7.08-41.77,24.77-77.55,58.96-78.22,33.57-.66,66.39,32.58,62.26,73.93,3.03-38.75-27.89-70.35-61.52-70.02-34.7.34-65.55,34.59-59.7,74.32Z"/>
    <path class="cls-31" d="m486.45,518.69c-9.46-36.49-2.69-72.19,19.57-91.41,3.26-2.82,14.75-12.47,32.2-14.62,27.58-3.39,47.91,14.66,52.02,18.58,20.52,19.56,26.87,51.84,17.42,83.15.72-4.07,8.17-50.01-21.69-76.83-4.55-4.09-19.79-17.78-41.29-17.03,0,0-13.07.46-25.59,7.94-23.57,14.09-35.37,49.55-32.65,90.21Z"/>
  </g>
  <path class="cls-38" d="m1403.81,609.76H119.34v-3.85l1284.47.42v3.42Z"/>
  <g>
    <path class="cls-33" d="m895.67,266.19c-4.94-1.74-6.63-11.4-4.47-18.38,1.85-5.99,7.35-12.67,14.65-12.88,3.42-.1,8.52,1.19,10.41,4.98,2.47,4.94-2.02,11.14-4.94,15.15-1.83,2.52-9.62,13.26-15.65,11.13Z"/>
    <path class="cls-102" d="m891.76,262.05c-.78-2.01-2.7-7.73-.57-14.24.19-.58,3.66-10.68,12.22-12.58,1.46-.32,2.73-.33,3.61-.28-2.69,1.01-7.38,3.25-10.8,8.08-1.86,2.62-2.68,5.07-3.18,6.6-1.69,5.17-1.57,9.7-1.28,12.43Z"/>
    <path class="cls-96" d="m895.29,266.04c4.37-2.32,7.4-4.93,9.35-6.87,6.07-6.06,8.89-12.96,10.47-16.95.43-1.09.76-2.02.98-2.66.37.76.86,2.04.88,3.65.02,1.51-.4,2.67-.79,3.64-1.32,3.22-3.11,5.87-4.86,8.22-1.44,1.94-2.8,3.76-4.92,6-1.02,1.08-3.34,3.44-6.15,4.72-1.19.54-2.36.84-3.63.65-.57-.09-1.03-.25-1.33-.38Z"/>
    <path class="cls-75" d="m873.95,371.87c5.86-31.45,11.73-62.9,17.59-94.35-5.67,2.17-14.62,6.63-20.2,15.75-2.51,4.11-5.76,11.48-3.05,40.86.87,9.38,2.46,22.34,5.66,37.73Z"/>
    <path class="cls-57" d="m873.95,371.89c5.86-31.45,11.73-62.9,17.59-94.35-4.37,17.2-8.41,35.68-11.84,55.37-2.35,13.47-4.24,26.48-5.74,38.98Z"/>
    <path class="cls-29" d="m873.95,371.87c-2.42-12.05-3.25-22.06-3.56-28.94-.93-20.53-1.86-41.16,10.98-56.49,3.75-4.47,7.68-7.32,10.16-8.92-5.67,2.17-14.62,6.63-20.2,15.75-2.51,4.11-5.76,11.48-3.05,40.86.87,9.38,2.46,22.34,5.66,37.73Z"/>
    <path class="cls-32" d="m745.03,313.89c43.47,23.63,86.94,47.25,130.41,70.88-3.54,1.29-9.1,2.94-16,3.33-16.53.95-31.72-5.81-65.82-32.48-13.12-10.26-29.89-24.14-48.59-41.73Z"/>
    <path class="cls-25" d="m745.03,313.89c43.47,23.63,86.94,47.25,130.41,70.88-21.08-9.17-43.62-19.99-67.14-32.78-23.23-12.64-44.32-25.53-63.27-38.09Z"/>
    <path class="cls-80" d="m745.34,314.1c.14-.15,14.73,13.77,39.27,33.31,38.91,30.98,55.91,38.74,74.35,39.18,7.16.17,13.03-.8,16.79-1.61-3.54,1.29-9.1,2.94-16,3.33-16.53.95-31.72-5.81-65.82-32.48-28-21.9-48.76-41.55-48.59-41.73Z"/>
    <path class="cls-69" d="m867.16,272.42c-21.01-29.84-42.01-59.68-63.02-89.52,4.89,12.91,12.41,29.07,24.06,46.15,13.3,19.47,27.57,33.65,38.96,43.37Z"/>
    <path class="cls-56" d="m867.16,272.42c-11.07-10.4-23.99-24.29-36.47-42.11-12.13-17.32-20.61-33.74-26.55-47.41,4.9,12.91,12.41,29.08,24.06,46.15,13.3,19.47,27.57,33.65,38.96,43.37Z"/>
    <path class="cls-73" d="m867.26,272.46c-21.01-29.84-42.01-59.68-63.02-89.52,8.84,13.96,18.35,28.31,28.59,42.94,11.55,16.5,23.08,32.02,34.43,46.58Z"/>
    <path class="cls-67" d="m935.74,401.78c-10.37-34.99-20.75-69.97-31.12-104.96.51,13.79,2.47,31.51,8.06,51.41,6.38,22.7,15.37,40.69,23.06,53.54Z"/>
    <path class="cls-94" d="m935.74,401.78c-7.17-13.39-14.98-30.68-21.11-51.55-5.96-20.29-8.75-38.56-10.01-53.41.52,13.8,2.47,31.52,8.06,51.41,6.38,22.7,15.37,40.69,23.06,53.54Z"/>
    <path class="cls-62" d="m935.82,401.84c-10.37-34.99-20.75-69.97-31.12-104.96,3.91,16.05,8.35,32.69,13.38,49.82,5.67,19.33,11.64,37.72,17.75,55.14Z"/>
    <path class="cls-49" d="m713.15,280.03c8.73,9.66,17.46,19.33,26.19,28.99.07-2.95-.3-6.38-1.65-9.95-5.47-14.45-22.35-18.54-24.54-19.04Z"/>
    <path class="cls-81" d="m713.15,280.03c3.44,1.18,10.81,4.21,17.22,11.51,6,6.82,8.15,13.95,8.97,17.48.07-2.95-.3-6.38-1.65-9.95-5.47-14.45-22.35-18.54-24.54-19.04Z"/>
    <path class="cls-11" d="m713.15,280.03c8.73,9.66,17.46,19.33,26.19,28.99-1.62-2.62-3.45-5.33-5.51-8.07-6.79-9.03-14.12-15.85-20.68-20.92Z"/>
    <path class="cls-77" d="m838.25,534.83c-6.94-10.14-16.99-28.18-19.01-52.23-1.05-12.55-2.63-31.35,9.13-48.28,7.44-10.72,16.99-16.02,21.5-18.47,17.61-9.53,34.46-8.43,40.33-7.78,2.93.33,25.58,3.24,43.07,21.49,28.74,29.97,16.42,74.77,15.78,76.97.52-6.26.07-12.33-1.17-18.07,0,0-.83-3.79-3.04-9.18,0,0-4.25-10.37-11.32-18.75-9.05-10.72-44.47-32.08-74.64-16.06-28.01,14.87-40.42,56.08-20.64,90.36Z"/>
    <path class="cls-85" d="m838.34,534.79c-2.44-3.4-17.64-25.43-10.91-53.54,1.54-6.42,7.38-26.35,26.71-38.11,23-13.98,51.78-8.41,69.92,5.11,2.89,2.15,20.09,15.38,24.52,38.84,1.51,7.98,1.1,14.82.47,19.44.45-5.43.33-12.58-1.83-20.53-.67-2.46-1.46-4.72-2.29-6.76,0,0-1.06-2.59-3.01-6.23-1.52-2.85-4.21-7.85-8.31-12.52-4.63-5.26-9.23-8.02-14.1-10.95-3.15-1.89-8.86-5.01-16.59-7.47-2.41-.76-7.85-2.46-14.02-3.08-1.89-.19-16.17-1.46-29.93,5.44-22.89,11.47-28.54,37.62-29.58,43.15-4.43,23.63,5.87,42.13,8.94,47.21Z"/>
    <path class="cls-27" d="m655.84,381.6c-.31-.48-.65-1.49-.96-2.48.12,1.15.21,2.31.27,3.48.1-.18.19-.36.3-.53.08-.12.22-.29.38-.47Z"/>
    <path class="cls-40" d="m829.32,442.5c3.16-4.12,14.34-18.3,34.47-24.16,21.95-6.39,40.36,1.24,48.02,4.42,18.05,7.48,29.04,19.58,34.31,26.36-2.89-6.81-7.01-13.49-12.83-19.56-17.49-18.24-40.13-21.16-43.07-21.49-5.87-.65-22.73-1.75-40.33,7.78-4.51,2.45-14.06,7.75-21.5,18.47-6.32,9.1-8.78,18.73-9.55,27.64,1.73-4.96,4.84-12.1,10.48-19.47Z"/>
  </g>
  <g>
    <path class="cls-65" d="m1049.69,347.16c49.35,9.93,98.7,19.86,148.05,29.79-3.05,2.31-7.97,5.58-14.56,8.04-15.79,5.88-32.58,3.87-73.73-11.83-15.83-6.04-36.3-14.5-59.76-25.99Z"/>
    <path class="cls-68" d="m1049.69,347.16c49.35,9.93,98.7,19.86,148.05,29.79-23.24-2.59-48.4-6.35-75.11-11.73-26.38-5.32-50.75-11.52-72.94-18.05Z"/>
    <path class="cls-23" d="m1050.05,347.28c.09-.19,18.45,8.97,48.17,20.6,47.12,18.45,65.98,20.89,84.04,15.79,7.01-1.98,12.43-4.69,15.84-6.6-3.05,2.31-7.97,5.58-14.56,8.04-15.79,5.88-32.58,3.87-73.73-11.83-33.8-12.9-59.87-25.77-59.76-25.99Z"/>
    <path class="cls-39" d="m1043.64,346.12c-13.09-2.55-26.17-5.09-39.26-7.64,1.76,2.45,4.17,5.04,7.46,7.13,13.36,8.47,29.69,1.45,31.8.51Z"/>
    <path class="cls-4" d="m1043.64,346.12c-3.54,1.15-11.44,3.19-21.18,1.16-9.11-1.9-15.25-6.41-18.09-8.8,1.76,2.45,4.17,5.04,7.46,7.13,13.36,8.47,29.69,1.45,31.8.51Z"/>
    <path class="cls-93" d="m1043.64,346.12c-13.09-2.55-26.17-5.09-39.26-7.64,2.94,1.15,6.1,2.24,9.47,3.22,11.1,3.22,21.3,4.3,29.79,4.42Z"/>
    <path class="cls-3" d="m1268.83,281.76c.24,42.74.48,85.48.72,128.23-4.11-15.64-7.93-36.17-8.41-60.37-.55-27.61,3.43-50.83,7.68-67.85Z"/>
    <path class="cls-55" d="m1268.83,281.76c-3.49,17.45-6.38,39.48-6.17,64.95.2,24.77,3.28,46.2,6.9,63.27-4.1-15.64-7.93-36.17-8.41-60.37-.55-27.61,3.43-50.83,7.68-67.85Z"/>
    <path class="cls-28" d="m1268.9,281.66c.24,42.74.48,85.48.72,128.23-1.06-19.32-1.73-39.47-1.91-60.39-.2-23.59.25-46.23,1.19-67.83Z"/>
    <path class="cls-47" d="m1203.75,378.02c22.6,22.47,45.2,44.94,67.8,67.41,1.4-5.89,2.74-15.75-1.64-25.46-1.97-4.38-6.22-11.18-31.93-25.44-8.21-4.55-19.77-10.51-34.23-16.51Z"/>
    <path class="cls-88" d="m1203.73,378.02c22.6,22.47,45.2,44.94,67.8,67.41-11.71-13.25-24.66-26.94-38.93-40.81-9.77-9.49-19.42-18.35-28.87-26.6Z"/>
    <path class="cls-42" d="m1203.75,378.02c11.27,4.77,19.98,9.7,25.82,13.3,17.42,10.76,34.92,21.56,40.34,40.73,1.58,5.59,1.72,10.43,1.64,13.37,1.4-5.89,2.74-15.75-1.64-25.46-1.97-4.38-6.22-11.18-31.93-25.44-8.21-4.55-19.77-10.51-34.23-16.51Z"/>
    <path class="cls-7" d="m1271.14,455.69c5.98-1.54,13.96,6.82,16.42,15.07,2.11,7.08,1.1,17.23-5.91,22.22-3.29,2.34-9.12,4.42-13.46,1.95-5.66-3.22-5.31-12.23-5.09-18.08.14-3.66.73-19.28,8.03-21.16Z"/>
    <path class="cls-104" d="m1277.68,457.18c2.08,1.46,7.71,5.8,9.88,13.57.2.7,3.42,12.86-3.73,20.33-1.22,1.28-2.46,2.12-3.35,2.64,1.98-2.75,5.1-8.02,5.29-14.99.1-3.78-.7-6.72-1.21-8.55-1.73-6.18-4.82-10.53-6.89-13.01Z"/>
    <path class="cls-103" d="m1271.62,455.59c-2.76,5.13-4.02,9.68-4.66,12.86-1.98,9.92-.21,18.52.86,23.46.29,1.36.58,2.47.78,3.24-.87-.5-2.18-1.43-3.25-2.99-1.01-1.47-1.36-2.88-1.61-4.09-.82-4.02-.79-7.79-.63-11.23.14-2.84.28-5.52.89-9.1.29-1.73,1.02-5.56,2.93-8.65.81-1.31,1.76-2.37,3.13-3.01.61-.29,1.17-.43,1.55-.5Z"/>
    <path class="cls-98" d="m1003.51,277.72c121.4-78.21,268.94-58.39,341.25,28.42,70.47,84.62,42.21,200.15,38.66,213.78,3.46-16.33,24.48-123.86-42.88-204.9-71.71-86.28-214.94-108.09-337.02-37.3Z"/>
  </g>
</svg>