<?xml version="1.0" encoding="UTF-8"?>
<svg id="_Слой_1" data-name="Слой 1" xmlns="http://www.w3.org/2000/svg" xmlns:xlink="http://www.w3.org/1999/xlink" viewBox="0 0 1237.7 696.92">
  <defs>
    <style>
      .cls-1 {
        fill: url(#_Безымянный_градиент_4-22);
      }

      .cls-2 {
        fill: url(#_Безымянный_градиент_4-26);
      }

      .cls-3 {
        fill: url(#_Безымянный_градиент_4-9);
      }

      .cls-4 {
        fill: url(#_Безымянный_градиент_4-21);
      }

      .cls-5 {
        fill: url(#_Безымянный_градиент_4-25);
      }

      .cls-6 {
        fill: url(#_Безымянный_градиент_4-14);
      }

      .cls-7 {
        fill: url(#_Безымянный_градиент_4-15);
      }

      .cls-8 {
        fill: url(#_Безымянный_градиент_4-7);
      }

      .cls-9 {
        fill: url(#_Безымянный_градиент_4-18);
      }

      .cls-10 {
        fill: url(#_Безымянный_градиент_4-10);
      }

      .cls-11 {
        fill: url(#_Безымянный_градиент_4-13);
      }

      .cls-12 {
        fill: url(#_Безымянный_градиент_4-2);
      }

      .cls-13 {
        fill: url(#_Безымянный_градиент_4-27);
      }

      .cls-14 {
        fill: url(#_Безымянный_градиент_4-17);
      }

      .cls-15 {
        fill: url(#_Безымянный_градиент_4-33);
      }

      .cls-16 {
        fill: url(#_Безымянный_градиент_4-23);
      }

      .cls-17 {
        fill: url(#_Безымянный_градиент_4-24);
      }

      .cls-18 {
        fill: url(#_Безымянный_градиент_4-8);
      }

      .cls-19 {
        fill: url(#_Безымянный_градиент_4-29);
      }

      .cls-20 {
        fill: url(#_Безымянный_градиент_4-28);
      }

      .cls-21 {
        fill: url(#_Безымянный_градиент_4-30);
      }

      .cls-22 {
        fill: url(#_Безымянный_градиент_4-11);
      }

      .cls-23 {
        fill: url(#_Безымянный_градиент_4-32);
      }

      .cls-24 {
        fill: url(#_Безымянный_градиент_4);
      }

      .cls-25 {
        fill: #aa801c;
        font-family: 1IsadoraMBold, '1Isadora M Bold';
        font-size: 62.46px;
      }

      .cls-26 {
        fill: url(#_Безымянный_градиент_4-4);
      }

      .cls-27 {
        fill: url(#_Безымянный_градиент_4-20);
      }

      .cls-28 {
        fill: url(#_Безымянный_градиент_4-5);
      }

      .cls-29 {
        fill: url(#_Безымянный_градиент_4-3);
      }

      .cls-30 {
        fill: url(#_Безымянный_градиент_4-19);
      }

      .cls-31 {
        fill: url(#_Безымянный_градиент_4-31);
      }

      .cls-32 {
        fill: url(#_Безымянный_градиент_4-16);
      }

      .cls-33 {
        fill: url(#_Безымянный_градиент_4-6);
      }

      .cls-34 {
        fill: url(#_Безымянный_градиент_4-12);
      }
    </style>
    <linearGradient id="_Безымянный_градиент_4" data-name="Безымянный градиент 4" x1="527.37" y1="404.29" x2="529.43" y2="136.17" gradientUnits="userSpaceOnUse">
      <stop offset="0" stop-color="#653513"/>
      <stop offset=".06" stop-color="#653513"/>
      <stop offset=".12" stop-color="#7c4f10"/>
      <stop offset=".27" stop-color="#b38c0b"/>
      <stop offset=".39" stop-color="#dab907"/>
      <stop offset=".49" stop-color="#f2d404"/>
      <stop offset=".55" stop-color="#fcdf04"/>
      <stop offset="1" stop-color="#fcdf04"/>
    </linearGradient>
    <linearGradient id="_Безымянный_градиент_4-2" data-name="Безымянный градиент 4" x1="566.18" y1="404.58" x2="568.25" y2="136.47" xlink:href="#_Безымянный_градиент_4"/>
    <linearGradient id="_Безымянный_градиент_4-3" data-name="Безымянный градиент 4" x1="547.86" y1="404.44" x2="549.92" y2="136.33" xlink:href="#_Безымянный_градиент_4"/>
    <linearGradient id="_Безымянный_градиент_4-4" data-name="Безымянный градиент 4" x1="537.11" y1="404.36" x2="539.17" y2="136.25" xlink:href="#_Безымянный_градиент_4"/>
    <linearGradient id="_Безымянный_градиент_4-5" data-name="Безымянный градиент 4" x1="578.34" y1="404.68" x2="580.4" y2="136.57" xlink:href="#_Безымянный_градиент_4"/>
    <linearGradient id="_Безымянный_градиент_4-6" data-name="Безымянный градиент 4" x1="557.62" y1="404.52" x2="559.68" y2="136.41" xlink:href="#_Безымянный_градиент_4"/>
    <linearGradient id="_Безымянный_градиент_4-7" data-name="Безымянный градиент 4" x1="566.39" y1="404.59" x2="568.45" y2="136.47" xlink:href="#_Безымянный_градиент_4"/>
    <linearGradient id="_Безымянный_градиент_4-8" data-name="Безымянный градиент 4" x1="547.86" y1="404.44" x2="549.92" y2="136.33" xlink:href="#_Безымянный_градиент_4"/>
    <linearGradient id="_Безымянный_градиент_4-9" data-name="Безымянный градиент 4" y1="404.29" x2="529.43" y2="136.17" xlink:href="#_Безымянный_градиент_4"/>
    <linearGradient id="_Безымянный_градиент_4-10" data-name="Безымянный градиент 4" x1="557.62" y1="404.52" x2="559.68" y2="136.41" xlink:href="#_Безымянный_градиент_4"/>
    <linearGradient id="_Безымянный_градиент_4-11" data-name="Безымянный градиент 4" x1="556.69" y1="404.51" x2="558.75" y2="136.4" xlink:href="#_Безымянный_градиент_4"/>
    <linearGradient id="_Безымянный_градиент_4-12" data-name="Безымянный градиент 4" x1="537.11" y1="404.36" x2="539.17" y2="136.25" xlink:href="#_Безымянный_градиент_4"/>
    <linearGradient id="_Безымянный_градиент_4-13" data-name="Безымянный градиент 4" x1="578.34" y1="404.68" x2="580.4" y2="136.57" xlink:href="#_Безымянный_градиент_4"/>
    <linearGradient id="_Безымянный_градиент_4-14" data-name="Безымянный градиент 4" x1="557.62" y1="404.52" x2="559.68" y2="136.41" xlink:href="#_Безымянный_градиент_4"/>
    <linearGradient id="_Безымянный_градиент_4-15" data-name="Безымянный градиент 4" x1="547.86" y1="404.44" x2="549.92" y2="136.33" xlink:href="#_Безымянный_градиент_4"/>
    <linearGradient id="_Безымянный_градиент_4-16" data-name="Безымянный градиент 4" x1="537.11" y1="404.36" x2="539.17" y2="136.25" xlink:href="#_Безымянный_градиент_4"/>
    <linearGradient id="_Безымянный_градиент_4-17" data-name="Безымянный градиент 4" x1="578.34" y1="404.68" x2="580.4" y2="136.57" xlink:href="#_Безымянный_градиент_4"/>
    <linearGradient id="_Безымянный_градиент_4-18" data-name="Безымянный градиент 4" x1="566.18" y1="404.58" x2="568.25" y2="136.47" xlink:href="#_Безымянный_градиент_4"/>
    <linearGradient id="_Безымянный_градиент_4-19" data-name="Безымянный градиент 4" x1="233.08" y1="402.02" x2="235.14" y2="133.91" xlink:href="#_Безымянный_градиент_4"/>
    <linearGradient id="_Безымянный_градиент_4-20" data-name="Безымянный градиент 4" x1="343.17" y1="402.87" x2="345.24" y2="134.76" xlink:href="#_Безымянный_градиент_4"/>
    <linearGradient id="_Безымянный_градиент_4-21" data-name="Безымянный градиент 4" x1="441.48" y1="403.63" x2="443.54" y2="135.51" xlink:href="#_Безымянный_градиент_4"/>
    <linearGradient id="_Безымянный_градиент_4-22" data-name="Безымянный градиент 4" x1="562.18" y1="404.55" x2="564.24" y2="136.44" xlink:href="#_Безымянный_градиент_4"/>
    <linearGradient id="_Безымянный_градиент_4-23" data-name="Безымянный градиент 4" x1="617.28" y1="404.98" x2="619.34" y2="136.87" xlink:href="#_Безымянный_градиент_4"/>
    <linearGradient id="_Безымянный_градиент_4-24" data-name="Безымянный градиент 4" x1="617.04" y1="404.98" x2="619.11" y2="136.86" xlink:href="#_Безымянный_градиент_4"/>
    <linearGradient id="_Безымянный_градиент_4-25" data-name="Безымянный градиент 4" x1="617.28" y1="404.98" x2="619.34" y2="136.87" xlink:href="#_Безымянный_градиент_4"/>
    <linearGradient id="_Безымянный_градиент_4-26" data-name="Безымянный градиент 4" x1="617.28" y1="404.98" x2="619.34" y2="136.87" xlink:href="#_Безымянный_градиент_4"/>
    <linearGradient id="_Безымянный_градиент_4-27" data-name="Безымянный градиент 4" x1="617.04" y1="404.98" x2="619.11" y2="136.86" xlink:href="#_Безымянный_градиент_4"/>
    <linearGradient id="_Безымянный_градиент_4-28" data-name="Безымянный градиент 4" x1="617.28" y1="404.98" x2="619.34" y2="136.87" xlink:href="#_Безымянный_градиент_4"/>
    <linearGradient id="_Безымянный_градиент_4-29" data-name="Безымянный градиент 4" x1="616.94" y1="404.97" x2="619.01" y2="136.86" xlink:href="#_Безымянный_градиент_4"/>
    <linearGradient id="_Безымянный_градиент_4-30" data-name="Безымянный градиент 4" x1="674.02" y1="405.41" x2="676.09" y2="137.3" xlink:href="#_Безымянный_градиент_4"/>
    <linearGradient id="_Безымянный_градиент_4-31" data-name="Безымянный градиент 4" x1="777.27" y1="406.21" x2="779.33" y2="138.1" xlink:href="#_Безымянный_градиент_4"/>
    <linearGradient id="_Безымянный_градиент_4-32" data-name="Безымянный градиент 4" x1="897.12" y1="407.13" x2="899.18" y2="139.02" xlink:href="#_Безымянный_градиент_4"/>
    <linearGradient id="_Безымянный_градиент_4-33" data-name="Безымянный градиент 4" x1="1029.87" y1="408.15" x2="1031.94" y2="140.04" xlink:href="#_Безымянный_градиент_4"/>
  </defs>
  <g>
    <g>
      <path class="cls-24" d="m527.45,346.18c.24-.71.49-1.42.75-2.13-.2.59-.41,1.2-.61,1.76-.04.14-.08.26-.14.39v-.02Z"/>
      <path class="cls-12" d="m576.52,324.66l-.08-.08c.02-.1-.08-.28-.16-.57l-17.36-49.4c-.12-.32-.22-.61-.32-.87-.1-.26-.18-.51-.28-.73-.16-.43-.3-.75-.43-.95-.06-.14-.14-.24-.22-.28-.06-.06-.12-.08-.18-.08v-.08h.02c.14,0,.28.12.45.39.26.43.57,1.26,1.05,2.6l17.36,49.42c.02.06.06.14.08.2.06.18.12.34.08.45Z"/>
      <path class="cls-29" d="m557.47,271.61v.08c-.34.04-.65,1.03-1.28,2.92l-16.11,49.4c-.12.34-.16.55-.06.65v.02l-.08.08h-.02c-.1-.14-.04-.41.08-.77l16.11-49.4.08-.24c.61-1.91.89-2.72,1.28-2.74Z"/>
      <path class="cls-26" d="m537.73,331.27c-.06,0-.1.02-.12.04v-.02s.08-.02.12-.02Z"/>
      <path class="cls-28" d="m578.94,331.29v.02s-.04-.02-.06-.04c.02,0,.04,0,.06.02Z"/>
      <path class="cls-33" d="m576.52,324.66s-.02.06-.04.08c-.06.1-.22.18-.57.18h-35.64c-.1,0-.24-.06-.32-.16l.08-.08v-.02c.04.06.12.08.24.08h35.64c.37,0,.51-.04.53-.16l.08.08Z"/>
      <path class="cls-8" d="m576.52,324.66l-.08-.08c.02-.1-.08-.28-.16-.57l-17.36-49.4c-.12-.32-.22-.61-.32-.87-.1-.26-.18-.51-.28-.73-.16-.43-.3-.75-.43-.95l.06-.06c.26.43.57,1.26,1.05,2.6l17.36,49.42c.02.06.06.14.08.2.06.18.12.34.08.45Z"/>
      <path class="cls-24" d="m527.45,346.18c.24-.71.49-1.42.75-2.13-.2.59-.41,1.2-.61,1.76-.04.14-.08.26-.14.39v-.02Z"/>
      <path class="cls-18" d="m557.47,271.61v.08c-.34.04-.65,1.03-1.28,2.92l-16.11,49.4c-.12.34-.16.55-.06.65v.02l-.08.08h-.02c-.1-.14-.04-.41.08-.77l16.11-49.4.08-.24c.61-1.91.89-2.72,1.28-2.74Z"/>
      <path class="cls-3" d="m527.45,346.18c.24-.71.49-1.42.75-2.13-.2.59-.41,1.2-.61,1.76-.04.12-.08.24-.14.37Z"/>
      <path class="cls-10" d="m576.52,324.66s-.02.06-.04.08c-.06.1-.22.18-.57.18h-35.64c-.1,0-.24-.06-.32-.16l.08-.08v-.02c.04.06.12.08.24.08h35.64c.37,0,.51-.04.53-.16l.08.08Z"/>
      <path class="cls-22" d="m557.94,271.99l-.06.06c-.06-.14-.14-.24-.22-.28-.06-.06-.12-.08-.18-.08v-.08h.02c.14,0,.28.12.45.39Z"/>
      <path class="cls-34" d="m537.73,331.27c-.06,0-.1.02-.12.04v-.02s.08-.02.12-.02Z"/>
      <path class="cls-11" d="m578.94,331.29v.02s-.04-.02-.06-.04c.02,0,.04,0,.06.02Z"/>
      <path class="cls-6" d="m576.52,324.66s-.02.06-.04.08c-.06.1-.22.18-.57.18h-35.64c-.1,0-.24-.06-.32-.16l.08-.08v-.02c.04.06.12.08.24.08h35.64c.37,0,.51-.04.53-.16l.08.08Z"/>
      <path class="cls-7" d="m557.47,271.61v.08c-.34.04-.65,1.03-1.28,2.92l-16.11,49.4c-.12.34-.16.55-.06.65v.02l-.08.08h-.02c-.1-.14-.04-.41.08-.77l16.11-49.4.08-.24c.61-1.91.89-2.72,1.28-2.74Z"/>
      <path class="cls-32" d="m537.73,331.27c-.06,0-.1.02-.12.04v-.02s.08-.02.12-.02Z"/>
      <path class="cls-14" d="m578.94,331.29v.02s-.04-.02-.06-.04c.02,0,.04,0,.06.02Z"/>
      <path class="cls-9" d="m576.52,324.66l-.08-.08c.02-.1-.08-.28-.16-.57l-17.36-49.4c-.12-.32-.22-.61-.32-.87-.1-.26-.18-.51-.28-.73-.16-.43-.3-.75-.43-.95-.06-.14-.14-.24-.22-.28-.06-.06-.12-.08-.18-.08v-.08h.02c.14,0,.28.12.45.39.26.43.57,1.26,1.05,2.6l17.36,49.42c.02.06.06.14.08.2.06.18.12.34.08.45Z"/>
      <path class="cls-30" d="m283.75,207.53c5.54,5.29,12.6,16.61,12.6,33.01,0,1.01-.02,2.03-.08,3.04,0,.18-.02.34-.02.53h-.02c-1.22,20.89-13.35,37.61-31.75,46.23-.89.43-1.83.83-2.76,1.22-.61.24-1.22.49-1.85.71-.16.06-.32.12-.49.18-.32.12-.63.22-.95.34-.59.22-1.18.41-1.77.59-1.22.39-2.47.75-3.75,1.08-.83.22-1.68.43-2.54.61-.02,0-.06.02-.08.02-.99.2-1.99.41-3,.57-.91.16-1.85.3-2.78.43-.77.1-1.54.18-2.33.26-.55.06-1.1.1-1.66.14-1.05.08-2.15.14-3.25.18-.95.04-1.93.06-2.9.06-4.79,0-8.07-.26-8.07-1.01,0-.51,1.01-.51,1.76-.51,4.63,0,9.01-.41,13.08-1.2.79-.14,1.58-.3,2.35-.49.85-.2,1.7-.43,2.52-.67.71-.18,1.4-.41,2.07-.63,5.86-1.93,10.93-4.79,15.13-8.52,8.6-7.67,13.47-18.99,13.47-33.59,0-1.18-.02-2.74-.16-4.58,0-.26-.02-.53-.06-.81-.02-.34-.06-.73-.1-1.1-.02-.32-.06-.67-.12-1.03-.08-.69-.18-1.42-.3-2.17-.06-.45-.14-.91-.24-1.38-.12-.69-.26-1.38-.43-2.11-.18-.81-.39-1.64-.63-2.47-.59-2.17-1.38-4.44-2.37-6.76-.28-.65-.59-1.3-.89-1.95-1.18-2.39-2.6-4.83-4.34-7.2-.32-.45-.65-.87-1.01-1.32-.32-.43-.67-.85-1.03-1.26-.14-.18-.28-.37-.47-.55-.28-.34-.59-.69-.91-1.03-.32-.37-.67-.71-1.01-1.08-.49-.49-.99-.97-1.48-1.44-.45-.41-.87-.81-1.32-1.18-.91-.77-1.83-1.5-2.74-2.17-.04,0-.08-.04-.1-.06-.95-.67-1.91-1.3-2.84-1.87-.47-.3-.95-.57-1.42-.81-.41-.24-.83-.45-1.24-.65-.06-.02-.12-.06-.18-.08-9.82-4.87-19.01-4.34-23.21-4.34s-9.43.97-10.83,1.52c-1.52.59-1.89.71-1.99,2.05-.02.32-.02.73-.02,1.22v105.08c0,6.05,0,11.83.02,17.26,0,1.34.02,2.68.02,4,.02,3.23.04,6.33.08,9.27.02.99.04,1.99.06,2.94v.69c.02.57.02,1.14.04,1.68.04,1.42.06,2.78.1,4.1.04.77.06,1.5.08,2.23.02.24.02.47.02.71.04.59.06,1.18.08,1.72,0,.16.02.3.02.45.04.83.08,1.62.12,2.39.04.49.06.95.08,1.42.06.67.1,1.3.14,1.93.02.22.04.45.06.65.02.32.06.65.08.95.08.79.16,1.56.24,2.27.75,7.3,2.52,15.11,9.82,16.13,4.04.51,8.56.51,11.34.51.45,0,.79.04,1.05.08.28.04.47.12.61.2.28.16.35.34.35.47,0,.06,0,.14-.1.24-.3.32-1.42.77-5.44.77-12.33,0-27.71-.77-28.97-.77s-17.14.77-24.69.77c-2.88,0-3.71-.45-3.96-.77-.06-.1-.08-.18-.08-.24,0-.24.24-.75,2.01-.75,2.27,0,5.29,0,7.57-.51,4.75-.95,6.13-7.95,7.12-14.87.06-.43.12-.83.18-1.26.87-7.28,1.14-18.97,1.22-33.41.04-6.57.04-13.69.04-21.26v-44.35c0-37.27,0-45.54-.43-53.17-.02-.43-.06-.83-.08-1.26,0-.12-.02-.22-.02-.34-.53-8.4-2.86-14.79-11.06-16.03-1.76-.26-3.77-.51-7.06-.51-2.27,0-3.27-.26-3.27-.77v-.06c.1-.49,1.16-.93,4.02-.93,5.8,0,12.6,0,28.48.75,1.03,0,2.39-.02,4-.06.45-.02.91-.04,1.4-.04.55-.02,1.12-.04,1.72-.06.37,0,.75-.02,1.14-.04.77-.02,1.56-.04,2.39-.06.41-.02.83-.04,1.24-.04,1.7-.06,3.47-.12,5.27-.18,4.83-.14,9.94-.26,14.59-.26,8.2,0,15.05.71,20.73,1.85,1.22.24,2.37.51,3.49.77.55.14,1.1.28,1.62.43,2.39.65,4.54,1.38,6.47,2.13.49.2.95.39,1.4.59,3.63,1.54,6.41,3.23,8.54,4.77.28.18.53.37.77.55,1.72,1.3,2.94,2.45,3.83,3.29Z"/>
      <path class="cls-27" d="m368,383.91s0,.1-.08.18c-.2.22-1.01.55-3.9.55-8.86,0-20.08-.55-21-.55s-12.29.55-17.73.55c-2.07,0-2.66-.32-2.84-.55-.04-.08-.06-.14-.06-.18,0-.18.18-.55,1.46-.55,1.62,0,3.79,0,5.42-.37,2.58-.51,3.77-3.49,4.52-7.06.22-1.16.43-2.41.61-3.65.04-.28.08-.59.12-.87.12-.95.2-2.01.3-3.14.12-1.74.22-3.69.3-5.82.28-7.85.28-18.34.28-30.29v-31.85c0-15.88,0-24.44-.06-29.92,0-.61,0-1.18-.02-1.7,0-.28,0-.55-.02-.79,0-.51,0-.99-.02-1.44-.04-2.05-.12-3.61-.22-5.23-.08-1.38-.22-2.68-.49-3.87-.04-.28-.12-.57-.18-.83-.93-3.75-2.98-6.41-7.3-7.06-1.26-.18-2.72-.37-5.07-.37-1.62,0-2.35-.18-2.35-.53,0-.02.02-.04.02-.06.06-.34.83-.67,2.88-.67,8.16,0,19.56.55,20.45.55s12.31-.55,17.73-.55c1.89,0,2.8.32,2.9.67v.06c0,.34-.89.53-1.99.53-1.44,0-2.9,0-4.71.37-.22.04-.45.1-.65.18-.22.06-.41.12-.61.22-.18.08-.37.16-.55.28-.18.1-.37.22-.55.34-.2.16-.39.32-.57.49-.18.18-.34.34-.49.55-.22.26-.41.53-.57.83-.12.18-.24.39-.32.59-.28.57-.53,1.18-.71,1.85-.08.24-.14.49-.2.73-.08.32-.16.65-.22.99-.26,1.42-.45,3-.53,4.71-.37,5.78-.37,10.85-.37,39.09v31.85c0,17.36,0,31.67.89,39.25.06.51.12.99.18,1.48.06.51.14,1.03.22,1.54.08.51.2,1.01.3,1.5.83,3.57,2.5,6.55,6.35,7.06,2.54.37,5.98.37,7.79.37,1.44,0,1.62.37,1.62.55Z"/>
      <path class="cls-4" d="m485.07,364.72c-.18,1.46-1.44,11.95-2.88,17.39-.22.83-.59,1.44-1.2,1.89-1.42,1.01-4.2,1.18-9.84,1.18-1.6,0-3.23-.02-4.83-.04-1.62-.02-3.23-.04-4.85-.08-1.6-.04-3.23-.08-4.85-.12-3.96-.12-7.93-.26-11.99-.39-2.6-.1-5.25-.18-7.93-.24-1.3-.04-2.62-.06-3.96-.1-.41,0-.81-.02-1.24-.02-2.9-.06-5.84-.08-8.86-.08-4.34,0-13.02.55-17.73.55-1.99,0-2.9-.18-2.9-.55s.55-.55,1.26-.55c.55,0,3.27,0,5.44-.55,3.98-.89,4.71-6.33,5.44-11.58.26-2.15.43-4.85.57-8.01v-.2c.12-5.5.26-12.39.3-22.68.02-2.56.02-5.34.02-8.36v-31.85c0-9.72,0-16.68-.02-21.89,0-2.35,0-4.36-.02-6.09-.06-5.52-.14-8.24-.32-11.12,0-.14-.02-.28-.02-.41-.08-1.22-.22-2.37-.45-3.45-.04-.28-.12-.59-.18-.85-.12-.47-.24-.91-.41-1.36-.02-.04-.02-.08-.04-.12-.14-.39-.3-.75-.49-1.12-.16-.32-.35-.65-.55-.95-.06-.1-.14-.22-.22-.32-.2-.28-.43-.55-.65-.79-.87-.91-2.01-1.62-3.43-2.05-.2-.08-.43-.12-.65-.18-.28-.06-.57-.12-.87-.16-1.28-.18-2.72-.37-5.07-.37-1.62,0-2.35-.18-2.35-.53,0-.02,0-.04.02-.06.06-.34.81-.67,2.88-.67,8.13,0,19.54.55,20.45.55s14.12-.55,19.54-.55c1.89,0,2.8.32,2.9.67v.06c0,.34-.91.53-1.99.53-1.44,0-4.52,0-6.33.37-1.62.34-2.86,1.18-3.75,2.45-.12.14-.2.28-.3.45s-.22.34-.3.55c-.14.26-.26.53-.39.81-.34.81-.63,1.74-.83,2.76-.06.28-.12.59-.16.89-.04.18-.08.37-.1.57-.04.26-.06.53-.1.79-.02.12-.02.22-.04.32-.04.3-.06.59-.08.89-.04.43-.08.85-.1,1.28-.34,5.78-.34,10.85-.34,39.09v32.21c0,6.73.04,12.5.16,17.43.04,1.05.06,2.07.1,3.02.02.77.04,1.52.08,2.25.04.95.08,1.87.14,2.74.04.95.1,1.89.18,2.76.02.45.06.87.1,1.28.18,2.15.43,4.02.71,5.58.59,3.25,1.38,5.27,2.5,6.37,2.9,2.9,7.59,4.16,21.71,4.16,5.44,0,13.04,0,17.91-1.44.06-.02.12-.04.18-.04,5.31-1.64,8.52-4.2,9.6-11.91.37-1.99.73-2.7,1.1-2.7h.02c.34.1.51,1.48.32,2.7Z"/>
      <path class="cls-24" d="m527.45,346.18c.24-.71.49-1.42.75-2.13-.2.59-.41,1.2-.61,1.76-.04.14-.08.26-.14.39v-.02Z"/>
      <path class="cls-1" d="m629.31,383.37c-1.83,0-5.25,0-7.97-.89-.47-.16-.91-.32-1.32-.49-.43-.16-.81-.32-1.18-.51-.47-.22-.91-.47-1.32-.73-.22-.12-.43-.26-.63-.41-.59-.43-1.12-.89-1.62-1.44-.16-.16-.34-.37-.49-.57-1.28-1.54-2.37-3.63-3.69-6.67-.06-.12-.12-.26-.18-.39-.06-.18-.14-.37-.22-.55-.67-1.54-1.38-3.31-2.19-5.34-.18-.45-.39-.91-.57-1.4-.39-.97-.79-1.99-1.24-3.06-11.06-27.51-39.46-102.24-41.81-108.21-2.72-6.69-3.61-7.79-4.34-7.79h-.06c-.73.08-1.83,1.46-4.1,7.97l-1.52,4.16-39.38,107.66c-.55,1.48-1.08,2.86-1.6,4.16-.47,1.18-.93,2.27-1.44,3.29-3.1,6.59-6.49,10.16-11.81,10.83-2.72.37-3.98.37-5.42.37-1.24,0-1.79.18-1.81.53l-.02.02c0,.18.55.73,3.08.73,4.89,0,19.19-.55,20.81-.55,1.99,0,7.42.55,14.12.55,2.17,0,2.72-.55,2.72-.73-.02-.37-.73-.55-1.83-.55s-3.06,0-5.42-.55c-2.84-.71-3.92-2.7-3.65-6.33.02-.32.06-.67.1-1.03,0-.02,0-.04.02-.08v-.02c.08-.67.2-1.38.39-2.17.14-.77.34-1.62.61-2.52.08-.34.18-.71.3-1.1.06-.28.16-.59.24-.89.18-.61.39-1.26.59-1.91.2-.67.43-1.34.67-2.05l11.04-32.56c.22-.55.3-.77.43-.85v-.02s.08-.02.12-.02c.06-.02.1-.02.18-.02h40.53c.22,0,.34,0,.43.02.02,0,.04,0,.06.02v.02c.1.06.14.2.24.49l17,45.06c.02.06.04.12.06.16,1.18,3.49-.26,4.54-1.14,5.09-.69.34-1.22.53-1.28.85h.02s-.02.02-.02.04c0,.37.55,1.1,5.44,1.28,12.48.55,25.34.37,29.31.37,2.15,0,2.64-.47,2.7-.67.02-.02.02-.04.02-.06,0-.37-.55-.55-1.99-.55Zm-52.82-58.63c-.06.1-.22.18-.57.18h-35.64c-.1,0-.24-.06-.32-.16h-.02c-.1-.14-.04-.41.08-.77l16.11-49.4.08-.24c.61-1.91.89-2.72,1.28-2.74h.02c.14,0,.28.12.45.39.26.43.57,1.26,1.05,2.6l17.36,49.42c.02.06.06.14.08.2.06.18.12.34.08.45,0,.04-.02.06-.04.08Z"/>
    </g>
    <g>
      <path class="cls-16" d="m618.33,267.19s.02-.08.02-.14v.06c-.02.08-.02.16-.02.22v-.14Z"/>
      <path class="cls-17" d="m618.27,267.47h.04v.08h-.04c-.37,0-.37-.73-.37-1.81.02-.3.04-.71.1-1.16,0-.04,0-.08.02-.12h.06c-.04.49-.08.91-.1,1.28,0,.95,0,1.72.28,1.72Z"/>
      <path class="cls-5" d="m618.33,267.19s.02-.08.02-.14v.06c-.02.08-.02.16-.02.22v-.14Z"/>
      <path class="cls-2" d="m618.33,267.19s.02-.08.02-.14v.06c-.02.08-.02.16-.02.22v-.14Z"/>
      <path class="cls-13" d="m618.27,267.47h.04v.08h-.04c-.37,0-.37-.73-.37-1.81.02-.3.04-.71.1-1.16-.02-.04,0-.08,0-.12h.08c-.04.49-.08.91-.1,1.28,0,.95,0,1.72.28,1.72Z"/>
      <path class="cls-20" d="m618.33,267.19s.02-.08.02-.14v.06s-.02.06-.02.08Z"/>
      <path class="cls-19" d="m618.05,264.14c-.02.12-.02.22-.02.32h-.02c0-.1.02-.2.04-.32Z"/>
      <path class="cls-21" d="m731.99,246.58s-.06-.02-.08-.02c-.73,0-1.28.55-2.72.91-.67.16-2.13.32-4.22.51v-.02c-.73.06-1.52.12-2.39.16-.89.06-1.87.1-2.9.14-.73.02-1.48.04-2.29.06-.32.02-.65.02-.99.02-.57.02-1.18.02-1.79.02-.61.02-1.24.02-1.89.02h-67.86c-2.17,0-10.85-.37-16.11-.91-.53-.04-1.03-.08-1.48-.14-3.73-.41-5.01-1.12-6.29-1.12-.18,0-.3.02-.41.08-.34.2-.37.79-.51,1.91-.12,1.18-.41,3.21-.71,5.52-.04.32-.1.67-.14.99-.12,1.01-.26,2.07-.41,3.1-.06.37-.1.75-.16,1.12-.12.93-.22,1.87-.32,2.7-.04.34-.08.67-.12.97-.06.57-.12,1.08-.16,1.54-.02.12-.02.22-.02.32h.06c-.04.49-.08.91-.1,1.28,0,.95,0,1.72.28,1.72h.04v.08c.32-.04.51-.59.85-1.99.04-.16.1-.34.16-.57.14-.59.34-1.36.59-2.15.1-.34.22-.73.34-1.08h-.02c.32-.87.69-1.68,1.1-2.17,1.6-1.93,3.45-2.78,7.47-3.18,1.03-.12,2.25-.18,3.63-.24.26-.02.53-.02.81-.04,2.15-.08,4.73-.12,7.83-.16,8.87-.18,17.91-.18,26.78-.37v76.56c0,4.34,0,8.5-.02,12.39-.04,11.71-.2,21.18-.89,26.86-.16,1.14-.32,2.29-.53,3.43-.71,4.04-1.89,7.61-4.71,8.16-1.64.37-3.81.37-5.44.37-1.26,0-1.44.37-1.44.55,0,.04,0,.1.06.18.16.22.75.55,2.82.55,5.44,0,16.84-.55,17.75-.55s12.29.55,21.16.55c3.81,0,3.98-.55,3.98-.73s-.16-.55-1.62-.55c-1.81,0-5.25,0-7.77-.37-.28-.04-.57-.08-.83-.14-.16-.04-.3-.08-.45-.14-.14-.02-.26-.06-.39-.12-.18-.06-.37-.14-.53-.22-.22-.08-.43-.2-.61-.32-.41-.24-.75-.51-1.08-.81-.14-.12-.26-.26-.39-.41-.51-.57-.93-1.22-1.28-1.95-.12-.26-.24-.53-.34-.79-.12-.28-.22-.59-.3-.87-.1-.28-.18-.59-.26-.91-.08-.3-.16-.63-.22-.95-.04-.16-.06-.34-.1-.51-.02-.16-.06-.3-.08-.47-.16-.97-.28-1.97-.39-2.96-.91-7.59-.91-21.89-.91-39.25v-76.56c.97.02,1.95.04,2.92.06.97.02,1.95.04,2.94.06v-.02c5.64.1,11.28.12,16.94.26.61.02,1.2.02,1.79.04,1.16.02,2.23.06,3.25.12.85.02,1.64.08,2.39.12.63.04,1.22.08,1.76.12.1,0,.18.02.26.02.57.06,1.12.1,1.62.16h.02c.06,0,.12.02.18.02.47.06.91.1,1.34.16.02,0,.06,0,.1.02.49.06.95.12,1.38.2h.06c.16.02.32.04.49.08.06.02.12.02.18.04.18.02.34.06.53.1.02,0,.06,0,.08.02.14.02.26.06.39.08.26.04.51.1.75.18.53.12,1.01.26,1.44.43.06.02.12.04.16.06.14.04.26.08.39.14,1.54.63,2.43,1.38,3.04,2.21.1.14.18.26.26.41.1.14.18.3.26.47.18.3.32.63.49.95.55,1.08.73,2.88.91,4.16.18,1.81.37,2.54.71,2.54.18,0,.55-.55.73-2.72.55-9.05.73-13.21,1.46-17.39.16-1.16.02-2.01-.28-2.15Zm-113.66,20.61s.02-.08.02-.14v.06c-.02.08-.02.16-.02.22v-.14Z"/>
    </g>
    <g>
      <path class="cls-31" d="m802.12,383.91s-.02.1-.08.18c-.22.22-1.01.55-3.92.55-8.86,0-20.08-.55-20.98-.55s-12.31.55-17.75.55c-2.05,0-2.66-.32-2.82-.55-.06-.08-.06-.14-.06-.18,0-.18.18-.55,1.44-.55,1.62,0,3.79,0,5.44-.37,2.56-.51,3.77-3.49,4.5-7.06.24-1.16.45-2.41.61-3.65.04-.28.08-.59.12-.87.69-5.68.85-15.15.89-26.86.02-3.89.02-8.05.02-12.39v-31.85c0-9.72,0-16.68-.02-21.89,0-2.35-.02-4.36-.02-6.09-.04-5.52-.14-8.24-.32-11.12-.02-.43-.06-.85-.1-1.26-.02-.41-.06-.79-.12-1.18-.04-.28-.08-.55-.12-.79-.06-.34-.12-.67-.2-.99t0-.02c-.02-.16-.06-.32-.1-.47-.93-3.75-2.98-6.41-7.3-7.06-1.28-.18-2.72-.37-5.07-.37-1.62,0-2.35-.18-2.35-.53v-.06c.08-.34.83-.67,2.9-.67,8.13,0,19.54.55,20.45.55s12.29-.55,17.73-.55c1.89,0,2.8.32,2.88.67,0,.02.02.04.02.06,0,.34-.91.53-1.99.53-1.46,0-2.9,0-4.71.37-.24.04-.47.1-.67.18-.22.06-.41.14-.61.22-.41.18-.75.39-1.08.63-.06.04-.1.08-.16.12-.14.12-.28.24-.41.37-.14.12-.26.24-.37.39-.14.14-.24.28-.34.45-.18.26-.37.55-.53.85-.43.75-.75,1.64-1.01,2.62-.1.39-.18.81-.26,1.24-.28,1.42-.45,3-.55,4.71-.37,5.78-.37,10.85-.37,39.09v31.85c0,17.36,0,31.67.91,39.25.06.49.1.99.16,1.48.08.53.16,1.03.24,1.54.08.51.18,1.01.3,1.5.83,3.57,2.5,6.55,6.35,7.06,2.54.37,5.96.37,7.77.37,1.46,0,1.64.37,1.64.55Z"/>
      <path class="cls-23" d="m993.22,194.1s.02.04.02.06c0,.51-1.26.77-2.78.77-2.01,0-4.02,0-6.55.51-.39.08-.73.18-1.08.3-.34.1-.67.24-.97.39l-.02.02c-.28.12-.55.28-.81.47-.49.3-.93.69-1.34,1.12-.14.14-.28.28-.41.45-.02.02-.04.04-.06.06-.83,1.01-1.5,2.27-2.01,3.73-.12.34-.24.71-.34,1.08v.04c-.12.37-.2.75-.28,1.14-.43,1.76-.69,3.77-.87,5.96-.04.53-.08,1.08-.1,1.62-.14,2.25-.24,4.44-.32,7.3-.18,7.28-.18,18.87-.18,47.12v26.96c0,1.68-.02,3.39-.04,5.11-.41,25.8-4.24,53.45-23.15,70.21-13.35,11.89-27.12,16.37-39.4,17.93-.16.02-.34.04-.51.06-1.46.16-2.9.3-4.3.41-.28.02-.57.04-.85.06-.69.04-1.4.06-2.07.1-.93.04-1.85.06-2.76.08-.69,0-1.36.02-2.03.02-1.34,0-3.08-.02-5.15-.14-1.24-.06-2.6-.14-4.06-.28-1.44-.14-2.98-.3-4.6-.55-4.32-.61-9.17-1.6-14.18-3.21-1.87-.61-3.77-1.3-5.66-2.09-1.26-.51-2.54-1.1-3.79-1.7-1.26-.63-2.5-1.3-3.75-2.01-1.24-.71-2.45-1.48-3.67-2.29-2.43-1.64-4.79-3.51-7.02-5.62-.39-.37-.77-.75-1.16-1.14-1.52-1.52-3-3.14-4.4-4.89-1.08-1.32-2.09-2.7-3.08-4.16-5.68-8.42-10.08-19.49-12.07-35.34-.14-.97-.26-1.97-.34-3-.26-2.43-.47-4.97-.61-7.61,0-.14-.02-.3-.02-.47,0-.1-.02-.22-.02-.34-.06-.99-.1-1.99-.12-3.02-.04-.95-.06-1.93-.08-2.92v-.75c-.02-.87-.02-1.74-.02-2.64v-36.78c0-39.31,0-46.37-.51-54.43-.02-.55-.06-1.08-.12-1.58-.02-.41-.06-.79-.12-1.18-.02-.32-.08-.65-.12-.95-.02-.28-.08-.57-.12-.83v-.06c-.08-.47-.18-.93-.28-1.38-.08-.45-.2-.87-.32-1.3-.1-.39-.22-.77-.37-1.14-.12-.34-.24-.67-.39-.97-.12-.3-.26-.61-.43-.89-.02-.08-.06-.14-.1-.22-.12-.24-.26-.49-.43-.71-.04-.08-.08-.16-.14-.22-.14-.24-.3-.47-.49-.69,0-.02-.02-.04-.04-.06-.2-.26-.41-.51-.63-.75l-.24-.24c-.45-.47-.95-.89-1.5-1.26-.06-.04-.12-.08-.2-.12-.28-.2-.59-.37-.89-.53-.04-.02-.08-.04-.14-.06-.34-.18-.71-.34-1.1-.49-.02,0-.06-.02-.1-.04-.41-.14-.85-.28-1.32-.39-.47-.12-.95-.22-1.48-.3-1.76-.26-3.77-.51-7.06-.51-2.27,0-3.27-.26-3.27-.77v-.06c.1-.49,1.16-.93,4.02-.93,11.34,0,27.22.75,28.48.75s17.89-.75,25.44-.75c2.64,0,3.9.45,4.04.93h-.02s.02.04.02.06c0,.51-1.26.77-2.78.77-2.01,0-4,0-6.53.51-.39.08-.75.18-1.1.3-.26.08-.53.18-.77.32-.22.08-.45.18-.67.34-.2.08-.41.22-.61.37-.12.08-.22.16-.32.26-.18.12-.37.28-.53.45-.14.12-.26.24-.39.41-.32.34-.63.71-.89,1.12-.14.22-.28.47-.43.71-.34.59-.63,1.24-.89,1.95-.1.26-.2.55-.28.83-.28.85-.51,1.77-.69,2.76-.08.32-.14.65-.18.99-.1.69-.2,1.4-.28,2.11-.04.3-.06.61-.1.91,0,.14-.02.26-.04.39-.02.32-.04.63-.06.97-.04.39-.06.77-.08,1.18-.51,8.05-.51,15.11-.51,54.43v35.28c0,2.27.04,4.46.1,6.57.02,1.03.06,2.07.1,3.06.04.67.06,1.34.1,2.01.67,11.83,2.35,21.04,4.81,28.4.43,1.28.87,2.5,1.34,3.65.22.59.47,1.16.71,1.72.18.43.37.83.57,1.24,2.33,5.05,5.11,9.09,8.2,12.5.63.71,1.28,1.4,1.93,2.05.34.34.69.69,1.03,1.01,11.48,10.77,22.07,13.49,35.03,13.84.99.02,1.99.04,3.02.04.63,0,1.26-.02,1.87-.04.63-.02,1.24-.06,1.85-.1h.06c.49-.04.97-.1,1.46-.14.24-.04.47-.06.71-.08.51-.08,1.01-.14,1.52-.22v.02c12.68-1.91,24.51-8.52,32.09-17.59,8.72-10.81,12.58-25.62,13.97-43.34.11-1.4.21-2.79.29-4.27.08-1.48.14-2.98.2-4.54.08-2.92.14-5.92.14-8.99v-32.07c0-39.31,0-46.37-.51-54.43-.02-.53-.06-1.05-.12-1.58-.02-.39-.06-.77-.12-1.16-.04-.47-.1-.93-.18-1.38-.08-.53-.16-1.05-.28-1.54-.14-.75-.32-1.46-.55-2.15-.18-.57-.39-1.14-.63-1.66-.1-.24-.2-.49-.32-.73-.26-.53-.57-1.03-.89-1.5-.14-.2-.28-.41-.45-.59-.16-.22-.34-.43-.53-.63-.08-.08-.16-.18-.26-.26-.18-.18-.37-.37-.59-.55-.3-.26-.63-.53-.97-.75-.28-.18-.57-.34-.87-.51-.16-.1-.34-.18-.55-.26-.37-.18-.75-.34-1.16-.49-.34-.12-.69-.22-1.05-.3-.04-.02-.08-.04-.12-.04-.45-.12-.93-.2-1.42-.28-1.77-.26-3.77-.51-7.06-.51-2.27,0-3.27-.26-3.27-.77v-.06c.1-.49,1.16-.93,4.02-.93,11.34,0,25.46.75,26.72.75,1.5,0,13.61-.75,21.16-.75,2.64,0,3.89.45,4.02.93Z"/>
      <path class="cls-15" d="m1065.05,349.53c0,7.42-2.9,21.18-15.38,30.04-7.16,4.99-16.01,7.22-24.97,7.55-.79.02-1.56.04-2.35.04-7.97,0-15.8-1.1-23.59-4.52-.53-.22-1.03-.47-1.56-.71-.2-.12-.39-.22-.55-.34-.49-.34-.79-.69-.97-1.1-.24-.55-.28-1.22-.28-2.19,0-11.95.73-16.65.89-19.56.14-1.46.37-2.33.71-2.7.06-.06.12-.1.18-.14.06-.02.14-.04.2-.04.37,0,.37.55.37,1.99,0,1.64-.18,5.07,1.08,9.78.06.2.12.41.2.59.04.14.1.28.16.43.2.49.49.97.79,1.46.14.2.28.41.43.59.14.2.3.41.47.59,1.7,2.01,4.28,3.81,7.38,5.25.32.16.67.32,1.01.47.3.14.61.26.91.39.26.12.51.22.77.3.39.16.79.3,1.2.43.79.28,1.6.53,2.41.75.53.14,1.05.28,1.6.43,2.05.47,4.18.81,6.33,1.01.73.06,1.48.12,2.21.14.55.02,1.07.02,1.62.02,17.39,0,25.34-12.48,25.34-24.06,0-7.91-1.74-13.86-6.98-20.43-.75-.95-1.6-1.93-2.5-2.9-.55-.59-1.14-1.2-1.74-1.81-1.7-1.74-3.67-3.53-5.88-5.44-.89-.77-1.83-1.54-2.8-2.35l-8.16-6.71c-4.04-3.31-7.42-6.41-10.26-9.35-.43-.45-.85-.89-1.28-1.34-.65-.71-1.28-1.42-1.87-2.11-.49-.55-.93-1.1-1.38-1.64t-.02-.04c-7-8.72-9.07-16.25-9.07-24.4,0-18.74,13.57-31.73,35.28-32.54.69-.02,1.34-.04,2.03-.04h.14c7.06,0,12.31.73,16.84,1.81,3.43.73,5.44,1.1,7.61,1.1.34,0,.61.08.77.24.16.18.22.47.12.83-.55,2.17-1.26,5.8-1.08,15.92,0,4.3-.53,5.05-.89,5.07h-.02c-.08,0-.16-.04-.24-.16-.2-.32-.34-1.2-.49-3.1-.16-1.81-.34-4.89-2.35-7.97-.04-.06-.08-.12-.12-.18-.06-.06-.1-.14-.16-.2v-.02c-.1-.12-.22-.28-.39-.45-.06-.08-.14-.16-.24-.24-.08-.1-.16-.18-.26-.26-.1-.1-.2-.18-.3-.28-.02-.02-.04-.04-.06-.06-.2-.16-.41-.34-.63-.51-.02-.02-.02,0-.02,0-.08-.06-.16-.12-.24-.2-.08-.04-.14-.1-.22-.16-.26-.16-.55-.34-.85-.53-.08-.06-.18-.12-.28-.18-.24-.14-.51-.3-.79-.45-.06-.04-.14-.06-.2-.1-.51-.26-1.07-.53-1.68-.77-.47-.2-.97-.39-1.48-.57-.53-.18-1.1-.37-1.68-.53-1.18-.32-2.47-.63-3.92-.89-1.08-.2-2.23-.37-3.47-.49-1.66-.16-3.47-.26-5.42-.3-.41-.02-.83-.02-1.26-.02-12.5,0-21.71,7.79-21.71,21,0,7.47,1.99,13.13,9.66,20.83,1.46,1.48,3.14,3.02,5.05,4.65.47.43.97.83,1.48,1.26,1.52,1.28,3.16,2.62,4.97,4.02l5.07,4c4.52,3.55,8.32,6.84,11.5,9.96.37.34.71.69,1.03,1.03.34.34.69.69,1.01,1.01.32.34.63.67.95,1.01.95,1.01,1.81,1.99,2.6,2.96.26.32.53.65.79.97h0c6.77,8.55,8.89,16.17,8.89,25.2Z"/>
    </g>
  </g>
  <text class="cls-25" transform="translate(172.65 484.02)"><tspan style="fill:white;">Искусство совершенного тела</tspan></text>
</svg>