<?xml version="1.0" encoding="UTF-8"?>
<svg id="_Слой_1" data-name="Слой 1" xmlns="http://www.w3.org/2000/svg" xmlns:xlink="http://www.w3.org/1999/xlink" viewBox="0 0 1818.79 760.03">
  <defs>
    <style>
      .cls-1 {
        fill: url(#_Безымянный_градиент_4-22);
      }

      .cls-2 {
        fill: url(#_Безымянный_градиент_4-26);
      }

      .cls-3 {
        fill: url(#_Безымянный_градиент_4-58);
      }

      .cls-4 {
        fill: url(#_Безымянный_градиент_8-20);
      }

      .cls-5 {
        fill: url(#_Безымянный_градиент_4-9);
      }

      .cls-6 {
        fill: url(#_Безымянный_градиент_4-21);
      }

      .cls-7 {
        fill: url(#_Безымянный_градиент_4-60);
      }

      .cls-8 {
        fill: url(#_Безымянный_градиент_4-40);
      }

      .cls-9 {
        fill: url(#_Безымянный_градиент_8-5);
      }

      .cls-10 {
        fill: url(#_Безымянный_градиент_4-25);
      }

      .cls-11 {
        fill: url(#_Безымянный_градиент_10-16);
      }

      .cls-12 {
        fill: url(#_Безымянный_градиент_8-9);
      }

      .cls-13 {
        fill: url(#_Безымянный_градиент_4-14);
      }

      .cls-14 {
        fill: url(#_Безымянный_градиент_10-10);
      }

      .cls-15 {
        fill: url(#_Безымянный_градиент_4-15);
      }

      .cls-16 {
        fill: url(#_Безымянный_градиент_4-35);
      }

      .cls-17 {
        fill: url(#_Безымянный_градиент_4-7);
      }

      .cls-18 {
        fill: url(#_Безымянный_градиент_4-34);
      }

      .cls-19 {
        fill: url(#_Безымянный_градиент_4-18);
      }

      .cls-20 {
        fill: url(#_Безымянный_градиент_10-2);
      }

      .cls-21 {
        fill: url(#_Безымянный_градиент_4-10);
      }

      .cls-22 {
        fill: url(#_Безымянный_градиент_132);
      }

      .cls-23 {
        fill: url(#_Безымянный_градиент_10-17);
      }

      .cls-24 {
        fill: url(#_Безымянный_градиент_4-46);
      }

      .cls-25 {
        fill: url(#_Безымянный_градиент_8-14);
      }

      .cls-26 {
        fill: url(#_Безымянный_градиент_4-55);
      }

      .cls-27 {
        fill: url(#_Безымянный_градиент_4-63);
      }

      .cls-28 {
        fill: url(#_Безымянный_градиент_10-19);
      }

      .cls-29 {
        fill: url(#_Безымянный_градиент_8-13);
      }

      .cls-30 {
        fill: url(#_Безымянный_градиент_4-45);
      }

      .cls-31 {
        fill: url(#_Безымянный_градиент_8-11);
      }

      .cls-32 {
        fill: url(#_Безымянный_градиент_4-50);
      }

      .cls-33 {
        fill: url(#_Безымянный_градиент_4-48);
      }

      .cls-34 {
        fill: url(#_Безымянный_градиент_8);
      }

      .cls-35 {
        fill: url(#_Безымянный_градиент_8-8);
      }

      .cls-36 {
        fill: url(#_Безымянный_градиент_4-13);
      }

      .cls-37 {
        fill: url(#_Безымянный_градиент_4-2);
      }

      .cls-38 {
        fill: url(#_Безымянный_градиент_4-47);
      }

      .cls-39 {
        fill: url(#_Безымянный_градиент_4-57);
      }

      .cls-40 {
        fill: url(#_Безымянный_градиент_8-18);
      }

      .cls-41 {
        fill: url(#_Безымянный_градиент_4-27);
      }

      .cls-42 {
        fill: url(#_Безымянный_градиент_8-22);
      }

      .cls-43 {
        fill: url(#_Безымянный_градиент_10-9);
      }

      .cls-44 {
        fill: url(#_Безымянный_градиент_4-17);
      }

      .cls-45 {
        fill: url(#_Безымянный_градиент_4-36);
      }

      .cls-46 {
        fill: url(#_Безымянный_градиент_4-43);
      }

      .cls-47 {
        fill: url(#_Безымянный_градиент_4-59);
      }

      .cls-48 {
        fill: url(#_Безымянный_градиент_4-33);
      }

      .cls-49 {
        fill: url(#_Безымянный_градиент_4-53);
      }

      .cls-50 {
        fill: url(#_Безымянный_градиент_4-23);
      }

      .cls-51 {
        fill: url(#_Безымянный_градиент_4-24);
      }

      .cls-52 {
        fill: url(#_Безымянный_градиент_4-8);
      }

      .cls-53 {
        fill: url(#_Безымянный_градиент_4-29);
      }

      .cls-54 {
        fill: url(#_Безымянный_градиент_10);
      }

      .cls-55 {
        fill: url(#_Безымянный_градиент_8-21);
      }

      .cls-56 {
        fill: url(#_Безымянный_градиент_10-14);
      }

      .cls-57 {
        fill: url(#_Безымянный_градиент_10-12);
      }

      .cls-58 {
        fill: url(#_Безымянный_градиент_4-28);
      }

      .cls-59 {
        fill: url(#_Безымянный_градиент_4-30);
      }

      .cls-60 {
        fill: url(#_Безымянный_градиент_8-4);
      }

      .cls-61 {
        fill: url(#_Безымянный_градиент_8-10);
      }

      .cls-62 {
        fill: url(#_Безымянный_градиент_8-16);
      }

      .cls-63 {
        fill: url(#_Безымянный_градиент_4-11);
      }

      .cls-64 {
        fill: url(#_Безымянный_градиент_10-3);
      }

      .cls-65 {
        fill: url(#_Безымянный_градиент_4-56);
      }

      .cls-66 {
        fill: url(#_Безымянный_градиент_4-37);
      }

      .cls-67 {
        fill: url(#_Безымянный_градиент_4-52);
      }

      .cls-68 {
        fill: url(#_Безымянный_градиент_8-19);
      }

      .cls-69 {
        fill: url(#_Безымянный_градиент_4-51);
      }

      .cls-70 {
        fill: url(#_Безымянный_градиент_4-38);
      }

      .cls-71 {
        fill: url(#_Безымянный_градиент_4-32);
      }

      .cls-72 {
        fill: url(#_Безымянный_градиент_10-6);
      }

      .cls-73 {
        fill: url(#_Безымянный_градиент_8-15);
      }

      .cls-74 {
        fill: url(#_Безымянный_градиент_4);
      }

      .cls-75 {
        fill: url(#_Безымянный_градиент_4-49);
      }

      .cls-76 {
        fill: #aa801c;
        font-family: 1IsadoraMBold, '1Isadora M Bold';
        font-size: 62.46px;
      }

      .cls-77 {
        fill: url(#_Безымянный_градиент_10-8);
      }

      .cls-78 {
        fill: url(#_Безымянный_градиент_4-54);
      }

      .cls-79 {
        fill: url(#_Безымянный_градиент_10-7);
      }

      .cls-80 {
        fill: url(#_Безымянный_градиент_4-41);
      }

      .cls-81 {
        fill: url(#_Безымянный_градиент_10-13);
      }

      .cls-82 {
        fill: url(#_Безымянный_градиент_8-17);
      }

      .cls-83 {
        fill: url(#_Безымянный_градиент_4-4);
      }

      .cls-84 {
        fill: url(#_Безымянный_градиент_8-2);
      }

      .cls-85 {
        fill: url(#_Безымянный_градиент_4-20);
      }

      .cls-86 {
        fill: url(#_Безымянный_градиент_132-2);
      }

      .cls-87 {
        fill: url(#_Безымянный_градиент_4-5);
      }

      .cls-88 {
        fill: url(#_Безымянный_градиент_4-3);
      }

      .cls-89 {
        fill: url(#_Безымянный_градиент_4-62);
      }

      .cls-90 {
        fill: url(#_Безымянный_градиент_10-20);
      }

      .cls-91 {
        fill: url(#_Безымянный_градиент_4-19);
      }

      .cls-92 {
        fill: url(#_Безымянный_градиент_4-31);
      }

      .cls-93 {
        fill: url(#_Безымянный_градиент_8-7);
      }

      .cls-94 {
        fill: url(#_Безымянный_градиент_4-44);
      }

      .cls-95 {
        fill: url(#_Безымянный_градиент_10-18);
      }

      .cls-96 {
        fill: url(#_Безымянный_градиент_10-15);
      }

      .cls-97 {
        fill: url(#_Безымянный_градиент_10-5);
      }

      .cls-98 {
        fill: url(#_Безымянный_градиент_10-11);
      }

      .cls-99 {
        fill: url(#_Безымянный_градиент_8-6);
      }

      .cls-100 {
        fill: url(#_Безымянный_градиент_4-61);
      }

      .cls-101 {
        fill: url(#_Безымянный_градиент_4-16);
      }

      .cls-102 {
        fill: url(#_Безымянный_градиент_4-6);
      }

      .cls-103 {
        fill: url(#_Безымянный_градиент_8-3);
      }

      .cls-104 {
        fill: url(#_Безымянный_градиент_8-12);
      }

      .cls-105 {
        fill: url(#_Безымянный_градиент_10-21);
      }

      .cls-106 {
        fill: url(#_Безымянный_градиент_8-23);
      }

      .cls-107 {
        fill: url(#_Безымянный_градиент_4-39);
      }

      .cls-108 {
        fill: url(#_Безымянный_градиент_4-12);
      }

      .cls-109 {
        fill: url(#_Безымянный_градиент_10-4);
      }

      .cls-110 {
        fill: url(#_Безымянный_градиент_4-42);
      }
    </style>
    <linearGradient id="_Безымянный_градиент_4" data-name="Безымянный градиент 4" x1="835.82" y1="682.16" x2="832.83" y2="434.02" gradientTransform="translate(1363.86 -454.93) rotate(90)" gradientUnits="userSpaceOnUse">
      <stop offset="0" stop-color="#653513"/>
      <stop offset=".06" stop-color="#653513"/>
      <stop offset=".12" stop-color="#7c4f10"/>
      <stop offset=".27" stop-color="#b38c0b"/>
      <stop offset=".39" stop-color="#dab907"/>
      <stop offset=".49" stop-color="#f2d404"/>
      <stop offset=".55" stop-color="#fcdf04"/>
      <stop offset="1" stop-color="#fcdf04"/>
    </linearGradient>
    <linearGradient id="_Безымянный_градиент_4-2" data-name="Безымянный градиент 4" x1="519.84" y1="640.39" x2="815.22" y2="631.78" gradientTransform="matrix(1,0,0,1,0,0)" xlink:href="#_Безымянный_градиент_4"/>
    <linearGradient id="_Безымянный_градиент_4-3" data-name="Безымянный градиент 4" x1="491.04" y1="619.22" x2="473.03" y2="592.54" gradientTransform="matrix(1,0,0,1,0,0)" xlink:href="#_Безымянный_градиент_4"/>
    <radialGradient id="_Безымянный_градиент_10" data-name="Безымянный градиент 10" cx="485.79" cy="613.89" fx="485.79" fy="613.89" r="10.44" gradientUnits="userSpaceOnUse">
      <stop offset="0" stop-color="#31160d"/>
      <stop offset=".54" stop-color="#31160d" stop-opacity=".5"/>
      <stop offset="1" stop-color="#31160d" stop-opacity="0"/>
    </radialGradient>
    <radialGradient id="_Безымянный_градиент_8" data-name="Безымянный градиент 8" cx="483.18" cy="605.02" fx="483.18" fy="605.02" r="11.16" gradientUnits="userSpaceOnUse">
      <stop offset="0" stop-color="#fff" stop-opacity=".85"/>
      <stop offset=".45" stop-color="#fff" stop-opacity=".5"/>
      <stop offset="1" stop-color="#fff" stop-opacity="0"/>
    </radialGradient>
    <linearGradient id="_Безымянный_градиент_4-4" data-name="Безымянный градиент 4" x1="538.87" y1="582.64" x2="522.65" y2="555.25" gradientTransform="matrix(1,0,0,1,0,0)" xlink:href="#_Безымянный_градиент_4"/>
    <radialGradient id="_Безымянный_градиент_10-2" data-name="Безымянный градиент 10" cx="536.47" cy="578.56" fx="536.47" fy="578.56" r="25.43" xlink:href="#_Безымянный_градиент_10"/>
    <radialGradient id="_Безымянный_градиент_8-2" data-name="Безымянный градиент 8" cx="536.44" cy="578.56" fx="536.44" fy="578.56" r="25.44" xlink:href="#_Безымянный_градиент_8"/>
    <linearGradient id="_Безымянный_градиент_4-5" data-name="Безымянный градиент 4" x1="621.2" y1="525.93" x2="595.3" y2="502.37" gradientTransform="matrix(1,0,0,1,0,0)" xlink:href="#_Безымянный_градиент_4"/>
    <radialGradient id="_Безымянный_градиент_8-3" data-name="Безымянный градиент 8" cx="607.56" cy="513.52" fx="607.56" fy="513.52" r="37.89" xlink:href="#_Безымянный_градиент_8"/>
    <radialGradient id="_Безымянный_градиент_10-3" data-name="Безымянный градиент 10" cx="607.41" cy="513.74" fx="607.41" fy="513.74" r="37.89" xlink:href="#_Безымянный_градиент_10"/>
    <linearGradient id="_Безымянный_градиент_4-6" data-name="Безымянный градиент 4" x1="561.05" y1="609.88" x2="562.34" y2="588.98" gradientTransform="matrix(1,0,0,1,0,0)" xlink:href="#_Безымянный_градиент_4"/>
    <radialGradient id="_Безымянный_градиент_8-4" data-name="Безымянный градиент 8" cx="561.35" cy="602.56" fx="561.35" fy="602.56" r="34.63" xlink:href="#_Безымянный_градиент_8"/>
    <radialGradient id="_Безымянный_градиент_10-4" data-name="Безымянный градиент 10" cx="561.43" cy="604.89" fx="561.43" fy="604.89" r="34.54" xlink:href="#_Безымянный_градиент_10"/>
    <linearGradient id="_Безымянный_градиент_4-7" data-name="Безымянный градиент 4" x1="654.32" y1="455.73" x2="633.29" y2="449.7" gradientTransform="matrix(1,0,0,1,0,0)" xlink:href="#_Безымянный_градиент_4"/>
    <radialGradient id="_Безымянный_градиент_8-5" data-name="Безымянный градиент 8" cx="647.66" cy="454.15" fx="647.66" fy="454.15" r="10.86" xlink:href="#_Безымянный_градиент_8"/>
    <radialGradient id="_Безымянный_градиент_10-5" data-name="Безымянный градиент 10" cx="648.81" cy="454.15" fx="648.81" fy="454.15" r="10.61" xlink:href="#_Безымянный_градиент_10"/>
    <linearGradient id="_Безымянный_градиент_4-8" data-name="Безымянный градиент 4" x1="402.72" y1="531.7" x2="640.33" y2="531.7" gradientTransform="matrix(1,0,0,1,0,0)" xlink:href="#_Безымянный_градиент_4"/>
    <linearGradient id="_Безымянный_градиент_4-9" data-name="Безымянный градиент 4" x1="9562.15" y1="-8174.98" x2="9544.14" y2="-8201.65" gradientTransform="translate(13003.28 2557.31) rotate(-129.07)" xlink:href="#_Безымянный_градиент_4"/>
    <radialGradient id="_Безымянный_градиент_10-6" data-name="Безымянный градиент 10" cx="9556.9" cy="-8180.31" fx="9556.9" fy="-8180.31" r="10.44" gradientTransform="translate(13003.28 2557.31) rotate(-129.07)" xlink:href="#_Безымянный_градиент_10"/>
    <radialGradient id="_Безымянный_градиент_8-6" data-name="Безымянный градиент 8" cx="9554.29" cy="-8189.17" fx="9554.29" fy="-8189.17" r="11.16" gradientTransform="translate(13003.28 2557.31) rotate(-129.07)" xlink:href="#_Безымянный_градиент_8"/>
    <linearGradient id="_Безымянный_градиент_4-10" data-name="Безымянный градиент 4" x1="5948.47" y1="-8569.44" x2="5932.25" y2="-8596.83" gradientTransform="translate(10114.88 4495.11) rotate(-100.79)" xlink:href="#_Безымянный_градиент_4"/>
    <radialGradient id="_Безымянный_градиент_10-7" data-name="Безымянный градиент 10" cx="5946.07" cy="-8573.52" fx="5946.07" fy="-8573.52" r="25.43" gradientTransform="translate(10114.88 4495.11) rotate(-100.79)" xlink:href="#_Безымянный_градиент_10"/>
    <radialGradient id="_Безымянный_градиент_8-7" data-name="Безымянный градиент 8" cx="5946.04" cy="-8573.52" fx="5946.04" fy="-8573.52" r="25.44" gradientTransform="translate(10114.88 4495.11) rotate(-100.79)" xlink:href="#_Безымянный_градиент_8"/>
    <linearGradient id="_Безымянный_градиент_4-11" data-name="Безымянный градиент 4" x1="548.64" y1="-4260.2" x2="522.74" y2="-4283.76" gradientTransform="translate(2782.42 3861.69) rotate(-38.25)" xlink:href="#_Безымянный_градиент_4"/>
    <radialGradient id="_Безымянный_градиент_8-8" data-name="Безымянный градиент 8" cx="535" cy="-4272.61" fx="535" fy="-4272.61" r="37.89" gradientTransform="translate(2782.42 3861.69) rotate(-38.25)" xlink:href="#_Безымянный_градиент_8"/>
    <radialGradient id="_Безымянный_градиент_10-8" data-name="Безымянный градиент 10" cx="534.85" cy="-4272.39" fx="534.85" fy="-4272.39" r="37.89" gradientTransform="translate(2782.42 3861.69) rotate(-38.25)" xlink:href="#_Безымянный_градиент_10"/>
    <linearGradient id="_Безымянный_градиент_4-12" data-name="Безымянный градиент 4" x1="3661.78" y1="4099.87" x2="3663.08" y2="4078.97" gradientTransform="translate(635.99 -5159.19) rotate(41.89)" xlink:href="#_Безымянный_градиент_4"/>
    <radialGradient id="_Безымянный_градиент_8-9" data-name="Безымянный градиент 8" cx="3662.09" cy="4092.55" fx="3662.09" fy="4092.55" r="34.63" gradientTransform="translate(635.99 -5159.19) rotate(41.89)" xlink:href="#_Безымянный_градиент_8"/>
    <radialGradient id="_Безымянный_градиент_10-9" data-name="Безымянный градиент 10" cx="3662.16" cy="4094.87" fx="3662.16" fy="4094.87" r="34.54" gradientTransform="translate(635.99 -5159.19) rotate(41.89)" xlink:href="#_Безымянный_градиент_10"/>
    <linearGradient id="_Безымянный_градиент_4-13" data-name="Безымянный градиент 4" x1="569.35" y1="103.79" x2="548.32" y2="97.75" gradientTransform="matrix(1,0,0,1,0,0)" xlink:href="#_Безымянный_градиент_4"/>
    <radialGradient id="_Безымянный_градиент_8-10" data-name="Безымянный градиент 8" cx="562.69" cy="102.2" fx="562.69" fy="102.2" r="10.86" xlink:href="#_Безымянный_градиент_8"/>
    <radialGradient id="_Безымянный_градиент_10-10" data-name="Безымянный градиент 10" cx="563.83" cy="102.2" fx="563.83" fy="102.2" r="10.61" xlink:href="#_Безымянный_градиент_10"/>
    <linearGradient id="_Безымянный_градиент_4-14" data-name="Безымянный градиент 4" x1="533.46" y1="356.74" x2="531.39" y2="212.42" gradientTransform="matrix(1,0,0,1,0,0)" xlink:href="#_Безымянный_градиент_4"/>
    <radialGradient id="_Безымянный_градиент_132" data-name="Безымянный градиент 132" cx="534.97" cy="347.81" fx="534.97" fy="347.81" r="73.71" gradientUnits="userSpaceOnUse">
      <stop offset=".36" stop-color="#31160d"/>
      <stop offset=".54" stop-color="#31160d" stop-opacity=".5"/>
      <stop offset=".65" stop-color="#31160d" stop-opacity="0"/>
    </radialGradient>
    <radialGradient id="_Безымянный_градиент_8-11" data-name="Безымянный градиент 8" cx="531.84" cy="263.35" fx="531.84" fy="263.35" r="54.42" xlink:href="#_Безымянный_градиент_8"/>
    <linearGradient id="_Безымянный_градиент_4-15" data-name="Безымянный градиент 4" x1="10060.06" y1="-1814.6" x2="10079.71" y2="-1846.65" gradientTransform="translate(10145.19 -2324.36) rotate(154.03) scale(1 -1)" xlink:href="#_Безымянный_градиент_4"/>
    <radialGradient id="_Безымянный_градиент_8-12" data-name="Безымянный градиент 8" cx="11457.03" cy="-1982.61" fx="11457.03" fy="-1982.61" r="9.26" gradientTransform="translate(8736.87 -7551.82) rotate(146.4)" xlink:href="#_Безымянный_градиент_8"/>
    <radialGradient id="_Безымянный_градиент_10-11" data-name="Безымянный градиент 10" cx="11454.71" cy="-1990.47" fx="11454.71" fy="-1990.47" r="9.9" gradientTransform="translate(8736.87 -7551.82) rotate(146.4)" xlink:href="#_Безымянный_градиент_10"/>
    <linearGradient id="_Безымянный_градиент_4-16" data-name="Безымянный градиент 4" x1="8897.82" y1="-4791.95" x2="8880.3" y2="-4821.52" gradientTransform="translate(1247.35 -9557.16) rotate(67.17) scale(1 -1)" xlink:href="#_Безымянный_градиент_4"/>
    <radialGradient id="_Безымянный_градиент_10-12" data-name="Безымянный градиент 10" cx="8895.22" cy="-4796.36" fx="8895.22" fy="-4796.36" r="27.46" gradientTransform="translate(1247.35 -9557.16) rotate(67.17) scale(1 -1)" xlink:href="#_Безымянный_градиент_10"/>
    <radialGradient id="_Безымянный_градиент_8-13" data-name="Безымянный градиент 8" cx="8895.2" cy="-4796.36" fx="8895.2" fy="-4796.36" r="27.47" gradientTransform="translate(1247.35 -9557.16) rotate(67.17) scale(1 -1)" xlink:href="#_Безымянный_градиент_8"/>
    <linearGradient id="_Безымянный_градиент_4-17" data-name="Безымянный градиент 4" x1="10497.04" y1="-1200.56" x2="10468.02" y2="-1226.97" gradientTransform="translate(10464.48 -2004.52) rotate(159.54) scale(1 -1)" xlink:href="#_Безымянный_градиент_4"/>
    <radialGradient id="_Безымянный_градиент_8-14" data-name="Безымянный градиент 8" cx="10481.75" cy="-1214.47" fx="10481.75" fy="-1214.47" r="42.47" gradientTransform="translate(10464.48 -2004.52) rotate(159.54) scale(1 -1)" xlink:href="#_Безымянный_градиент_8"/>
    <radialGradient id="_Безымянный_градиент_10-13" data-name="Безымянный градиент 10" cx="10481.58" cy="-1214.22" fx="10481.58" fy="-1214.22" r="42.47" gradientTransform="translate(10464.48 -2004.52) rotate(159.54) scale(1 -1)" xlink:href="#_Безымянный_градиент_10"/>
    <linearGradient id="_Безымянный_градиент_4-18" data-name="Безымянный градиент 4" x1="8886.53" y1="3843.63" x2="8883.5" y2="3827.93" gradientTransform="translate(9343.08 3707.47) rotate(-136.82) scale(1 -1)" xlink:href="#_Безымянный_градиент_4"/>
    <radialGradient id="_Безымянный_градиент_10-14" data-name="Безымянный градиент 10" cx="6170.91" cy="-9478.89" fx="6170.91" fy="-9478.89" r="31.41" gradientTransform="translate(4776.08 -9935.6) rotate(56.72) scale(1 -1)" xlink:href="#_Безымянный_градиент_10"/>
    <radialGradient id="_Безымянный_градиент_8-15" data-name="Безымянный градиент 8" cx="6170.97" cy="-9476.78" fx="6170.97" fy="-9476.78" r="31.32" gradientTransform="translate(4776.08 -9935.6) rotate(56.72) scale(1 -1)" xlink:href="#_Безымянный_градиент_8"/>
    <linearGradient id="_Безымянный_градиент_4-19" data-name="Безымянный градиент 4" x1="7362.71" y1="4798.38" x2="7359.68" y2="4782.68" gradientTransform="translate(8007.28 4747.57) rotate(-118.19) scale(1 -1)" xlink:href="#_Безымянный_градиент_4"/>
    <radialGradient id="_Безымянный_градиент_10-15" data-name="Безымянный градиент 10" cx="7875.85" cy="-10050.49" fx="7875.85" fy="-10050.49" r="31.41" gradientTransform="translate(8037.64 -9639.58) rotate(75.35) scale(1 -1)" xlink:href="#_Безымянный_градиент_10"/>
    <radialGradient id="_Безымянный_градиент_8-16" data-name="Безымянный градиент 8" cx="7875.92" cy="-10048.38" fx="7875.92" fy="-10048.38" r="31.32" gradientTransform="translate(8037.64 -9639.58) rotate(75.35) scale(1 -1)" xlink:href="#_Безымянный_градиент_8"/>
    <linearGradient id="_Безымянный_градиент_4-20" data-name="Безымянный градиент 4" x1="10217.3" y1="-1855.51" x2="10195.13" y2="-1861.87" gradientTransform="translate(10145.19 -2324.36) rotate(154.03) scale(1 -1)" xlink:href="#_Безымянный_градиент_4"/>
    <radialGradient id="_Безымянный_градиент_8-17" data-name="Безымянный градиент 8" cx="10210.28" cy="-1857.18" fx="10210.28" fy="-1857.18" r="11.44" gradientTransform="translate(10145.19 -2324.36) rotate(154.03) scale(1 -1)" xlink:href="#_Безымянный_градиент_8"/>
    <radialGradient id="_Безымянный_градиент_10-16" data-name="Безымянный градиент 10" cx="10211.49" cy="-1857.18" fx="10211.49" fy="-1857.18" r="11.18" gradientTransform="translate(10145.19 -2324.36) rotate(154.03) scale(1 -1)" xlink:href="#_Безымянный_градиент_10"/>
    <linearGradient id="_Безымянный_градиент_4-21" data-name="Безымянный градиент 4" x1="282.2" y1="678.72" x2="279.72" y2="505.54" gradientTransform="translate(1.46 -23.6) rotate(.25)" xlink:href="#_Безымянный_градиент_4"/>
    <radialGradient id="_Безымянный_градиент_132-2" data-name="Безымянный градиент 132" cx="302.62" cy="669.57" fx="302.62" fy="669.57" r="133.01" xlink:href="#_Безымянный_градиент_132"/>
    <linearGradient id="_Безымянный_градиент_4-22" data-name="Безымянный градиент 4" x1="95.49" y1="585.41" x2="93.01" y2="412.22" gradientTransform="translate(1.46 -23.6) rotate(.25)" xlink:href="#_Безымянный_градиент_4"/>
    <radialGradient id="_Безымянный_градиент_8-18" data-name="Безымянный градиент 8" cx="279.32" cy="613.8" fx="279.32" fy="613.8" r="39.61" gradientTransform="translate(1.46 -23.6) rotate(.25)" xlink:href="#_Безымянный_градиент_8"/>
    <linearGradient id="_Безымянный_градиент_4-23" data-name="Безымянный градиент 4" x1="14264.03" y1="-5698.34" x2="14234.49" y2="-5725.21" gradientTransform="translate(-14409.17 -3945.78) rotate(37.61)" xlink:href="#_Безымянный_градиент_4"/>
    <radialGradient id="_Безымянный_градиент_8-19" data-name="Безымянный градиент 8" cx="14248.47" cy="-5712.5" fx="14248.47" fy="-5712.5" r="43.21" gradientTransform="translate(-14409.17 -3945.78) rotate(37.61)" xlink:href="#_Безымянный_градиент_8"/>
    <radialGradient id="_Безымянный_градиент_10-17" data-name="Безымянный градиент 10" cx="14248.3" cy="-5712.24" fx="14248.3" fy="-5712.24" r="43.21" gradientTransform="translate(-14409.17 -3945.78) rotate(37.61)" xlink:href="#_Безымянный_градиент_10"/>
    <linearGradient id="_Безымянный_градиент_4-24" data-name="Безымянный градиент 4" x1="2635.59" y1="5330.54" x2="2612.9" y2="5324.03" gradientTransform="translate(-3097.23 4979.88) rotate(-117.14)" xlink:href="#_Безымянный_градиент_4"/>
    <radialGradient id="_Безымянный_градиент_8-20" data-name="Безымянный градиент 8" cx="2628.41" cy="5328.83" fx="2628.41" fy="5328.83" r="11.72" gradientTransform="translate(-3097.23 4979.88) rotate(-117.14)" xlink:href="#_Безымянный_градиент_8"/>
    <radialGradient id="_Безымянный_градиент_10-18" data-name="Безымянный градиент 10" cx="498.61" cy="208.77" fx="498.61" fy="208.77" r="11.44" gradientTransform="translate(943.69) rotate(-180) scale(1 -1)" xlink:href="#_Безымянный_градиент_10"/>
    <linearGradient id="_Безымянный_градиент_4-25" data-name="Безымянный градиент 4" x1="3064.14" y1="-7772.64" x2="3065.52" y2="-7794.84" gradientTransform="translate(-7642.55 2977.01) rotate(-87.81) scale(1 -1)" xlink:href="#_Безымянный_градиент_4"/>
    <radialGradient id="_Безымянный_градиент_8-21" data-name="Безымянный градиент 8" cx="3064.47" cy="-7780.41" fx="3064.47" fy="-7780.41" r="36.78" gradientTransform="translate(-7642.55 2977.01) rotate(-87.81) scale(1 -1)" xlink:href="#_Безымянный_градиент_8"/>
    <radialGradient id="_Безымянный_градиент_10-19" data-name="Безымянный градиент 10" cx="3064.54" cy="-7777.94" fx="3064.54" fy="-7777.94" r="36.69" gradientTransform="translate(-7642.55 2977.01) rotate(-87.81) scale(1 -1)" xlink:href="#_Безымянный_градиент_10"/>
    <linearGradient id="_Безымянный_градиент_4-26" data-name="Безымянный градиент 4" x1="16416.79" y1="471.31" x2="16399.34" y2="441.85" gradientTransform="translate(-15908.26 3064.28) rotate(-11.44)" xlink:href="#_Безымянный_градиент_4"/>
    <radialGradient id="_Безымянный_градиент_10-20" data-name="Безымянный градиент 10" cx="16414.21" cy="466.91" fx="16414.21" fy="466.91" r="27.35" gradientTransform="translate(-15908.26 3064.28) rotate(-11.44)" xlink:href="#_Безымянный_градиент_10"/>
    <radialGradient id="_Безымянный_градиент_8-22" data-name="Безымянный градиент 8" cx="16414.18" cy="466.91" fx="16414.18" fy="466.91" r="27.36" gradientTransform="translate(-15908.26 3064.28) rotate(-11.44)" xlink:href="#_Безымянный_градиент_8"/>
    <linearGradient id="_Безымянный_градиент_4-27" data-name="Безымянный градиент 4" x1="9890.21" y1="5345.63" x2="9867.34" y2="5315.55" gradientTransform="translate(-9992.12 -4309.85) rotate(52.69) scale(1 -1)" xlink:href="#_Безымянный_градиент_4"/>
    <radialGradient id="_Безымянный_градиент_8-23" data-name="Безымянный градиент 8" cx="7189.45" cy="-10783.24" fx="7189.45" fy="-10783.24" r="10.92" gradientTransform="translate(-6951.06 11100.81) rotate(-112.62) scale(1 -1)" xlink:href="#_Безымянный_градиент_8"/>
    <radialGradient id="_Безымянный_градиент_10-21" data-name="Безымянный градиент 10" cx="7186.71" cy="-10792.51" fx="7186.71" fy="-10792.51" r="11.67" gradientTransform="translate(-6951.06 11100.81) rotate(-112.62) scale(1 -1)" xlink:href="#_Безымянный_градиент_10"/>
    <linearGradient id="_Безымянный_градиент_4-28" data-name="Безымянный градиент 4" x1="771.8" y1="67.91" x2="546.9" y2="376.32" gradientTransform="translate(943.69) rotate(-180) scale(1 -1)" xlink:href="#_Безымянный_градиент_4"/>
    <linearGradient id="_Безымянный_градиент_4-29" data-name="Безымянный градиент 4" x1="1187.26" y1="435.84" x2="1189.32" y2="167.73" gradientTransform="matrix(1,0,0,1,0,0)" xlink:href="#_Безымянный_градиент_4"/>
    <linearGradient id="_Безымянный_градиент_4-30" data-name="Безымянный градиент 4" x1="1226.07" y1="436.14" x2="1228.13" y2="168.02" gradientTransform="matrix(1,0,0,1,0,0)" xlink:href="#_Безымянный_градиент_4"/>
    <linearGradient id="_Безымянный_градиент_4-31" data-name="Безымянный градиент 4" x1="1207.74" y1="436" x2="1209.8" y2="167.88" gradientTransform="matrix(1,0,0,1,0,0)" xlink:href="#_Безымянный_градиент_4"/>
    <linearGradient id="_Безымянный_градиент_4-32" data-name="Безымянный градиент 4" x1="1197" y1="435.91" x2="1199.06" y2="167.8" gradientTransform="matrix(1,0,0,1,0,0)" xlink:href="#_Безымянный_градиент_4"/>
    <linearGradient id="_Безымянный_градиент_4-33" data-name="Безымянный градиент 4" x1="1238.23" y1="436.23" x2="1240.29" y2="168.12" gradientTransform="matrix(1,0,0,1,0,0)" xlink:href="#_Безымянный_градиент_4"/>
    <linearGradient id="_Безымянный_градиент_4-34" data-name="Безымянный градиент 4" x1="1217.51" y1="436.07" x2="1219.57" y2="167.96" gradientTransform="matrix(1,0,0,1,0,0)" xlink:href="#_Безымянный_градиент_4"/>
    <linearGradient id="_Безымянный_градиент_4-35" data-name="Безымянный градиент 4" x1="1226.28" y1="436.14" x2="1228.34" y2="168.03" gradientTransform="matrix(1,0,0,1,0,0)" xlink:href="#_Безымянный_градиент_4"/>
    <linearGradient id="_Безымянный_градиент_4-36" data-name="Безымянный градиент 4" x1="1187.26" y1="435.84" x2="1189.32" y2="167.73" gradientTransform="matrix(1,0,0,1,0,0)" xlink:href="#_Безымянный_градиент_4"/>
    <linearGradient id="_Безымянный_градиент_4-37" data-name="Безымянный градиент 4" x1="1207.74" y1="436" x2="1209.8" y2="167.88" gradientTransform="matrix(1,0,0,1,0,0)" xlink:href="#_Безымянный_градиент_4"/>
    <linearGradient id="_Безымянный_градиент_4-38" data-name="Безымянный градиент 4" x1="1187.26" y1="435.84" x2="1189.32" y2="167.73" gradientTransform="matrix(1,0,0,1,0,0)" xlink:href="#_Безымянный_градиент_4"/>
    <linearGradient id="_Безымянный_градиент_4-39" data-name="Безымянный градиент 4" x1="1217.51" y1="436.07" x2="1219.57" y2="167.96" gradientTransform="matrix(1,0,0,1,0,0)" xlink:href="#_Безымянный_градиент_4"/>
    <linearGradient id="_Безымянный_градиент_4-40" data-name="Безымянный градиент 4" x1="1216.57" y1="436.06" x2="1218.63" y2="167.95" gradientTransform="matrix(1,0,0,1,0,0)" xlink:href="#_Безымянный_градиент_4"/>
    <linearGradient id="_Безымянный_градиент_4-41" data-name="Безымянный градиент 4" x1="1197" y1="435.91" x2="1199.06" y2="167.8" gradientTransform="matrix(1,0,0,1,0,0)" xlink:href="#_Безымянный_градиент_4"/>
    <linearGradient id="_Безымянный_градиент_4-42" data-name="Безымянный градиент 4" x1="1238.23" y1="436.23" x2="1240.29" y2="168.12" gradientTransform="matrix(1,0,0,1,0,0)" xlink:href="#_Безымянный_градиент_4"/>
    <linearGradient id="_Безымянный_градиент_4-43" data-name="Безымянный градиент 4" x1="1217.51" y1="436.07" x2="1219.57" y2="167.96" gradientTransform="matrix(1,0,0,1,0,0)" xlink:href="#_Безымянный_градиент_4"/>
    <linearGradient id="_Безымянный_градиент_4-44" data-name="Безымянный градиент 4" x1="1207.74" y1="436" x2="1209.8" y2="167.88" gradientTransform="matrix(1,0,0,1,0,0)" xlink:href="#_Безымянный_градиент_4"/>
    <linearGradient id="_Безымянный_градиент_4-45" data-name="Безымянный градиент 4" x1="1197" y1="435.91" x2="1199.06" y2="167.8" gradientTransform="matrix(1,0,0,1,0,0)" xlink:href="#_Безымянный_градиент_4"/>
    <linearGradient id="_Безымянный_градиент_4-46" data-name="Безымянный градиент 4" x1="1238.23" y1="436.23" x2="1240.29" y2="168.12" gradientTransform="matrix(1,0,0,1,0,0)" xlink:href="#_Безымянный_градиент_4"/>
    <linearGradient id="_Безымянный_градиент_4-47" data-name="Безымянный градиент 4" x1="1226.07" y1="436.14" x2="1228.13" y2="168.02" gradientTransform="matrix(1,0,0,1,0,0)" xlink:href="#_Безымянный_градиент_4"/>
    <linearGradient id="_Безымянный_градиент_4-48" data-name="Безымянный градиент 4" x1="892.97" y1="433.57" x2="895.03" y2="165.46" gradientTransform="matrix(1,0,0,1,0,0)" xlink:href="#_Безымянный_градиент_4"/>
    <linearGradient id="_Безымянный_градиент_4-49" data-name="Безымянный градиент 4" x1="1003.06" y1="434.42" x2="1005.12" y2="166.31" gradientTransform="matrix(1,0,0,1,0,0)" xlink:href="#_Безымянный_градиент_4"/>
    <linearGradient id="_Безымянный_градиент_4-50" data-name="Безымянный градиент 4" x1="1101.36" y1="435.18" x2="1103.42" y2="167.07" gradientTransform="matrix(1,0,0,1,0,0)" xlink:href="#_Безымянный_градиент_4"/>
    <linearGradient id="_Безымянный_градиент_4-51" data-name="Безымянный градиент 4" x1="1187.26" y1="435.84" x2="1189.32" y2="167.73" gradientTransform="matrix(1,0,0,1,0,0)" xlink:href="#_Безымянный_градиент_4"/>
    <linearGradient id="_Безымянный_градиент_4-52" data-name="Безымянный градиент 4" x1="1222.07" y1="436.11" x2="1224.13" y2="167.99" gradientTransform="matrix(1,0,0,1,0,0)" xlink:href="#_Безымянный_градиент_4"/>
    <linearGradient id="_Безымянный_градиент_4-53" data-name="Безымянный градиент 4" x1="1277.17" y1="436.53" x2="1279.23" y2="168.42" gradientTransform="matrix(1,0,0,1,0,0)" xlink:href="#_Безымянный_градиент_4"/>
    <linearGradient id="_Безымянный_градиент_4-54" data-name="Безымянный градиент 4" x1="1276.93" y1="436.53" x2="1278.99" y2="168.42" gradientTransform="matrix(1,0,0,1,0,0)" xlink:href="#_Безымянный_градиент_4"/>
    <linearGradient id="_Безымянный_градиент_4-55" data-name="Безымянный градиент 4" x1="1277.17" y1="436.53" x2="1279.23" y2="168.42" gradientTransform="matrix(1,0,0,1,0,0)" xlink:href="#_Безымянный_градиент_4"/>
    <linearGradient id="_Безымянный_градиент_4-56" data-name="Безымянный градиент 4" x1="1277.17" y1="436.53" x2="1279.23" y2="168.42" gradientTransform="matrix(1,0,0,1,0,0)" xlink:href="#_Безымянный_градиент_4"/>
    <linearGradient id="_Безымянный_градиент_4-57" data-name="Безымянный градиент 4" x1="1276.93" y1="436.53" x2="1278.99" y2="168.42" gradientTransform="matrix(1,0,0,1,0,0)" xlink:href="#_Безымянный_градиент_4"/>
    <linearGradient id="_Безымянный_градиент_4-58" data-name="Безымянный градиент 4" x1="1277.17" y1="436.53" x2="1279.23" y2="168.42" gradientTransform="matrix(1,0,0,1,0,0)" xlink:href="#_Безымянный_градиент_4"/>
    <linearGradient id="_Безымянный_градиент_4-59" data-name="Безымянный градиент 4" x1="1276.83" y1="436.53" x2="1278.89" y2="168.42" gradientTransform="matrix(1,0,0,1,0,0)" xlink:href="#_Безымянный_градиент_4"/>
    <linearGradient id="_Безымянный_градиент_4-60" data-name="Безымянный градиент 4" x1="1333.91" y1="436.97" x2="1335.97" y2="168.85" gradientTransform="matrix(1,0,0,1,0,0)" xlink:href="#_Безымянный_градиент_4"/>
    <linearGradient id="_Безымянный_градиент_4-61" data-name="Безымянный градиент 4" x1="1437.16" y1="437.76" x2="1439.22" y2="169.65" gradientTransform="matrix(1,0,0,1,0,0)" xlink:href="#_Безымянный_градиент_4"/>
    <linearGradient id="_Безымянный_градиент_4-62" data-name="Безымянный градиент 4" x1="1557" y1="438.68" x2="1559.07" y2="170.57" gradientTransform="matrix(1,0,0,1,0,0)" xlink:href="#_Безымянный_градиент_4"/>
    <linearGradient id="_Безымянный_градиент_4-63" data-name="Безымянный градиент 4" x1="1689.76" y1="439.7" x2="1691.82" y2="171.59" gradientTransform="matrix(1,0,0,1,0,0)" xlink:href="#_Безымянный_градиент_4"/>
  </defs>
  <path class="cls-74" d="m757.12,618.58c.05-159.04.11-318.09.16-477.13h-6.41v477.13h6.25Z"/>
  <g>
    <g>
      <path class="cls-37" d="m402.95,654.45c30-11.49,78.39-25.69,138.99-25.07,45.81.47,83.65,9.26,110.34,17.76-31.56-5.11-69.02-8.84-111.15-8.49-54.06.45-100.85,7.49-138.19,15.8Z"/>
      <path class="cls-88" d="m497.54,601.13c2.88,3.82-.71,12-5.87,16.21-4.43,3.61-11.98,5.91-17.62,2.39-2.65-1.65-5.87-5.2-5.4-9.03.62-5,7.16-7.44,11.39-9.01,2.66-.99,13.99-5.21,17.5-.56Z"/>
      <path class="cls-54" d="m498.42,606.25c-.42,1.92-1.85,7.23-6.75,11.1-.44.35-8.17,6.27-15.63,3.39-1.28-.49-2.24-1.13-2.88-1.6,2.55.59,7.25,1.25,12.28-.68,2.73-1.05,4.59-2.5,5.74-3.41,3.9-3.07,6.09-6.58,7.24-8.79Z"/>
      <path class="cls-34" d="m497.76,601.44c-4.49-.44-8.11,0-10.57.5-7.67,1.54-13.29,5.36-16.5,7.59-.88.61-1.6,1.15-2.08,1.52.1-.77.37-1.98,1.17-3.21.75-1.16,1.65-1.83,2.44-2.37,2.63-1.78,5.32-2.88,7.83-3.79,2.07-.75,4.02-1.44,6.76-2.07,1.32-.3,4.27-.92,7.05-.48,1.18.19,2.22.55,3.08,1.34.39.35.65.71.82.96Z"/>
      <path class="cls-83" d="m566.48,558.77c-20.02,13.19-40.04,26.39-60.06,39.58-.15-4.55.33-12.03,5.01-18.53,2.11-2.93,6.25-7.32,27.34-13.99,6.73-2.13,16.15-4.8,27.71-7.06Z"/>
      <path class="cls-20" d="m566.49,558.77c-20.02,13.19-40.04,26.39-60.06,39.58,10.61-8.02,22.2-16.19,34.8-24.28,8.62-5.54,17.06-10.63,25.25-15.3Z"/>
      <path class="cls-84" d="m566.48,558.77c-9.02,1.83-16.18,4.17-21.02,5.96-14.45,5.33-28.97,10.69-35.83,24.01-2,3.89-2.83,7.44-3.21,9.61-.15-4.55.33-12.03,5.01-18.53,2.11-2.93,6.25-7.32,27.34-13.99,6.73-2.13,16.15-4.8,27.71-7.06Z"/>
      <path class="cls-87" d="m642.72,473.09c-23.44,26.95-46.88,53.91-70.33,80.86,2.72-.02,6.9-.31,11.66-1.79,11.42-3.53,19.99-11.94,36.32-38.58,6.28-10.25,14.13-23.87,22.34-40.49Z"/>
      <path class="cls-103" d="m642.72,473.09c-23.44,26.95-46.88,53.91-70.33,80.86,11.95-11.52,24.46-24.53,37.14-39.12,12.52-14.41,23.54-28.45,33.19-41.74Z"/>
      <path class="cls-64" d="m642.57,473.31c-.13-.07-6.49,13.03-18.16,32.44-18.5,30.78-28.04,40.32-40.4,45.27-4.8,1.92-9.02,2.75-11.77,3.15,2.72-.02,6.9-.31,11.66-1.79,11.42-3.53,19.99-11.94,36.32-38.58,13.41-21.89,22.49-40.41,22.34-40.49Z"/>
      <path class="cls-102" d="m610.17,606.49c-32.54-1.06-65.09-2.12-97.63-3.18,12.02-2.67,27.76-4.98,46.2-4.65,21.03.38,38.6,4.09,51.43,7.82Z"/>
      <path class="cls-60" d="m610.17,606.49c-13.18-3.17-29.86-6-49.26-6.59-18.86-.57-35.26,1.15-48.36,3.41,12.03-2.67,27.76-4.98,46.2-4.65,21.03.38,38.6,4.09,51.43,7.82Z"/>
      <path class="cls-109" d="m610.24,606.54c-32.54-1.06-65.09-2.12-97.63-3.18,14.74-.24,30.1-.17,46.03.3,17.97.53,35.19,1.53,51.6,2.88Z"/>
      <path class="cls-17" d="m652.97,439.74c-2.78,9.61-5.56,19.21-8.33,28.82-1.04-2.01-1.94-4.51-2.2-7.42-1.08-11.81,9.19-20.31,10.54-21.39Z"/>
      <path class="cls-9" d="m652.97,439.74c-1.98,1.97-6.05,6.54-8.02,13.73-1.85,6.73-.94,12.37-.31,15.08-1.04-2.01-1.94-4.51-2.2-7.42-1.08-11.81,9.19-20.31,10.54-21.39Z"/>
      <path class="cls-97" d="m652.97,439.74c-2.78,9.61-5.56,19.21-8.33,28.82.24-2.36.59-4.84,1.09-7.42,1.65-8.51,4.42-15.69,7.24-21.39Z"/>
      <path class="cls-52" d="m402.95,622.08c-.09,0-.17-.05-.21-.13-.05-.12,0-.25.11-.3,45.4-21.09,88.63-47.16,128.47-77.47,39.71-30.21,76.25-64.79,108.61-102.77.08-.1.23-.11.32-.03.1.08.11.23.03.32-32.38,38.01-68.95,72.61-108.68,102.84-39.87,30.33-83.12,56.41-128.55,77.52-.03.01-.06.02-.1.02Z"/>
    </g>
    <g>
      <path class="cls-5" d="m611.71,291.41c1.15-4.64,9.77-7.01,16.29-5.66,5.59,1.16,12.14,5.57,12.96,12.17.39,3.1-.34,7.84-3.61,9.88-4.27,2.67-10.28-.87-14.18-3.16-2.44-1.44-12.86-7.58-11.46-13.23Z"/>
      <path class="cls-72" d="m615.13,287.5c1.76-.89,6.78-3.12,12.87-1.75.55.12,10.01,2.39,12.48,10,.42,1.3.54,2.45.57,3.25-1.15-2.36-3.59-6.42-8.27-9.1-2.54-1.46-4.83-1.99-6.27-2.31-4.84-1.09-8.94-.58-11.39-.08Z"/>
      <path class="cls-99" d="m611.82,291.05c2.48,3.76,5.12,6.29,7.05,7.89,6.03,4.99,12.54,6.94,16.3,8.03,1.03.3,1.9.52,2.49.66-.66.4-1.77.96-3.23,1.12-1.37.15-2.46-.13-3.37-.4-3.04-.92-5.59-2.32-7.88-3.69-1.89-1.14-3.66-2.21-5.87-3.94-1.07-.83-3.41-2.74-4.81-5.17-.6-1.04-.97-2.07-.9-3.24.03-.52.14-.95.23-1.24Z"/>
      <path class="cls-21" d="m554.38,234.19c16.71,17.19,33.42,34.39,50.13,51.58-4.44,1-11.87,1.93-19.14-1.45-3.28-1.52-8.36-4.77-18.86-24.23-3.35-6.22-7.74-14.96-12.13-25.89Z"/>
      <path class="cls-79" d="m554.37,234.18c16.71,17.19,33.42,34.39,50.13,51.58-9.87-8.92-20.06-18.78-30.37-29.64-7.06-7.43-13.64-14.77-19.76-21.94Z"/>
      <path class="cls-93" d="m554.38,234.19c3.49,8.52,7.13,15.12,9.79,19.53,7.94,13.2,15.92,26.45,30.3,30.7,4.19,1.24,7.83,1.38,10.04,1.35-4.44,1-11.87,1.93-19.14-1.45-3.28-1.52-8.36-4.77-18.86-24.23-3.35-6.22-7.74-14.96-12.13-25.89Z"/>
      <path class="cls-63" d="m559.72,121.77c-1.72,35.68-3.44,71.36-5.16,107.04,2.12-1.7,5.22-4.51,8.05-8.62,6.78-9.84,8.31-21.75,4.63-52.79-1.41-11.94-3.69-27.49-7.53-45.63Z"/>
      <path class="cls-35" d="m559.72,121.77c-1.72,35.68-3.44,71.36-5.16,107.04,2.25-16.44,4.02-34.41,4.94-53.72.91-19.07.87-36.92.22-53.32Z"/>
      <path class="cls-77" d="m559.74,122.04c-.15.03,2.97,14.25,5.83,36.72,4.53,35.62,2.94,49.02-3.7,60.56-2.58,4.48-5.38,7.74-7.29,9.76,2.12-1.7,5.22-4.51,8.05-8.62,6.78-9.84,8.31-21.75,4.63-52.79-3.02-25.49-7.36-45.66-7.53-45.63Z"/>
      <path class="cls-108" d="m663.36,368.12c-23.52-22.52-47.04-45.03-70.56-67.55,10.73,6.04,23.99,14.83,37.5,27.39,15.4,14.33,26,28.81,33.06,40.16Z"/>
      <path class="cls-12" d="m663.36,368.12c-7.7-11.16-18.22-24.41-32.28-37.8-13.66-13.01-27.02-22.69-38.28-29.75,10.74,6.04,24,14.83,37.5,27.39,15.4,14.33,26,28.81,33.06,40.16Z"/>
      <path class="cls-43" d="m663.38,368.21c-23.52-22.52-47.04-45.03-70.56-67.55,11.14,9.66,22.52,19.97,34.06,30.96,13.02,12.39,25.17,24.63,36.49,36.59Z"/>
      <path class="cls-36" d="m568,87.79c-2.78,9.61-5.56,19.21-8.33,28.82-1.04-2.01-1.94-4.51-2.2-7.42-1.08-11.81,9.19-20.31,10.54-21.39Z"/>
      <path class="cls-61" d="m568,87.79c-1.98,1.97-6.05,6.54-8.02,13.73-1.85,6.73-.94,12.37-.31,15.08-1.04-2.01-1.94-4.51-2.2-7.42-1.08-11.81,9.19-20.31,10.54-21.39Z"/>
      <path class="cls-14" d="m568,87.79c-2.78,9.61-5.56,19.21-8.33,28.82.24-2.36.59-4.84,1.09-7.42,1.65-8.51,4.42-15.69,7.24-21.39Z"/>
      <path class="cls-13" d="m484.18,370.37c-7.65-29.53-2.18-58.41,15.84-73.97,2.64-2.28,11.93-10.09,26.06-11.83,22.31-2.74,38.77,11.86,42.1,15.03,16.61,15.83,21.74,41.95,14.1,67.29,2.45-31.35-22.57-56.93-49.78-56.66-28.08.27-53.04,27.99-48.31,60.14Z"/>
      <path class="cls-22" d="m484.22,370.4c-5.73-33.8,20.04-62.75,47.71-63.3,27.16-.53,53.72,26.37,50.38,59.82,2.45-31.35-22.57-56.93-49.78-56.66-28.08.27-53.04,27.99-48.31,60.14Z"/>
      <path class="cls-31" d="m484.18,370.37c-7.65-29.53-2.18-58.41,15.84-73.97,2.64-2.28,11.93-10.09,26.06-11.83,22.31-2.74,38.77,11.86,42.1,15.03,16.61,15.83,21.74,41.95,14.1,67.29.58-3.3,6.61-40.47-17.55-62.17-3.68-3.31-16.02-14.39-33.41-13.78,0,0-10.58.37-20.71,6.43-19.08,11.4-28.63,40.09-26.42,73Z"/>
    </g>
    <g>
      <path class="cls-15" d="m288.71,454.85c-4-1.41-5.37-9.22-3.62-14.87,1.5-4.84,5.95-10.25,11.85-10.43,2.77-.08,6.89.96,8.43,4.03,2,4-1.64,9.01-4,12.26-1.48,2.04-7.78,10.73-12.66,9.01Z"/>
      <path class="cls-104" d="m285.54,451.5c-.63-1.63-2.18-6.25-.46-11.52.15-.47,2.96-8.64,9.89-10.18,1.19-.26,2.21-.27,2.92-.23-2.18.81-5.97,2.63-8.74,6.53-1.5,2.12-2.17,4.1-2.57,5.34-1.37,4.19-1.27,7.85-1.04,10.06Z"/>
      <path class="cls-98" d="m288.4,454.73c3.53-1.88,5.99-3.99,7.57-5.56,4.92-4.9,7.19-10.49,8.47-13.72.35-.89.62-1.63.79-2.15.3.62.7,1.65.71,2.95.01,1.22-.32,2.16-.64,2.95-1.07,2.61-2.52,4.75-3.93,6.65-1.17,1.57-2.27,3.04-3.98,4.85-.83.87-2.71,2.78-4.98,3.82-.97.44-1.91.68-2.94.52-.46-.07-.83-.2-1.08-.31Z"/>
      <path class="cls-101" d="m271.13,540.37c4.74-25.45,9.49-50.9,14.23-76.35-4.59,1.76-11.83,5.37-16.34,12.75-2.04,3.33-4.66,9.29-2.47,33.07.7,7.59,1.99,18.08,4.58,30.53Z"/>
      <path class="cls-57" d="m271.13,540.38c4.74-25.45,9.49-50.9,14.23-76.35-3.54,13.92-6.81,28.88-9.58,44.8-1.9,10.9-3.43,21.43-4.65,31.54Z"/>
      <path class="cls-29" d="m271.13,540.37c-1.96-9.75-2.63-17.85-2.88-23.42-.75-16.61-1.5-33.3,8.89-45.71,3.03-3.62,6.22-5.93,8.22-7.22-4.59,1.76-11.83,5.37-16.34,12.75-2.04,3.33-4.66,9.29-2.47,33.07.7,7.59,1.99,18.08,4.58,30.53Z"/>
      <path class="cls-44" d="m166.81,493.45c35.18,19.12,70.35,38.24,105.53,57.35-2.86,1.04-7.36,2.38-12.95,2.7-13.38.77-25.67-4.7-53.26-26.28-10.62-8.3-24.19-19.53-39.32-33.77Z"/>
      <path class="cls-25" d="m166.81,493.45c35.18,19.12,70.35,38.24,105.53,57.35-17.06-7.42-35.3-16.17-54.33-26.53-18.8-10.23-35.86-20.66-51.2-30.83Z"/>
      <path class="cls-81" d="m167.05,493.62c.11-.12,11.92,11.14,31.78,26.95,31.48,25.07,45.24,31.35,60.16,31.71,5.79.14,10.55-.65,13.59-1.3-2.86,1.04-7.36,2.38-12.95,2.7-13.38.77-25.67-4.7-53.26-26.28-22.66-17.72-39.45-33.62-39.32-33.77Z"/>
      <path class="cls-19" d="m265.64,459.9c-17-24.15-34-48.29-51-72.44,3.96,10.44,10.04,23.53,19.47,37.34,10.76,15.76,22.31,27.23,31.52,35.1Z"/>
      <path class="cls-56" d="m265.64,459.9c-8.96-8.42-19.42-19.65-29.51-34.07-9.81-14.02-16.68-27.31-21.48-38.37,3.96,10.45,10.04,23.53,19.47,37.34,10.76,15.76,22.31,27.23,31.52,35.1Z"/>
      <path class="cls-73" d="m265.72,459.92c-17-24.15-34-48.29-51-72.44,7.15,11.3,14.85,22.91,23.14,34.75,9.35,13.36,18.67,25.91,27.86,37.69Z"/>
      <path class="cls-91" d="m321.13,564.57c-8.4-28.31-16.79-56.62-25.19-84.93.42,11.16,2,25.5,6.52,41.61,5.16,18.37,12.44,32.93,18.66,43.33Z"/>
      <path class="cls-96" d="m321.13,564.57c-5.8-10.84-12.12-24.83-17.08-41.72-4.82-16.42-7.08-31.2-8.1-43.22.42,11.17,2,25.5,6.52,41.61,5.16,18.37,12.44,32.93,18.66,43.33Z"/>
      <path class="cls-62" d="m321.19,564.62c-8.4-28.31-16.79-56.62-25.19-84.93,3.17,12.99,6.75,26.45,10.82,40.32,4.59,15.64,9.42,30.52,14.36,44.62Z"/>
      <path class="cls-85" d="m141.01,466.05c7.07,7.82,14.13,15.64,21.2,23.46.05-2.39-.24-5.17-1.34-8.05-4.43-11.69-18.08-15.01-19.86-15.41Z"/>
      <path class="cls-82" d="m141.01,466.05c2.79.95,8.75,3.41,13.94,9.31,4.85,5.52,6.6,11.29,7.26,14.15.05-2.39-.24-5.17-1.34-8.05-4.43-11.69-18.08-15.01-19.86-15.41Z"/>
      <path class="cls-11" d="m141.01,466.05c7.07,7.82,14.13,15.64,21.2,23.46-1.31-2.12-2.79-4.31-4.46-6.53-5.49-7.31-11.43-12.82-16.74-16.93Z"/>
      <path class="cls-6" d="m242.25,672.24c-5.62-8.2-13.75-22.8-15.38-42.27-.85-10.16-2.13-25.37,7.39-39.07,6.02-8.67,13.75-12.97,17.4-14.94,14.25-7.72,27.89-6.82,32.64-6.3,2.37.26,20.7,2.62,34.85,17.39,23.25,24.25,13.29,60.5,12.77,62.28.42-5.07.06-9.97-.95-14.62,0,0-.67-3.07-2.46-7.43,0,0-3.44-8.4-9.16-15.17-7.32-8.67-35.98-25.96-60.4-13-22.66,12.03-32.71,45.38-16.7,73.12Z"/>
      <path class="cls-86" d="m242.32,672.2c-1.97-2.75-14.28-20.58-8.83-43.33,1.24-5.2,5.97-21.33,21.62-30.83,18.61-11.31,41.9-6.81,56.58,4.13,2.34,1.74,16.26,12.44,19.85,31.43,1.22,6.46.89,11.99.38,15.73.36-4.39.26-10.18-1.48-16.61-.54-1.99-1.18-3.82-1.85-5.47,0,0-.86-2.1-2.43-5.04-1.23-2.31-3.4-6.35-6.73-10.13-3.74-4.26-7.47-6.49-11.41-8.86-2.55-1.53-7.17-4.06-13.43-6.04-1.95-.62-6.35-1.99-11.34-2.49-1.53-.15-13.08-1.18-24.22,4.4-18.52,9.28-23.1,30.45-23.93,34.92-3.58,19.13,4.75,34.09,7.23,38.2Z"/>
      <path class="cls-1" d="m94.63,548.24c-.25-.39-.52-1.21-.77-2,.1.93.17,1.87.22,2.81.08-.14.16-.29.24-.43.06-.1.18-.23.31-.38Z"/>
      <path class="cls-40" d="m235.01,597.52c2.56-3.34,11.61-14.81,27.89-19.55,17.76-5.17,32.66,1,38.86,3.58,14.61,6.06,23.5,15.85,27.77,21.33-2.34-5.51-5.67-10.91-10.38-15.83-14.15-14.76-32.48-17.12-34.85-17.39-4.75-.53-18.39-1.42-32.64,6.3-3.65,1.98-11.38,6.27-17.4,14.94-5.11,7.36-7.11,15.16-7.73,22.37,1.4-4.02,3.91-9.79,8.48-15.75Z"/>
    </g>
    <g>
      <path class="cls-50" d="m424.3,212.7c-39.94,8.03-79.87,16.07-119.81,24.1,2.47,1.87,6.45,4.52,11.78,6.51,12.77,4.76,26.37,3.13,59.67-9.58,12.81-4.89,29.38-11.73,48.36-21.03Z"/>
      <path class="cls-68" d="m424.3,212.7c-39.94,8.03-79.87,16.07-119.81,24.1,18.81-2.09,39.17-5.14,60.78-9.49,21.35-4.31,41.06-9.32,59.03-14.61Z"/>
      <path class="cls-23" d="m424,212.79c-.07-.15-14.93,7.26-38.98,16.67-38.13,14.93-53.39,16.91-68,12.78-5.67-1.6-10.06-3.79-12.82-5.34,2.47,1.87,6.45,4.52,11.78,6.51,12.77,4.76,26.37,3.13,59.67-9.58,27.35-10.43,48.44-20.85,48.36-21.03Z"/>
      <path class="cls-51" d="m429.2,211.86c10.59-2.06,21.18-4.12,31.77-6.18-1.42,1.99-3.37,4.08-6.04,5.77-10.81,6.85-24.03,1.18-25.73.41Z"/>
      <path class="cls-4" d="m429.2,211.86c2.87.93,9.26,2.58,17.14.94,7.37-1.54,12.34-5.19,14.64-7.12-1.42,1.99-3.37,4.08-6.04,5.77-10.81,6.85-24.03,1.18-25.73.41Z"/>
      <path class="cls-95" d="m429.2,211.86c10.59-2.06,21.18-4.12,31.77-6.18-2.38.93-4.94,1.81-7.67,2.6-8.99,2.61-17.24,3.48-24.11,3.58Z"/>
      <path class="cls-10" d="m246.97,159.77c-.2,34.59-.39,69.17-.59,103.76,3.32-12.65,6.41-29.27,6.8-48.86.44-22.34-2.77-41.14-6.22-54.91Z"/>
      <path class="cls-55" d="m246.97,159.77c2.83,14.12,5.16,31.94,4.99,52.56-.16,20.04-2.65,37.38-5.58,51.2,3.32-12.66,6.41-29.27,6.8-48.86.44-22.34-2.77-41.14-6.22-54.91Z"/>
      <path class="cls-28" d="m246.92,159.69c-.2,34.59-.39,69.17-.59,103.76.86-15.64,1.4-31.94,1.55-48.87.16-19.09-.2-37.41-.96-54.89Z"/>
      <path class="cls-2" d="m299.63,237.67c-18.29,18.18-36.57,36.37-54.86,54.55-1.13-4.76-2.22-12.75,1.33-20.6,1.6-3.54,5.03-9.05,25.83-20.58,6.64-3.68,16-8.5,27.7-13.36Z"/>
      <path class="cls-90" d="m299.65,237.67c-18.29,18.18-36.57,36.37-54.86,54.55,9.47-10.72,19.95-21.8,31.5-33.03,7.91-7.68,15.72-14.85,23.36-21.52Z"/>
      <path class="cls-42" d="m299.63,237.67c-9.12,3.86-16.17,7.85-20.89,10.77-14.1,8.7-28.26,17.45-32.64,32.96-1.28,4.53-1.39,8.44-1.33,10.82-1.13-4.76-2.22-12.75,1.33-20.6,1.6-3.54,5.03-9.05,25.83-20.58,6.64-3.68,16-8.5,27.7-13.36Z"/>
      <path class="cls-41" d="m245.1,300.52c-4.84-1.24-11.3,5.52-13.29,12.19-1.71,5.73-.89,13.94,4.78,17.98,2.66,1.89,7.38,3.57,10.89,1.58,4.58-2.61,4.3-9.9,4.12-14.63-.11-2.96-.59-15.61-6.5-17.12Z"/>
      <path class="cls-106" d="m239.81,301.73c-1.69,1.18-6.23,4.7-8,10.98-.16.56-2.76,10.4,3.02,16.45.99,1.03,1.99,1.71,2.71,2.14-1.6-2.22-4.13-6.49-4.28-12.13-.08-3.06.56-5.43.98-6.92,1.4-5,3.9-8.52,5.57-10.53Z"/>
      <path class="cls-105" d="m244.71,300.44c2.23,4.15,3.25,7.83,3.77,10.4,1.6,8.02.17,14.99-.69,18.99-.24,1.1-.47,2-.63,2.62.7-.41,1.77-1.16,2.63-2.42.81-1.19,1.1-2.33,1.3-3.31.66-3.25.64-6.3.51-9.09-.11-2.3-.23-4.46-.72-7.36-.24-1.4-.83-4.5-2.37-7-.66-1.06-1.43-1.92-2.53-2.44-.5-.23-.95-.35-1.26-.4Z"/>
      <path class="cls-58" d="m461.67,156.51c-98.24-63.29-217.63-47.25-276.14,23-57.03,68.47-34.16,161.96-31.28,172.99-2.8-13.22-19.81-100.23,34.7-165.81,58.03-69.82,173.93-87.47,272.72-30.18Z"/>
    </g>
  </g>
  <g>
    <g>
      <g>
        <path class="cls-53" d="m1187.34,377.73c.24-.71.49-1.42.75-2.13-.2.59-.41,1.2-.61,1.76-.04.14-.08.26-.14.39v-.02Z"/>
        <path class="cls-59" d="m1236.41,356.21l-.08-.08c.02-.1-.08-.28-.16-.57l-17.36-49.4c-.12-.32-.22-.61-.32-.87-.1-.26-.18-.51-.28-.73-.16-.43-.3-.75-.43-.95-.06-.14-.14-.24-.22-.28-.06-.06-.12-.08-.18-.08v-.08h.02c.14,0,.28.12.45.39.26.43.57,1.26,1.05,2.6l17.36,49.42c.02.06.06.14.08.2.06.18.12.34.08.45Z"/>
        <path class="cls-92" d="m1217.36,303.16v.08c-.34.04-.65,1.03-1.28,2.92l-16.11,49.4c-.12.34-.16.55-.06.65v.02l-.08.08h-.02c-.1-.14-.04-.41.08-.77l16.11-49.4.08-.24c.61-1.91.89-2.72,1.28-2.74Z"/>
        <path class="cls-71" d="m1197.62,362.82c-.06,0-.1.02-.12.04v-.02s.08-.02.12-.02Z"/>
        <path class="cls-48" d="m1238.82,362.84v.02s-.04-.02-.06-.04c.02,0,.04,0,.06.02Z"/>
        <path class="cls-18" d="m1236.41,356.21s-.02.06-.04.08c-.06.1-.22.18-.57.18h-35.64c-.1,0-.24-.06-.32-.16l.08-.08v-.02c.04.06.12.08.24.08h35.64c.37,0,.51-.04.53-.16l.08.08Z"/>
        <path class="cls-16" d="m1236.41,356.21l-.08-.08c.02-.1-.08-.28-.16-.57l-17.36-49.4c-.12-.32-.22-.61-.32-.87-.1-.26-.18-.51-.28-.73-.16-.43-.3-.75-.43-.95l.06-.06c.26.43.57,1.26,1.05,2.6l17.36,49.42c.02.06.06.14.08.2.06.18.12.34.08.45Z"/>
        <path class="cls-45" d="m1187.34,377.73c.24-.71.49-1.42.75-2.13-.2.59-.41,1.2-.61,1.76-.04.14-.08.26-.14.39v-.02Z"/>
        <path class="cls-66" d="m1217.36,303.16v.08c-.34.04-.65,1.03-1.28,2.92l-16.11,49.4c-.12.34-.16.55-.06.65v.02l-.08.08h-.02c-.1-.14-.04-.41.08-.77l16.11-49.4.08-.24c.61-1.91.89-2.72,1.28-2.74Z"/>
        <path class="cls-70" d="m1187.34,377.73c.24-.71.49-1.42.75-2.13-.2.59-.41,1.2-.61,1.76-.04.12-.08.24-.14.37Z"/>
        <path class="cls-107" d="m1236.41,356.21s-.02.06-.04.08c-.06.1-.22.18-.57.18h-35.64c-.1,0-.24-.06-.32-.16l.08-.08v-.02c.04.06.12.08.24.08h35.64c.37,0,.51-.04.53-.16l.08.08Z"/>
        <path class="cls-8" d="m1217.83,303.55l-.06.06c-.06-.14-.14-.24-.22-.28-.06-.06-.12-.08-.18-.08v-.08h.02c.14,0,.28.12.45.39Z"/>
        <path class="cls-80" d="m1197.62,362.82c-.06,0-.1.02-.12.04v-.02s.08-.02.12-.02Z"/>
        <path class="cls-110" d="m1238.82,362.84v.02s-.04-.02-.06-.04c.02,0,.04,0,.06.02Z"/>
        <path class="cls-46" d="m1236.41,356.21s-.02.06-.04.08c-.06.1-.22.18-.57.18h-35.64c-.1,0-.24-.06-.32-.16l.08-.08v-.02c.04.06.12.08.24.08h35.64c.37,0,.51-.04.53-.16l.08.08Z"/>
        <path class="cls-94" d="m1217.36,303.16v.08c-.34.04-.65,1.03-1.28,2.92l-16.11,49.4c-.12.34-.16.55-.06.65v.02l-.08.08h-.02c-.1-.14-.04-.41.08-.77l16.11-49.4.08-.24c.61-1.91.89-2.72,1.28-2.74Z"/>
        <path class="cls-30" d="m1197.62,362.82c-.06,0-.1.02-.12.04v-.02s.08-.02.12-.02Z"/>
        <path class="cls-24" d="m1238.82,362.84v.02s-.04-.02-.06-.04c.02,0,.04,0,.06.02Z"/>
        <path class="cls-38" d="m1236.41,356.21l-.08-.08c.02-.1-.08-.28-.16-.57l-17.36-49.4c-.12-.32-.22-.61-.32-.87-.1-.26-.18-.51-.28-.73-.16-.43-.3-.75-.43-.95-.06-.14-.14-.24-.22-.28-.06-.06-.12-.08-.18-.08v-.08h.02c.14,0,.28.12.45.39.26.43.57,1.26,1.05,2.6l17.36,49.42c.02.06.06.14.08.2.06.18.12.34.08.45Z"/>
        <path class="cls-33" d="m943.64,239.08c5.54,5.29,12.6,16.61,12.6,33.01,0,1.01-.02,2.03-.08,3.04,0,.18-.02.34-.02.53h-.02c-1.22,20.89-13.35,37.61-31.75,46.23-.89.43-1.83.83-2.76,1.22-.61.24-1.22.49-1.85.71-.16.06-.32.12-.49.18-.32.12-.63.22-.95.34-.59.22-1.18.41-1.77.59-1.22.39-2.47.75-3.75,1.08-.83.22-1.68.43-2.54.61-.02,0-.06.02-.08.02-.99.2-1.99.41-3,.57-.91.16-1.85.3-2.78.43-.77.1-1.54.18-2.33.26-.55.06-1.1.1-1.66.14-1.05.08-2.15.14-3.25.18-.95.04-1.93.06-2.9.06-4.79,0-8.07-.26-8.07-1.01,0-.51,1.01-.51,1.76-.51,4.63,0,9.01-.41,13.08-1.2.79-.14,1.58-.3,2.35-.49.85-.2,1.7-.43,2.52-.67.71-.18,1.4-.41,2.07-.63,5.86-1.93,10.93-4.79,15.13-8.52,8.6-7.67,13.47-18.99,13.47-33.59,0-1.18-.02-2.74-.16-4.58,0-.26-.02-.53-.06-.81-.02-.34-.06-.73-.1-1.1-.02-.32-.06-.67-.12-1.03-.08-.69-.18-1.42-.3-2.17-.06-.45-.14-.91-.24-1.38-.12-.69-.26-1.38-.43-2.11-.18-.81-.39-1.64-.63-2.47-.59-2.17-1.38-4.44-2.37-6.76-.28-.65-.59-1.3-.89-1.95-1.18-2.39-2.6-4.83-4.34-7.2-.32-.45-.65-.87-1.01-1.32-.32-.43-.67-.85-1.03-1.26-.14-.18-.28-.37-.47-.55-.28-.34-.59-.69-.91-1.03-.32-.37-.67-.71-1.01-1.08-.49-.49-.99-.97-1.48-1.44-.45-.41-.87-.81-1.32-1.18-.91-.77-1.83-1.5-2.74-2.17-.04,0-.08-.04-.1-.06-.95-.67-1.91-1.3-2.84-1.87-.47-.3-.95-.57-1.42-.81-.41-.24-.83-.45-1.24-.65-.06-.02-.12-.06-.18-.08-9.82-4.87-19.01-4.34-23.21-4.34s-9.43.97-10.83,1.52c-1.52.59-1.89.71-1.99,2.05-.02.32-.02.73-.02,1.22v105.08c0,6.05,0,11.83.02,17.26,0,1.34.02,2.68.02,4,.02,3.23.04,6.33.08,9.27.02.99.04,1.99.06,2.94v.69c.02.57.02,1.14.04,1.68.04,1.42.06,2.78.1,4.1.04.77.06,1.5.08,2.23.02.24.02.47.02.71.04.59.06,1.18.08,1.72,0,.16.02.3.02.45.04.83.08,1.62.12,2.39.04.49.06.95.08,1.42.06.67.1,1.3.14,1.93.02.22.04.45.06.65.02.32.06.65.08.95.08.79.16,1.56.24,2.27.75,7.3,2.52,15.11,9.82,16.13,4.04.51,8.56.51,11.34.51.45,0,.79.04,1.05.08.28.04.47.12.61.2.28.16.35.34.35.47,0,.06,0,.14-.1.24-.3.32-1.42.77-5.44.77-12.33,0-27.71-.77-28.97-.77s-17.14.77-24.69.77c-2.88,0-3.71-.45-3.96-.77-.06-.1-.08-.18-.08-.24,0-.24.24-.75,2.01-.75,2.27,0,5.29,0,7.57-.51,4.75-.95,6.13-7.95,7.12-14.87.06-.43.12-.83.18-1.26.87-7.28,1.14-18.97,1.22-33.41.04-6.57.04-13.69.04-21.26v-44.35c0-37.27,0-45.54-.43-53.17-.02-.43-.06-.83-.08-1.26,0-.12-.02-.22-.02-.34-.53-8.4-2.86-14.79-11.06-16.03-1.76-.26-3.77-.51-7.06-.51-2.27,0-3.27-.26-3.27-.77v-.06c.1-.49,1.16-.93,4.02-.93,5.8,0,12.6,0,28.48.75,1.03,0,2.39-.02,4-.06.45-.02.91-.04,1.4-.04.55-.02,1.12-.04,1.72-.06.37,0,.75-.02,1.14-.04.77-.02,1.56-.04,2.39-.06.41-.02.83-.04,1.24-.04,1.7-.06,3.47-.12,5.27-.18,4.83-.14,9.94-.26,14.59-.26,8.2,0,15.05.71,20.73,1.85,1.22.24,2.37.51,3.49.77.55.14,1.1.28,1.62.43,2.39.65,4.54,1.38,6.47,2.13.49.2.95.39,1.4.59,3.63,1.54,6.41,3.23,8.54,4.77.28.18.53.37.77.55,1.72,1.3,2.94,2.45,3.83,3.29Z"/>
        <path class="cls-75" d="m1027.89,415.47s0,.1-.08.18c-.2.22-1.01.55-3.9.55-8.86,0-20.08-.55-21-.55s-12.29.55-17.73.55c-2.07,0-2.66-.32-2.84-.55-.04-.08-.06-.14-.06-.18,0-.18.18-.55,1.46-.55,1.62,0,3.79,0,5.42-.37,2.58-.51,3.77-3.49,4.52-7.06.22-1.16.43-2.41.61-3.65.04-.28.08-.59.12-.87.12-.95.2-2.01.3-3.14.12-1.74.22-3.69.3-5.82.28-7.85.28-18.34.28-30.29v-31.85c0-15.88,0-24.44-.06-29.92,0-.61,0-1.18-.02-1.7,0-.28,0-.55-.02-.79,0-.51,0-.99-.02-1.44-.04-2.05-.12-3.61-.22-5.23-.08-1.38-.22-2.68-.49-3.87-.04-.28-.12-.57-.18-.83-.93-3.75-2.98-6.41-7.3-7.06-1.26-.18-2.72-.37-5.07-.37-1.62,0-2.35-.18-2.35-.53,0-.02.02-.04.02-.06.06-.34.83-.67,2.88-.67,8.16,0,19.56.55,20.45.55s12.31-.55,17.73-.55c1.89,0,2.8.32,2.9.67v.06c0,.34-.89.53-1.99.53-1.44,0-2.9,0-4.71.37-.22.04-.45.1-.65.18-.22.06-.41.12-.61.22-.18.08-.37.16-.55.28-.18.1-.37.22-.55.34-.2.16-.39.32-.57.49-.18.18-.34.34-.49.55-.22.26-.41.53-.57.83-.12.18-.24.39-.32.59-.28.57-.53,1.18-.71,1.85-.08.24-.14.49-.2.73-.08.32-.16.65-.22.99-.26,1.42-.45,3-.53,4.71-.37,5.78-.37,10.85-.37,39.09v31.85c0,17.36,0,31.67.89,39.25.06.51.12.99.18,1.48.06.51.14,1.03.22,1.54.08.51.2,1.01.3,1.5.83,3.57,2.5,6.55,6.35,7.06,2.54.37,5.98.37,7.79.37,1.44,0,1.62.37,1.62.55Z"/>
        <path class="cls-32" d="m1144.96,396.28c-.18,1.46-1.44,11.95-2.88,17.39-.22.83-.59,1.44-1.2,1.89-1.42,1.01-4.2,1.18-9.84,1.18-1.6,0-3.23-.02-4.83-.04-1.62-.02-3.23-.04-4.85-.08-1.6-.04-3.23-.08-4.85-.12-3.96-.12-7.93-.26-11.99-.39-2.6-.1-5.25-.18-7.93-.24-1.3-.04-2.62-.06-3.96-.1-.41,0-.81-.02-1.24-.02-2.9-.06-5.84-.08-8.86-.08-4.34,0-13.02.55-17.73.55-1.99,0-2.9-.18-2.9-.55s.55-.55,1.26-.55c.55,0,3.27,0,5.44-.55,3.98-.89,4.71-6.33,5.44-11.58.26-2.15.43-4.85.57-8.01v-.2c.12-5.5.26-12.39.3-22.68.02-2.56.02-5.34.02-8.36v-31.85c0-9.72,0-16.68-.02-21.89,0-2.35,0-4.36-.02-6.09-.06-5.52-.14-8.24-.32-11.12,0-.14-.02-.28-.02-.41-.08-1.22-.22-2.37-.45-3.45-.04-.28-.12-.59-.18-.85-.12-.47-.24-.91-.41-1.36-.02-.04-.02-.08-.04-.12-.14-.39-.3-.75-.49-1.12-.16-.32-.35-.65-.55-.95-.06-.1-.14-.22-.22-.32-.2-.28-.43-.55-.65-.79-.87-.91-2.01-1.62-3.43-2.05-.2-.08-.43-.12-.65-.18-.28-.06-.57-.12-.87-.16-1.28-.18-2.72-.37-5.07-.37-1.62,0-2.35-.18-2.35-.53,0-.02,0-.04.02-.06.06-.34.81-.67,2.88-.67,8.13,0,19.54.55,20.45.55s14.12-.55,19.54-.55c1.89,0,2.8.32,2.9.67v.06c0,.34-.91.53-1.99.53-1.44,0-4.52,0-6.33.37-1.62.34-2.86,1.18-3.75,2.45-.12.14-.2.28-.3.45s-.22.34-.3.55c-.14.26-.26.53-.39.81-.34.81-.63,1.74-.83,2.76-.06.28-.12.59-.16.89-.04.18-.08.37-.1.57-.04.26-.06.53-.1.79-.02.12-.02.22-.04.32-.04.3-.06.59-.08.89-.04.43-.08.85-.1,1.28-.34,5.78-.34,10.85-.34,39.09v32.21c0,6.73.04,12.5.16,17.43.04,1.05.06,2.07.1,3.02.02.77.04,1.52.08,2.25.04.95.08,1.87.14,2.74.04.95.1,1.89.18,2.76.02.45.06.87.1,1.28.18,2.15.43,4.02.71,5.58.59,3.25,1.38,5.27,2.5,6.37,2.9,2.9,7.59,4.16,21.71,4.16,5.44,0,13.04,0,17.91-1.44.06-.02.12-.04.18-.04,5.31-1.64,8.52-4.2,9.6-11.91.37-1.99.73-2.7,1.1-2.7h.02c.34.1.51,1.48.32,2.7Z"/>
        <path class="cls-69" d="m1187.34,377.73c.24-.71.49-1.42.75-2.13-.2.59-.41,1.2-.61,1.76-.04.14-.08.26-.14.39v-.02Z"/>
        <path class="cls-67" d="m1289.19,414.92c-1.83,0-5.25,0-7.97-.89-.47-.16-.91-.32-1.32-.49-.43-.16-.81-.32-1.18-.51-.47-.22-.91-.47-1.32-.73-.22-.12-.43-.26-.63-.41-.59-.43-1.12-.89-1.62-1.44-.16-.16-.34-.37-.49-.57-1.28-1.54-2.37-3.63-3.69-6.67-.06-.12-.12-.26-.18-.39-.06-.18-.14-.37-.22-.55-.67-1.54-1.38-3.31-2.19-5.34-.18-.45-.39-.91-.57-1.4-.39-.97-.79-1.99-1.24-3.06-11.06-27.51-39.46-102.24-41.81-108.21-2.72-6.69-3.61-7.79-4.34-7.79h-.06c-.73.08-1.83,1.46-4.1,7.97l-1.52,4.16-39.38,107.66c-.55,1.48-1.08,2.86-1.6,4.16-.47,1.18-.93,2.27-1.44,3.29-3.1,6.59-6.49,10.16-11.81,10.83-2.72.37-3.98.37-5.42.37-1.24,0-1.79.18-1.81.53l-.02.02c0,.18.55.73,3.08.73,4.89,0,19.19-.55,20.81-.55,1.99,0,7.42.55,14.12.55,2.17,0,2.72-.55,2.72-.73-.02-.37-.73-.55-1.83-.55s-3.06,0-5.42-.55c-2.84-.71-3.92-2.7-3.65-6.33.02-.32.06-.67.1-1.03,0-.02,0-.04.02-.08v-.02c.08-.67.2-1.38.39-2.17.14-.77.34-1.62.61-2.52.08-.34.18-.71.3-1.1.06-.28.16-.59.24-.89.18-.61.39-1.26.59-1.91.2-.67.43-1.34.67-2.05l11.04-32.56c.22-.55.3-.77.43-.85v-.02s.08-.02.12-.02c.06-.02.1-.02.18-.02h40.53c.22,0,.34,0,.43.02.02,0,.04,0,.06.02v.02c.1.06.14.2.24.49l17,45.06c.02.06.04.12.06.16,1.18,3.49-.26,4.54-1.14,5.09-.69.34-1.22.53-1.28.85h.02s-.02.02-.02.04c0,.37.55,1.1,5.44,1.28,12.48.55,25.34.37,29.31.37,2.15,0,2.64-.47,2.7-.67.02-.02.02-.04.02-.06,0-.37-.55-.55-1.99-.55Zm-52.82-58.63c-.06.1-.22.18-.57.18h-35.64c-.1,0-.24-.06-.32-.16h-.02c-.1-.14-.04-.41.08-.77l16.11-49.4.08-.24c.61-1.91.89-2.72,1.28-2.74h.02c.14,0,.28.12.45.39.26.43.57,1.26,1.05,2.6l17.36,49.42c.02.06.06.14.08.2.06.18.12.34.08.45,0,.04-.02.06-.04.08Z"/>
      </g>
      <g>
        <path class="cls-49" d="m1278.22,298.74s.02-.08.02-.14v.06c-.02.08-.02.16-.02.22v-.14Z"/>
        <path class="cls-78" d="m1278.16,299.02h.04v.08h-.04c-.37,0-.37-.73-.37-1.81.02-.3.04-.71.1-1.16,0-.04,0-.08.02-.12h.06c-.04.49-.08.91-.1,1.28,0,.95,0,1.72.28,1.72Z"/>
        <path class="cls-26" d="m1278.22,298.74s.02-.08.02-.14v.06c-.02.08-.02.16-.02.22v-.14Z"/>
        <path class="cls-65" d="m1278.22,298.74s.02-.08.02-.14v.06c-.02.08-.02.16-.02.22v-.14Z"/>
        <path class="cls-39" d="m1278.16,299.02h.04v.08h-.04c-.37,0-.37-.73-.37-1.81.02-.3.04-.71.1-1.16-.02-.04,0-.08,0-.12h.08c-.04.49-.08.91-.1,1.28,0,.95,0,1.72.28,1.72Z"/>
        <path class="cls-3" d="m1278.22,298.74s.02-.08.02-.14v.06s-.02.06-.02.08Z"/>
        <path class="cls-47" d="m1277.93,295.7c-.02.12-.02.22-.02.32h-.02c0-.1.02-.2.04-.32Z"/>
        <path class="cls-7" d="m1391.88,278.13s-.06-.02-.08-.02c-.73,0-1.28.55-2.72.91-.67.16-2.13.32-4.22.51v-.02c-.73.06-1.52.12-2.39.16-.89.06-1.87.1-2.9.14-.73.02-1.48.04-2.29.06-.32.02-.65.02-.99.02-.57.02-1.18.02-1.79.02-.61.02-1.24.02-1.89.02h-67.86c-2.17,0-10.85-.37-16.11-.91-.53-.04-1.03-.08-1.48-.14-3.73-.41-5.01-1.12-6.29-1.12-.18,0-.3.02-.41.08-.34.2-.37.79-.51,1.91-.12,1.18-.41,3.21-.71,5.52-.04.32-.1.67-.14.99-.12,1.01-.26,2.07-.41,3.1-.06.37-.1.75-.16,1.12-.12.93-.22,1.87-.32,2.7-.04.34-.08.67-.12.97-.06.57-.12,1.08-.16,1.54-.02.12-.02.22-.02.32h.06c-.04.49-.08.91-.1,1.28,0,.95,0,1.72.28,1.72h.04v.08c.32-.04.51-.59.85-1.99.04-.16.1-.34.16-.57.14-.59.34-1.36.59-2.15.1-.34.22-.73.34-1.08h-.02c.32-.87.69-1.68,1.1-2.17,1.6-1.93,3.45-2.78,7.47-3.18,1.03-.12,2.25-.18,3.63-.24.26-.02.53-.02.81-.04,2.15-.08,4.73-.12,7.83-.16,8.87-.18,17.91-.18,26.78-.37v76.56c0,4.34,0,8.5-.02,12.39-.04,11.71-.2,21.18-.89,26.86-.16,1.14-.32,2.29-.53,3.43-.71,4.04-1.89,7.61-4.71,8.16-1.64.37-3.81.37-5.44.37-1.26,0-1.44.37-1.44.55,0,.04,0,.1.06.18.16.22.75.55,2.82.55,5.44,0,16.84-.55,17.75-.55s12.29.55,21.16.55c3.81,0,3.98-.55,3.98-.73s-.16-.55-1.62-.55c-1.81,0-5.25,0-7.77-.37-.28-.04-.57-.08-.83-.14-.16-.04-.3-.08-.45-.14-.14-.02-.26-.06-.39-.12-.18-.06-.37-.14-.53-.22-.22-.08-.43-.2-.61-.32-.41-.24-.75-.51-1.08-.81-.14-.12-.26-.26-.39-.41-.51-.57-.93-1.22-1.28-1.95-.12-.26-.24-.53-.34-.79-.12-.28-.22-.59-.3-.87-.1-.28-.18-.59-.26-.91-.08-.3-.16-.63-.22-.95-.04-.16-.06-.34-.1-.51-.02-.16-.06-.3-.08-.47-.16-.97-.28-1.97-.39-2.96-.91-7.59-.91-21.89-.91-39.25v-76.56c.97.02,1.95.04,2.92.06.97.02,1.95.04,2.94.06v-.02c5.64.1,11.28.12,16.94.26.61.02,1.2.02,1.79.04,1.16.02,2.23.06,3.25.12.85.02,1.64.08,2.39.12.63.04,1.22.08,1.76.12.1,0,.18.02.26.02.57.06,1.12.1,1.62.16h.02c.06,0,.12.02.18.02.47.06.91.1,1.34.16.02,0,.06,0,.1.02.49.06.95.12,1.38.2h.06c.16.02.32.04.49.08.06.02.12.02.18.04.18.02.34.06.53.1.02,0,.06,0,.08.02.14.02.26.06.39.08.26.04.51.1.75.18.53.12,1.01.26,1.44.43.06.02.12.04.16.06.14.04.26.08.39.14,1.54.63,2.43,1.38,3.04,2.21.1.14.18.26.26.41.1.14.18.3.26.47.18.3.32.63.49.95.55,1.08.73,2.88.91,4.16.18,1.81.37,2.54.71,2.54.18,0,.55-.55.73-2.72.55-9.05.73-13.21,1.46-17.39.16-1.16.02-2.01-.28-2.15Zm-113.66,20.61s.02-.08.02-.14v.06c-.02.08-.02.16-.02.22v-.14Z"/>
      </g>
      <g>
        <path class="cls-100" d="m1462.01,415.47s-.02.1-.08.18c-.22.22-1.01.55-3.92.55-8.86,0-20.08-.55-20.98-.55s-12.31.55-17.75.55c-2.05,0-2.66-.32-2.82-.55-.06-.08-.06-.14-.06-.18,0-.18.18-.55,1.44-.55,1.62,0,3.79,0,5.44-.37,2.56-.51,3.77-3.49,4.5-7.06.24-1.16.45-2.41.61-3.65.04-.28.08-.59.12-.87.69-5.68.85-15.15.89-26.86.02-3.89.02-8.05.02-12.39v-31.85c0-9.72,0-16.68-.02-21.89,0-2.35-.02-4.36-.02-6.09-.04-5.52-.14-8.24-.32-11.12-.02-.43-.06-.85-.1-1.26-.02-.41-.06-.79-.12-1.18-.04-.28-.08-.55-.12-.79-.06-.34-.12-.67-.2-.99t0-.02c-.02-.16-.06-.32-.1-.47-.93-3.75-2.98-6.41-7.3-7.06-1.28-.18-2.72-.37-5.07-.37-1.62,0-2.35-.18-2.35-.53v-.06c.08-.34.83-.67,2.9-.67,8.13,0,19.54.55,20.45.55s12.29-.55,17.73-.55c1.89,0,2.8.32,2.88.67,0,.02.02.04.02.06,0,.34-.91.53-1.99.53-1.46,0-2.9,0-4.71.37-.24.04-.47.1-.67.18-.22.06-.41.14-.61.22-.41.18-.75.39-1.08.63-.06.04-.1.08-.16.12-.14.12-.28.24-.41.37-.14.12-.26.24-.37.39-.14.14-.24.28-.34.45-.18.26-.37.55-.53.85-.43.75-.75,1.64-1.01,2.62-.1.39-.18.81-.26,1.24-.28,1.42-.45,3-.55,4.71-.37,5.78-.37,10.85-.37,39.09v31.85c0,17.36,0,31.67.91,39.25.06.49.1.99.16,1.48.08.53.16,1.03.24,1.54.08.51.18,1.01.3,1.5.83,3.57,2.5,6.55,6.35,7.06,2.54.37,5.96.37,7.77.37,1.46,0,1.64.37,1.64.55Z"/>
        <path class="cls-89" d="m1653.1,225.65s.02.04.02.06c0,.51-1.26.77-2.78.77-2.01,0-4.02,0-6.55.51-.39.08-.73.18-1.08.3-.34.1-.67.24-.97.39l-.02.02c-.28.12-.55.28-.81.47-.49.3-.93.69-1.34,1.12-.14.14-.28.28-.41.45-.02.02-.04.04-.06.06-.83,1.01-1.5,2.27-2.01,3.73-.12.34-.24.71-.34,1.08v.04c-.12.37-.2.75-.28,1.14-.43,1.76-.69,3.77-.87,5.96-.04.53-.08,1.08-.1,1.62-.14,2.25-.24,4.44-.32,7.3-.18,7.28-.18,18.87-.18,47.12v26.96c0,1.68-.02,3.39-.04,5.11-.41,25.8-4.24,53.45-23.15,70.21-13.35,11.89-27.12,16.37-39.4,17.93-.16.02-.34.04-.51.06-1.46.16-2.9.3-4.3.41-.28.02-.57.04-.85.06-.69.04-1.4.06-2.07.1-.93.04-1.85.06-2.76.08-.69,0-1.36.02-2.03.02-1.34,0-3.08-.02-5.15-.14-1.24-.06-2.6-.14-4.06-.28-1.44-.14-2.98-.3-4.6-.55-4.32-.61-9.17-1.6-14.18-3.21-1.87-.61-3.77-1.3-5.66-2.09-1.26-.51-2.54-1.1-3.79-1.7-1.26-.63-2.5-1.3-3.75-2.01-1.24-.71-2.45-1.48-3.67-2.29-2.43-1.64-4.79-3.51-7.02-5.62-.39-.37-.77-.75-1.16-1.14-1.52-1.52-3-3.14-4.4-4.89-1.08-1.32-2.09-2.7-3.08-4.16-5.68-8.42-10.08-19.49-12.07-35.34-.14-.97-.26-1.97-.34-3-.26-2.43-.47-4.97-.61-7.61,0-.14-.02-.3-.02-.47,0-.1-.02-.22-.02-.34-.06-.99-.1-1.99-.12-3.02-.04-.95-.06-1.93-.08-2.92v-.75c-.02-.87-.02-1.74-.02-2.64v-36.78c0-39.31,0-46.37-.51-54.43-.02-.55-.06-1.08-.12-1.58-.02-.41-.06-.79-.12-1.18-.02-.32-.08-.65-.12-.95-.02-.28-.08-.57-.12-.83v-.06c-.08-.47-.18-.93-.28-1.38-.08-.45-.2-.87-.32-1.3-.1-.39-.22-.77-.37-1.14-.12-.34-.24-.67-.39-.97-.12-.3-.26-.61-.43-.89-.02-.08-.06-.14-.1-.22-.12-.24-.26-.49-.43-.71-.04-.08-.08-.16-.14-.22-.14-.24-.3-.47-.49-.69,0-.02-.02-.04-.04-.06-.2-.26-.41-.51-.63-.75l-.24-.24c-.45-.47-.95-.89-1.5-1.26-.06-.04-.12-.08-.2-.12-.28-.2-.59-.37-.89-.53-.04-.02-.08-.04-.14-.06-.34-.18-.71-.34-1.1-.49-.02,0-.06-.02-.1-.04-.41-.14-.85-.28-1.32-.39-.47-.12-.95-.22-1.48-.3-1.76-.26-3.77-.51-7.06-.51-2.27,0-3.27-.26-3.27-.77v-.06c.1-.49,1.16-.93,4.02-.93,11.34,0,27.22.75,28.48.75s17.89-.75,25.44-.75c2.64,0,3.9.45,4.04.93h-.02s.02.04.02.06c0,.51-1.26.77-2.78.77-2.01,0-4,0-6.53.51-.39.08-.75.18-1.1.3-.26.08-.53.18-.77.32-.22.08-.45.18-.67.34-.2.08-.41.22-.61.37-.12.08-.22.16-.32.26-.18.12-.37.28-.53.45-.14.12-.26.24-.39.41-.32.34-.63.71-.89,1.12-.14.22-.28.47-.43.71-.34.59-.63,1.24-.89,1.95-.1.26-.2.55-.28.83-.28.85-.51,1.77-.69,2.76-.08.32-.14.65-.18.99-.1.69-.2,1.4-.28,2.11-.04.3-.06.61-.1.91,0,.14-.02.26-.04.39-.02.32-.04.63-.06.97-.04.39-.06.77-.08,1.18-.51,8.05-.51,15.11-.51,54.43v35.28c0,2.27.04,4.46.1,6.57.02,1.03.06,2.07.1,3.06.04.67.06,1.34.1,2.01.67,11.83,2.35,21.04,4.81,28.4.43,1.28.87,2.5,1.34,3.65.22.59.47,1.16.71,1.72.18.43.37.83.57,1.24,2.33,5.05,5.11,9.09,8.2,12.5.63.71,1.28,1.4,1.93,2.05.34.34.69.69,1.03,1.01,11.48,10.77,22.07,13.49,35.03,13.84.99.02,1.99.04,3.02.04.63,0,1.26-.02,1.87-.04.63-.02,1.24-.06,1.85-.1h.06c.49-.04.97-.1,1.46-.14.24-.04.47-.06.71-.08.51-.08,1.01-.14,1.52-.22v.02c12.68-1.91,24.51-8.52,32.09-17.59,8.72-10.81,12.58-25.62,13.97-43.34.11-1.4.21-2.79.29-4.27.08-1.48.14-2.98.2-4.54.08-2.92.14-5.92.14-8.99v-32.07c0-39.31,0-46.37-.51-54.43-.02-.53-.06-1.05-.12-1.58-.02-.39-.06-.77-.12-1.16-.04-.47-.1-.93-.18-1.38-.08-.53-.16-1.05-.28-1.54-.14-.75-.32-1.46-.55-2.15-.18-.57-.39-1.14-.63-1.66-.1-.24-.2-.49-.32-.73-.26-.53-.57-1.03-.89-1.5-.14-.2-.28-.41-.45-.59-.16-.22-.34-.43-.53-.63-.08-.08-.16-.18-.26-.26-.18-.18-.37-.37-.59-.55-.3-.26-.63-.53-.97-.75-.28-.18-.57-.34-.87-.51-.16-.1-.34-.18-.55-.26-.37-.18-.75-.34-1.16-.49-.34-.12-.69-.22-1.05-.3-.04-.02-.08-.04-.12-.04-.45-.12-.93-.2-1.42-.28-1.77-.26-3.77-.51-7.06-.51-2.27,0-3.27-.26-3.27-.77v-.06c.1-.49,1.16-.93,4.02-.93,11.34,0,25.46.75,26.72.75,1.5,0,13.61-.75,21.16-.75,2.64,0,3.89.45,4.02.93Z"/>
        <path class="cls-27" d="m1724.94,381.08c0,7.42-2.9,21.18-15.38,30.04-7.16,4.99-16.01,7.22-24.97,7.55-.79.02-1.56.04-2.35.04-7.97,0-15.8-1.1-23.59-4.52-.53-.22-1.03-.47-1.56-.71-.2-.12-.39-.22-.55-.34-.49-.34-.79-.69-.97-1.1-.24-.55-.28-1.22-.28-2.19,0-11.95.73-16.65.89-19.56.14-1.46.37-2.33.71-2.7.06-.06.12-.1.18-.14.06-.02.14-.04.2-.04.37,0,.37.55.37,1.99,0,1.64-.18,5.07,1.08,9.78.06.2.12.41.2.59.04.14.1.28.16.43.2.49.49.97.79,1.46.14.2.28.41.43.59.14.2.3.41.47.59,1.7,2.01,4.28,3.81,7.38,5.25.32.16.67.32,1.01.47.3.14.61.26.91.39.26.12.51.22.77.3.39.16.79.3,1.2.43.79.28,1.6.53,2.41.75.53.14,1.05.28,1.6.43,2.05.47,4.18.81,6.33,1.01.73.06,1.48.12,2.21.14.55.02,1.07.02,1.62.02,17.39,0,25.34-12.48,25.34-24.06,0-7.91-1.74-13.86-6.98-20.43-.75-.95-1.6-1.93-2.5-2.9-.55-.59-1.14-1.2-1.74-1.81-1.7-1.74-3.67-3.53-5.88-5.44-.89-.77-1.83-1.54-2.8-2.35l-8.16-6.71c-4.04-3.31-7.42-6.41-10.26-9.35-.43-.45-.85-.89-1.28-1.34-.65-.71-1.28-1.42-1.87-2.11-.49-.55-.93-1.1-1.38-1.64t-.02-.04c-7-8.72-9.07-16.25-9.07-24.4,0-18.74,13.57-31.73,35.28-32.54.69-.02,1.34-.04,2.03-.04h.14c7.06,0,12.31.73,16.84,1.81,3.43.73,5.44,1.1,7.61,1.1.34,0,.61.08.77.24.16.18.22.47.12.83-.55,2.17-1.26,5.8-1.08,15.92,0,4.3-.53,5.05-.89,5.07h-.02c-.08,0-.16-.04-.24-.16-.2-.32-.34-1.2-.49-3.1-.16-1.81-.34-4.89-2.35-7.97-.04-.06-.08-.12-.12-.18-.06-.06-.1-.14-.16-.2v-.02c-.1-.12-.22-.28-.39-.45-.06-.08-.14-.16-.24-.24-.08-.1-.16-.18-.26-.26-.1-.1-.2-.18-.3-.28-.02-.02-.04-.04-.06-.06-.2-.16-.41-.34-.63-.51-.02-.02-.02,0-.02,0-.08-.06-.16-.12-.24-.2-.08-.04-.14-.1-.22-.16-.26-.16-.55-.34-.85-.53-.08-.06-.18-.12-.28-.18-.24-.14-.51-.3-.79-.45-.06-.04-.14-.06-.2-.1-.51-.26-1.07-.53-1.68-.77-.47-.2-.97-.39-1.48-.57-.53-.18-1.1-.37-1.68-.53-1.18-.32-2.47-.63-3.92-.89-1.08-.2-2.23-.37-3.47-.49-1.66-.16-3.47-.26-5.42-.3-.41-.02-.83-.02-1.26-.02-12.5,0-21.71,7.79-21.71,21,0,7.47,1.99,13.13,9.66,20.83,1.46,1.48,3.14,3.02,5.05,4.65.47.43.97.83,1.48,1.26,1.52,1.28,3.16,2.62,4.97,4.02l5.07,4c4.52,3.55,8.32,6.84,11.5,9.96.37.34.71.69,1.03,1.03.34.34.69.69,1.01,1.01.32.34.63.67.95,1.01.95,1.01,1.81,1.99,2.6,2.96.26.32.53.65.79.97h0c6.77,8.55,8.89,16.17,8.89,25.2Z"/>
      </g>
    </g>
    <text class="cls-76" transform="translate(832.53 515.58)"><tspan x="0" y="0">Искусство совершенного тела</tspan></text>
  </g>
</svg>