<?xml version="1.0" encoding="utf-8"?>
<!DOCTYPE svg PUBLIC "-//W3C//DTD SVG 1.0//EN" "http://www.w3.org/TR/2001/REC-SVG-20010904/DTD/svg10.dtd">
<svg version="1.0" xmlns="http://www.w3.org/2000/svg" width="1300px" height="1300px" viewBox="0 0 1300 1300" preserveAspectRatio="xMidYMid meet">
 <g fill="#b6a58a">
  <path d="M951 1265.9 c0 -2.6 1.6 -4.8 8.8 -12.3 8.8 -9.3 40.9 -50.7 46.9 -60.5 7.2 -11.9 12.2 -27.3 14.2 -43.9 0.9 -7.6 0.9 -11 -0.4 -19 -2.9 -17.8 -11.7 -40 -22.4 -56.3 -5.5 -8.4 -18 -22.7 -19.8 -22.8 -0.8 -0.1 -1.3 -1.5 -1.3 -3.6 0 -3.3 0.2 -3.5 3.5 -3.5 1.9 0 3.5 0.5 3.5 1 0 0.6 0.6 1 1.4 1 0.8 0 6.7 5 13 11.1 10.3 9.9 11.6 10.8 11.6 8.5 0 -2.3 0.4 -2.6 3.4 -2.6 3.9 0 9.6 4.2 15.7 11.5 7.8 9.5 14.2 25.1 15.5 38.2 0.5 4.4 1 6 1.4 4.7 1.1 -2.9 5.1 -39.9 5.1 -46.8 0 -13.1 -8.1 -34.2 -17.8 -46.9 -6.8 -8.8 -19.2 -21.1 -23 -22.8 -2.7 -1.1 -3.3 -1.9 -3.3 -4.5 0 -2.7 0.4 -3.2 3.1 -3.8 1.7 -0.3 4.6 -0.6 6.3 -0.6 3.1 -0.1 3 -0.2 -4.8 -7.7 -9 -8.5 -18.2 -16 -27.3 -22.2 -5.8 -3.8 -6.3 -4.5 -6.3 -7.8 l0 -3.6 7.9 0.7 c4.3 0.3 10.2 1.3 13.2 2.2 13.5 4 28.3 14.7 39.3 28.5 3.3 4.1 6.4 7.9 6.9 8.4 3.2 3.7 -7.8 -25.5 -15.3 -40.5 -5.9 -11.7 -14.9 -24.1 -22.9 -31.3 -12.3 -11.1 -30.1 -19.5 -46 -21.7 -13.2 -1.8 -34.5 1.6 -50.4 8.1 -7.1 2.8 -18.9 9.6 -19.5 11.1 -0.2 0.4 -1.9 0.8 -3.8 0.8 -3.1 0 -3.4 -0.2 -3.4 -3.1 0 -1.7 0.6 -3.6 1.3 -4.2 3.4 -3.4 10.8 -8.9 16.2 -12.1 3.3 -2 5.4 -3.6 4.7 -3.6 -0.9 0 -1.2 -1.2 -1 -3.7 0.3 -3.1 1 -4.1 5.8 -7.5 7.1 -4.9 19 -8.6 31 -9.6 l9.5 -0.7 -9 -3.8 c-19.2 -8.2 -36.5 -10.1 -52 -5.8 -9.9 2.8 -24.3 10.2 -30.6 15.9 -3.3 3 -5.6 4.2 -7.7 4.2 -2.9 0 -3.1 -0.2 -3.4 -4.5 l-0.3 -4.6 -8 5.5 c-4.4 3 -11.3 8.5 -15.4 12.1 -6 5.2 -8.1 6.5 -10.8 6.5 -3.2 0 -3.3 -0.1 -3.3 -4.3 0 -10.2 12.9 -26.9 27 -35.1 16.6 -9.7 36.8 -15.5 57.5 -16.5 l13 -0.6 -8.3 -2.3 c-30.8 -8.6 -58.8 -9.5 -90.6 -3.1 -21.2 4.3 -47.2 15.2 -66.8 28.1 -8.4 5.5 -10.8 7.7 -17.9 16.8 -36 46.4 -46.6 76.8 -37.4 108.3 6.6 22.9 14.7 37.9 27 50.2 7.6 7.6 18 14.5 21.9 14.5 1.2 0 1.6 0.9 1.6 3.5 l0 3.5 -5.2 0 c-13.3 -0.1 -31.7 -13 -43.2 -30.4 -2.1 -3.1 -5.5 -9.4 -7.7 -13.9 -4.3 -9.1 -5 -8.4 -1.8 1.9 6.2 20.1 20.7 39.8 36 48.7 8.8 5.2 20.8 8.8 28.9 8.9 10.5 0 23.1 -5.4 30.5 -13.2 2.1 -2.1 3.8 -3 6.2 -3 3.2 0 3.3 0.1 3.3 4.4 0 4 -0.6 5.1 -5.4 10.3 -6 6.5 -12 10.2 -21.1 13 l-6 1.8 8.8 0.3 8.7 0.3 0 3.4 c0 3.1 -0.3 3.5 -3.7 4.2 -2.1 0.4 -9.1 0.8 -15.5 0.8 l-11.7 0 5.5 2.8 c11.7 5.9 28.3 8.3 41 5.8 22.5 -4.4 42.1 -18.2 50.7 -35.8 1.8 -3.8 2.5 -4.3 5.4 -4.3 3.1 0 3.3 0.2 3.3 3.8 0 8.1 -8.6 21.5 -19.8 30.8 -7.5 6.2 -23.4 14.4 -33.2 17 -9.2 2.5 -33 2.6 -42 0.1 -15.7 -4.3 -28.6 -12.3 -44.9 -28.1 l-11.5 -11.1 4.5 6.5 c9.9 14.6 29.6 31.4 46.7 39.9 15.5 7.8 37.5 13.1 54.2 13.1 36.6 0 76.5 -20.3 95.9 -48.8 20.9 -30.8 23.3 -65.9 6.9 -98.6 -9.3 -18.4 -28.2 -30.7 -45.3 -29.4 -9.3 0.8 -19.1 5.6 -26 12.9 -14.5 15.2 -14.7 32.3 -0.6 47.2 8.5 9 19 13.1 27.3 10.8 9.6 -2.7 18.8 -13.3 18.8 -21.5 0 -4.9 -5.4 -13.3 -10.8 -16.7 -6 -3.8 -8.5 -4.4 -12.2 -2.9 -4.7 1.9 -4.4 2.7 0.8 2.2 10.4 -1 15.7 4.1 15.7 14.8 0 10.7 -4.6 15 -16 15 -13.2 0 -20.2 -8.2 -19.3 -22.6 0.7 -11.3 7.6 -18 19.6 -19.1 9.2 -0.9 16.3 1.7 22.8 8.1 6.6 6.7 8.9 13.3 8.2 24 -1.1 16.5 -12 27 -29.4 28.3 -33.5 2.6 -55.4 -32.4 -40.4 -64.4 7.1 -15.4 23.8 -25.1 43.3 -25.4 l6.2 -0.1 -5.2 -2.3 c-6.9 -3.2 -16.1 -5.5 -24.5 -6.2 -7.2 -0.6 -29.8 2.3 -29.8 3.9 0 0.4 -1.6 0.8 -3.5 0.8 -3.3 0 -3.5 -0.2 -3.5 -3.5 0 -3 0.3 -3.5 2.4 -3.5 1.3 0 2.6 -0.4 2.8 -0.9 0.6 -1.8 15.8 -4.1 27.3 -4.1 30.5 0 53.5 11.3 71.7 35.4 7.5 9.9 11.9 19.2 15.3 32 10.4 40.2 1 80.3 -25.2 107.1 -21.6 22.2 -50.2 35.1 -82.6 37.4 -57.9 4.2 -104.8 -21.2 -133.4 -71.9 -9 -15.9 -17.3 -43.1 -19.3 -62.9 -5 -50.4 9.2 -95.7 41.2 -132 21.3 -24.2 56.2 -45.4 90.8 -55.2 41.1 -11.6 93.5 -9.8 131.5 4.6 2.4 0.9 -6.3 -7.1 -28.4 -26.4 -15.3 -13.2 -53.2 -44.2 -50.3 -41.1 0.7 0.8 1.2 4.1 1.2 8.2 0 6.1 -0.3 7 -3.2 10.3 -3.6 4.2 -14 11.5 -16.2 11.5 -1.5 0 -4.6 1.2 -13.1 5 -3.7 1.6 -6.5 2.3 -20.3 5 -2.9 0.5 -10.5 1 -16.7 1 l-11.5 0 0 -2.7 c0 -8.6 6.9 -26.5 10.6 -28 0.8 -0.3 1.4 -1.1 1.4 -1.9 0 -0.8 2.3 -3 5 -5 2.8 -2 5 -3.9 5 -4.3 0 -0.9 9.9 -4.1 12.8 -4.1 1.1 0 2.2 -0.5 2.4 -1.1 0.8 -2.5 19.9 -4.6 26.4 -3 2.6 0.7 4.8 1 5 0.8 1 -1 -35.4 -25.8 -55.6 -37.9 -32.3 -19.4 -48.2 -26.1 -69.6 -29.3 -17.3 -2.6 -32.6 -0.2 -47.2 7.5 -34.6 18 -49.4 55.5 -34.1 86.4 15.4 31 47.6 41.7 75.4 25.1 11.8 -7.1 20 -17.6 23 -29.3 2.1 -8.3 1.3 -14.3 -3.1 -23.2 -6 -11.9 -17.7 -20 -28.9 -20 -14.4 0 -30.6 13.9 -30.7 26.4 -0.1 5.2 4.3 13.8 8.7 17.1 7.9 5.9 15.6 5.3 22.9 -1.8 5.1 -4.8 6.4 -8.4 4.6 -12.7 -1.6 -3.8 -6.5 -8 -9.4 -8 -2.8 0 -7.1 2.9 -4.4 3 2.7 0 4.8 4 4.8 9 0 7.1 -1.9 9 -9.1 9 -9.2 0 -11.5 -3.3 -10.7 -15.5 0.3 -5.5 0.8 -6.9 3.3 -9.6 4.1 -4.4 8.3 -5.9 16 -5.9 13.2 0 20.5 7.6 20.5 21.3 0 10.7 -4.9 18.7 -14.2 22.8 -4.2 1.8 -7.1 2.3 -13.9 2.3 -7.6 0.1 -9.2 -0.2 -14.4 -2.9 -6.3 -3.3 -11.6 -9.6 -13.5 -16.3 -1.7 -6.2 -1.2 -19.6 0.9 -25.1 3.9 -10.4 13.3 -18.3 25.5 -21.6 8.7 -2.4 22.8 -1.7 30.9 1.4 7.9 3.1 16.7 11.7 20.7 20.3 7.4 15.8 5.7 38.2 -4 52.3 -7.1 10.3 -21.5 19.8 -35 22.9 -8.4 2 -26.5 2 -34.9 0.1 -16.6 -3.9 -31.6 -16.4 -39.5 -32.8 -6.1 -12.6 -8 -22.5 -7.3 -38.1 1 -24.2 10.9 -43.4 29.8 -57.8 13.8 -10.6 27.6 -15.6 45.8 -16.5 l11.4 -0.6 -8.9 -3.4 c-27 -10.2 -73.2 -21.3 -89 -21.3 -5.8 0 -36.7 11.2 -53.9 19.5 -24.3 11.8 -41.2 23.7 -50.8 35.9 -7.8 9.9 -15.7 21.6 -15.7 23.3 0 0.8 -1.5 1.3 -4 1.3 -3.4 0 -4.2 0.4 -5 2.6 -0.6 1.4 -1 3.6 -1 5 0 2.1 -0.4 2.4 -3.9 2.4 -3.6 0 -4.2 -0.4 -7 -4.9 -2 -3.1 -3.7 -7.5 -4.5 -11.8 l-1.2 -6.8 -0.7 4.9 c-0.4 2.7 -0.7 6.7 -0.7 8.9 l0 4 -5 -0.5 -5.1 -0.5 0.7 4.6 c2.6 17.8 15.2 30.5 33.1 33.5 9.7 1.7 20.3 -8.3 20.3 -19 0 -2.2 0.4 -2.4 4.4 -2.4 7.6 0 15.5 6.7 18 15.2 0.9 2.9 20.4 -12.3 23.6 -18.4 2.3 -4.5 2.4 -4.9 1.1 -10.5 -0.7 -3.2 -1.6 -7.5 -1.8 -9.5 -0.5 -3.8 -0.5 -3.8 2.9 -3.8 3 0 4.4 0.9 9.2 6 9.7 10.2 13.3 21.7 12.3 39.5 -0.7 11.9 -5.3 27.4 -11.3 38.2 -1.8 3.4 -3.4 6.4 -3.4 6.7 0 0.4 1.1 1.1 2.5 1.6 2 0.8 2.5 1.6 2.5 4.4 0 4.5 -4.2 8.1 -16.5 14.2 -13.7 6.7 -19.3 7.9 -37.5 7.8 -17.9 -0.1 -25.9 -1.8 -39.9 -8.4 l-8.3 -4 -3.4 2.9 c-5.3 4.7 -14.2 5.4 -18.6 1.4 -2.5 -2.3 -2.5 -9.3 0 -9.3 2.2 0 4.2 -1.9 4.2 -4 0 -0.9 -3.2 -6.1 -7.1 -11.6 -8.4 -11.7 -11.9 -18.3 -15.1 -28.4 -2.1 -6.8 -2.3 -9.3 -2.2 -25.5 0 -16.3 0.3 -18.9 2.8 -28 5.1 -18.8 14.7 -34.9 26.3 -43.9 2.8 -2.3 5.2 -4.4 5.2 -4.8 0.1 -0.4 -1.9 -1 -4.4 -1.4 -2.6 -0.3 -5.2 -1.3 -6 -2.1 -1.3 -1.2 -3.1 -0.6 -14.2 5 -24 12 -41.9 24.6 -60.2 42.2 -18.4 17.8 -30.2 33.7 -41.3 55.9 -13.3 26.4 -21.9 63.2 -22 93.6 -0.2 36 11.3 64.4 35.6 88.6 20.5 20.5 43.4 31.8 72 35.5 14.3 1.8 25.1 0.1 38.6 -6.4 11.7 -5.5 23.8 -17.5 29.8 -29.4 10.7 -21.6 9 -39.1 -5.2 -52 -5.6 -5.2 -14.9 -9.3 -20.5 -9.3 -4.2 0.1 -10.6 3.5 -13.4 7.1 -4.1 5.4 -4.9 8.5 -3.2 11.9 1.8 3.4 5.4 6.2 6.9 5.2 0.7 -0.4 0.4 -0.8 -0.6 -1 -1.3 -0.2 -1.8 -1.3 -1.8 -3.8 l0 -3.4 5.5 0 5.5 0 0 6.4 c0 4.1 -0.5 6.8 -1.2 7.3 -0.9 0.5 -0.3 0.9 1.7 1.3 2.9 0.5 3 0.7 3 6 l0 5.5 -5.5 0 -5.5 0 -0.3 -5.2 c-0.3 -5.1 -0.4 -5.3 -3.2 -5.3 -1.5 0 -3.6 -0.3 -4.5 -0.7 -1.5 -0.5 -1.6 -0.3 -0.5 1.7 1.9 3.6 0.7 12 -2 14.2 -3.2 2.6 -13.3 2.5 -15.9 -0.1 -4.1 -4.1 -3.5 -15.7 0.9 -18.1 1 -0.5 4.1 -1 6.9 -1 l4.9 0 -1.5 -3.1 c-1.1 -2.1 -1.4 -5.2 -1.1 -10.3 0.4 -9.2 4.1 -15.8 10.8 -19.6 4 -2.2 5.6 -2.5 15 -2.4 13.4 0 19.6 2.3 28 10 9.1 8.5 13 18.4 13 33.2 0 31.3 -19.2 58.9 -48.1 68.7 -7.5 2.6 -10.1 2.9 -24.2 3.3 -17.6 0.5 -30.2 -1.1 -44.2 -5.5 -38.8 -12.3 -69.6 -42.5 -81.9 -80.3 -6.3 -19.5 -7.1 -25 -7.1 -50.5 0 -31.6 3.1 -51.5 11.9 -78 9.3 -27.8 22.2 -50.2 42.2 -73 l6.5 -7.5 -4.3 0.7 c-2.4 0.5 -11.9 0.8 -21.3 0.8 -14.6 0 -18.1 -0.4 -24.9 -2.3 -23.4 -6.7 -38.9 -18.9 -43.7 -34.3 -5.2 -16.8 0.8 -38.3 13.4 -47.9 8.4 -6.3 15.2 -8.3 28.2 -8.4 10 -0.1 11.5 0.2 17 2.7 11.6 5.4 16.4 12.4 16.5 24 0 7.3 -1.7 11.9 -4.9 13.7 -1.1 0.5 -4.8 1 -8.4 1 -8.7 0 -10.7 -2.1 -10.7 -10.9 0 -5.4 0.3 -6.5 2.6 -8.6 1.8 -1.7 3.9 -2.5 6.2 -2.5 3.3 0 3.4 -0.1 2 -2.2 -0.8 -1.3 -3.6 -3.6 -6.1 -5.2 -5.1 -3.2 -14.6 -4.5 -20.7 -2.9 -2.9 0.8 -3.5 1.4 -3.8 3.9 -0.1 1.6 -0.8 3.9 -1.4 5.2 -1 1.9 -0.9 2.5 0.2 3.2 0.8 0.5 1.5 3.2 1.8 6.9 l0.4 6.1 3.9 0 c3.6 0 3.9 0.2 3.9 2.7 0 1.5 -0.7 4.6 -1.6 6.8 -1.4 3.7 -1.4 4.9 0 11.1 0.8 3.8 1.5 6.2 1.5 5.3 0.2 -3.4 4.5 -5.9 10.3 -5.9 7 0 8.8 1.7 8.8 8.7 0 5.7 -2 8.3 -6.3 8.3 -3.6 0 -3.4 1 1 3.9 9.1 5.9 25.3 8.5 37.5 6.1 10 -1.9 21 -6.7 28.2 -12.1 56.1 -42.4 134.4 -63.8 215.5 -58.8 11.9 0.8 24.7 1.3 28.6 1.2 4.2 -0.2 7.2 0.2 7.6 0.8 0.4 0.6 4.4 1.7 9 2.4 31.5 5 74.6 19.1 112.3 36.9 l11.8 5.6 -12.3 -13.1 c-25.5 -27 -44.3 -48.9 -61.8 -72.2 -11 -14.7 -11.1 -14.8 -11.1 -11 0 5.2 -1 8.3 -2.5 8.3 -0.7 0 -1.5 0.9 -1.8 1.9 -1.1 4.3 -14.2 8.5 -30.5 9.7 -7.1 0.5 -9.6 0.4 -10.2 -0.6 -0.5 -0.9 -4.6 -1.2 -14.4 -1.3 -9.7 -0.1 -13.6 -0.4 -13.6 -1.3 0 -0.7 -2.6 -1.3 -7.1 -1.6 -3.9 -0.3 -7.4 -1 -7.8 -1.5 -0.3 -0.6 -2.4 -1.3 -4.5 -1.7 -5.2 -1 -16.6 -5.6 -16.6 -6.7 0 -0.5 -0.6 -0.9 -1.2 -0.9 -0.7 0 -4.1 -1.3 -7.5 -3 -5.9 -2.7 -6.3 -3.1 -6.3 -6.2 0 -2.4 1.3 -4.9 4.6 -9 2.5 -3.2 5 -5.8 5.5 -5.8 0.5 0 0.9 -0.6 0.9 -1.3 0 -2.4 13.8 -11.7 17.3 -11.7 0.8 0 2.4 -0.9 3.6 -1.9 2.4 -2.1 10.1 -4.1 15.6 -4.1 2 0 3.5 -0.5 3.5 -1.1 0 -2.1 29.3 0.6 38.5 3.5 2.8 0.9 6.1 1.6 7.4 1.6 1.3 0 4 1 5.9 2.2 2.2 1.3 3.2 1.6 2.7 0.7 -0.5 -0.8 -2.3 -3.6 -4.1 -6.4 -1.7 -2.7 -6.1 -11.1 -9.8 -18.5 -9.3 -18.7 -9.1 -18.4 -16.4 -28.9 -26.3 -38.1 -62.7 -66.2 -100.4 -77.5 -15.4 -4.6 -23.6 -5.9 -38.3 -6 -21.3 0 -32 3.6 -37.2 12.9 -1.3 2.2 -2.3 4.2 -2.3 4.5 0 0.3 3.1 0.5 6.9 0.5 5.9 0 7.3 0.3 9.5 2.4 3.5 3.3 4.9 8.2 4.4 15.3 -0.4 5 -0.9 6.4 -3.6 9.1 -2.8 2.8 -3.9 3.2 -10.1 3.5 -3.8 0.2 -8.5 -0.1 -10.3 -0.7 -4.2 -1.4 -9.2 -6.5 -10.7 -11 -1.5 -4.6 -1.4 -13.5 0.3 -19.9 l1.5 -5.4 -2.2 1.5 c-4.2 2.7 -20.9 27.5 -26.4 39.2 -2.6 5.5 -2.8 6.9 -2.7 17.3 l0.1 11.2 -3.5 0 c-3.8 0 -10.9 -3.6 -15.5 -7.8 l-2.7 -2.6 0 7.1 c0 13.1 -5.7 24.3 -12.5 24.3 -2.4 0 -3.5 -0.5 -3.8 -1.7 -0.3 -1 -0.5 0.1 -0.6 2.4 0 2.3 -0.6 6.3 -1.2 9 -1 4.1 -0.9 5.4 0.5 8.1 0.9 1.7 1.6 4.5 1.6 6.2 0 2.7 -0.3 3 -3 3 -1.6 0 -5.3 -0.9 -8.1 -1.9 l-5.1 -2 1.8 2.1 c1.1 1.2 5.3 5 9.4 8.5 13.3 11.4 37.6 21.2 53.5 21.5 11.1 0.2 27.1 -6.3 36.3 -14.8 l4.7 -4.3 -3.1 -0.1 c-5.9 0 -12.8 -2.8 -16.6 -6.7 -5.1 -5.2 -6.8 -9.9 -6.8 -18.3 0 -8.5 2.2 -13.5 7.7 -17.7 3.4 -2.6 4.2 -2.8 13.8 -2.8 9.4 0 10.5 0.2 14.3 2.8 5.9 3.9 9.3 10.9 9.9 20.8 1 13.7 -3.3 24.5 -13.4 33.9 -6.9 6.5 -16.8 11.8 -27.3 14.7 -5.1 1.4 -10.1 1.8 -22.5 1.7 -14.4 0 -16.9 -0.3 -24.8 -2.7 -33.2 -10.2 -58.1 -35.2 -65.9 -66.2 -1.9 -7.6 -2.2 -11.7 -2.2 -27 -0.1 -20 1.5 -29.2 7.3 -41.9 12.2 -27 39.8 -46.3 76.2 -53.5 l9.4 -1.9 -3.5 -1.3 c-8.3 -3 -23.2 -11.4 -30.7 -17.4 -14.4 -11.4 -23.8 -24.9 -29.9 -43.5 -2.7 -8 -2.8 -9.5 -2.9 -26.5 0 -17.7 0.1 -18.2 3.1 -26.8 4.1 -11.3 8.4 -18.5 16.2 -26.8 7.7 -8.3 16.3 -14 27.3 -18.1 7.4 -2.8 9.9 -3.2 21.4 -3.6 14.7 -0.4 22.3 0.8 32.7 5.6 17.2 7.9 31.6 25 36.3 42.9 2.2 8.4 2 26.5 -0.4 34.2 -6.9 22.2 -29.4 35.9 -53 32.2 -10.4 -1.5 -18.4 -5.7 -25.5 -13 -8.5 -9 -11 -15.1 -11.4 -28.3 -0.5 -14.4 1.1 -19.3 8.7 -26.8 7.3 -7.3 13.6 -9.4 25.4 -8.8 15.9 0.9 26.2 10.1 28.1 25.3 2.1 16.3 -7.1 27.5 -22.4 27.5 -8.1 0 -13.7 -2.4 -17.6 -7.6 -2.7 -3.5 -2.9 -4.3 -2.9 -13.1 0 -9.1 0.1 -9.3 3.2 -12.5 2.7 -2.7 4.1 -3.2 9.2 -3.6 5.4 -0.4 6.2 -0.2 8.5 2.1 3.4 3.4 3.6 10.2 0.5 14.1 -1.7 2.1 -2.9 2.6 -6.5 2.6 -4.2 0 -4.4 0.1 -3.4 2.1 1.3 2.3 6.7 5.9 9.1 5.9 3 0 8.4 -4.5 10.6 -8.8 1.8 -3.6 1.9 -4.8 1 -7.8 -2.4 -7.7 -12.9 -16.3 -20 -16.4 -3.4 0 -10.2 3.3 -14 6.9 -4.4 4.1 -7.9 11.7 -7.9 17.3 0 11.1 11.6 26.1 23.9 30.9 8.9 3.4 15.6 3 24.7 -1.5 16.3 -8 26.4 -26 23.5 -42 -3.2 -17.9 -17.1 -35.6 -34.4 -44 -12.3 -5.9 -24.1 -7.3 -35.2 -4.1 -35.9 10.5 -56.9 47.2 -46.8 82 7.2 24.7 22.9 42.7 48 55 17.8 8.7 32.5 12.5 58.2 15 57.4 5.7 102.6 26.7 141.5 65.7 8.2 8.2 12.3 11.8 11.7 10 -0.6 -1.5 -2.6 -9 -4.4 -16.7 -1.9 -7.7 -4.3 -16.7 -5.5 -19.9 -1.1 -3.3 -2 -7 -2 -8.3 0 -1.2 -0.4 -2.3 -0.8 -2.3 -0.4 0 -1.6 -2.4 -2.7 -5.2 -3.2 -9.2 -14.1 -36 -18.4 -45.2 -2.2 -4.9 -4.1 -9.7 -4.1 -10.7 0 -0.9 -0.4 -1.9 -0.9 -2.1 -1 -0.4 -13.1 -24.1 -13.1 -25.8 0 -0.7 -0.6 -1.8 -1.4 -2.4 -0.7 -0.6 -3.3 -4.9 -5.7 -9.6 -2.4 -4.7 -4.7 -8.7 -5 -9 -0.3 -0.3 -1.9 -3 -3.5 -6 -1.6 -3 -3.5 -6 -4.2 -6.8 -0.6 -0.7 -1.2 -2 -1.2 -2.8 0 -0.8 -0.4 -1.4 -1 -1.4 -0.5 0 -1.2 -1.1 -1.6 -2.5 -0.3 -1.4 -1 -2.5 -1.5 -2.5 -0.5 0 -0.9 -0.5 -0.9 -1 0 -0.6 -0.9 -2.1 -2 -3.3 -1.2 -1.2 -2.3 -3.2 -2.6 -4.4 -0.4 -1.3 -1 -2.3 -1.5 -2.3 -0.5 0 -0.9 -0.7 -0.9 -1.5 0 -0.8 -0.4 -1.5 -1 -1.5 -0.5 0 -1 -0.7 -1 -1.5 0 -0.8 -0.4 -1.5 -1 -1.5 -0.5 0 -1 -0.7 -1 -1.5 0 -0.8 -0.4 -1.5 -1 -1.5 -0.5 0 -1 -0.7 -1 -1.5 0 -0.8 -0.4 -1.5 -1 -1.5 -0.5 0 -1 -0.7 -1 -1.5 0 -0.8 -0.4 -1.5 -1 -1.5 -0.5 0 -1 -0.4 -1 -0.9 0 -0.6 -1.1 -2.2 -2.5 -3.7 -1.4 -1.5 -2.5 -3.1 -2.5 -3.5 0 -0.4 -1.1 -2 -2.5 -3.5 -1.4 -1.5 -2.5 -3.3 -2.5 -3.9 0 -0.7 -0.7 -1.5 -1.5 -1.9 -0.8 -0.3 -1.5 -1.2 -1.5 -2 0 -0.7 -0.7 -1.6 -1.5 -2 -0.8 -0.3 -1.5 -1.2 -1.5 -2 0 -0.7 -0.7 -1.6 -1.5 -2 -0.8 -0.3 -1.5 -1.1 -1.5 -1.8 0 -0.7 -0.9 -1.9 -2 -2.6 -1.1 -0.7 -2 -1.8 -2 -2.6 0 -0.8 -0.7 -1.6 -1.5 -2 -0.8 -0.3 -1.5 -1.4 -1.5 -2.5 0 -1 -0.9 -2.1 -2 -2.4 -1.1 -0.3 -2 -1.3 -2 -2.4 0 -1 -1 -2.3 -2.2 -2.8 -1.3 -0.6 -2.4 -2 -2.6 -3.3 -0.2 -1.2 -0.9 -2.2 -1.6 -2.2 -1.8 0 -4.6 -3.3 -4.6 -5.3 0 -0.9 -0.6 -1.7 -1.3 -1.7 -1.9 0 -5.7 -4.3 -5.7 -6.3 0 -0.9 -0.6 -1.7 -1.3 -1.7 -0.7 0 -3 -1.8 -5 -3.9 -2.6 -2.8 -3.7 -4.8 -3.7 -7 0 -2.8 0.3 -3.1 3.1 -3.1 3.5 0 10.9 6.2 10.9 9.2 0 1 0.6 1.8 1.3 1.8 1.9 0 5.7 4.3 5.7 6.3 0 0.9 0.6 1.7 1.3 1.7 1.8 0 4.7 3.2 4.7 5.1 0 0.8 1 1.9 2.3 2.4 1.2 0.6 2.3 2 2.5 3.1 0.2 1.2 1.2 2.4 2.3 2.7 1.1 0.3 1.9 1.4 1.9 2.6 0 1.2 0.6 2.1 1.5 2.1 0.9 0 1.9 0.8 2.2 1.8 0.4 0.9 1.5 2.3 2.5 3 1 0.7 1.8 1.9 1.8 2.6 0 0.8 0.7 1.6 1.5 2 0.8 0.3 1.5 1.2 1.5 2 0 0.7 0.7 1.6 1.5 2 0.8 0.3 1.5 1.2 1.5 2 0 0.7 0.7 1.6 1.5 2 0.8 0.3 1.5 1 1.5 1.5 0 0.6 1.1 2.2 2.5 3.7 1.4 1.5 2.5 3.1 2.5 3.5 0 0.4 1.1 2 2.5 3.5 1.4 1.5 2.5 3.3 2.5 4 0 0.8 0.5 1.4 1 1.4 0.6 0 1 0.7 1 1.5 0 0.8 0.5 1.5 1 1.5 0.6 0 1 0.7 1 1.5 0 0.8 0.5 1.5 1 1.5 0.6 0 1 0.7 1 1.5 0 0.8 0.5 1.5 1 1.5 0.6 0 1 0.7 1 1.5 0 0.8 0.5 1.5 1 1.5 0.6 0 1 0.7 1 1.5 0 0.8 0.5 1.5 1 1.5 0.6 0 1 0.5 1 1 0 0.6 0.9 2.1 2 3.3 1.2 1.2 2.3 3.2 2.6 4.4 0.4 1.3 1 2.3 1.5 2.3 0.5 0 0.9 0.7 0.9 1.5 0 0.8 0.4 1.5 0.9 1.5 0.5 0 1.3 1 1.7 2.2 0.3 1.2 1.3 2.8 2 3.6 0.8 0.7 1.4 2 1.4 2.8 0 0.8 0.4 1.4 0.9 1.4 0.5 0 2.1 2.6 3.7 5.8 1.6 3.1 3.2 5.9 3.5 6.2 1.5 1.2 9.9 17.4 9.9 19.1 0 1.1 0.4 1.9 1 1.9 1.1 0 13 23.2 13 25.4 0 0.8 0.4 1.6 0.8 1.8 0.9 0.3 12.1 25.5 16.8 37.8 2.7 7 2.9 7.3 3.2 4.1 0.3 -3.1 -1 -19.3 -2.5 -31.3 -0.5 -4.3 -0.4 -4.7 1.8 -5.1 2.3 -0.4 2.3 -0.4 -0.2 -0.6 -2.6 -0.1 -2.6 -0.3 -3.3 -9.3 -0.3 -5 -0.6 -11.3 -0.6 -14 l0 -4.8 3.5 0 3.5 0 0 7.5 c0 4.1 0.3 7.5 0.8 7.5 0.4 0 1.7 -3.6 2.9 -8 6.5 -23.3 18.5 -41.5 37.9 -57.8 21.7 -18.2 45.5 -27.7 72.4 -28.9 15.6 -0.7 27.2 0.7 46 5.5 13.5 3.4 15.4 3.6 27.8 3.4 l13.2 -0.2 0 2.9 c0 2.7 0.5 3.1 6.1 5 8.4 2.8 17.3 8 24.1 13.9 5.8 5.1 10.1 6.9 13.8 5.7 1.2 -0.4 5.5 -0.3 9.7 0 l7.5 0.8 -0.5 4.8 c-0.6 4.6 -0.5 4.9 1.7 4.9 2.8 0 5 -2.3 7.1 -7.4 1.5 -3.6 1.5 -4 -0.9 -9.2 -2.9 -6.3 -6.1 -8.4 -10.1 -6.6 -1.4 0.7 -3.9 1.2 -5.5 1.2 l-3 0 0 -7.5 0 -7.4 -5.5 -1.6 c-6 -1.8 -8 -1.3 -11.3 3 -1.4 1.7 -3 2.5 -5.1 2.5 l-3.1 0 0 -5.7 c0 -14 10.3 -23.1 30.1 -26.5 6.3 -1.1 6.9 -1.4 6.9 -3.6 0 -2.3 0.2 -2.4 5.3 -2 11.1 1 23.7 9.9 29.2 20.8 1.5 2.9 3.5 8.4 4.5 12.3 1.7 6.8 2 7.2 5 7.8 4 0.9 5 2.3 5 7.6 0 4.1 -0.1 4.2 -3.7 4.5 -3.8 0.3 -3.8 0.4 -6.5 8.1 -4.7 13.3 -11.1 20.6 -23.4 26.6 -8.7 4.2 -18.9 6.3 -28.6 5.9 l-7.8 -0.3 0 2.9 0 2.9 -6.6 -0.6 c-4.4 -0.3 -8.5 -1.4 -12.5 -3.4 l-5.9 -3 0 12.1 c0 22.8 -6.6 36.5 -22.5 46.8 -9.3 6.1 -17.2 8 -30.7 7.6 -10.3 -0.3 -11.9 -0.6 -18.1 -3.5 -8.4 -4 -17.3 -12.6 -21.2 -20.6 -6.9 -14.3 -3 -33.9 7.9 -39.1 4 -1.9 13.4 -2.1 17.1 -0.4 2 0.9 2.5 1.8 2.5 4.5 l0 3.4 -6 -0.3 c-5.3 -0.2 -6.2 0 -8.9 2.6 -3.8 3.6 -6.3 8.9 -6.3 13.1 0 4.9 5.8 15 11.5 20 8 7 15 10 23.2 10 6 0 8.1 -0.5 14.8 -3.7 18.8 -9 28.7 -27.3 25.2 -46.9 -3.5 -20 -13.7 -35.2 -31.2 -46.6 -17.1 -11.1 -33.4 -15.8 -54.8 -15.7 -10.6 0.1 -14.8 0.6 -22.8 2.7 -11.3 3 -25.7 9.6 -36 16.4 -9 5.9 -23.1 19.5 -30.1 28.8 -16.9 22.4 -24.7 54.4 -22.1 91 l0.8 11 1.7 -6 c7 -24.4 23.3 -46.7 40 -54.9 4.1 -2 9.9 -4.1 12.9 -4.6 26.2 -4.9 51.7 10.7 57.1 35 1.9 8.6 0.9 27.1 -1.9 34.2 -2.8 7.3 -10.5 15.8 -17.3 19.2 -9.6 4.8 -25.7 2.9 -30.2 -3.5 -1.1 -1.6 -1.6 -4.5 -1.6 -9.5 0 -6.4 0.3 -7.4 2.6 -9.8 2.4 -2.3 3.5 -2.6 9.3 -2.6 5.4 0 7.2 0.4 9 2.1 2.8 2.7 4.1 6 4.1 11 0 2.1 0.4 3.9 0.9 3.9 2.2 0 9.9 -7.3 12.4 -11.8 3.2 -5.9 6.2 -18.1 5.3 -21.7 -0.5 -2.1 -1.2 -2.5 -4.1 -2.5 -1.9 0 -3.5 -0.4 -3.5 -1 0 -0.5 -1.4 -1.7 -3.1 -2.6 -2.5 -1.2 -3.3 -1.3 -3.9 -0.4 -0.6 0.9 -3 1.1 -8.4 0.8 l-7.6 -0.5 0 3.9 c0 3.6 -0.2 3.8 -3 3.8 -1.7 0 -4.9 -1.2 -7.2 -2.7 -3.7 -2.5 -5.2 -2.8 -13.7 -3 -5.3 -0.2 -8.9 0 -8.1 0.4 5.5 2.2 8.3 9.8 6.1 16.6 -1.3 4 -4.4 5.7 -10.2 5.7 -5.9 0 -9.2 -3.6 -8.7 -9.6 0.2 -2.4 0 -4.4 -0.4 -4.4 -2.2 0 -9.3 9.3 -13.2 17.1 -5.7 11.2 -8 21.4 -7.4 32.2 0.8 13.2 14.1 50.7 27.1 76.2 4.4 8.6 4.6 8.9 4.6 5.3 0.1 -2.1 0.5 -3.8 0.9 -3.8 0.5 0 1.4 -2.8 2 -6.2 0.6 -3.4 1.5 -6.4 2 -6.7 0.4 -0.3 1.7 -3.5 2.7 -7 1.1 -3.6 3.1 -7.7 4.5 -9.2 1.4 -1.5 4 -4.6 5.8 -6.8 1.8 -2.3 3.9 -4.1 4.6 -4.1 0.7 0 2.1 -0.9 3.2 -2.1 4 -4.4 14.9 -8.4 26.6 -9.6 l5.8 -0.6 0 11.9 c0 11.3 -1.6 23.7 -3.9 29.7 -0.6 1.6 -1.1 3.7 -1.1 4.8 0 1.1 -1.3 4 -3 6.4 -1.6 2.4 -3 5.2 -3 6.2 0 1.1 -0.7 2.8 -1.5 3.9 -0.8 1 -1.5 2.8 -1.5 3.8 0 2.8 -5.2 10.4 -10.9 16 -3.8 3.8 -6.1 5.1 -10 6 l-5.2 1.2 7.2 10.4 c16.5 24.1 40.3 53.7 63.6 79.2 16.4 18 51.6 52.5 57.9 56.8 5.5 3.8 5.5 3.8 -4.6 -9.4 -21.4 -28.2 -39.4 -59.8 -51.5 -90.5 -10 -25.3 -13.5 -43 -13.5 -68.1 0 -33.2 7.1 -55.5 24.3 -76.8 11 -13.6 29.1 -24.9 49.1 -30.7 5.8 -1.6 9.4 -3.2 10.4 -4.6 8.7 -12.5 30 -34.1 43.4 -44.2 21.8 -16.3 44.8 -27.2 68.3 -32.3 11.2 -2.4 35 -2.4 46.5 0 15.3 3.3 31.4 10.2 41.5 17.9 11.4 8.7 22.8 21.6 28.8 32.8 6.1 11.1 8.2 19.6 8.2 33.9 0 14.8 -1.2 20.3 -7 32.6 -3.4 7 -5.7 10.3 -10 14.2 -21.8 19.9 -61.9 20.3 -82.4 0.7 -10.4 -9.9 -14.6 -20.7 -13.9 -36.4 0.3 -7.3 0.9 -10.7 2.6 -14.2 3.6 -7.4 8.7 -12.5 16 -16.1 6.2 -3.1 7.4 -3.3 16.7 -3.3 9 0 10.6 0.3 15.8 2.8 11 5.5 19.5 16.5 20.5 26.8 l0.5 4.9 -3.4 0 c-3.1 0 -3.7 -0.5 -6.2 -5.5 -5.3 -10.1 -18.6 -19.8 -27 -19.7 -8.4 0.1 -18.1 7.2 -22.8 16.7 -2.7 5.6 -3.1 7.2 -2.6 11.6 0.9 7.4 4.9 15.2 11.2 21.8 14.7 15.4 35.9 18.3 56 7.8 8.8 -4.7 15 -11.3 19.6 -21.1 9.2 -19.6 7.4 -36.3 -6.1 -56.5 -6 -9 -17.1 -20.3 -25.3 -26 -2.6 -1.7 -8.8 -5.2 -13.9 -7.6 -23.9 -11.5 -47.6 -12.4 -75 -2.9 -26.1 9.1 -48.5 23.8 -71.8 47.3 l-13.5 13.6 11.4 0.7 c31.4 2 52.9 14.9 68.6 41.3 6.6 11.1 9.2 18.6 10.5 30.8 2.6 22.9 -3.6 40.1 -18.3 51.3 -8.2 6.1 -17 9.4 -27.5 10.1 -21.5 1.5 -40.3 -8.1 -44.6 -22.8 -3.1 -10.3 -1.5 -26 3.1 -31.1 0.9 -1.1 3 -1.8 5 -1.8 l3.4 0 -0.2 9.8 c-0.3 14.5 2.9 20.3 14 25.6 12.4 5.8 24.3 3.6 35.7 -6.7 7.5 -6.8 10.9 -14.8 10.8 -25.2 -0.2 -25.4 -25 -54.7 -51.5 -61 -7.6 -1.7 -19.8 -1.9 -28.6 -0.4 -7.9 1.4 -8.3 1.9 -17.9 21.4 -14.9 30.6 -21.4 59 -20.1 88 1.8 37.9 15.8 80.7 40.7 124.1 9.6 16.8 31.8 50 46.1 69 10.1 13.5 14.8 18.7 21.6 24.5 10.8 8.9 21.5 18.3 35.3 30.9 14.5 13.2 14.6 13.2 10.1 5.4 -8.8 -15.3 -16.7 -38.6 -19.6 -57.9 -7.4 -49.1 12.7 -104.5 51.6 -142 19.6 -18.9 40.5 -30.3 63.1 -34.6 7.4 -1.4 28.8 -1.7 37.1 -0.6 5.6 0.8 5.7 0.9 5.7 4.1 l0 3.3 -8.4 1.7 c-4.6 0.9 -11.5 2.7 -15.2 4.1 l-6.9 2.4 6 0 c3.3 0.1 10.1 0.8 15.1 1.6 32.9 5.3 60.1 24.5 79.4 56 6.8 11.1 13 24.8 13 28.9 0 3.4 -0.2 3.6 -3.2 3.6 -2.9 -0.1 -3.7 -0.7 -6.7 -5.6 -9.3 -15.5 -29.6 -37 -44.4 -47.2 -10.4 -7.2 -26.3 -14.5 -37.2 -17.3 -11.6 -2.8 -26.6 -2.9 -37.5 -0.1 l-7.5 2 7.7 0.1 c15.2 0.2 30.9 5.4 41.8 13.8 4.1 3.1 4.9 4.4 5 7.1 0 3 -0.2 3.2 -3.7 3.2 -2.1 0 -6.3 -0.9 -9.3 -2.1 -9.4 -3.6 -22.9 -6.1 -33 -6.1 -36.5 -0.2 -65.6 21 -85.4 62.3 -15.8 32.8 -15.8 60.1 0 92.9 5.3 11 17 29.5 23.3 37 l3 3.5 -2.5 -7 c-5.2 -14.5 -6.7 -23 -6.8 -38.5 0 -15.4 1.8 -24.9 6.4 -34.1 1.8 -3.4 2.5 -3.9 5.7 -3.9 l3.6 0 -0.9 5.3 c-1.7 10.1 -0.8 25.4 2 35.8 2.6 10.1 8.5 25.5 8.6 22.9 0.2 -7 2.4 -20.7 4.1 -26 3.8 -11.9 8.7 -19.9 17.9 -29 14.3 -14.3 27.1 -19.5 48 -19.4 10.8 0.1 13.6 0.4 20.7 2.7 18.8 6.2 32.1 20 36.8 38.2 2 7.7 2 24.3 0 32 -3.7 14.6 -13.5 27.9 -24.6 33.4 -8.2 4.1 -15.7 5.5 -25.9 4.8 -15.6 -1.1 -28.1 -9.6 -33.1 -22.6 -3.2 -8 -3.1 -23.1 0.1 -31.5 3.4 -8.8 11.6 -16.9 19.4 -19.1 11.9 -3.5 24.1 -0.8 31.3 6.7 8.3 8.6 8.6 26.5 0.5 35.9 -4.6 5.3 -8.5 6.9 -16.9 6.9 -8.1 0 -12.8 -2 -16.1 -7 -2.1 -3.1 -2.3 -4.4 -2 -12.2 0.3 -8.6 0.4 -8.8 4 -12.5 3.3 -3.2 4.4 -3.7 9.6 -4.1 9.5 -0.7 14.2 2.7 14.2 10.3 0 7.7 -9.9 11.6 -15.5 6.1 -2.3 -2.3 -2.5 -2.3 -3 -0.6 -0.9 2.8 1.9 7.4 5.7 9.4 3.2 1.7 3.6 1.7 6.6 0.2 3.7 -1.9 7.9 -7.2 9.1 -11.3 2.4 -8.4 -7.6 -19.3 -17.7 -19.3 -4.6 0 -11.8 4.2 -15.5 9.1 -12 16.1 -7 34.3 11.9 43.1 8.6 4 15.2 4 24 -0.1 17 -8 29 -30.8 25.5 -48.5 -5.4 -27.5 -34.6 -46.1 -61.5 -39.1 -20.3 5.3 -38.5 23.7 -45.1 45.5 -3.5 11.8 -3.7 26.7 -0.4 40.3 1.2 5.1 7.8 15.9 19.6 31.7 3.8 5.2 9 12.9 11.4 17.1 l4.5 7.6 3.1 -6.8 c3 -6.7 3.3 -6.9 6.7 -6.9 3.3 0 3.6 0.3 3.6 2.8 0 3.6 4 30.3 4.7 31.4 0.3 0.5 2 -2.4 3.7 -6.5 5.9 -13.5 12.2 -22.2 24.7 -34.2 18.8 -18 43.1 -30.6 65.9 -34 18.1 -2.8 29.4 -1.8 52.3 4.7 l14.8 4.2 2.7 -2.7 c2.1 -2.2 2.6 -3.4 2.3 -6.7 -0.2 -3.9 -0.2 -4 2.9 -4 4.2 0 9.4 2.3 11.4 5.1 2.3 3.3 2.1 13.2 -0.4 18.6 l-1.9 4.3 6.1 5.7 c13.3 12.8 24.1 30.1 29.5 47.8 2.6 8.5 2.7 10.1 2.7 28.5 0.1 20 -0.3 22.6 -5 37.3 -1.6 4.7 -1.6 4.7 -6 4.7 -3.2 0 -4.7 -0.5 -5.6 -1.9 -1 -1.7 -2.2 -0.8 -13.2 10.3 -16.7 16.9 -30.8 26 -46.4 30.1 -3.7 0.9 -10.3 1.5 -17.5 1.5 -12.6 0 -21.4 -2 -29.4 -6.6 -3.7 -2.1 -4.3 -2.9 -4.3 -5.8 l0 -3.3 7.8 -0.5 c17.8 -1.1 23.4 -6.9 32 -33.3 1.6 -4.9 3.2 -9.7 3.6 -10.5 0.5 -1.2 -0.6 -1.5 -6.2 -1.6 -11.8 -0.2 -22.2 -7.4 -22.2 -15.5 0 -2.6 0.4 -3.9 1.3 -3.9 0.8 0 3.8 -1.8 6.8 -3.9 6.3 -4.5 10.9 -11.9 10.9 -17.5 0 -8.7 -8.6 -22.8 -18.3 -30.1 -11.9 -9 -26.2 -10.8 -40.1 -5 -3.6 1.5 -3.7 1.7 -2.2 3.4 0.9 1 1.6 3.5 1.6 5.7 0 3.7 -0.3 4.1 -3.7 5.3 -3.6 1.2 -16.3 7.9 -16.3 8.5 0 0.1 3.2 -0.4 7.1 -1.3 5.8 -1.2 8.5 -1.3 14.8 -0.4 10.8 1.6 13.1 2.8 13.1 6.8 0 2.6 -0.6 3.5 -2.8 4.4 -1.5 0.6 -4.1 2.3 -5.7 3.6 -2.7 2.3 -2.8 2.6 -1.2 3.5 3.6 2.2 2.1 6.7 -4.5 14 -11.2 12.1 -16.4 22.8 -15.4 31.5 0.4 2.7 0.9 14 1.2 25.1 0.8 26 -1.6 43.6 -8.6 63.8 -1.1 3.3 -2 6.3 -2 6.8 0 0.4 2.7 0.8 6 0.8 l6 0 0 3.1 c0 2.5 -1.7 5.1 -8.3 12.8 -14.7 16.9 -18.8 22.4 -22.8 30.5 -2.1 4.4 -3.9 8.6 -3.9 9.3 0 0.8 -1.8 7.1 -4.1 14.1 -11.3 34.9 -26.6 64.2 -45.3 86.5 -3.6 4.4 -15.4 17 -26.3 28.1 -20.6 21.1 -27.6 26.6 -34 26.6 -3 0 -3.3 -0.3 -3.3 -3.1z m68 -185.6 c-1.2 -2.1 -3.3 -5.1 -4.7 -6.8 -2.8 -3.3 -2.3 -2.4 2.6 5.3 3.9 6 5.2 7 2.1 1.5z m-161.3 -67.5 c1.3 -1.2 2.3 -3 2.3 -4.1 0 -1.8 -0.3 -1.7 -2.5 0.8 -2.2 2.2 -3.3 2.6 -6.5 2.3 -2.2 -0.2 -4 -0.2 -4 -0.1 0 0.6 5.6 3.2 6.9 3.3 0.8 0 2.5 -1 3.8 -2.2z m-26.1 -294.5 c-31.7 -46.8 -49.1 -83.7 -58.5 -124.3 -6.8 -28.8 -6.8 -67.8 -0.1 -94 3.3 -12.9 8.7 -28.4 13.5 -38.7 l4.3 -9.3 -3.6 1.6 c-10.1 4.1 -21.4 14.3 -29.3 26.3 -16 24.4 -21.3 59.8 -13.5 90.3 5.1 20 19.2 53.2 32.7 77.2 7.4 13 24.3 38.2 34.4 51.1 8.3 10.7 30.3 36.5 31.1 36.5 0.2 0 -4.7 -7.5 -11 -16.7z"/>
  <path d="M779 955.5 c0 -2.4 0.5 -3.5 1.5 -3.5 0.8 0 1.5 -0.4 1.5 -1 0 -0.5 1.6 -1 3.5 -1 3.3 0 3.5 0.2 3.5 3.5 0 2.4 -0.5 3.5 -1.5 3.5 -0.8 0 -1.5 0.5 -1.5 1 0 0.6 -1.6 1 -3.5 1 -3.3 0 -3.5 -0.2 -3.5 -3.5z"/>
  <path d="M446.4 917.7 c-0.3 -0.9 -0.4 -3 -0.2 -4.9 0.3 -3.2 0.5 -3.3 5.1 -3.6 l4.8 -0.3 -0.3 4.8 -0.3 4.8 -4.3 0.3 c-3 0.2 -4.4 -0.1 -4.8 -1.1z"/>
  <path d="M61.7 676.3 c-0.4 -0.3 -0.7 -2.5 -0.7 -4.9 0 -3.6 0.5 -4.7 3.5 -7.3 5.9 -5.2 10.9 -7.2 17.3 -7.1 4.1 0.2 7.4 -0.5 11.9 -2.4 3.5 -1.4 7.2 -2.6 8.3 -2.6 1.1 0 2 -0.4 2 -0.9 0 -1.2 10.7 -5.1 14.1 -5.1 2.6 0 2.9 0.3 2.9 3.3 0 3 -0.4 3.4 -5.8 5.5 -3.2 1.2 -6.5 2.2 -7.4 2.2 -0.9 0 -1.8 0.3 -2 0.8 -0.1 0.4 -4.1 2.4 -8.8 4.3 -6.5 2.7 -8.6 4.1 -8.8 5.7 -0.5 3 -4.5 5.9 -10.5 7.7 -5.2 1.5 -14.8 2 -16 0.8z"/>
  <path d="M122 646.7 c0 -3.1 0.4 -3.5 3.9 -4.5 2.1 -0.7 4.8 -1.2 6 -1.2 1.3 0 2.9 -0.7 3.7 -1.5 0.9 -0.8 2.9 -1.5 4.5 -1.5 1.6 0 2.9 -0.4 2.9 -0.8 0 -0.9 11.7 -4.2 14.9 -4.2 1.2 0 2.1 -0.4 2.1 -1 0 -0.5 1.5 -1 3.4 -1 1.9 0 3.6 -0.5 3.8 -1 0.2 -0.6 2.7 -1.3 5.6 -1.7 l5.2 -0.6 0 3.5 c0 3.2 -0.3 3.6 -3.1 4.2 -1.7 0.3 -4.2 0.6 -5.5 0.6 -1.3 0 -2.4 0.5 -2.4 1 0 0.6 -1.3 1 -2.9 1 -1.6 0 -3.1 0.3 -3.3 0.8 -0.4 0.9 -10.8 4.2 -13.6 4.2 -1.1 0 -2.2 0.5 -2.4 1.1 -0.2 0.5 -2.2 1.3 -4.6 1.6 -2.3 0.3 -4.2 0.9 -4.2 1.3 0 1 -7.2 3 -10.9 3 -2.9 0 -3.1 -0.3 -3.1 -3.3z"/>
  <path d="M179 629.5 c0 -3.4 0.1 -3.5 4 -3.5 3.9 0 4 0.1 4 3.5 0 3.4 -0.1 3.5 -4 3.5 -3.9 0 -4 -0.1 -4 -3.5z"/>
  <path d="M575 628.5 c0 -3.3 0.2 -3.5 3.5 -3.5 3.3 0 3.5 0.2 3.5 3.5 0 3.3 -0.2 3.5 -3.5 3.5 -3.3 0 -3.5 -0.2 -3.5 -3.5z"/>
  <path d="M563 626.5 c0 -3.3 0.2 -3.5 3.5 -3.5 3.3 0 3.5 0.2 3.5 3.5 0 3.3 -0.2 3.5 -3.5 3.5 -3.3 0 -3.5 -0.2 -3.5 -3.5z"/>
  <path d="M552.3 627.3 c-1.9 -0.4 -2.3 -1.1 -2.3 -3.9 0 -3.7 1.2 -4.1 7.9 -2.8 2.7 0.6 3.1 1 3.1 4 0 3.2 -0.2 3.4 -3.2 3.3 -1.8 -0.1 -4.3 -0.4 -5.5 -0.6z"/>
  <path d="M209 622.6 c0 -3.1 0.3 -3.4 3.8 -4 7.4 -1.2 8.2 -0.9 8.2 2.8 0 3.1 -0.3 3.4 -3.7 4 -7.5 1.2 -8.3 0.9 -8.3 -2.8z"/>
  <path d="M535.5 624.5 c-0.5 -0.2 -2.7 -0.6 -4.7 -1 -3.5 -0.5 -3.8 -0.8 -3.8 -4 0 -4.1 0 -4.1 11.3 -2.3 l7.7 1.1 0 3.4 c0 3.3 0 3.3 -4.7 3.2 -2.7 0 -5.2 -0.2 -5.8 -0.4z"/>
  <path d="M222 620.6 c0 -3 0.4 -3.4 3.1 -4 6.7 -1.3 7.9 -0.9 7.9 2.8 0 3 -0.4 3.4 -3.1 4 -6.7 1.3 -7.9 0.9 -7.9 -2.8z"/>
  <path d="M513.3 620.7 c-6.3 -1 -6.3 -1.1 -6.3 -4.4 0 -3.8 0.1 -3.9 11.5 -2.2 l7.5 1.1 0 3.4 c0 3.2 -0.2 3.4 -3.2 3.2 -1.8 0 -6.1 -0.6 -9.5 -1.1z"/>
  <path d="M238 617.5 c0 -3.3 0.2 -3.5 3.5 -3.5 3.3 0 3.5 0.2 3.5 3.5 0 3.3 -0.2 3.5 -3.5 3.5 -3.3 0 -3.5 -0.2 -3.5 -3.5z"/>
  <path d="M246 616.7 l0 -3.4 10.8 -1.7 c16.8 -2.5 60.5 -6.6 72 -6.6 l6.2 0 0 3.5 0 3.5 -5.8 0 c-11.9 0 -35.9 2.3 -79.4 7.7 -3.8 0.5 -3.8 0.5 -3.8 -3z"/>
  <path d="M492.3 618.3 c-4.2 -0.4 -4.3 -0.5 -4.3 -3.9 0 -3.3 0.1 -3.4 3.9 -3.4 2.1 0 5.9 0.3 8.5 0.6 4.4 0.6 4.6 0.8 4.6 4 0 3.4 -0.1 3.4 -4.2 3.2 -2.4 -0.1 -6.2 -0.3 -8.5 -0.5z"/>
  <path d="M470.8 615.7 l-8.8 -0.9 0 -3.4 c0 -3.1 0.2 -3.4 3.1 -3.4 1.8 0 7.2 0.5 12 1.2 l8.9 1.2 0 3.3 c0 3.8 0.3 3.8 -15.2 2z"/>
  <path d="M440 612.9 c-4.7 -0.4 -11.8 -0.7 -15.9 -0.8 -5.7 -0.1 -7.7 -0.5 -8.8 -1.8 -1 -1.3 -1.6 -1.5 -1.9 -0.5 -0.4 0.8 -3.3 1.2 -9.5 1.2 l-8.9 0 0 -6 0 -6 3.5 0 c3.1 0 3.5 0.3 3.5 2.5 0 2.3 0.4 2.5 4.5 2.5 2.7 0 4.5 -0.5 4.5 -1.1 0 -1.4 10 -0.5 10.9 0.9 0.3 0.5 9.3 1.5 19.9 2.2 l19.2 1.3 0 3.4 0 3.3 -6.2 -0.2 c-3.5 0 -10.1 -0.4 -14.8 -0.9z"/>
  <path d="M339 607.5 l0 -3.5 9 0 9 0 0 3.5 0 3.5 -9 0 -9 0 0 -3.5z"/>
  <path d="M358 607.5 l0 -3.5 18 0 18 0 0 3.5 0 3.5 -18 0 -18 0 0 -3.5z"/>
  <path d="M343 591.3 c-2.5 -0.9 -4.6 -2 -4.8 -2.4 -0.2 -0.5 -1.4 -0.9 -2.7 -0.9 -2.8 0 -23.8 -7.9 -24.3 -9.2 -0.2 -0.4 -1.2 -0.8 -2.2 -0.8 -2.4 0 -25 -10 -25 -11.1 0 -0.5 -0.9 -0.9 -2 -0.9 -2.9 0 -25 -11.2 -25 -12.7 0 -0.7 -0.9 -1.3 -2 -1.3 -2.1 0 -8 -2.6 -9 -3.9 -0.3 -0.4 -2 -1.3 -3.7 -2 -1.8 -0.8 -3.3 -1.7 -3.3 -2.2 0 -0.5 -0.6 -0.9 -1.4 -0.9 -0.8 0 -2.1 -0.6 -2.8 -1.4 -0.8 -0.7 -2.4 -1.7 -3.6 -2 -1.2 -0.4 -2.2 -1.1 -2.2 -1.6 0 -0.4 -1 -1 -2.3 -1.4 -1.2 -0.3 -3.1 -1.3 -4.2 -2.3 -1.2 -1 -3.8 -2.7 -5.9 -3.8 -2.2 -1.1 -4.1 -2.8 -4.4 -3.7 -0.2 -1.1 -1.4 -1.8 -2.7 -1.8 -1.2 0 -3.4 -1.1 -4.9 -2.5 -1.5 -1.4 -3.1 -2.5 -3.7 -2.5 -0.5 0 -0.9 -0.4 -0.9 -1 0 -0.5 -0.7 -1 -1.5 -1 -0.9 0 -1.8 -0.7 -2.1 -1.5 -0.4 -0.8 -1.2 -1.5 -2 -1.5 -0.8 0 -1.4 -0.4 -1.4 -1 0 -0.5 -0.7 -1 -1.5 -1 -0.9 0 -1.8 -0.7 -2.1 -1.5 -0.4 -0.8 -1.3 -1.5 -2 -1.5 -0.8 0 -1.7 -0.7 -2 -1.5 -0.4 -0.8 -1.2 -1.5 -2 -1.5 -0.8 0 -1.9 -0.9 -2.6 -2 -0.7 -1.1 -1.8 -2 -2.5 -2 -0.6 0 -1.8 -0.8 -2.5 -1.8 -0.7 -1 -2.1 -2.1 -3.1 -2.5 -1.1 -0.4 -2.1 -1.6 -2.4 -2.7 -0.3 -1.1 -1.3 -2 -2.3 -2 -1.9 0 -5 -3 -5 -4.8 0 -0.7 -0.8 -1.2 -1.8 -1.2 -2.9 0 -8.2 -6.4 -8.2 -9.9 0 -2.8 0.3 -3.1 3.1 -3.1 3.2 0 9.9 5.2 9.9 7.7 0 0.7 0.8 1.3 1.8 1.3 2.1 0 5.2 2.9 5.2 4.8 0 0.7 0.9 1.2 2 1.2 1.1 0 2.5 0.9 3.2 2 0.7 1.1 1.8 2 2.5 2 0.7 0 1.8 0.9 2.5 2 0.7 1.1 1.8 2 2.5 2 0.7 0 1.8 0.9 2.5 2 0.7 1.1 1.9 2 2.6 2 0.7 0 1.5 0.7 1.8 1.5 0.4 0.8 1.3 1.5 2 1.5 0.8 0 1.7 0.7 2 1.5 0.4 0.8 1.2 1.5 2 1.5 0.8 0 1.4 0.5 1.4 1 0 0.6 0.7 1 1.5 1 0.9 0 1.8 0.7 2.1 1.5 0.4 0.8 1.2 1.5 2 1.5 0.8 0 1.4 0.3 1.4 0.8 0 0.4 1.4 1.3 3.1 2.1 1.8 0.8 3.4 2.2 3.6 3.2 0.3 1.1 1.4 1.9 2.5 1.9 1.7 0 7 3 8.8 5 0.3 0.3 2.2 1.4 4.3 2.4 2 1.1 3.7 2.2 3.7 2.6 0 0.5 1.1 1.1 2.5 1.4 1.4 0.4 2.5 1.1 2.5 1.6 0 0.6 0.6 1 1.4 1 0.8 0 2.1 0.6 2.8 1.3 0.7 0.7 2.8 1.9 4.6 2.6 1.7 0.7 3.2 1.6 3.2 2 0 0.3 2 1.4 4.5 2.4 2.5 1.1 4.5 2.5 4.5 3.3 0 0.8 0.9 1.4 2 1.4 2.3 0 24.3 10.8 24.8 12.1 0.2 0.5 1.1 0.9 2 0.9 1.8 0 24.3 9.8 25.2 10.9 0.3 0.3 2.3 1.1 4.5 1.8 6.8 1.9 22 7.7 22.3 8.5 0.2 0.4 1.1 0.8 1.9 0.8 0.9 0 4 0.8 7 1.7 5 1.6 5.3 1.9 5.3 5 0 3.1 -0.2 3.3 -3.2 3.2 -1.8 0 -5.3 -0.8 -7.8 -1.6z"/>
  <path d="M141.2 470.7 c-3.2 -3.2 -4.2 -5.1 -4.2 -7.5 0 -2.8 -0.3 -3.2 -2.6 -3.2 -3 0 -9.4 -5.6 -9.4 -8.2 0 -1 -0.6 -1.8 -1.3 -1.8 -1.3 0 -4.7 -3.4 -4.7 -4.8 0 -0.4 -0.9 -1.3 -2 -2 -1.1 -0.7 -2 -1.8 -2 -2.5 0 -0.7 -0.9 -1.8 -2 -2.5 -1.1 -0.7 -2 -1.8 -2 -2.6 0 -0.8 -0.7 -1.6 -1.5 -2 -0.8 -0.3 -1.5 -1 -1.5 -1.5 0 -0.6 -1.1 -2.2 -2.5 -3.7 -1.4 -1.5 -2.5 -3.2 -2.5 -3.9 0 -0.7 -1.3 -1.5 -2.9 -1.8 -3.9 -0.8 -7.4 -7.8 -6.9 -13.9 0.3 -4.2 0.4 -4.3 3.9 -4.6 3.1 -0.3 4.2 0.3 7.3 3.4 2.7 2.7 3.6 4.6 3.6 7 0 2.1 0.9 4.3 2.5 6 1.4 1.5 2.5 3.3 2.5 3.9 0 0.7 0.7 1.5 1.5 1.9 0.8 0.3 1.5 1.1 1.5 1.8 0 0.7 0.9 1.9 2 2.6 1.1 0.7 2 1.8 2 2.5 0 0.7 0.9 1.8 2 2.5 1.1 0.7 2 1.8 2 2.5 0 0.7 1.1 2.1 2.5 3.1 1.4 1 2.5 2.7 2.5 3.7 0 1.1 0.6 1.9 1.3 1.9 2.5 0 7.7 6.7 7.7 9.9 0 2.7 0.3 3.1 2.8 3.1 4.1 0 11.2 7.5 11.2 11.8 0 3 -0.3 3.2 -3.3 3.2 -2.5 0 -4.2 -1 -7.5 -4.3z"/>
  <path d="M591 313.5 l0 -11.5 3.5 0 3.5 0 0 11.5 0 11.5 -3.5 0 -3.5 0 0 -11.5z"/>
  <path d="M591 264.5 l0 -11.5 3.5 0 3.5 0 0 11.5 0 11.5 -3.5 0 -3.5 0 0 -11.5z"/>
  <path d="M592 246.8 c0 -5.4 1.5 -23.8 2.5 -31.5 0.6 -4.1 0.8 -4.3 4.1 -4.3 2 0 3.4 0.5 3.4 1.3 0 0.6 -0.7 7.5 -1.5 15.2 -0.8 7.7 -1.5 16.4 -1.5 19.3 l0 5.2 -3.5 0 -3.5 0 0 -5.2z"/>
  <path d="M596 202.5 c0 -3.3 0.2 -3.5 3.5 -3.5 3.3 0 3.5 0.2 3.5 3.5 0 3.3 -0.2 3.5 -3.5 3.5 -3.3 0 -3.5 -0.2 -3.5 -3.5z"/>
  <path d="M598 190.5 c0 -3.3 0.2 -3.5 3.5 -3.5 3.3 0 3.5 0.2 3.5 3.5 0 3.3 -0.2 3.5 -3.5 3.5 -3.3 0 -3.5 -0.2 -3.5 -3.5z"/>
  <path d="M600 178.5 c0 -3.3 0.2 -3.5 3.5 -3.5 3.3 0 3.5 0.2 3.5 3.5 0 3.3 -0.2 3.5 -3.5 3.5 -3.3 0 -3.5 -0.2 -3.5 -3.5z"/>
  <path d="M444.2 171.8 c-0.7 -0.7 -1.2 -2.7 -1.2 -4.5 0 -3.1 0.2 -3.3 3.3 -3.3 4.2 0 5.7 1.5 5.7 5.7 0 3.1 -0.2 3.3 -3.3 3.3 -1.8 0 -3.8 -0.5 -4.5 -1.2z"/>
  <path d="M604 159.5 c0 -3.3 0.2 -3.5 3.5 -3.5 3.3 0 3.5 0.2 3.5 3.5 0 3.3 -0.2 3.5 -3.5 3.5 -3.3 0 -3.5 -0.2 -3.5 -3.5z"/>
  <path d="M428.8 157.2 c-2.1 -2.1 -3.8 -4.3 -3.8 -5 0 -0.7 -0.8 -1.2 -1.8 -1.2 -2 0 -6.2 -3.9 -6.2 -5.7 0 -0.7 -1 -1.3 -2.2 -1.5 -1.3 -0.2 -2.7 -1.3 -3.3 -2.5 -0.5 -1.3 -1.8 -2.3 -2.7 -2.3 -1 0 -2.3 -0.9 -3 -2 -0.7 -1.1 -1.8 -2 -2.5 -2 -0.7 0 -1.8 -0.9 -2.5 -2 -0.7 -1.1 -1.9 -2 -2.6 -2 -0.7 0 -1.5 -0.7 -1.8 -1.5 -0.4 -0.8 -1.3 -1.5 -2 -1.5 -0.8 0 -1.7 -0.7 -2 -1.5 -0.4 -0.8 -1.3 -1.5 -2 -1.5 -0.8 0 -1.7 -0.7 -2 -1.5 -0.4 -0.8 -1.2 -1.5 -2 -1.5 -0.8 0 -1.4 -0.4 -1.4 -1 0 -0.5 -0.6 -1 -1.4 -1 -0.7 0 -2.5 -1.1 -4 -2.5 -1.5 -1.4 -3.1 -2.5 -3.7 -2.5 -0.5 0 -0.9 -0.4 -0.9 -1 0 -0.5 -0.7 -1 -1.5 -1 -0.8 0 -1.5 -0.4 -1.5 -0.9 0 -0.5 -1.1 -1.2 -2.5 -1.5 -1.4 -0.4 -2.5 -1.1 -2.5 -1.6 0 -0.6 -0.6 -1 -1.4 -1 -0.8 0 -1.6 -0.3 -1.8 -0.7 -0.7 -1.7 -8.9 -5.3 -11.8 -5.3 -3.7 0 -6.5 -1.3 -10.2 -4.8 -2.2 -2 -2.8 -3.5 -2.8 -6.9 l0 -4.3 5.7 0 c7.1 0 14 3.1 14.9 6.6 0.4 1.4 2.3 3.3 4.5 4.6 2.1 1.2 3.9 2.5 3.9 3 0 0.4 0.7 0.8 1.5 0.8 0.8 0 1.5 0.4 1.5 0.9 0 0.5 1.1 1.2 2.5 1.5 1.4 0.4 2.5 1.1 2.5 1.6 0 0.6 0.7 1 1.5 1 0.8 0 1.5 0.5 1.5 1 0 0.6 0.7 1 1.5 1 0.8 0 1.5 0.5 1.5 1 0 0.6 0.6 1 1.4 1 0.7 0 2.5 1.1 4 2.5 1.5 1.4 3.1 2.5 3.7 2.5 0.5 0 0.9 0.5 0.9 1 0 0.6 0.7 1 1.5 1 0.9 0 1.8 0.7 2.1 1.5 0.4 0.8 1.3 1.5 2 1.5 0.8 0 1.7 0.7 2 1.5 0.4 0.8 1.3 1.5 2 1.5 0.8 0 1.7 0.7 2 1.5 0.4 0.8 1.2 1.5 2 1.5 0.7 0 1.9 0.8 2.6 1.8 0.7 1 2.1 2.1 3.1 2.5 1.1 0.4 2.1 1.6 2.4 2.6 0.3 1.1 1.5 2.1 2.7 2.3 1.1 0.2 2.5 1.3 3.1 2.6 0.5 1.2 1.7 2.2 2.6 2.2 1.8 0 5.9 4 5.9 5.8 0 0.7 0.8 1.2 1.8 1.2 3 0 9.2 7.4 9.2 10.9 0 2.8 -0.3 3.1 -3.2 3.1 -2.4 -0.1 -4.3 -1.1 -7 -3.8z"/>
  <path d="M607 145 c0 -3.9 0.1 -4 3.5 -4 3.4 0 3.5 0.1 3.5 4 0 3.9 -0.1 4 -3.5 4 -3.4 0 -3.5 -0.1 -3.5 -4z"/>
  <path d="M610 134.4 c0 -3.5 2.1 -10.4 3.2 -10.4 0.4 0 0.8 -1.4 0.8 -3.1 0 -3.8 7.9 -27.9 9.1 -27.9 0.5 0 0.9 -1 0.9 -2.3 0 -2.6 5.1 -15.8 11.6 -29.6 2.8 -6 4.4 -10.8 4.4 -13.3 0 -4.4 3.7 -10.8 7.4 -12.7 1.2 -0.7 3.6 -1.1 5.2 -0.9 2.8 0.3 2.9 0.5 3.2 5.8 0.3 6.4 -2.8 13.9 -6.5 15.5 -2.3 1 -9.9 16.2 -15.8 31.3 -1.5 3.9 -3.2 7.2 -3.7 7.2 -0.4 0 -0.8 0.9 -0.8 2 0 2.6 -8.2 27.4 -9.2 27.8 -0.5 0.2 -0.8 1.5 -0.8 2.9 0 1.4 -0.5 4.3 -1.2 6.4 -1 3.5 -1.4 3.9 -4.5 3.9 -2.9 0 -3.3 -0.3 -3.3 -2.6z"/>
 </g>
 <g fill="#eee">
  <path d="M0 650 l0 -650 650 0 650 0 0 650 0 650 -650 0 -650 0 0 -650z m984.7 590 c11.1 -11.4 23.2 -24.2 26.8 -28.5 18.8 -22.6 34.1 -51.7 45.4 -86.7 2.3 -7 4.1 -13.3 4.1 -14.1 0 -0.7 1.8 -4.9 3.9 -9.3 3.8 -7.8 10.1 -16.2 23.9 -31.9 l7 -8 -3.5 -0.3 c-1.9 -0.2 -5.5 0.4 -8.1 1.2 -2.5 0.9 -4.7 1.6 -4.9 1.6 -0.2 0 0.7 -2.1 2 -4.7 2.7 -5.3 6.8 -17.4 9.1 -26.8 4.5 -18.3 6 -48 3.1 -64.3 -2.7 -15.5 1.8 -27.1 16.3 -42.4 l5.3 -5.6 -4.1 -2.5 -4.1 -2.4 3.9 -3.2 c2.2 -1.7 5.8 -4.1 8.1 -5.5 l4.2 -2.3 -2.8 -1.2 c-14.6 -5.9 -30.1 -1.6 -43.9 12.3 -3.8 3.9 -8.9 10 -11.2 13.6 -2.3 3.6 -4.2 6.2 -4.2 5.8 0 -2.9 4.7 -14.6 7.9 -19.4 7.3 -11.1 21.8 -22.6 34.2 -27 2.7 -1 4.9 -2.3 4.9 -2.9 0 -1.6 -4 -5.2 -7 -6.3 -2.4 -1 -2.1 -1.2 4.2 -4.1 8.6 -4 13.5 -5 22.9 -5.1 15.2 0 28.2 6.7 36.9 19 12.1 17.4 11.1 33.1 -2.9 43.1 -3 2.1 -6 3.9 -6.8 3.9 -3.8 0 1.7 6.6 8.8 10.4 8.1 4.5 13.9 4 26.2 -2.2 0.4 -0.2 -1 2.1 -3.1 5.2 -4.3 6 -6.5 11.3 -10.7 24.6 -6.1 19.6 -12.8 25.6 -30 26.9 l-8 0.6 4.5 2.7 c14.6 8.6 35 9.1 52.7 1.2 14.2 -6.2 35.9 -24.5 47.4 -39.8 l4.4 -6 0.6 4.1 c1.1 8.3 5 9.6 7.3 2.6 4.5 -14.2 5 -17.6 5 -34.3 0 -15 -0.3 -17.3 -2.7 -25.1 -5.7 -18.7 -13.9 -32.2 -28.3 -46.7 l-9.3 -9.3 3 -6.2 c1.6 -3.4 2.9 -7.6 2.9 -9.3 0 -3.9 -3 -7.9 -7.2 -9.3 -2.6 -0.9 -3 -0.9 -2 0.1 2 2 1.4 4.5 -1.9 8.3 -4.1 4.7 -7.5 4.6 -25.2 -0.5 -24.6 -7.1 -40.6 -7.4 -60.2 -1.3 -23.7 7.5 -49.3 25.2 -64.4 44.8 -6.4 8.3 -13.7 23.3 -15.7 32.3 -1.6 7 -1.8 7.4 -2.9 5.1 -1.7 -3.2 -4.2 -15.9 -6.4 -32.1 l-1.8 -13.3 -3.1 6.4 c-1.7 3.6 -3.7 8.9 -4.3 11.8 l-1.2 5.3 -4.6 -9.3 c-4.7 -9.4 -8.8 -15.8 -21 -32.5 -14.3 -19.7 -16.3 -25.6 -16.4 -47.2 0 -9.9 0.4 -14.1 2.2 -20.4 6.6 -23.8 24.4 -42.5 45.7 -48.1 7.5 -1.9 22.3 -1.9 29.9 0 12.6 3.3 25.7 13.1 32 23.9 14 24 4.1 58.5 -20.2 69.8 -5.8 2.8 -7.8 3.2 -14.8 3.2 -6.9 0 -9 -0.4 -14.6 -3.1 -8 -3.7 -13.4 -8.9 -16.6 -16.1 -2.2 -4.8 -2.5 -6.4 -2.1 -14 0.6 -12.4 5.1 -20.4 14.5 -25.9 11.8 -6.9 28 -0.7 31.4 11.9 2.2 8.3 -2 18.6 -9 22.3 -6.2 3.2 -14.6 0.9 -17.7 -4.7 -2.2 -3.9 -1.7 -10.3 1.1 -13.6 1.4 -1.6 3.3 -3.2 4.3 -3.4 1.5 -0.4 1.7 0 1.4 2.8 -0.5 4.1 3.3 7.2 6.7 5.4 5.2 -2.7 4.7 -7.6 -1.1 -10.6 -4.2 -2.2 -8.7 -1.1 -12.8 3.1 -2.9 3 -3.4 4.3 -3.8 9.2 -0.3 4.8 0 6.4 2 9.3 3.4 5 8.1 7.2 14.6 6.7 16.3 -1.2 23.8 -23.2 12.3 -36 -6.9 -7.6 -15.7 -10.1 -25.7 -7.2 -7.8 2.2 -16.1 10.3 -19.4 19.1 -6.5 17.4 0.5 35.5 17 43.8 16.3 8.1 34.5 4.5 47.5 -9.6 18.7 -20.2 19.4 -52.6 1.4 -72.3 -18.5 -20.2 -47.6 -24.6 -73.4 -11.2 -8.5 4.5 -22 18.2 -26.7 27.2 -7.6 14.6 -10.5 30 -8.7 46.6 0.5 5.1 0.8 9.4 0.6 9.6 -0.2 0.2 -2.7 -4.5 -5.5 -10.4 -6 -12.7 -10.5 -25.9 -12.6 -37.3 -1.8 -9.1 -2.1 -24.8 -0.7 -29.8 1.3 -4.3 0.6 -4 -1.9 0.7 -4.2 8.4 -6.4 18.9 -6.3 31.1 0 18.1 4.9 35 16.3 56.8 l6.1 11.7 -6.1 -6 c-21.8 -21.1 -41.2 -51.9 -47.4 -75.4 -7.4 -27.6 -5 -50.9 8 -78 16.6 -34.7 40.2 -55.5 69.4 -61.2 15.4 -3 38.3 -1 54.1 4.7 3.7 1.3 7 2.4 7.4 2.4 2.1 0 -10.9 -8.9 -17.1 -11.7 -16.9 -7.8 -39.5 -8.3 -59.8 -1.3 -3.1 1 -5.6 1.7 -5.6 1.4 0 -0.3 4.6 -2.7 10.3 -5.4 31.1 -14.9 59.9 -15.5 88.4 -2 5.7 2.7 13.8 7.3 18 10.2 14.7 10.1 33.2 29.7 44.2 46.7 2.2 3.5 4.1 6.1 4.1 5.6 0 -1.6 -8.8 -19.2 -13 -26 -23.8 -38.8 -59.6 -58.9 -101.7 -57.2 -6.8 0.3 -12.3 0.3 -12.3 0.1 0 -0.2 2.1 -1.4 4.8 -2.8 7.4 -3.7 21 -8.3 30.8 -10.2 8.4 -1.7 8.7 -1.8 5.4 -2.6 -5.4 -1.3 -26.8 -1.2 -33.8 0.1 -22.7 4.3 -43.5 15.7 -63.1 34.6 -23.3 22.5 -40.2 51.7 -48.1 82.7 -5.1 20.5 -6.1 35.6 -3.5 53.4 4.2 27.8 15.8 55.4 33.6 79.4 6.1 8.3 23.4 26.5 31.4 32.9 l4 3.3 -3.8 -1.6 c-2.1 -0.9 -7.8 -5.3 -12.7 -9.8 -4.8 -4.6 -17.7 -16.7 -28.7 -26.9 -22.5 -21.2 -36.9 -34.1 -53.1 -47.7 -9.6 -8.1 -13 -11.8 -24.1 -26.6 -14.3 -19 -36.5 -52.2 -46.1 -69 -15.2 -26.5 -28.2 -57.4 -33.9 -80.6 -4.7 -19.1 -6.2 -29.1 -6.8 -46.1 -1.2 -32.9 4.7 -59.9 20.1 -91.4 9.6 -19.5 10 -20 17.9 -21.4 9.1 -1.6 27 -1.3 34.6 0.4 21 5 40.7 23.8 49.3 47.1 1.8 4.7 2.2 8.2 2.3 16.9 0 10.1 -0.2 11.5 -2.9 17.3 -3.4 7.4 -10.4 14.2 -18.6 18.1 -4.7 2.2 -6.9 2.6 -15 2.6 -8.6 0 -10.1 -0.3 -16.1 -3.1 -11.3 -5.4 -15.5 -13.6 -14.3 -27.9 l0.6 -8 -2 1.9 c-4.8 4.3 -6.5 15.9 -3.6 25.5 4.1 13.9 24.3 24.9 41.7 22.7 13 -1.6 27.6 -10.1 34.3 -19.9 9.2 -13.4 11.2 -33.2 5.3 -51 -4.5 -13.6 -17.1 -31.1 -28.7 -40.1 -14.8 -11.3 -28.7 -15.8 -49.4 -16 -7.6 0 -13.8 -0.3 -13.8 -0.5 0 -1.2 15.4 -18.2 23.1 -25.5 25.9 -24.6 57 -41.8 85.7 -47.2 11.8 -2.2 33.4 -1.5 44.7 1.5 8.8 2.3 23.9 9.2 31.2 14.2 8.2 5.7 19.3 17 25.3 26 8.7 13 12 23.2 12 37 0 9.4 -1.6 16 -6 25.6 -8.2 17.6 -24.6 27.3 -46.2 27.3 -15.3 0 -25.9 -4.2 -35.3 -14.1 -7.4 -7.8 -10.7 -15.1 -11.3 -25.1 -0.4 -7.2 -0.2 -8.3 2.7 -14.3 5.3 -10.7 14.7 -16.9 26.1 -16.9 5.5 -0.1 7.4 0.4 12.6 3.2 7.4 4 13.2 9.8 17.4 17.2 1.7 3 2.8 4.4 2.5 3 -2.5 -9.4 -10.6 -18.9 -20.2 -23.7 -19.5 -9.5 -43.5 5.1 -45.1 27.6 -1.5 21.8 15.1 41.5 39.4 46.6 8.8 1.9 13.6 1.9 23.2 0 10 -2 20.7 -7.3 27.7 -13.7 4.3 -3.9 6.6 -7.2 10 -14.2 5.5 -11.6 7 -17.8 6.9 -29.6 0 -19.5 -8.8 -37.5 -26.6 -54.6 -8.1 -7.8 -12.8 -11.3 -20.9 -15.8 -15.6 -8.6 -33.1 -12.9 -51.4 -12.9 -28.1 0.1 -58.8 11.9 -88.3 34 -13.4 10.1 -34.7 31.7 -43.4 44.2 -1 1.4 -4.6 3 -10.4 4.6 -46.9 13.6 -73.4 51.3 -73.4 104.5 0 22 3.9 40.8 13.5 65.1 16.4 41.8 40.4 79.7 77 121.7 3.3 3.8 2 3.1 -13.6 -7 -16 -10.5 -18.6 -12.7 -37.6 -31.2 -65.6 -64.1 -113.5 -128.8 -137.3 -185.6 -6.6 -15.5 -15.6 -42.7 -16.8 -50.6 -1.9 -11.9 1 -28.9 7 -40.8 8.2 -16.3 17 -22.4 23.9 -16.6 l2.4 1.9 -2.3 0.1 c-2.8 0 -4.7 4.2 -3.2 7 3.8 7.2 13.3 2.8 12.1 -5.5 -0.7 -5.1 -9.4 -9.4 -16.2 -8.1 l-3.4 0.7 4 -2.6 c5.3 -3.3 8.1 -3.7 21.7 -3.3 10.5 0.3 11.8 0.5 15.6 3.1 l4.2 2.7 0 -4.7 c-0.1 -9 -5.1 -16.2 -13.1 -18.9 l-4.4 -1.4 4 0.5 c4.9 0.6 7.9 2.7 12.7 9.1 4.3 5.6 8.8 8.4 13.5 8.4 3.7 0 3.9 -0.4 1.8 -4 -2.1 -3.7 -1.8 -4.6 0.8 -2.2 1.2 1.1 4.5 3 7.2 4.2 2.8 1.1 5.5 2.8 6.2 3.6 0.9 1.3 1.2 1.1 1.7 -1.4 1.1 -4.5 -1.2 -12.1 -5.1 -17.6 l-3.7 -5.1 3.8 3.5 c6.5 6 11.5 19 11.6 29.8 0 12.6 -6.1 26.2 -14.2 31.8 -4.8 3.2 -14.3 6.2 -15.6 4.9 -0.4 -0.4 -0.1 -1 0.6 -1.2 2.3 -0.9 4.4 -6.3 3.8 -9.8 -2.2 -11.8 -18.6 -11 -18.6 0.9 0 5.2 2.1 8.3 7.4 10.7 9.3 4.2 19.6 1.1 28.5 -8.7 6.3 -6.9 9.2 -14.3 9.9 -25.3 1.1 -19.2 -6.5 -33.5 -23.2 -43.5 -13 -7.8 -27 -8.1 -41.6 -1 -21.5 10.6 -40.4 42.3 -43.7 73.4 -0.6 6.1 -0.7 6.3 -1.4 3 -4.5 -20.1 -4.9 -59.6 -0.9 -78.2 5.4 -25.6 15 -42.9 33.7 -60.9 14.8 -14.2 32.8 -24.5 52 -29.6 8.5 -2.3 11.9 -2.6 25.8 -2.7 24.6 -0.1 39.9 4 57.8 15.7 17.8 11.6 27.7 26.5 31.4 47.7 4 22.7 -5.6 42.3 -25.4 51.8 -7.4 3.5 -8.3 3.7 -17.8 3.7 -9 0 -10.6 -0.3 -15.6 -2.9 -11.4 -5.7 -20.5 -16.7 -22.4 -26.8 -1.2 -6.3 1.2 -13.4 6.1 -18.6 l4.3 -4.5 5.8 0.6 c5.4 0.5 5.6 0.5 3.3 -0.8 -8.4 -4.7 -19.4 2.8 -22.1 15.1 -3.1 14 7.3 30.7 24.1 38.8 16.6 7.9 38.8 2.5 52.9 -12.8 13.2 -14.5 15.7 -38.3 6.6 -62.1 -0.4 -1.1 0.5 -0.2 2.2 2 6.1 8.3 15.5 14.4 24.6 16 4 0.8 4.4 0.3 2.2 -3.5 -2.4 -4.2 -1.9 -5.1 2 -3.4 9.2 3.8 23.5 2.3 35.9 -3.7 12.3 -6 19.3 -14.1 23.6 -27.2 2.3 -7 4.5 -9.3 8 -8.2 1.3 0.4 2 0.2 2 -0.7 0 -2.4 -1.7 -4 -5 -4.7 -3 -0.6 -3.3 -1 -5 -7.8 -4.3 -16.5 -12.7 -26.4 -27.3 -31.8 -5.2 -2 -6.4 -1.7 -4.8 1.3 0.9 1.8 0.6 2 -4.7 2.5 -18.2 1.9 -31.4 11 -32.9 22.7 l-0.6 4.1 3.6 -3.6 c4 -4 8 -4.5 16.3 -2 2.7 0.8 6.4 1.5 8.3 1.5 l3.3 0 -3.1 2.9 c-2.6 2.4 -3.1 3.7 -3.1 7.4 l0 4.4 4.4 -1.4 c3.8 -1.3 4.8 -1.3 8 0.1 2.9 1.2 4.2 2.7 6.1 6.8 2.9 6.3 3.1 10.9 0.6 16.3 -1.7 3.9 -8.1 10.5 -10.1 10.5 -0.6 0 -1 -0.9 -1 -2 0 -1.1 -0.2 -2 -0.4 -2 -0.2 0 -3.3 1.3 -6.8 3 -4.6 2.2 -7.7 3 -11.8 3 -7.9 0 -9.6 -1.6 -2.3 -2.2 8.2 -0.6 13.3 -3.4 16 -8.8 1.3 -2.4 2.1 -4.5 1.9 -4.7 -0.2 -0.2 -1.6 0.3 -3.2 1.2 -3.8 2 -4.4 1.9 -4.4 -0.5 0 -1.7 -0.5 -1.8 -4.9 -1.3 -7.9 0.9 -11.5 -0.3 -17.8 -5.8 -7.7 -6.7 -16 -11.3 -26.1 -14.5 l-8.3 -2.7 2.1 -2.1 2 -2.2 -13.2 0 c-12.1 0.1 -14.6 -0.3 -27.8 -3.6 -8 -2.1 -18.8 -4.2 -24 -4.9 -42.7 -5.2 -88.5 17.7 -113.8 56.9 -7.5 11.7 -14 30.3 -16.9 48.7 -1.9 12.3 -1.9 38.9 0.1 54.8 0.8 6.2 1.4 11.9 1.4 12.7 0.1 5 12.7 49.6 17.8 62.5 0.4 1.1 -2.8 -2.7 -7.1 -8.5 -10.1 -13.3 -29.1 -32.3 -42 -42.1 -36 -27 -72 -40.7 -118.8 -45.4 -25.7 -2.5 -40.4 -6.3 -58.2 -15 -25.1 -12.3 -40.7 -30.2 -48 -55 -3.3 -11.1 -3.7 -27 -1.1 -38 7.1 -29.5 33.9 -51.7 62.6 -51.8 10.4 -0.1 17.4 1.5 26.5 5.9 18.1 8.8 31.7 26.8 34.7 45.8 3 19.4 -6.5 37.7 -24 46.3 -7 3.5 -8.2 3.8 -16.1 3.8 -6.5 -0.1 -10 -0.6 -14.4 -2.4 -8.1 -3.2 -16.8 -11.5 -20.9 -19.9 -2.8 -5.7 -3.3 -7.6 -3.2 -14.2 0 -11.6 5.1 -19.9 15.1 -24.9 5.4 -2.7 14.2 -2.8 19.8 -0.2 8.6 3.8 15.6 15.5 14.1 23.3 -2.9 15.5 -22.6 19.1 -28.7 5.3 -1.2 -2.8 -1.7 -5.4 -1.3 -7 l0.6 -2.6 2.2 2 c3.1 2.9 7 2.7 9.5 -0.5 2.7 -3.5 2.6 -4.9 -0.5 -8.1 -3.2 -3.2 -7.6 -2.6 -11.9 1.7 -2.7 2.7 -3 3.7 -3 9.3 0 5.5 0.4 6.9 2.9 10.1 3.3 4.4 9.5 7.6 14.6 7.6 7.1 0 15.5 -6 18.2 -12.9 0.5 -1.4 0.9 -4.9 0.9 -7.8 0 -12.9 -11 -24.6 -24.6 -26 -8.5 -0.9 -15.8 1.9 -22.6 8.7 -7.1 7.1 -9.3 12.9 -8.7 23.8 0.5 9.9 3.8 17.2 11.3 25.1 13.2 13.9 30.9 17.3 48.1 9.2 24.7 -11.6 33.7 -41.8 20.3 -68.4 -15.1 -30 -49.4 -44.1 -79.8 -32.8 -11 4 -19.5 9.7 -27.3 18 -7.8 8.4 -12.1 15.5 -16.1 26.8 -3 8.4 -3.2 9.5 -3.1 23.8 0 13.7 0.2 15.7 2.8 23.5 10.2 31 32 51.3 67.2 62.9 l11.9 3.9 -6 0.6 c-35.5 3.8 -60.6 14.4 -78.6 33.2 -11.5 12.1 -17.2 22.3 -21.1 38.2 -3.2 12.4 -3.1 34.9 0 47.7 7.7 30.9 32.7 56.1 65.9 66.2 7.5 2.2 10.7 2.6 21.8 2.7 14.8 0.1 21.5 -1.3 33.1 -6.9 7.8 -3.8 17.2 -11.7 21 -17.6 4.2 -6.8 6.7 -15.7 6 -22.2 -0.8 -7.8 -4.6 -15 -9.8 -18.4 -3.6 -2.4 -5.2 -2.8 -11.3 -2.8 -6.3 0 -7.6 0.3 -10.8 2.8 -9.8 7.5 -10.2 20.4 -0.9 30 6.5 6.7 15.6 7.9 22.9 3.1 2.4 -1.5 2.5 -1.5 1.8 0.8 -4.7 15.3 -32.5 30.3 -52.5 28.2 -26.2 -2.7 -50.1 -15.4 -66.6 -35.2 -10.9 -13.2 -15.8 -24 -16.8 -37.2 l-0.6 -7.5 1.4 5 c5.4 20.3 15.3 33.2 29.6 38.6 l5.1 1.9 -1.7 -3.2 c-1.3 -2.5 -1.5 -4.5 -0.9 -9.7 1.1 -8.9 1.2 -21.7 0.2 -26.6 l-0.8 -4 2.1 2.5 c1.2 1.4 3.4 5.1 5 8.3 l2.8 5.8 3 -3.6 c6.5 -7.9 7.9 -19.9 3.5 -30 -9.2 -21.4 -9.6 -31.4 -1.6 -40.3 l3.3 -3.7 -2.7 6 c-3.9 8.9 -3.8 17.8 0.3 26.5 3.8 8 11.8 16.9 18.8 21 3 1.6 5.5 3 5.7 3 0.2 0 0.4 -5.1 0.4 -11.3 0.1 -14.6 1.1 -16.9 21.3 -47.6 4.4 -6.6 12.2 -13 20.7 -17 3.6 -1.7 6.8 -3.1 7.2 -3.1 0.4 0 -1.3 2.1 -3.9 4.8 -8.3 8.5 -12.3 20.7 -9.8 29.6 3.2 11.4 17.9 16.6 25.2 8.8 4.8 -5 4.8 -11.6 0.2 -17.1 -4.8 -5.8 -13.8 -4.8 -14.6 1.6 l-0.3 2.8 -1.8 -3.2 c-2.4 -4.5 -2.1 -9 1.1 -14.8 5.8 -10.6 15.4 -13.9 40.2 -13.9 17.5 -0.1 25.5 1.1 41.8 6 31.4 9.5 63.2 31.4 87.4 60.3 8.1 9.8 22.1 30.1 23.2 33.6 1.7 5.8 16.8 32.5 26.8 47.7 28.1 42.3 58.5 78.8 99.6 119.5 l20.3 20.1 -9.8 -5.5 c-25.4 -14.2 -57.9 -28.6 -85.7 -38 -17.2 -5.8 -46.1 -13.3 -57.1 -14.8 -20.4 -2.7 -29.4 -3.6 -45.3 -4.5 -47.1 -2.7 -98 5 -141.7 21.5 -22.9 8.6 -49.8 23.3 -67.7 37.1 -11.3 8.8 -26 13.4 -42.2 13.4 -19.2 0 -35.6 -6.9 -35.6 -15.1 0 -3.5 0.9 -5.9 2.3 -5.9 0.6 0 0.7 0.3 0.4 0.7 -1 0.9 1.3 3.3 3.1 3.3 2.3 0 5.2 -3 5.2 -5.3 0 -5.5 -7 -7.5 -11.1 -3.1 -2.5 2.7 -3.2 8.6 -1.5 13.4 0.8 2.3 0.7 2.4 -0.8 1.1 -2.7 -2.3 -5.8 -9 -7.2 -16.1 -1.8 -8.3 -1.8 -13.2 0 -17.5 1.4 -3.2 1.3 -3.5 -0.2 -3.5 -2.9 0.1 -9.6 3.6 -12.4 6.6 -1.5 1.6 -3.2 4.7 -3.7 6.9 -0.9 3.8 -0.9 3.8 -1 0.9 -0.1 -3.2 2.4 -7.6 7.1 -12.7 3.1 -3.3 4.2 -7.4 3.3 -11.8 l-0.7 -3.1 -2.2 2.1 c-2.9 2.8 -4 2.7 -2.2 -0.1 0.7 -1.3 1.7 -4.1 2.1 -6.3 0.4 -2.2 1.2 -4.6 1.7 -5.3 3.5 -4.1 -7.8 -1.1 -13.3 3.6 -2.9 2.5 -3.8 3 -3.1 1.5 1.7 -3.1 6.7 -7 13.6 -10.6 5.8 -3.1 6.6 -3.2 17.7 -3.2 11.1 0 11.7 0.1 16.5 3 4.7 3 9.4 9.1 10.9 14.4 0.7 2.3 0.7 2.3 -1.6 0.7 -8.2 -5.7 -18.5 4.9 -11.7 12.1 2.3 2.5 7.4 3.1 10.9 1.3 2.7 -1.5 4.9 -6.3 4.9 -10.7 -0.1 -8.4 -6.2 -16.2 -16.5 -20.9 -5 -2.3 -7.3 -2.8 -14 -2.7 -19.2 0.2 -32.6 10.3 -38.5 29.2 -2.5 7.9 -2.5 13.2 -0.1 21 6.4 20.5 32.1 35.5 63.2 36.8 16.1 0.7 27.2 -1.4 43.3 -8.2 1 -0.5 -2.3 3.2 -7.4 8.1 -35.3 34 -56.9 77.9 -64.1 130.4 -0.8 5.2 -1.4 18.5 -1.4 29.5 0 22.2 0.9 28.5 7.1 47.5 16.9 52.2 67.9 87.8 123.2 85.8 10.5 -0.4 14.1 -1 21.1 -3.3 17.3 -5.9 32.5 -19.3 40.6 -35.9 11.6 -23.7 9.5 -46 -5.5 -60 -7.6 -7 -14.8 -9.9 -25 -10 -9.6 -0.1 -15 2.6 -19.5 9.8 -2.4 4 -3 6 -3 10.7 0 5 0.4 6.2 2.9 8.8 1.7 1.7 3.4 3.1 3.9 3.1 0.5 0 -0.2 -0.9 -1.5 -2 -8.2 -6.4 -4.8 -21.2 6.2 -26.7 9.5 -4.9 24 -1.8 33.6 7 8.1 7.4 11.6 14.9 12.2 25.9 0.3 5.9 -0.1 11 -1.3 16.3 -5.2 23.4 -24.6 43.8 -47.5 50 -8.2 2.3 -22.3 2.9 -32.5 1.6 -28.7 -3.8 -51.5 -15 -72.1 -35.5 -25.1 -25 -35.8 -52.5 -35.7 -91.6 0.1 -42.2 12.5 -84.9 34 -117.5 20.8 -31.4 51.6 -58.2 88.3 -76.6 9.8 -4.9 26 -11.9 27.5 -11.9 0.3 0 -1.2 1.5 -3.3 3.4 l-3.7 3.4 3 0.7 c7.1 1.6 13.4 3.6 13.9 4.4 0.4 0.5 -1.3 2.1 -3.7 3.4 -15.2 8.9 -27.1 26.6 -33.3 49.3 -2.4 8.6 -2.7 11.9 -2.8 24.9 -0.1 13.1 0.2 15.9 2.2 22.5 3.2 10 6.7 16.7 14.4 27.5 7.7 10.8 8.8 12.6 8.8 15.7 0 3.2 -2.7 6.8 -5.1 6.8 -2.4 0 -2.4 1.2 -0.1 3.2 4.3 3.7 8.4 2.9 14.3 -2.9 l3.7 -3.5 10.3 5.1 c14.7 7.3 23.5 9.4 38.9 9.5 8.9 0 14.4 -0.4 19 -1.7 8.5 -2.2 23.4 -9.6 28.5 -14 l4 -3.5 -3 -1.2 c-1.6 -0.6 -4 -0.8 -5.3 -0.5 l-2.5 0.6 2.2 -3.3 c13.6 -20.9 20.3 -44.6 17.1 -60.3 -1.8 -9.1 -6.2 -17.3 -12.4 -23.4 l-5.5 -5.4 1.4 4.8 c0.8 2.6 1.5 7.3 1.5 10.4 0 8.2 -2.8 12.3 -13.5 20.3 -5 3.6 -11 8.9 -13.5 11.7 l-4.5 5 0 -5.7 c0 -7.2 -2.5 -11.6 -8.9 -15.9 -5.7 -3.9 -7.6 -4.1 -7.6 -0.9 0 6.8 -5.2 14.9 -11.4 17.7 -10.4 4.7 -27.7 0 -37.7 -10.3 -7.4 -7.7 -12 -21.8 -10.5 -32.3 l0.8 -4.7 2.1 2 c1.2 1.1 3.2 2.3 4.5 2.7 2.1 0.6 2.2 0.3 2.2 -4.2 0 -6.9 2.4 -17.2 5.5 -23.7 3 -6.3 9.8 -14.2 14.6 -17 l3.2 -1.9 -3.7 4.8 c-8.5 11.3 -12.7 24.3 -10.6 33.8 1.1 5.1 6.4 14.7 8.1 14.7 0.5 0 0.9 -1 0.9 -2.3 0 -1.3 0.7 -4.4 1.6 -7 l1.6 -4.7 2.5 2 c3 2.3 4.3 2.5 4.3 0.7 0 -1.7 7.9 -13.4 15.7 -23.3 13.6 -17.2 42.2 -34.3 82.3 -49 21.7 -7.9 23.3 -8.1 47.1 -4 30.6 5.2 63.3 15 91.4 27.5 l7 3.1 -5.5 -0.7 c-10.7 -1.5 -35 -0.8 -42 1.1 -39.8 11 -65.1 49 -57.6 86.6 8.5 42.3 50.6 64 88.2 45.4 20.8 -10.2 32.2 -30.3 29.3 -51.4 -3.5 -24.7 -26.5 -40.7 -49.5 -34.5 -7.8 2.1 -16.8 7.7 -20.8 12.9 -11.4 15 -7.6 36.1 7.9 44.1 4.5 2.3 7 3 11.4 2.9 15.6 -0.3 27.7 -13.3 24.2 -26.2 -1.6 -6 -4.4 -9.8 -9.1 -12.2 -12.1 -6.2 -26.7 4.1 -23.6 16.5 1.6 6.4 9 8.8 12.2 3.9 3.2 -4.9 -1.8 -11.4 -7.1 -9.4 -1.9 0.7 -2.2 0.6 -1.8 -1 1.4 -5.5 9.4 -9.4 15.8 -8 6.7 1.5 10.5 6.9 10.5 14.8 0 15.3 -21.1 23.7 -34.5 13.7 -1.7 -1.2 -4.4 -4.7 -6 -7.6 -6.2 -11.2 -2.9 -25.5 7.7 -34 6.8 -5.4 14.3 -7.9 23.3 -7.9 14.5 0 25.4 6.9 32 20.4 12.5 25.1 -2.7 54.4 -33 63.9 -9.8 3 -25.3 2.9 -34.5 -0.2 -15.3 -5.3 -26.2 -15.2 -33.9 -30.7 -6.3 -12.7 -8.1 -30.1 -4.7 -44.6 4.6 -19.6 19.2 -37.6 38.8 -47.8 26.6 -13.9 64.2 -10.8 98.8 8 45 24.6 86 53.7 137.6 98.2 17 14.6 50.4 44.6 50.4 45.3 0 0.1 -4.4 -1.6 -9.8 -4 -65.8 -29 -138.9 -23 -197.6 16 -37.5 25 -62.2 60.5 -71.6 103.3 -9.4 42.3 -0.6 89.7 23.3 125.7 15.2 22.8 37.3 41.4 60.5 50.7 50.1 20.2 106.5 9.2 142.5 -27.7 20.7 -21.2 31.6 -52.3 28.7 -81.5 -2.2 -21.1 -8.2 -37.6 -18.8 -51.6 -14.1 -18.6 -30.7 -29.3 -52.4 -33.8 -8.1 -1.7 -22.6 -2 -29.3 -0.7 -2.4 0.5 0.9 0.6 8 0.3 13.6 -0.5 24.3 1.1 35.2 5.5 6.8 2.7 18.4 10 24.3 15.2 l3.5 3.1 -7.7 -3.5 c-10.3 -4.7 -20.5 -6.3 -29.5 -4.6 -19.6 3.6 -33.9 17.6 -37.4 36.6 -2.6 14.2 5.1 31 18.1 39.4 14.3 9.2 29.2 8.9 40.4 -0.9 4.5 -4 8.4 -11.4 9.2 -17.4 1.6 -11.5 -7.4 -24.7 -19.1 -28.1 -4.7 -1.4 -6.5 -1.5 -10.3 -0.5 -6.2 1.5 -10.5 4.9 -13.1 10.3 -2.6 5.3 -2.6 9 -0.2 14.2 3.6 8.1 11.4 11.9 19.1 9.6 10.3 -3.1 11.2 -17.6 1.4 -21.7 -4.2 -1.8 -7.8 -1 -10.5 2.4 -2.4 3.1 -2.2 5 0.8 6.9 1.9 1.3 2.4 1.2 4.3 -0.7 2 -2 2 -2.3 0.5 -4.6 -1.5 -2.4 -1.5 -2.4 1.4 -2.4 3.7 0 8.1 4.9 8.1 9 0 3.8 -4.2 8.6 -8.1 9.4 -4.5 0.9 -11.1 -2.3 -13.7 -6.6 -4.5 -7.2 -2.1 -16.3 5.7 -21.5 8.3 -5.6 21.5 -1 27.8 9.7 2.8 4.5 3.3 6.4 3.3 11.5 0 20.1 -22 31.8 -41.3 22 -7.2 -3.6 -15 -11.7 -18.5 -19.2 -2.3 -5 -2.7 -7.1 -2.7 -15.3 0 -8.2 0.4 -10.3 2.7 -15.3 4 -8.5 12.3 -16.7 21.1 -20.8 9.6 -4.4 22 -5.2 32.4 -2.1 13.8 4.2 25.2 14.2 32.1 27.8 22.5 44.8 9.9 98.7 -30 128.4 -22 16.3 -48.3 25 -75.8 25 -50.4 0 -93.1 -27.3 -116.7 -74.5 -8.6 -17.2 -14.6 -37 -15.7 -51.8 l-0.5 -7.2 1.3 7.5 c4.7 26.2 14.6 44.7 35.9 66.6 14.2 14.8 22 20.9 34.2 26.9 12.7 6.3 19.6 8 33.5 7.9 14 0 20.8 -1.7 34.5 -8.4 15.3 -7.4 27.2 -18.4 33.3 -30.5 3.3 -6.7 3.5 -9.3 0.2 -3.6 -4.4 7.8 -9.3 13.9 -15.3 18.9 -19.2 15.9 -47.3 21.7 -71.6 14.6 -11.6 -3.4 -27.3 -12.8 -35.8 -21.6 l-4.2 -4.3 10.7 5.2 c14.2 7 21.4 8.7 31.9 7.9 11.8 -0.9 14.9 -2.5 5 -2.5 -9.7 -0.1 -20 -2.4 -25.2 -5.6 -4.5 -2.8 -4.4 -2.8 4.2 -1.6 13 1.9 28.2 -3.7 37.7 -14 7.2 -7.7 7.5 -10.8 0.5 -4.5 -10.4 9.4 -25.2 13.8 -38.9 11.7 -24.5 -3.8 -42.5 -18.3 -55.8 -44.6 -6.8 -13.5 -9.9 -31.4 -8.7 -49.2 0.4 -5.7 1 -10.3 1.5 -10.3 0.4 0 1 3.1 1.3 6.8 1.6 19.9 11.3 41.9 25 56.9 8.9 9.7 24.7 19.3 31.7 19.2 2.1 0 1.9 -0.2 -1.2 -1.3 -16 -5.7 -33.1 -25.3 -41.8 -47.7 -10.5 -27.2 -11.7 -47.6 -4.3 -69.8 5.5 -16.4 18.4 -38.2 36.2 -61.1 7.1 -9.1 9.5 -11.3 17.9 -16.8 19.5 -12.9 45.5 -23.8 66.8 -28.1 17.2 -3.5 28.6 -4.4 48.8 -3.8 23.6 0.7 35.4 2.7 57.6 9.9 17.4 5.6 47.8 21.5 53.6 27.9 1.7 2 1.5 1.9 -2.2 -0.4 -14.4 -9 -35.5 -17.5 -50.1 -20.3 -21.2 -4 -51.1 2.2 -73.3 15.2 -9.2 5.3 -19.9 16.3 -23.9 24.6 -1.8 3.7 -3.1 7.2 -2.9 7.8 0.2 0.6 3.7 -1.9 7.8 -5.5 8.5 -7.5 22.5 -17.2 31.2 -21.6 3.1 -1.6 6 -2.9 6.4 -2.9 0.3 0 -0.7 1.5 -2.2 3.3 -2.9 3.4 -5.4 8.6 -5.4 11.3 0 1.1 1.5 0.3 4.8 -2.8 6.4 -5.7 20.7 -13.1 30.7 -15.9 6.3 -1.8 10.5 -2.3 20 -2.3 14.2 0.1 24.5 2.2 38.4 8.3 8.7 3.7 28.6 14.9 27.9 15.6 -0.2 0.2 -2.8 -0.5 -5.8 -1.5 -18.3 -6.2 -39.1 -4 -53.5 5.5 -7.3 4.9 -7.6 5.8 -1 2.4 7.4 -3.7 17.8 -5.3 30 -4.6 5.5 0.4 11.4 1.1 13 1.6 2.6 0.8 2.1 0.9 -3.5 1 -18 0.3 -46.4 10.9 -59 22 l-3.5 3.1 5.9 -3.5 c20.7 -12.2 54.8 -17.5 76.2 -11.9 12.5 3.2 28.1 11.6 37.5 20.1 19.8 17.9 37.4 56.2 45.5 99.3 0.2 1.4 -1.6 -1.2 -4 -5.8 -7.3 -13.3 -14.5 -23.1 -24.2 -32.7 -9.4 -9.3 -16.2 -14 -26.1 -18 -5.6 -2.3 -19.1 -5.1 -20 -4.1 -0.3 0.2 2.4 2.3 5.9 4.7 13.6 9.2 28.4 22.2 37.9 33.4 3.8 4.3 6.7 8.1 6.5 8.3 -0.2 0.2 -2.3 -0.7 -4.7 -1.9 -6.2 -3.1 -9.9 -4 -13.7 -3.3 l-3.4 0.7 3.4 1.5 c4 1.9 16.5 14.3 23.1 22.9 6 7.9 13.1 22.5 15.8 32.8 2.8 10.5 2.7 20.9 -0.1 45.5 -1.8 16.4 -2.8 21.4 -6.2 31.5 -4.2 12.8 -6.3 17.4 -5 11.5 0.4 -1.9 0.7 -9.8 0.7 -17.5 0 -16.1 -1.7 -23.3 -8.7 -36.7 -3.8 -7.4 -13.2 -18.3 -17.9 -20.9 -1.5 -0.8 -1.1 0 1.3 2.5 8.4 8.6 15.4 28.4 16.3 46.1 l0.5 9 -2 -7 c-2.7 -9 -11.7 -27.7 -17.7 -36.8 -5.1 -7.7 -17.7 -21.3 -25.8 -28 -4.9 -4.1 -4.8 -4 1.5 2.9 16.8 17.9 30.5 46.7 34.6 72.5 1.4 8.8 1.5 12.1 0.5 21.5 -1.8 18 -6.7 33.8 -14.4 46.5 -6 9.9 -38.1 51.2 -47.2 60.8 l-9 9.5 5.5 -3 c4 -2.1 11 -8.5 25.7 -23.4z m-562 -294.5 c2.9 -2 3.7 -5.9 1.8 -9.5 -2.8 -5.4 -10.6 -5.3 -13 0.2 -3.1 7.5 4.6 13.9 11.2 9.3z m21.8 -7.5 c0 -1.8 -0.6 -2.6 -2.3 -2.8 -1.3 -0.2 -2.5 0.3 -2.8 1.2 -1 2.6 0.4 4.8 2.8 4.4 1.7 -0.2 2.3 -1 2.3 -2.8z m8.3 -24.3 c0.2 -1 -0.3 -1.7 -1.2 -1.7 -1.8 0 -2.9 1.6 -2.1 3.1 0.9 1.4 2.9 0.6 3.3 -1.4z m334 -112.9 c2 -0.5 4.7 -0.9 6 -0.9 1.3 0.1 3.9 -0.6 5.9 -1.4 1.9 -0.8 3.9 -1.2 4.4 -1 0.4 0.3 2.7 -0.6 5 -2 2.2 -1.5 4.3 -2.4 4.6 -2.1 0.3 0.3 2.2 -0.3 4.3 -1.4 2.1 -1.1 4 -1.7 4.3 -1.4 0.9 0.9 12.1 -7.1 15.7 -11.3 l3.4 -3.8 -8.5 -0.3 c-13.6 -0.5 -28.1 3.1 -43.5 10.8 -9 4.6 -6.4 2.1 4.1 -3.9 14.1 -8 36.2 -13.1 44.4 -10.3 2.8 1 3.1 0.9 3.1 -0.9 0 -7.8 -17 -16 -26.9 -13.1 -2.1 0.7 -5 1.2 -6.4 1.2 -1.4 0 -3.2 0.7 -4.1 1.5 -0.8 0.8 -2.5 1.5 -3.8 1.6 -2.4 0.1 -13.1 3.7 -11.3 3.8 0.5 0.1 -1.4 1.7 -4.4 3.7 -2.9 2 -5.6 4.4 -5.8 5.4 -0.3 1 -1.1 2.1 -1.8 2.4 -3.1 1.2 -6.9 9.9 -9.9 22.8 -0.4 1.6 0.6 1.7 8.5 1.7 4.9 -0.1 10.6 -0.6 12.7 -1.1z m-712.1 -128.3 c6.1 -1.8 9.9 -4.6 10.5 -7.8 0.5 -2.6 -1.7 -4.7 -4.9 -4.7 -2.5 0 -11.3 5.2 -14.2 8.3 -4.7 5.1 -0.9 7 8.6 4.2z m309.1 -65.2 c-4.3 -0.2 -11.3 -0.2 -15.5 0 -4.3 0.1 -0.8 0.3 7.7 0.3 8.5 0 12 -0.2 7.8 -0.3z m252.2 -7.3 c9.2 -1.2 16.4 -3.3 20.8 -6 l3.3 -2 -8.6 -4.5 c-19.2 -10.1 -36.2 -13.9 -63.3 -14 -19.8 0 -19.3 -0.7 1.6 -2.5 23.4 -2 44 1.4 61.2 10 4.3 2.2 8.5 4.9 9.4 6.2 2.2 3.1 3.1 1.6 3.1 -5 0 -7.1 -2.4 -12.1 -8.5 -18.3 -6.1 -6.1 -16.2 -12.8 -16.7 -11.2 -0.4 1 -1 1 -3.1 -0.1 -5.1 -2.6 -14.4 -4.8 -15.2 -3.7 -0.4 0.8 -2 0.7 -5.1 -0.4 -5.4 -2 -18.5 -3.3 -17.6 -1.8 0.4 0.6 -1.9 1.2 -6.1 1.6 -7.4 0.6 -13.5 2.4 -12.7 3.7 0.3 0.5 -0.9 1.2 -2.7 1.5 -1.8 0.4 -4.9 1.5 -6.8 2.5 -3.9 2 -11.5 7.8 -11.6 8.8 0 0.4 -1.6 2.4 -3.6 4.4 -2 2.1 -4.6 5.1 -5.8 6.8 l-2.1 3 6.3 3 c3.5 1.7 6.9 3 7.6 3 0.6 0 1.2 0.4 1.2 0.9 0 1.1 11.4 5.7 16.6 6.7 2.1 0.4 4.2 1.1 4.5 1.7 0.4 0.5 4.1 1.2 8.2 1.5 6 0.4 7.4 0.7 7 1.9 -0.4 1 0.1 1.3 1.8 0.9 6.2 -1.3 15.1 -1.7 14.4 -0.7 -0.4 0.7 1.6 1.1 6 1.1 4.2 0 6.4 0.4 6 1 -0.8 1.2 0.9 1.2 10.5 0z m31.3 -48.2 c-1.2 -3.4 -0.5 -17.4 1.2 -24.3 2.2 -8.4 7.3 -19.7 12.8 -28.5 6.8 -10.9 10.7 -15.1 5.3 -5.9 -9.2 15.8 -14.5 31.1 -15.2 43.4 -0.3 4.4 -0.6 9.9 -0.8 12.3 -0.2 2.3 0.1 4.2 0.6 4.2 1.5 0 10.8 -9.2 14.1 -13.9 1.6 -2.4 3.1 -5.5 3.3 -6.8 0.1 -1.3 0.8 -3.1 1.5 -3.9 0.6 -0.8 1.3 -2.5 1.4 -3.9 0.2 -1.3 1.7 -4.4 3.4 -6.8 1.6 -2.4 2.8 -4.7 2.5 -5 -0.3 -0.3 0.3 -3.1 1.5 -6.1 1.1 -3.1 1.7 -5.6 1.2 -5.6 -0.5 0 -0.2 -1.4 0.6 -3.2 1.1 -2.2 1.8 -6.9 2.1 -15 l0.4 -11.8 -3.4 0.6 c-11.7 2.2 -19.7 5.4 -23.2 9.3 -1.1 1.2 -2.4 2.1 -3.1 2.1 -1.5 0 -5.7 4.6 -8.4 9 -1.1 1.9 -2.4 3.3 -2.8 3.1 -1 -0.4 -5.2 10.6 -5.2 13.7 -0.1 1.3 -0.5 2.1 -1 1.8 -1 -0.6 -3.1 7.7 -3.1 12.2 0 2.2 -0.2 2.4 -1.1 1.2 -0.8 -1.1 -0.9 0.1 -0.5 4.5 1.1 12.7 5.4 21.2 12.1 24.1 4.2 1.8 4.8 1.7 3.8 -0.8z m-522.3 -84.3 c-2.4 -2.5 -4.6 -4.5 -4.9 -4.5 -0.3 0 1.5 2 3.9 4.5 2.4 2.5 4.6 4.5 4.9 4.5 0.3 0 -1.5 -2 -3.9 -4.5z m-40.2 -50.5 c0.1 -1.9 -0.9 -3.8 -3.4 -6.4 -4.3 -4.4 -6.3 -3.7 -4.5 1.6 2.2 6.8 7.5 9.9 7.9 4.8z m252 -321.2 c-1.1 -3 -7.8 -6.8 -12.1 -6.8 -3.5 0 -3.5 1.9 0.1 5.2 3.9 3.7 6.3 4.7 9.8 4.5 2.9 -0.2 3.1 -0.4 2.2 -2.9z m292.9 -46.7 c2.6 -3.9 4 -9.8 2.6 -11.2 -0.7 -0.7 -2 0 -3.9 1.9 -4.2 4.1 -5.8 7.6 -5 10.7 0.9 3.5 3.4 3 6.3 -1.4z"/>
  <path d="M665.4 996 c0 -6.3 0.1 -8.9 0.3 -5.7 0.2 3.1 0.2 8.3 0 11.5 -0.2 3.1 -0.3 0.5 -0.3 -5.8z"/>
  <path d="M666.2 978 c0 -1.9 0.2 -2.7 0.5 -1.7 0.2 0.9 0.2 2.5 0 3.5 -0.3 0.9 -0.5 0.1 -0.5 -1.8z"/>
  <path d="M667.1 971.5 c-0.1 -3 4.4 -21 7.5 -29.5 6.1 -16.9 19 -38.9 29.4 -50 4.7 -5 4.8 -5.1 1.7 -1 -16.4 21.4 -32.2 53.7 -37.1 76.3 -0.8 3.4 -1.4 5.3 -1.5 4.2z"/>
  <path d="M859.5 755.4 c-14 -11.3 -19.2 -16.2 -30.2 -28.8 -20.8 -23.7 -42.1 -53 -55.2 -76.2 -13.5 -24 -27.6 -57.2 -32.7 -77.1 -7.6 -30.1 -3.6 -66.4 10.2 -91 9.9 -17.8 22 -27.9 43 -36.1 l5 -2 -7.1 14.1 c-10 20.1 -17.4 43.3 -20.1 63.6 -6.5 49.2 8.5 106 43.4 164.1 12.9 21.6 36.5 55.6 49.5 71.3 2.1 2.6 3.5 4.7 3 4.6 -0.4 0 -4.4 -3 -8.8 -6.5z"/>
 </g>
</svg>